  0
SECTION
  2
HEADER
  9
$ACADVER
  1
AC1014
  9
$EXTMIN
 10
70.16401489310567
 20
112.369642808922
 30
0.0
  9
$EXTMAX
 10
277.0834797641999
 20
227.1366601424358
 30
0.0
  9
$HANDSEED
  5
56
  9
$MEASUREMENT
 70
0
  0
ENDSEC
  0
SECTION
  2
TABLES
  0
TABLE
  2
VPORT
  5
8
330
0
100
AcDbSymbolTable
 70
     4
  0
VPORT
  5
2E
330
8
100
AcDbSymbolTableRecord
100
AcDbViewportTableRecord
  2
*ACTIVE
 70
     0
 10
0.0
 20
0.0
 11
1.0
 21
1.0
 12
209.9999999999999
 22
148.4999999999999
 13
0.0
 23
0.0
 14
10.0
 24
10.0
 15
10.0
 25
10.0
 16
0.0
 26
0.0
 36
1.0
 17
0.0
 27
0.0
 37
0.0
 40
340.9950045922664
 41
1.239944521497919
 42
50.0
 43
0.0
 44
0.0
 50
0.0
 51
0.0
 71
     0
 72
   100
 73
     1
 74
     3
 75
     0
 76
     0
 77
     0
 78
     0
  0
ENDTAB
  0
TABLE
  2
LTYPE
  5
5
330
0
100
AcDbSymbolTable
 70
     1
  0
LTYPE
  5
14
330
5
100
AcDbSymbolTableRecord
100
AcDbLinetypeTableRecord
  2
BYBLOCK
 70
     0
  3

 72
    65
 73
     0
 40
0.0
  0
LTYPE
  5
15
330
5
100
AcDbSymbolTableRecord
100
AcDbLinetypeTableRecord
  2
BYLAYER
 70
     0
  3

 72
    65
 73
     0
 40
0.0
  0
LTYPE
  5
16
330
5
100
AcDbSymbolTableRecord
100
AcDbLinetypeTableRecord
  2
CONTINUOUS
 70
     0
  3
Solid line
 72
    65
 73
     0
 40
0.0
  0
ENDTAB
  0
TABLE
  2
LAYER
  5
2
330
0
100
AcDbSymbolTable
 70
1
  0
LAYER
  5
10
330
2
100
AcDbSymbolTableRecord
100
AcDbLayerTableRecord
  2
0
 70
     0
 62
     7
  6
CONTINUOUS
  0
ENDTAB
  0
TABLE
  2
STYLE
  5
3
330
0
100
AcDbSymbolTable
 70
     1
  0
STYLE
  5
11
330
3
100
AcDbSymbolTableRecord
100
AcDbTextStyleTableRecord
  2
STANDARD
 70
     0
 40
0.0
 41
1.0
 50
0.0
 71
     0
 42
2.5
  3
txt
  4

  0
ENDTAB
  0
TABLE
  2
VIEW
  5
6
330
0
100
AcDbSymbolTable
 70
     0
  0
ENDTAB
  0
TABLE
  2
UCS
  5
7
330
0
100
AcDbSymbolTable
 70
     0
  0
ENDTAB
  0
TABLE
  2
APPID
  5
9
330
0
100
AcDbSymbolTable
 70
     2
  0
APPID
  5
12
330
9
100
AcDbSymbolTableRecord
100
AcDbRegAppTableRecord
  2
ACAD
 70
     0
  0
APPID
  5
2B
330
9
100
AcDbSymbolTableRecord
100
AcDbRegAppTableRecord
  2
URBANX
 70
     0
  0
ENDTAB
  0
TABLE
  2
DIMSTYLE
  5
A
330
0
100
AcDbSymbolTable
 70
     1
  0
DIMSTYLE
105
27
330
A
100
AcDbSymbolTableRecord
100
AcDbDimStyleTableRecord
  2
ISO-25
 70
     0
  3

  4

  5

  6

  7

 40
1.0
 41
2.5
 42
0.625
 43
3.75
 44
1.25
 45
0.0
 46
0.0
 47
0.0
 48
0.0
140
2.5
141
2.5
142
0.0
143
0.03937007874016
144
1.0
145
0.0
146
1.0
147
0.625
 71
     0
 72
     0
 73
     0
 74
     0
 75
     0
 76
     0
 77
     1
 78
     8
170
     0
171
     3
172
     1
173
     0
174
     0
175
     0
176
     0
177
     0
178
     0
270
     2
271
     2
272
     2
273
     2
274
     3
340
11
275
     0
280
     0
281
     0
282
     0
283
     0
284
     8
285
     0
286
     0
287
     3
288
     0
  0
ENDTAB
  0
TABLE
  2
BLOCK_RECORD
  5
1
330
0
100
AcDbSymbolTable
 70
     1
  0
BLOCK_RECORD
  5
1F
102
{ACAD_XDICTIONARY
360
52
102
}
330
1
100
AcDbSymbolTableRecord
100
AcDbBlockTableRecord
  2
*MODEL_SPACE
  0
BLOCK_RECORD
  5
1B
102
{ACAD_XDICTIONARY
360
50
102
}
330
1
100
AcDbSymbolTableRecord
100
AcDbBlockTableRecord
  2
*PAPER_SPACE
  0
ENDTAB
  0
ENDSEC
  0
SECTION
  2
BLOCKS
  0
BLOCK
  5
20
330
1F
100
AcDbEntity
  8
0
100
AcDbBlockBegin
  2
*MODEL_SPACE
 70
     0
 10
0.0
 20
0.0
 30
0.0
  3
*MODEL_SPACE
  1

  0
ENDBLK
  5
21
330
1F
100
AcDbEntity
  8
0
100
AcDbBlockEnd
  0
BLOCK
  5
1C
330
1B
100
AcDbEntity
 67
     1
  8
0
100
AcDbBlockBegin
  2
*PAPER_SPACE
  1

  0
ENDBLK
  5
1D
330
1B
100
AcDbEntity
 67
     1
  8
0
100
AcDbBlockEnd
  0
ENDSEC
  0
SECTION
  2
ENTITIES
  0
SPLINE
  5
ff
100
AcDbEntity
  8
0
100
AcDbSpline
210
0.0
220
0.0
230
1.0
 62
     233
 70
     0
 71
     3
 72
     8
 73
4
 40
0.0
 40
0.0
 40
0.0
 40
0.0
 40
1.0
 40
1.0
 40
1.0
 40
1.0
 10
1.28684
 20
0.00813803
 30
0.0
 10
1.28369
 20
0.0122613
 30
0.0
 10
1.25977
 20
0.0185547
 30
0.0
 10
1.23372
 20
0.0237631
 30
0.0
  0
SPLINE
  5
100
100
AcDbEntity
  8
0
100
AcDbSpline
210
0.0
220
0.0
230
1.0
 62
     233
 70
     0
 71
     3
 72
     8
 73
4
 40
0.0
 40
0.0
 40
0.0
 40
0.0
 40
1.0
 40
1.0
 40
1.0
 40
1.0
 10
1.23372
 20
0.0237631
 30
0.0
 10
1.16287
 20
0.0372721
 30
0.0
 10
1.04102
 20
0.0997721
 30
0.0
 10
0.96289
 20
0.164388
 30
0.0
  0
SPLINE
  5
101
100
AcDbEntity
  8
0
100
AcDbSpline
210
0.0
220
0.0
230
1.0
 62
     233
 70
     0
 71
     3
 72
     8
 73
4
 40
0.0
 40
0.0
 40
0.0
 40
0.0
 40
1.0
 40
1.0
 40
1.0
 40
1.0
 10
0.96289
 20
0.164388
 30
0.0
 10
0.879557
 20
0.233128
 30
0.0
 10
0.810818
 20
0.318522
 30
0.0
 10
0.752442
 20
0.426867
 30
0.0
  0
SPLINE
  5
102
100
AcDbEntity
  8
0
100
AcDbSpline
210
0.0
220
0.0
230
1.0
 62
     233
 70
     0
 71
     3
 72
     8
 73
4
 40
0.0
 40
0.0
 40
0.0
 40
0.0
 40
1.0
 40
1.0
 40
1.0
 40
1.0
 10
0.752442
 20
0.426867
 30
0.0
 10
0.728515
 20
0.470594
 30
0.0
 10
0.704536
 20
0.508137
 30
0.0
 10
0.698296
 20
0.5102
 30
0.0
  0
SPLINE
  5
103
100
AcDbEntity
  8
0
100
AcDbSpline
210
0.0
220
0.0
230
1.0
 62
     233
 70
     0
 71
     3
 72
     8
 73
4
 40
0.0
 40
0.0
 40
0.0
 40
0.0
 40
1.0
 40
1.0
 40
1.0
 40
1.0
 10
0.698296
 20
0.5102
 30
0.0
 10
0.685818
 20
0.514378
 30
0.0
 10
0.661838
 20
0.449761
 30
0.0
 10
0.637858
 20
0.350803
 30
0.0
  0
SPLINE
  5
104
100
AcDbEntity
  8
0
100
AcDbSpline
210
0.0
220
0.0
230
1.0
 62
     233
 70
     0
 71
     3
 72
     8
 73
4
 40
0.0
 40
0.0
 40
0.0
 40
0.0
 40
1.0
 40
1.0
 40
1.0
 40
1.0
 10
0.637858
 20
0.350803
 30
0.0
 10
0.617025
 20
0.262261
 30
0.0
 10
0.603515
 20
0.235189
 30
0.0
 10
0.560818
 20
0.194553
 30
0.0
  0
SPLINE
  5
105
100
AcDbEntity
  8
0
100
AcDbSpline
210
0.0
220
0.0
230
1.0
 62
     233
 70
     0
 71
     3
 72
     8
 73
4
 40
0.0
 40
0.0
 40
0.0
 40
0.0
 40
1.0
 40
1.0
 40
1.0
 40
1.0
 10
0.560818
 20
0.194553
 30
0.0
 10
0.528483
 20
0.163303
 30
0.0
 10
0.527453
 20
0.163303
 30
0.0
 10
0.406629
 20
0.163303
 30
0.0
  0
SPLINE
  5
106
100
AcDbEntity
  8
0
100
AcDbSpline
210
0.0
220
0.0
230
1.0
 62
     233
 70
     0
 71
     3
 72
     8
 73
4
 40
0.0
 40
0.0
 40
0.0
 40
0.0
 40
1.0
 40
1.0
 40
1.0
 40
1.0
 10
0.406629
 20
0.163303
 30
0.0
 10
0.289985
 20
0.163303
 30
0.0
 10
0.281629
 20
0.165419
 30
0.0
 10
0.221192
 20
0.196669
 30
0.0
  0
SPLINE
  5
107
100
AcDbEntity
  8
0
100
AcDbSpline
210
0.0
220
0.0
230
1.0
 62
     233
 70
     0
 71
     3
 72
     8
 73
4
 40
0.0
 40
0.0
 40
0.0
 40
0.0
 40
1.0
 40
1.0
 40
1.0
 40
1.0
 10
0.221192
 20
0.196669
 30
0.0
 10
0.141004
 20
0.238336
 30
0.0
 10
0.0649414
 20
0.314344
 30
0.0
 10
0.0326606
 20
0.383137
 30
0.0
  0
SPLINE
  5
108
100
AcDbEntity
  8
0
100
AcDbSpline
210
0.0
220
0.0
230
1.0
 62
     233
 70
     0
 71
     3
 72
     8
 73
4
 40
0.0
 40
0.0
 40
0.0
 40
0.0
 40
1.0
 40
1.0
 40
1.0
 40
1.0
 10
0.0326606
 20
0.383137
 30
0.0
 10
0.0024414
 20
0.449761
 30
0.0
 10
-0.00900608
 20
0.568522
 30
0.0
 10
0.00764974
 20
0.652886
 30
0.0
  0
SPLINE
  5
109
100
AcDbEntity
  8
0
100
AcDbSpline
210
0.0
220
0.0
230
1.0
 62
     233
 70
     0
 71
     3
 72
     8
 73
4
 40
0.0
 40
0.0
 40
0.0
 40
0.0
 40
1.0
 40
1.0
 40
1.0
 40
1.0
 10
0.00764974
 20
0.652886
 30
0.0
 10
0.0388997
 20
0.811253
 30
0.0
 10
0.0983074
 20
1.03
 30
0.0
 10
0.186849
 20
1.31646
 30
0.0
  0
SPLINE
  5
10a
100
AcDbEntity
  8
0
100
AcDbSpline
210
0.0
220
0.0
230
1.0
 62
     233
 70
     0
 71
     3
 72
     8
 73
4
 40
0.0
 40
0.0
 40
0.0
 40
0.0
 40
1.0
 40
1.0
 40
1.0
 40
1.0
 10
0.186849
 20
1.31646
 30
0.0
 10
0.208712
 20
1.3904
 30
0.0
 10
0.246203
 20
1.51226
 30
0.0
 10
0.270182
 20
1.58729
 30
0.0
  0
SPLINE
  5
10b
100
AcDbEntity
  8
0
100
AcDbSpline
210
0.0
220
0.0
230
1.0
 62
     233
 70
     0
 71
     3
 72
     8
 73
4
 40
0.0
 40
0.0
 40
0.0
 40
0.0
 40
1.0
 40
1.0
 40
1.0
 40
1.0
 10
0.270182
 20
1.58729
 30
0.0
 10
0.293078
 20
1.66331
 30
0.0
 10
0.344129
 20
1.82688
 30
0.0
 10
0.383735
 20
1.94976
 30
0.0
  0
SPLINE
  5
10c
100
AcDbEntity
  8
0
100
AcDbSpline
210
0.0
220
0.0
230
1.0
 62
     233
 70
     0
 71
     3
 72
     8
 73
4
 40
0.0
 40
0.0
 40
0.0
 40
0.0
 40
1.0
 40
1.0
 40
1.0
 40
1.0
 10
0.383735
 20
1.94976
 30
0.0
 10
0.423286
 20
2.07269
 30
0.0
 10
0.498318
 20
2.30707
 30
0.0
 10
0.550401
 20
2.4706
 30
0.0
  0
SPLINE
  5
10d
100
AcDbEntity
  8
0
100
AcDbSpline
210
0.0
220
0.0
230
1.0
 62
     233
 70
     0
 71
     3
 72
     8
 73
4
 40
0.0
 40
0.0
 40
0.0
 40
0.0
 40
1.0
 40
1.0
 40
1.0
 40
1.0
 10
0.550401
 20
2.4706
 30
0.0
 10
0.602485
 20
2.63417
 30
0.0
 10
0.687879
 20
2.89876
 30
0.0
 10
0.738932
 20
3.05914
 30
0.0
  0
SPLINE
  5
10e
100
AcDbEntity
  8
0
100
AcDbSpline
210
0.0
220
0.0
230
1.0
 62
     233
 70
     0
 71
     3
 72
     8
 73
4
 40
0.0
 40
0.0
 40
0.0
 40
0.0
 40
1.0
 40
1.0
 40
1.0
 40
1.0
 10
0.738932
 20
3.05914
 30
0.0
 10
0.791015
 20
3.21957
 30
0.0
 10
0.83789
 20
3.36436
 30
0.0
 10
0.843099
 20
3.38206
 30
0.0
  0
SPLINE
  5
10f
100
AcDbEntity
  8
0
100
AcDbSpline
210
0.0
220
0.0
230
1.0
 62
     233
 70
     0
 71
     3
 72
     8
 73
4
 40
0.0
 40
0.0
 40
0.0
 40
0.0
 40
1.0
 40
1.0
 40
1.0
 40
1.0
 10
0.843099
 20
3.38206
 30
0.0
 10
0.847276
 20
3.39876
 30
0.0
 10
0.894151
 20
3.5446
 30
0.0
 10
0.94515
 20
3.70497
 30
0.0
  0
SPLINE
  5
110
100
AcDbEntity
  8
0
100
AcDbSpline
210
0.0
220
0.0
230
1.0
 62
     233
 70
     0
 71
     3
 72
     8
 73
4
 40
0.0
 40
0.0
 40
0.0
 40
0.0
 40
1.0
 40
1.0
 40
1.0
 40
1.0
 10
0.94515
 20
3.70497
 30
0.0
 10
1.20974
 20
4.5331
 30
0.0
 10
1.22119
 20
4.56853
 30
0.0
 10
1.29622
 20
4.82476
 30
0.0
  0
SPLINE
  5
111
100
AcDbEntity
  8
0
100
AcDbSpline
210
0.0
220
0.0
230
1.0
 62
     233
 70
     0
 71
     3
 72
     8
 73
4
 40
0.0
 40
0.0
 40
0.0
 40
0.0
 40
1.0
 40
1.0
 40
1.0
 40
1.0
 10
1.29622
 20
4.82476
 30
0.0
 10
1.35248
 20
5.01747
 30
0.0
 10
1.35975
 20
5.05393
 30
0.0
 10
1.34413
 20
5.05393
 30
0.0
  0
SPLINE
  5
112
100
AcDbEntity
  8
0
100
AcDbSpline
210
0.0
220
0.0
230
1.0
 62
     233
 70
     0
 71
     3
 72
     8
 73
4
 40
0.0
 40
0.0
 40
0.0
 40
0.0
 40
1.0
 40
1.0
 40
1.0
 40
1.0
 10
1.34413
 20
5.05393
 30
0.0
 10
1.33371
 20
5.05393
 30
0.0
 10
1.18994
 20
5.00499
 30
0.0
 10
1.15978
 20
4.9904
 30
0.0
  0
SPLINE
  5
113
100
AcDbEntity
  8
0
100
AcDbSpline
210
0.0
220
0.0
230
1.0
 62
     233
 70
     0
 71
     3
 72
     8
 73
4
 40
0.0
 40
0.0
 40
0.0
 40
0.0
 40
1.0
 40
1.0
 40
1.0
 40
1.0
 10
1.15978
 20
4.9904
 30
0.0
 10
1.11811
 20
4.97168
 30
0.0
 10
0.720161
 20
4.81125
 30
0.0
 10
0.64936
 20
4.78521
 30
0.0
  0
SPLINE
  5
114
100
AcDbEntity
  8
0
100
AcDbSpline
210
0.0
220
0.0
230
1.0
 62
     233
 70
     0
 71
     3
 72
     8
 73
4
 40
0.0
 40
0.0
 40
0.0
 40
0.0
 40
1.0
 40
1.0
 40
1.0
 40
1.0
 10
0.64936
 20
4.78521
 30
0.0
 10
0.531629
 20
4.74251
 30
0.0
 10
0.498318
 20
4.76335
 30
0.0
 10
0.498318
 20
4.87999
 30
0.0
  0
SPLINE
  5
115
100
AcDbEntity
  8
0
100
AcDbSpline
210
0.0
220
0.0
230
1.0
 62
     233
 70
     0
 71
     3
 72
     8
 73
4
 40
0.0
 40
0.0
 40
0.0
 40
0.0
 40
1.0
 40
1.0
 40
1.0
 40
1.0
 10
0.498318
 20
4.87999
 30
0.0
 10
0.498318
 20
4.93207
 30
0.0
 10
0.510796
 20
4.99561
 30
0.0
 10
0.529568
 20
5.03831
 30
0.0
  0
SPLINE
  5
116
100
AcDbEntity
  8
0
100
AcDbSpline
210
0.0
220
0.0
230
1.0
 62
     233
 70
     0
 71
     3
 72
     8
 73
4
 40
0.0
 40
0.0
 40
0.0
 40
0.0
 40
1.0
 40
1.0
 40
1.0
 40
1.0
 10
0.529568
 20
5.03831
 30
0.0
 10
0.533692
 20
5.04981
 30
0.0
 10
0.546224
 20
5.07997
 30
0.0
 10
0.55561
 20
5.10601
 30
0.0
  0
SPLINE
  5
117
100
AcDbEntity
  8
0
100
AcDbSpline
210
0.0
220
0.0
230
1.0
 62
     233
 70
     0
 71
     3
 72
     8
 73
4
 40
0.0
 40
0.0
 40
0.0
 40
0.0
 40
1.0
 40
1.0
 40
1.0
 40
1.0
 10
0.55561
 20
5.10601
 30
0.0
 10
0.592068
 20
5.20394
 30
0.0
 10
0.635796
 20
5.28103
 30
0.0
 10
0.700358
 20
5.36333
 30
0.0
  0
SPLINE
  5
118
100
AcDbEntity
  8
0
100
AcDbSpline
210
0.0
220
0.0
230
1.0
 62
     233
 70
     0
 71
     3
 72
     8
 73
4
 40
0.0
 40
0.0
 40
0.0
 40
0.0
 40
1.0
 40
1.0
 40
1.0
 40
1.0
 10
0.700358
 20
5.36333
 30
0.0
 10
0.830567
 20
5.52789
 30
0.0
 10
1.00038
 20
5.63519
 30
0.0
 10
1.34413
 20
5.77165
 30
0.0
  0
SPLINE
  5
119
100
AcDbEntity
  8
0
100
AcDbSpline
210
0.0
220
0.0
230
1.0
 62
     233
 70
     0
 71
     3
 72
     8
 73
4
 40
0.0
 40
0.0
 40
0.0
 40
0.0
 40
1.0
 40
1.0
 40
1.0
 40
1.0
 10
1.34413
 20
5.77165
 30
0.0
 10
1.65039
 20
5.89356
 30
0.0
 10
1.96186
 20
5.98415
 30
0.0
 10
2.29519
 20
6.04981
 30
0.0
  0
SPLINE
  5
11a
100
AcDbEntity
  8
0
100
AcDbSpline
210
0.0
220
0.0
230
1.0
 62
     233
 70
     0
 71
     3
 72
     8
 73
4
 40
0.0
 40
0.0
 40
0.0
 40
0.0
 40
1.0
 40
1.0
 40
1.0
 40
1.0
 10
2.29519
 20
6.04981
 30
0.0
 10
2.42643
 20
6.07585
 30
0.0
 10
2.75353
 20
6.07585
 30
0.0
 10
2.89936
 20
6.05083
 30
0.0
  0
SPLINE
  5
11b
100
AcDbEntity
  8
0
100
AcDbSpline
210
0.0
220
0.0
230
1.0
 62
     233
 70
     0
 71
     3
 72
     8
 73
4
 40
0.0
 40
0.0
 40
0.0
 40
0.0
 40
1.0
 40
1.0
 40
1.0
 40
1.0
 10
2.89936
 20
6.05083
 30
0.0
 10
3.11182
 20
6.01335
 30
0.0
 10
3.29101
 20
5.95708
 30
0.0
 10
3.41499
 20
5.88938
 30
0.0
  0
SPLINE
  5
11c
100
AcDbEntity
  8
0
100
AcDbSpline
210
0.0
220
0.0
230
1.0
 62
     233
 70
     0
 71
     3
 72
     8
 73
4
 40
0.0
 40
0.0
 40
0.0
 40
0.0
 40
1.0
 40
1.0
 40
1.0
 40
1.0
 10
3.41499
 20
5.88938
 30
0.0
 10
3.55453
 20
5.81332
 30
0.0
 10
3.72851
 20
5.65289
 30
0.0
 10
3.84933
 20
5.4904
 30
0.0
  0
SPLINE
  5
11d
100
AcDbEntity
  8
0
100
AcDbSpline
210
0.0
220
0.0
230
1.0
 62
     233
 70
     0
 71
     3
 72
     8
 73
4
 40
0.0
 40
0.0
 40
0.0
 40
0.0
 40
1.0
 40
1.0
 40
1.0
 40
1.0
 10
3.84933
 20
5.4904
 30
0.0
 10
3.91287
 20
5.40289
 30
0.0
 10
4.01497
 20
5.20606
 30
0.0
 10
4.03478
 20
5.12999
 30
0.0
  0
SPLINE
  5
11e
100
AcDbEntity
  8
0
100
AcDbSpline
210
0.0
220
0.0
230
1.0
 62
     233
 70
     0
 71
     3
 72
     8
 73
4
 40
0.0
 40
0.0
 40
0.0
 40
0.0
 40
1.0
 40
1.0
 40
1.0
 40
1.0
 10
4.03478
 20
5.12999
 30
0.0
 10
4.05453
 20
5.05501
 30
0.0
 10
4.05871
 20
4.68832
 30
0.0
 10
4.04101
 20
4.61333
 30
0.0
  0
SPLINE
  5
11f
100
AcDbEntity
  8
0
100
AcDbSpline
210
0.0
220
0.0
230
1.0
 62
     233
 70
     0
 71
     3
 72
     8
 73
4
 40
0.0
 40
0.0
 40
0.0
 40
0.0
 40
1.0
 40
1.0
 40
1.0
 40
1.0
 10
4.04101
 20
4.61333
 30
0.0
 10
4.02849
 20
4.55811
 30
0.0
 10
3.90869
 20
4.31332
 30
0.0
 10
3.86182
 20
4.24457
 30
0.0
  0
SPLINE
  5
120
100
AcDbEntity
  8
0
100
AcDbSpline
210
0.0
220
0.0
230
1.0
 62
     233
 70
     0
 71
     3
 72
     8
 73
4
 40
0.0
 40
0.0
 40
0.0
 40
0.0
 40
1.0
 40
1.0
 40
1.0
 40
1.0
 10
3.86182
 20
4.24457
 30
0.0
 10
3.84517
 20
4.2206
 30
0.0
 10
3.83165
 20
4.19874
 30
0.0
 10
3.83165
 20
4.19667
 30
0.0
  0
SPLINE
  5
121
100
AcDbEntity
  8
0
100
AcDbSpline
210
0.0
220
0.0
230
1.0
 62
     233
 70
     0
 71
     3
 72
     8
 73
4
 40
0.0
 40
0.0
 40
0.0
 40
0.0
 40
1.0
 40
1.0
 40
1.0
 40
1.0
 10
3.83165
 20
4.19667
 30
0.0
 10
3.83165
 20
4.19353
 30
0.0
 10
3.81288
 20
4.16439
 30
0.0
 10
3.78999
 20
4.13103
 30
0.0
  0
SPLINE
  5
122
100
AcDbEntity
  8
0
100
AcDbSpline
210
0.0
220
0.0
230
1.0
 62
     233
 70
     0
 71
     3
 72
     8
 73
4
 40
0.0
 40
0.0
 40
0.0
 40
0.0
 40
1.0
 40
1.0
 40
1.0
 40
1.0
 10
3.78999
 20
4.13103
 30
0.0
 10
3.76704
 20
4.09668
 30
0.0
 10
3.73058
 20
4.04351
 30
0.0
 10
3.70975
 20
4.01226
 30
0.0
  0
SPLINE
  5
123
100
AcDbEntity
  8
0
100
AcDbSpline
210
0.0
220
0.0
230
1.0
 62
     233
 70
     0
 71
     3
 72
     8
 73
4
 40
0.0
 40
0.0
 40
0.0
 40
0.0
 40
1.0
 40
1.0
 40
1.0
 40
1.0
 10
3.70975
 20
4.01226
 30
0.0
 10
3.68788
 20
3.98101
 30
0.0
 10
3.66808
 20
3.9529
 30
0.0
 10
3.66499
 20
3.94976
 30
0.0
  0
SPLINE
  5
124
100
AcDbEntity
  8
0
100
AcDbSpline
210
0.0
220
0.0
230
1.0
 62
     233
 70
     0
 71
     3
 72
     8
 73
4
 40
0.0
 40
0.0
 40
0.0
 40
0.0
 40
1.0
 40
1.0
 40
1.0
 40
1.0
 10
3.66499
 20
3.94976
 30
0.0
 10
3.66183
 20
3.94667
 30
0.0
 10
3.64204
 20
3.92269
 30
0.0
 10
3.62224
 20
3.89561
 30
0.0
  0
SPLINE
  5
125
100
AcDbEntity
  8
0
100
AcDbSpline
210
0.0
220
0.0
230
1.0
 62
     233
 70
     0
 71
     3
 72
     8
 73
4
 40
0.0
 40
0.0
 40
0.0
 40
0.0
 40
1.0
 40
1.0
 40
1.0
 40
1.0
 10
3.62224
 20
3.89561
 30
0.0
 10
3.52539
 20
3.76856
 30
0.0
 10
3.33475
 20
3.56022
 30
0.0
 10
3.20768
 20
3.44456
 30
0.0
  0
SPLINE
  5
126
100
AcDbEntity
  8
0
100
AcDbSpline
210
0.0
220
0.0
230
1.0
 62
     233
 70
     0
 71
     3
 72
     8
 73
4
 40
0.0
 40
0.0
 40
0.0
 40
0.0
 40
1.0
 40
1.0
 40
1.0
 40
1.0
 10
3.20768
 20
3.44456
 30
0.0
 10
3.05453
 20
3.30501
 30
0.0
 10
3.02849
 20
3.28418
 30
0.0
 10
2.82644
 20
3.13314
 30
0.0
  0
SPLINE
  5
127
100
AcDbEntity
  8
0
100
AcDbSpline
210
0.0
220
0.0
230
1.0
 62
     233
 70
     0
 71
     3
 72
     8
 73
4
 40
0.0
 40
0.0
 40
0.0
 40
0.0
 40
1.0
 40
1.0
 40
1.0
 40
1.0
 10
2.82644
 20
3.13314
 30
0.0
 10
2.75244
 20
3.07688
 30
0.0
 10
2.68787
 20
3.02479
 30
0.0
 10
2.68267
 20
3.01747
 30
0.0
  0
SPLINE
  5
128
100
AcDbEntity
  8
0
100
AcDbSpline
210
0.0
220
0.0
230
1.0
 62
     233
 70
     0
 71
     3
 72
     8
 73
4
 40
0.0
 40
0.0
 40
0.0
 40
0.0
 40
1.0
 40
1.0
 40
1.0
 40
1.0
 10
2.68267
 20
3.01747
 30
0.0
 10
2.67746
 20
3.00706
 30
0.0
 10
2.69829
 20
2.99251
 30
0.0
 10
2.76079
 20
2.96229
 30
0.0
  0
SPLINE
  5
129
100
AcDbEntity
  8
0
100
AcDbSpline
210
0.0
220
0.0
230
1.0
 62
     233
 70
     0
 71
     3
 72
     8
 73
4
 40
0.0
 40
0.0
 40
0.0
 40
0.0
 40
1.0
 40
1.0
 40
1.0
 40
1.0
 10
2.76079
 20
2.96229
 30
0.0
 10
2.86182
 20
2.91542
 30
0.0
 10
2.94933
 20
2.85081
 30
0.0
 10
3.03581
 20
2.76226
 30
0.0
  0
SPLINE
  5
12a
100
AcDbEntity
  8
0
100
AcDbSpline
210
0.0
220
0.0
230
1.0
 62
     233
 70
     0
 71
     3
 72
     8
 73
4
 40
0.0
 40
0.0
 40
0.0
 40
0.0
 40
1.0
 40
1.0
 40
1.0
 40
1.0
 10
3.03581
 20
2.76226
 30
0.0
 10
3.12956
 20
2.66542
 30
0.0
 10
3.19515
 20
2.55914
 30
0.0
 10
3.26079
 20
2.39247
 30
0.0
  0
SPLINE
  5
12b
100
AcDbEntity
  8
0
100
AcDbSpline
210
0.0
220
0.0
230
1.0
 62
     233
 70
     0
 71
     3
 72
     8
 73
4
 40
0.0
 40
0.0
 40
0.0
 40
0.0
 40
1.0
 40
1.0
 40
1.0
 40
1.0
 10
3.26079
 20
2.39247
 30
0.0
 10
3.27225
 20
2.36333
 30
0.0
 10
3.28478
 20
2.33729
 30
0.0
 10
3.2889
 20
2.33311
 30
0.0
  0
SPLINE
  5
12c
100
AcDbEntity
  8
0
100
AcDbSpline
210
0.0
220
0.0
230
1.0
 62
     233
 70
     0
 71
     3
 72
     8
 73
4
 40
0.0
 40
0.0
 40
0.0
 40
0.0
 40
1.0
 40
1.0
 40
1.0
 40
1.0
 10
3.2889
 20
2.33311
 30
0.0
 10
3.29308
 20
2.3279
 30
0.0
 10
3.32124
 20
2.36333
 30
0.0
 10
3.35249
 20
2.41124
 30
0.0
  0
SPLINE
  5
12d
100
AcDbEntity
  8
0
100
AcDbSpline
210
0.0
220
0.0
230
1.0
 62
     233
 70
     0
 71
     3
 72
     8
 73
4
 40
0.0
 40
0.0
 40
0.0
 40
0.0
 40
1.0
 40
1.0
 40
1.0
 40
1.0
 10
3.35249
 20
2.41124
 30
0.0
 10
3.45768
 20
2.57269
 30
0.0
 10
3.55246
 20
2.68832
 30
0.0
 10
3.68474
 20
2.81749
 30
0.0
  0
SPLINE
  5
12e
100
AcDbEntity
  8
0
100
AcDbSpline
210
0.0
220
0.0
230
1.0
 62
     233
 70
     0
 71
     3
 72
     8
 73
4
 40
0.0
 40
0.0
 40
0.0
 40
0.0
 40
1.0
 40
1.0
 40
1.0
 40
1.0
 10
3.68474
 20
2.81749
 30
0.0
 10
3.90978
 20
3.03521
 30
0.0
 10
4.08789
 20
3.1581
 30
0.0
 10
4.30246
 20
3.24251
 30
0.0
  0
SPLINE
  5
12f
100
AcDbEntity
  8
0
100
AcDbSpline
210
0.0
220
0.0
230
1.0
 62
     233
 70
     0
 71
     3
 72
     8
 73
4
 40
0.0
 40
0.0
 40
0.0
 40
0.0
 40
1.0
 40
1.0
 40
1.0
 40
1.0
 10
4.30246
 20
3.24251
 30
0.0
 10
4.391
 20
3.27686
 30
0.0
 10
4.44829
 20
3.2831
 30
0.0
 10
4.72749
 20
3.29042
 30
0.0
  0
SPLINE
  5
130
100
AcDbEntity
  8
0
100
AcDbSpline
210
0.0
220
0.0
230
1.0
 62
     233
 70
     0
 71
     3
 72
     8
 73
4
 40
0.0
 40
0.0
 40
0.0
 40
0.0
 40
1.0
 40
1.0
 40
1.0
 40
1.0
 10
4.72749
 20
3.29042
 30
0.0
 10
4.95454
 20
3.29563
 30
0.0
 10
4.99621
 20
3.2946
 30
0.0
 10
5.00874
 20
3.28103
 30
0.0
  0
SPLINE
  5
131
100
AcDbEntity
  8
0
100
AcDbSpline
210
0.0
220
0.0
230
1.0
 62
     233
 70
     0
 71
     3
 72
     8
 73
4
 40
0.0
 40
0.0
 40
0.0
 40
0.0
 40
1.0
 40
1.0
 40
1.0
 40
1.0
 10
5.00874
 20
3.28103
 30
0.0
 10
5.0504
 20
3.23936
 30
0.0
 10
5.11811
 20
3.15397
 30
0.0
 10
5.13579
 20
3.11957
 30
0.0
  0
SPLINE
  5
132
100
AcDbEntity
  8
0
100
AcDbSpline
210
0.0
220
0.0
230
1.0
 62
     233
 70
     0
 71
     3
 72
     8
 73
4
 40
0.0
 40
0.0
 40
0.0
 40
0.0
 40
1.0
 40
1.0
 40
1.0
 40
1.0
 10
5.13579
 20
3.11957
 30
0.0
 10
5.14725
 20
3.09771
 30
0.0
 10
5.15978
 20
3.05393
 30
0.0
 10
5.16183
 20
3.02165
 30
0.0
  0
SPLINE
  5
133
100
AcDbEntity
  8
0
100
AcDbSpline
210
0.0
220
0.0
230
1.0
 62
     233
 70
     0
 71
     3
 72
     8
 73
4
 40
0.0
 40
0.0
 40
0.0
 40
0.0
 40
1.0
 40
1.0
 40
1.0
 40
1.0
 10
5.16183
 20
3.02165
 30
0.0
 10
5.16704
 20
2.96957
 30
0.0
 10
5.16287
 20
2.9529
 30
0.0
 10
5.13476
 20
2.8904
 30
0.0
  0
SPLINE
  5
134
100
AcDbEntity
  8
0
100
AcDbSpline
210
0.0
220
0.0
230
1.0
 62
     233
 70
     0
 71
     3
 72
     8
 73
4
 40
0.0
 40
0.0
 40
0.0
 40
0.0
 40
1.0
 40
1.0
 40
1.0
 40
1.0
 10
5.13476
 20
2.8904
 30
0.0
 10
5.09517
 20
2.80707
 30
0.0
 10
5.05974
 20
2.76747
 30
0.0
 10
5.01079
 20
2.75082
 30
0.0
  0
SPLINE
  5
135
100
AcDbEntity
  8
0
100
AcDbSpline
210
0.0
220
0.0
230
1.0
 62
     233
 70
     0
 71
     3
 72
     8
 73
4
 40
0.0
 40
0.0
 40
0.0
 40
0.0
 40
1.0
 40
1.0
 40
1.0
 40
1.0
 10
5.01079
 20
2.75082
 30
0.0
 10
4.96496
 20
2.73519
 30
0.0
 10
4.87853
 20
2.74664
 30
0.0
 10
4.84099
 20
2.77376
 30
0.0
  0
SPLINE
  5
136
100
AcDbEntity
  8
0
100
AcDbSpline
210
0.0
220
0.0
230
1.0
 62
     233
 70
     0
 71
     3
 72
     8
 73
4
 40
0.0
 40
0.0
 40
0.0
 40
0.0
 40
1.0
 40
1.0
 40
1.0
 40
1.0
 10
4.84099
 20
2.77376
 30
0.0
 10
4.82536
 20
2.78418
 30
0.0
 10
4.80974
 20
2.79351
 30
0.0
 10
4.80664
 20
2.79351
 30
0.0
  0
SPLINE
  5
137
100
AcDbEntity
  8
0
100
AcDbSpline
210
0.0
220
0.0
230
1.0
 62
     233
 70
     0
 71
     3
 72
     8
 73
4
 40
0.0
 40
0.0
 40
0.0
 40
0.0
 40
1.0
 40
1.0
 40
1.0
 40
1.0
 10
4.80664
 20
2.79351
 30
0.0
 10
4.8035
 20
2.79351
 30
0.0
 10
4.77746
 20
2.81022
 30
0.0
 10
4.74832
 20
2.83106
 30
0.0
  0
SPLINE
  5
138
100
AcDbEntity
  8
0
100
AcDbSpline
210
0.0
220
0.0
230
1.0
 62
     233
 70
     0
 71
     3
 72
     8
 73
4
 40
0.0
 40
0.0
 40
0.0
 40
0.0
 40
1.0
 40
1.0
 40
1.0
 40
1.0
 10
4.74832
 20
2.83106
 30
0.0
 10
4.5389
 20
2.98101
 30
0.0
 10
4.36914
 20
2.91644
 30
0.0
 10
4.04411
 20
2.56435
 30
0.0
  0
SPLINE
  5
139
100
AcDbEntity
  8
0
100
AcDbSpline
210
0.0
220
0.0
230
1.0
 62
     233
 70
     0
 71
     3
 72
     8
 73
4
 40
0.0
 40
0.0
 40
0.0
 40
0.0
 40
1.0
 40
1.0
 40
1.0
 40
1.0
 10
4.04411
 20
2.56435
 30
0.0
 10
3.84831
 20
2.35189
 30
0.0
 10
3.69206
 20
2.13835
 30
0.0
 10
3.60351
 20
1.96332
 30
0.0
  0
SPLINE
  5
13a
100
AcDbEntity
  8
0
100
AcDbSpline
210
0.0
220
0.0
230
1.0
 62
     233
 70
     0
 71
     3
 72
     8
 73
4
 40
0.0
 40
0.0
 40
0.0
 40
0.0
 40
1.0
 40
1.0
 40
1.0
 40
1.0
 10
3.60351
 20
1.96332
 30
0.0
 10
3.50874
 20
1.77479
 30
0.0
 10
3.46599
 20
1.59874
 30
0.0
 10
3.4879
 20
1.48731
 30
0.0
  0
SPLINE
  5
13b
100
AcDbEntity
  8
0
100
AcDbSpline
210
0.0
220
0.0
230
1.0
 62
     233
 70
     0
 71
     3
 72
     8
 73
4
 40
0.0
 40
0.0
 40
0.0
 40
0.0
 40
1.0
 40
1.0
 40
1.0
 40
1.0
 10
3.4879
 20
1.48731
 30
0.0
 10
3.50456
 20
1.40186
 30
0.0
 10
3.53478
 20
1.3425
 30
0.0
 10
3.58268
 20
1.2998
 30
0.0
  0
SPLINE
  5
13c
100
AcDbEntity
  8
0
100
AcDbSpline
210
0.0
220
0.0
230
1.0
 62
     233
 70
     0
 71
     3
 72
     8
 73
4
 40
0.0
 40
0.0
 40
0.0
 40
0.0
 40
1.0
 40
1.0
 40
1.0
 40
1.0
 10
3.58268
 20
1.2998
 30
0.0
 10
3.63265
 20
1.25396
 30
0.0
 10
3.66183
 20
1.24561
 30
0.0
 10
3.70768
 20
1.26541
 30
0.0
  0
SPLINE
  5
13d
100
AcDbEntity
  8
0
100
AcDbSpline
210
0.0
220
0.0
230
1.0
 62
     233
 70
     0
 71
     3
 72
     8
 73
4
 40
0.0
 40
0.0
 40
0.0
 40
0.0
 40
1.0
 40
1.0
 40
1.0
 40
1.0
 10
3.70768
 20
1.26541
 30
0.0
 10
3.75976
 20
1.28727
 30
0.0
 10
3.86703
 20
1.37061
 30
0.0
 10
3.91183
 20
1.42583
 30
0.0
  0
SPLINE
  5
13e
100
AcDbEntity
  8
0
100
AcDbSpline
210
0.0
220
0.0
230
1.0
 62
     233
 70
     0
 71
     3
 72
     8
 73
4
 40
0.0
 40
0.0
 40
0.0
 40
0.0
 40
1.0
 40
1.0
 40
1.0
 40
1.0
 10
3.91183
 20
1.42583
 30
0.0
 10
3.93371
 20
1.45085
 30
0.0
 10
3.95665
 20
1.47792
 30
0.0
 10
3.96186
 20
1.48415
 30
0.0
  0
SPLINE
  5
13f
100
AcDbEntity
  8
0
100
AcDbSpline
210
0.0
220
0.0
230
1.0
 62
     233
 70
     0
 71
     3
 72
     8
 73
4
 40
0.0
 40
0.0
 40
0.0
 40
0.0
 40
1.0
 40
1.0
 40
1.0
 40
1.0
 10
3.96186
 20
1.48415
 30
0.0
 10
4.00244
 20
1.53
 30
0.0
 10
4.14307
 20
1.74875
 30
0.0
 10
4.21186
 20
1.87164
 30
0.0
  0
SPLINE
  5
140
100
AcDbEntity
  8
0
100
AcDbSpline
210
0.0
220
0.0
230
1.0
 62
     233
 70
     0
 71
     3
 72
     8
 73
4
 40
0.0
 40
0.0
 40
0.0
 40
0.0
 40
1.0
 40
1.0
 40
1.0
 40
1.0
 10
4.21186
 20
1.87164
 30
0.0
 10
4.37017
 20
2.1581
 30
0.0
 10
4.55246
 20
2.46332
 30
0.0
 10
4.62121
 20
2.55914
 30
0.0
  0
SPLINE
  5
141
100
AcDbEntity
  8
0
100
AcDbSpline
210
0.0
220
0.0
230
1.0
 62
     233
 70
     0
 71
     3
 72
     8
 73
4
 40
0.0
 40
0.0
 40
0.0
 40
0.0
 40
1.0
 40
1.0
 40
1.0
 40
1.0
 10
4.62121
 20
2.55914
 30
0.0
 10
4.69933
 20
2.66749
 30
0.0
 10
4.75038
 20
2.70394
 30
0.0
 10
4.82433
 20
2.7029
 30
0.0
  0
SPLINE
  5
142
100
AcDbEntity
  8
0
100
AcDbSpline
210
0.0
220
0.0
230
1.0
 62
     233
 70
     0
 71
     3
 72
     8
 73
4
 40
0.0
 40
0.0
 40
0.0
 40
0.0
 40
1.0
 40
1.0
 40
1.0
 40
1.0
 10
4.82433
 20
2.7029
 30
0.0
 10
4.89204
 20
2.70188
 30
0.0
 10
4.96289
 20
2.67165
 30
0.0
 10
5.01394
 20
2.62061
 30
0.0
  0
SPLINE
  5
143
100
AcDbEntity
  8
0
100
AcDbSpline
210
0.0
220
0.0
230
1.0
 62
     233
 70
     0
 71
     3
 72
     8
 73
4
 40
0.0
 40
0.0
 40
0.0
 40
0.0
 40
1.0
 40
1.0
 40
1.0
 40
1.0
 10
5.01394
 20
2.62061
 30
0.0
 10
5.05143
 20
2.58415
 30
0.0
 10
5.05246
 20
2.57997
 30
0.0
 10
5.04725
 20
2.53
 30
0.0
  0
SPLINE
  5
144
100
AcDbEntity
  8
0
100
AcDbSpline
210
0.0
220
0.0
230
1.0
 62
     233
 70
     0
 71
     3
 72
     8
 73
4
 40
0.0
 40
0.0
 40
0.0
 40
0.0
 40
1.0
 40
1.0
 40
1.0
 40
1.0
 10
5.04725
 20
2.53
 30
0.0
 10
5.04308
 20
2.50185
 30
0.0
 10
5.03683
 20
2.47374
 30
0.0
 10
5.03163
 20
2.46647
 30
0.0
  0
SPLINE
  5
145
100
AcDbEntity
  8
0
100
AcDbSpline
210
0.0
220
0.0
230
1.0
 62
     233
 70
     0
 71
     3
 72
     8
 73
4
 40
0.0
 40
0.0
 40
0.0
 40
0.0
 40
1.0
 40
1.0
 40
1.0
 40
1.0
 10
5.03163
 20
2.46647
 30
0.0
 10
5.02746
 20
2.46018
 30
0.0
 10
5.01704
 20
2.43625
 30
0.0
 10
5.00976
 20
2.41331
 30
0.0
  0
SPLINE
  5
146
100
AcDbEntity
  8
0
100
AcDbSpline
210
0.0
220
0.0
230
1.0
 62
     233
 70
     0
 71
     3
 72
     8
 73
4
 40
0.0
 40
0.0
 40
0.0
 40
0.0
 40
1.0
 40
1.0
 40
1.0
 40
1.0
 10
5.00976
 20
2.41331
 30
0.0
 10
5.00142
 20
2.3904
 30
0.0
 10
4.98682
 20
2.35292
 30
0.0
 10
4.9764
 20
2.32997
 30
0.0
  0
SPLINE
  5
147
100
AcDbEntity
  8
0
100
AcDbSpline
210
0.0
220
0.0
230
1.0
 62
     233
 70
     0
 71
     3
 72
     8
 73
4
 40
0.0
 40
0.0
 40
0.0
 40
0.0
 40
1.0
 40
1.0
 40
1.0
 40
1.0
 10
4.9764
 20
2.32997
 30
0.0
 10
4.95768
 20
2.28728
 30
0.0
 10
4.92432
 20
2.20606
 30
0.0
 10
4.87642
 20
2.08518
 30
0.0
  0
SPLINE
  5
148
100
AcDbEntity
  8
0
100
AcDbSpline
210
0.0
220
0.0
230
1.0
 62
     233
 70
     0
 71
     3
 72
     8
 73
4
 40
0.0
 40
0.0
 40
0.0
 40
0.0
 40
1.0
 40
1.0
 40
1.0
 40
1.0
 10
4.87642
 20
2.08518
 30
0.0
 10
4.86182
 20
2.04769
 30
0.0
 10
4.84413
 20
2.00293
 30
0.0
 10
4.83686
 20
1.98622
 30
0.0
  0
SPLINE
  5
149
100
AcDbEntity
  8
0
100
AcDbSpline
210
0.0
220
0.0
230
1.0
 62
     233
 70
     0
 71
     3
 72
     8
 73
4
 40
0.0
 40
0.0
 40
0.0
 40
0.0
 40
1.0
 40
1.0
 40
1.0
 40
1.0
 10
4.83686
 20
1.98622
 30
0.0
 10
4.81808
 20
1.94456
 30
0.0
 10
4.78787
 20
1.86019
 30
0.0
 10
4.72537
 20
1.68207
 30
0.0
  0
SPLINE
  5
14a
100
AcDbEntity
  8
0
100
AcDbSpline
210
0.0
220
0.0
230
1.0
 62
     233
 70
     0
 71
     3
 72
     8
 73
4
 40
0.0
 40
0.0
 40
0.0
 40
0.0
 40
1.0
 40
1.0
 40
1.0
 40
1.0
 10
4.72537
 20
1.68207
 30
0.0
 10
4.66704
 20
1.51438
 30
0.0
 10
4.64828
 20
1.39247
 30
0.0
 10
4.67953
 20
1.38102
 30
0.0
  0
SPLINE
  5
14b
100
AcDbEntity
  8
0
100
AcDbSpline
210
0.0
220
0.0
230
1.0
 62
     233
 70
     0
 71
     3
 72
     8
 73
4
 40
0.0
 40
0.0
 40
0.0
 40
0.0
 40
1.0
 40
1.0
 40
1.0
 40
1.0
 10
4.67953
 20
1.38102
 30
0.0
 10
4.76079
 20
1.34977
 30
0.0
 10
4.97537
 20
1.61122
 30
0.0
 10
5.17225
 20
1.98101
 30
0.0
  0
SPLINE
  5
14c
100
AcDbEntity
  8
0
100
AcDbSpline
210
0.0
220
0.0
230
1.0
 62
     233
 70
     0
 71
     3
 72
     8
 73
4
 40
0.0
 40
0.0
 40
0.0
 40
0.0
 40
1.0
 40
1.0
 40
1.0
 40
1.0
 10
5.17225
 20
1.98101
 30
0.0
 10
5.23161
 20
2.0925
 30
0.0
 10
5.27957
 20
2.17893
 30
0.0
 10
5.3004
 20
2.21539
 30
0.0
  0
SPLINE
  5
14d
100
AcDbEntity
  8
0
100
AcDbSpline
210
0.0
220
0.0
230
1.0
 62
     233
 70
     0
 71
     3
 72
     8
 73
4
 40
0.0
 40
0.0
 40
0.0
 40
0.0
 40
1.0
 40
1.0
 40
1.0
 40
1.0
 10
5.3004
 20
2.21539
 30
0.0
 10
5.32226
 20
2.25185
 30
0.0
 10
5.47537
 20
2.55914
 30
0.0
 10
5.50662
 20
2.62793
 30
0.0
  0
SPLINE
  5
14e
100
AcDbEntity
  8
0
100
AcDbSpline
210
0.0
220
0.0
230
1.0
 62
     233
 70
     0
 71
     3
 72
     8
 73
4
 40
0.0
 40
0.0
 40
0.0
 40
0.0
 40
1.0
 40
1.0
 40
1.0
 40
1.0
 10
5.50662
 20
2.62793
 30
0.0
 10
5.55767
 20
2.74143
 30
0.0
 10
5.57433
 20
2.79563
 30
0.0
 10
5.59207
 20
2.92372
 30
0.0
  0
SPLINE
  5
14f
100
AcDbEntity
  8
0
100
AcDbSpline
210
0.0
220
0.0
230
1.0
 62
     233
 70
     0
 71
     3
 72
     8
 73
4
 40
0.0
 40
0.0
 40
0.0
 40
0.0
 40
1.0
 40
1.0
 40
1.0
 40
1.0
 10
5.59207
 20
2.92372
 30
0.0
 10
5.62538
 20
3.14876
 30
0.0
 10
5.66808
 20
3.25396
 30
0.0
 10
5.766
 20
3.35189
 30
0.0
  0
SPLINE
  5
150
100
AcDbEntity
  8
0
100
AcDbSpline
210
0.0
220
0.0
230
1.0
 62
     233
 70
     0
 71
     3
 72
     8
 73
4
 40
0.0
 40
0.0
 40
0.0
 40
0.0
 40
1.0
 40
1.0
 40
1.0
 40
1.0
 10
5.766
 20
3.35189
 30
0.0
 10
5.84207
 20
3.4279
 30
0.0
 10
5.91287
 20
3.45394
 30
0.0
 10
6.02539
 20
3.44667
 30
0.0
  0
SPLINE
  5
151
100
AcDbEntity
  8
0
100
AcDbSpline
210
0.0
220
0.0
230
1.0
 62
     233
 70
     0
 71
     3
 72
     8
 73
4
 40
0.0
 40
0.0
 40
0.0
 40
0.0
 40
1.0
 40
1.0
 40
1.0
 40
1.0
 10
6.02539
 20
3.44667
 30
0.0
 10
6.12538
 20
3.43935
 30
0.0
 10
6.17329
 20
3.42165
 30
0.0
 10
6.20557
 20
3.38103
 30
0.0
  0
SPLINE
  5
152
100
AcDbEntity
  8
0
100
AcDbSpline
210
0.0
220
0.0
230
1.0
 62
     233
 70
     0
 71
     3
 72
     8
 73
4
 40
0.0
 40
0.0
 40
0.0
 40
0.0
 40
1.0
 40
1.0
 40
1.0
 40
1.0
 10
6.20557
 20
3.38103
 30
0.0
 10
6.22749
 20
3.35394
 30
0.0
 10
6.22954
 20
3.3425
 30
0.0
 10
6.22433
 20
3.27789
 30
0.0
  0
SPLINE
  5
153
100
AcDbEntity
  8
0
100
AcDbSpline
210
0.0
220
0.0
230
1.0
 62
     233
 70
     0
 71
     3
 72
     8
 73
4
 40
0.0
 40
0.0
 40
0.0
 40
0.0
 40
1.0
 40
1.0
 40
1.0
 40
1.0
 10
6.22433
 20
3.27789
 30
0.0
 10
6.22119
 20
3.23731
 30
0.0
 10
6.20665
 20
3.16749
 30
0.0
 10
6.19206
 20
3.12164
 30
0.0
  0
SPLINE
  5
154
100
AcDbEntity
  8
0
100
AcDbSpline
210
0.0
220
0.0
230
1.0
 62
     233
 70
     0
 71
     3
 72
     8
 73
4
 40
0.0
 40
0.0
 40
0.0
 40
0.0
 40
1.0
 40
1.0
 40
1.0
 40
1.0
 10
6.19206
 20
3.12164
 30
0.0
 10
6.15869
 20
3.01856
 30
0.0
 10
6.15349
 20
2.97581
 30
0.0
 10
6.16601
 20
2.9279
 30
0.0
  0
SPLINE
  5
155
100
AcDbEntity
  8
0
100
AcDbSpline
210
0.0
220
0.0
230
1.0
 62
     233
 70
     0
 71
     3
 72
     8
 73
4
 40
0.0
 40
0.0
 40
0.0
 40
0.0
 40
1.0
 40
1.0
 40
1.0
 40
1.0
 10
6.16601
 20
2.9279
 30
0.0
 10
6.17953
 20
2.87582
 30
0.0
 10
6.20871
 20
2.84147
 30
0.0
 10
6.28267
 20
2.79144
 30
0.0
  0
SPLINE
  5
156
100
AcDbEntity
  8
0
100
AcDbSpline
210
0.0
220
0.0
230
1.0
 62
     233
 70
     0
 71
     3
 72
     8
 73
4
 40
0.0
 40
0.0
 40
0.0
 40
0.0
 40
1.0
 40
1.0
 40
1.0
 40
1.0
 10
6.28267
 20
2.79144
 30
0.0
 10
6.52328
 20
2.63206
 30
0.0
 10
6.53581
 20
2.51124
 30
0.0
 10
6.35661
 20
2.08518
 30
0.0
  0
SPLINE
  5
157
100
AcDbEntity
  8
0
100
AcDbSpline
210
0.0
220
0.0
230
1.0
 62
     233
 70
     0
 71
     3
 72
     8
 73
4
 40
0.0
 40
0.0
 40
0.0
 40
0.0
 40
1.0
 40
1.0
 40
1.0
 40
1.0
 10
6.35661
 20
2.08518
 30
0.0
 10
6.24832
 20
1.82894
 30
0.0
 10
6.19726
 20
1.69146
 30
0.0
 10
6.16911
 20
1.58518
 30
0.0
  0
SPLINE
  5
158
100
AcDbEntity
  8
0
100
AcDbSpline
210
0.0
220
0.0
230
1.0
 62
     233
 70
     0
 71
     3
 72
     8
 73
4
 40
0.0
 40
0.0
 40
0.0
 40
0.0
 40
1.0
 40
1.0
 40
1.0
 40
1.0
 10
6.16911
 20
1.58518
 30
0.0
 10
6.141
 20
1.47689
 30
0.0
 10
6.14204
 20
1.43414
 30
0.0
 10
6.17746
 20
1.38417
 30
0.0
  0
SPLINE
  5
159
100
AcDbEntity
  8
0
100
AcDbSpline
210
0.0
220
0.0
230
1.0
 62
     233
 70
     0
 71
     3
 72
     8
 73
4
 40
0.0
 40
0.0
 40
0.0
 40
0.0
 40
1.0
 40
1.0
 40
1.0
 40
1.0
 10
6.17746
 20
1.38417
 30
0.0
 10
6.21913
 20
1.32585
 30
0.0
 10
6.26079
 20
1.32997
 30
0.0
 10
6.3629
 20
1.39768
 30
0.0
  0
SPLINE
  5
15a
100
AcDbEntity
  8
0
100
AcDbSpline
210
0.0
220
0.0
230
1.0
 62
     233
 70
     0
 71
     3
 72
     8
 73
4
 40
0.0
 40
0.0
 40
0.0
 40
0.0
 40
1.0
 40
1.0
 40
1.0
 40
1.0
 10
6.3629
 20
1.39768
 30
0.0
 10
6.42643
 20
1.44043
 30
0.0
 10
6.49935
 20
1.51438
 30
0.0
 10
6.52225
 20
1.56022
 30
0.0
  0
SPLINE
  5
15b
100
AcDbEntity
  8
0
100
AcDbSpline
210
0.0
220
0.0
230
1.0
 62
     233
 70
     0
 71
     3
 72
     8
 73
4
 40
0.0
 40
0.0
 40
0.0
 40
0.0
 40
1.0
 40
1.0
 40
1.0
 40
1.0
 10
6.52225
 20
1.56022
 30
0.0
 10
6.54411
 20
1.60394
 30
0.0
 10
6.57954
 20
1.71539
 30
0.0
 10
6.59619
 20
1.79351
 30
0.0
  0
SPLINE
  5
15c
100
AcDbEntity
  8
0
100
AcDbSpline
210
0.0
220
0.0
230
1.0
 62
     233
 70
     0
 71
     3
 72
     8
 73
4
 40
0.0
 40
0.0
 40
0.0
 40
0.0
 40
1.0
 40
1.0
 40
1.0
 40
1.0
 10
6.59619
 20
1.79351
 30
0.0
 10
6.62017
 20
1.905
 30
0.0
 10
6.66499
 20
2.1071
 30
0.0
 10
6.68164
 20
2.17893
 30
0.0
  0
SPLINE
  5
15d
100
AcDbEntity
  8
0
100
AcDbSpline
210
0.0
220
0.0
230
1.0
 62
     233
 70
     0
 71
     3
 72
     8
 73
4
 40
0.0
 40
0.0
 40
0.0
 40
0.0
 40
1.0
 40
1.0
 40
1.0
 40
1.0
 10
6.68164
 20
2.17893
 30
0.0
 10
6.71599
 20
2.32269
 30
0.0
 10
6.89415
 20
2.83518
 30
0.0
 10
6.96913
 20
3.00082
 30
0.0
  0
SPLINE
  5
15e
100
AcDbEntity
  8
0
100
AcDbSpline
210
0.0
220
0.0
230
1.0
 62
     233
 70
     0
 71
     3
 72
     8
 73
4
 40
0.0
 40
0.0
 40
0.0
 40
0.0
 40
1.0
 40
1.0
 40
1.0
 40
1.0
 10
6.96913
 20
3.00082
 30
0.0
 10
6.98058
 20
3.02789
 30
0.0
 10
6.99724
 20
3.06543
 30
0.0
 10
7.00662
 20
3.08518
 30
0.0
  0
SPLINE
  5
15f
100
AcDbEntity
  8
0
100
AcDbSpline
210
0.0
220
0.0
230
1.0
 62
     233
 70
     0
 71
     3
 72
     8
 73
4
 40
0.0
 40
0.0
 40
0.0
 40
0.0
 40
1.0
 40
1.0
 40
1.0
 40
1.0
 10
7.00662
 20
3.08518
 30
0.0
 10
7.14828
 20
3.405
 30
0.0
 10
7.39936
 20
3.8654
 30
0.0
 10
7.57226
 20
4.12375
 30
0.0
  0
SPLINE
  5
160
100
AcDbEntity
  8
0
100
AcDbSpline
210
0.0
220
0.0
230
1.0
 62
     233
 70
     0
 71
     3
 72
     8
 73
4
 40
0.0
 40
0.0
 40
0.0
 40
0.0
 40
1.0
 40
1.0
 40
1.0
 40
1.0
 10
7.57226
 20
4.12375
 30
0.0
 10
7.63476
 20
4.21647
 30
0.0
 10
7.68582
 20
4.29563
 30
0.0
 10
7.68582
 20
4.29769
 30
0.0
  0
SPLINE
  5
161
100
AcDbEntity
  8
0
100
AcDbSpline
210
0.0
220
0.0
230
1.0
 62
     233
 70
     0
 71
     3
 72
     8
 73
4
 40
0.0
 40
0.0
 40
0.0
 40
0.0
 40
1.0
 40
1.0
 40
1.0
 40
1.0
 10
7.68582
 20
4.29769
 30
0.0
 10
7.68582
 20
4.30083
 30
0.0
 10
7.72331
 20
4.35189
 30
0.0
 10
7.76915
 20
4.41228
 30
0.0
  0
SPLINE
  5
162
100
AcDbEntity
  8
0
100
AcDbSpline
210
0.0
220
0.0
230
1.0
 62
     233
 70
     0
 71
     3
 72
     8
 73
4
 40
0.0
 40
0.0
 40
0.0
 40
0.0
 40
1.0
 40
1.0
 40
1.0
 40
1.0
 10
7.76915
 20
4.41228
 30
0.0
 10
7.81494
 20
4.47168
 30
0.0
 10
7.85249
 20
4.52582
 30
0.0
 10
7.85249
 20
4.53207
 30
0.0
  0
SPLINE
  5
163
100
AcDbEntity
  8
0
100
AcDbSpline
210
0.0
220
0.0
230
1.0
 62
     233
 70
     0
 71
     3
 72
     8
 73
4
 40
0.0
 40
0.0
 40
0.0
 40
0.0
 40
1.0
 40
1.0
 40
1.0
 40
1.0
 10
7.85249
 20
4.53207
 30
0.0
 10
7.85249
 20
4.53728
 30
0.0
 10
7.85872
 20
4.54665
 30
0.0
 10
7.866
 20
4.55083
 30
0.0
  0
SPLINE
  5
164
100
AcDbEntity
  8
0
100
AcDbSpline
210
0.0
220
0.0
230
1.0
 62
     233
 70
     0
 71
     3
 72
     8
 73
4
 40
0.0
 40
0.0
 40
0.0
 40
0.0
 40
1.0
 40
1.0
 40
1.0
 40
1.0
 10
7.866
 20
4.55083
 30
0.0
 10
7.87332
 20
4.55501
 30
0.0
 10
7.92953
 20
4.62272
 30
0.0
 10
7.991
 20
4.70085
 30
0.0
  0
SPLINE
  5
165
100
AcDbEntity
  8
0
100
AcDbSpline
210
0.0
220
0.0
230
1.0
 62
     233
 70
     0
 71
     3
 72
     8
 73
4
 40
0.0
 40
0.0
 40
0.0
 40
0.0
 40
1.0
 40
1.0
 40
1.0
 40
1.0
 10
7.991
 20
4.70085
 30
0.0
 10
8.26915
 20
5.05501
 30
0.0
 10
8.5931
 20
5.37685
 30
0.0
 10
8.73269
 20
5.43522
 30
0.0
  0
SPLINE
  5
166
100
AcDbEntity
  8
0
100
AcDbSpline
210
0.0
220
0.0
230
1.0
 62
     233
 70
     0
 71
     3
 72
     8
 73
4
 40
0.0
 40
0.0
 40
0.0
 40
0.0
 40
1.0
 40
1.0
 40
1.0
 40
1.0
 10
8.73269
 20
5.43522
 30
0.0
 10
8.78162
 20
5.45497
 30
0.0
 10
8.86393
 20
5.45394
 30
0.0
 10
8.91183
 20
5.43207
 30
0.0
  0
SPLINE
  5
167
100
AcDbEntity
  8
0
100
AcDbSpline
210
0.0
220
0.0
230
1.0
 62
     233
 70
     0
 71
     3
 72
     8
 73
4
 40
0.0
 40
0.0
 40
0.0
 40
0.0
 40
1.0
 40
1.0
 40
1.0
 40
1.0
 10
8.91183
 20
5.43207
 30
0.0
 10
9.03581
 20
5.37582
 30
0.0
 10
9.18267
 20
5.20811
 30
0.0
 10
9.22433
 20
5.0779
 30
0.0
  0
SPLINE
  5
168
100
AcDbEntity
  8
0
100
AcDbSpline
210
0.0
220
0.0
230
1.0
 62
     233
 70
     0
 71
     3
 72
     8
 73
4
 40
0.0
 40
0.0
 40
0.0
 40
0.0
 40
1.0
 40
1.0
 40
1.0
 40
1.0
 10
9.22433
 20
5.0779
 30
0.0
 10
9.23996
 20
5.03
 30
0.0
 10
9.23996
 20
5.01226
 30
0.0
 10
9.22954
 20
4.94976
 30
0.0
  0
SPLINE
  5
169
100
AcDbEntity
  8
0
100
AcDbSpline
210
0.0
220
0.0
230
1.0
 62
     233
 70
     0
 71
     3
 72
     8
 73
4
 40
0.0
 40
0.0
 40
0.0
 40
0.0
 40
1.0
 40
1.0
 40
1.0
 40
1.0
 10
9.22954
 20
4.94976
 30
0.0
 10
9.21707
 20
4.87685
 30
0.0
 10
9.19515
 20
4.80186
 30
0.0
 10
9.17019
 20
4.74664
 30
0.0
  0
SPLINE
  5
16a
100
AcDbEntity
  8
0
100
AcDbSpline
210
0.0
220
0.0
230
1.0
 62
     233
 70
     0
 71
     3
 72
     8
 73
4
 40
0.0
 40
0.0
 40
0.0
 40
0.0
 40
1.0
 40
1.0
 40
1.0
 40
1.0
 10
9.17019
 20
4.74664
 30
0.0
 10
9.16287
 20
4.72894
 30
0.0
 10
9.14725
 20
4.69146
 30
0.0
 10
9.13579
 20
4.66331
 30
0.0
  0
SPLINE
  5
16b
100
AcDbEntity
  8
0
100
AcDbSpline
210
0.0
220
0.0
230
1.0
 62
     233
 70
     0
 71
     3
 72
     8
 73
4
 40
0.0
 40
0.0
 40
0.0
 40
0.0
 40
1.0
 40
1.0
 40
1.0
 40
1.0
 10
9.13579
 20
4.66331
 30
0.0
 10
9.11496
 20
4.60915
 30
0.0
 10
8.99203
 20
4.34771
 30
0.0
 10
8.95768
 20
4.2831
 30
0.0
  0
SPLINE
  5
16c
100
AcDbEntity
  8
0
100
AcDbSpline
210
0.0
220
0.0
230
1.0
 62
     233
 70
     0
 71
     3
 72
     8
 73
4
 40
0.0
 40
0.0
 40
0.0
 40
0.0
 40
1.0
 40
1.0
 40
1.0
 40
1.0
 10
8.95768
 20
4.2831
 30
0.0
 10
8.88786
 20
4.15186
 30
0.0
 10
8.73682
 20
3.87375
 30
0.0
 10
8.71186
 20
3.82997
 30
0.0
  0
SPLINE
  5
16d
100
AcDbEntity
  8
0
100
AcDbSpline
210
0.0
220
0.0
230
1.0
 62
     233
 70
     0
 71
     3
 72
     8
 73
4
 40
0.0
 40
0.0
 40
0.0
 40
0.0
 40
1.0
 40
1.0
 40
1.0
 40
1.0
 10
8.71186
 20
3.82997
 30
0.0
 10
8.65039
 20
3.72374
 30
0.0
 10
8.49621
 20
3.46436
 30
0.0
 10
8.47331
 20
3.42893
 30
0.0
  0
SPLINE
  5
16e
100
AcDbEntity
  8
0
100
AcDbSpline
210
0.0
220
0.0
230
1.0
 62
     233
 70
     0
 71
     3
 72
     8
 73
4
 40
0.0
 40
0.0
 40
0.0
 40
0.0
 40
1.0
 40
1.0
 40
1.0
 40
1.0
 10
8.47331
 20
3.42893
 30
0.0
 10
8.45975
 20
3.40918
 30
0.0
 10
8.4056
 20
3.32476
 30
0.0
 10
8.3514
 20
3.24143
 30
0.0
  0
SPLINE
  5
16f
100
AcDbEntity
  8
0
100
AcDbSpline
210
0.0
220
0.0
230
1.0
 62
     233
 70
     0
 71
     3
 72
     8
 73
4
 40
0.0
 40
0.0
 40
0.0
 40
0.0
 40
1.0
 40
1.0
 40
1.0
 40
1.0
 10
8.3514
 20
3.24143
 30
0.0
 10
8.22119
 20
3.03831
 30
0.0
 10
7.96496
 20
2.68104
 30
0.0
 10
7.75976
 20
2.41331
 30
0.0
  0
SPLINE
  5
170
100
AcDbEntity
  8
0
100
AcDbSpline
210
0.0
220
0.0
230
1.0
 62
     233
 70
     0
 71
     3
 72
     8
 73
4
 40
0.0
 40
0.0
 40
0.0
 40
0.0
 40
1.0
 40
1.0
 40
1.0
 40
1.0
 10
7.75976
 20
2.41331
 30
0.0
 10
7.56706
 20
2.16331
 30
0.0
 10
7.54519
 20
2.13417
 30
0.0
 10
7.50765
 20
2.09039
 30
0.0
  0
SPLINE
  5
171
100
AcDbEntity
  8
0
100
AcDbSpline
210
0.0
220
0.0
230
1.0
 62
     233
 70
     0
 71
     3
 72
     8
 73
4
 40
0.0
 40
0.0
 40
0.0
 40
0.0
 40
1.0
 40
1.0
 40
1.0
 40
1.0
 10
7.50765
 20
2.09039
 30
0.0
 10
7.49311
 20
2.07374
 30
0.0
 10
7.47119
 20
2.04769
 30
0.0
 10
7.45975
 20
2.0331
 30
0.0
  0
SPLINE
  5
172
100
AcDbEntity
  8
0
100
AcDbSpline
210
0.0
220
0.0
230
1.0
 62
     233
 70
     0
 71
     3
 72
     8
 73
4
 40
0.0
 40
0.0
 40
0.0
 40
0.0
 40
1.0
 40
1.0
 40
1.0
 40
1.0
 10
7.45975
 20
2.0331
 30
0.0
 10
7.44726
 20
2.01856
 30
0.0
 10
7.33578
 20
1.88519
 30
0.0
 10
7.21186
 20
1.73622
 30
0.0
  0
LINE
  5
173
100
AcDbEntity
  8
0
100
AcDbLine
 62
     233
 10
7.21186
 20
1.73622
 30
0.0
 11
6.98579
 21
1.46539
 31
0.0
  0
LINE
  5
174
100
AcDbEntity
  8
0
100
AcDbLine
 62
     233
 10
6.98579
 20
1.46539
 30
0.0
 11
6.99203
 21
1.3508
 31
0.0
  0
SPLINE
  5
175
100
AcDbEntity
  8
0
100
AcDbSpline
210
0.0
220
0.0
230
1.0
 62
     233
 70
     0
 71
     3
 72
     8
 73
4
 40
0.0
 40
0.0
 40
0.0
 40
0.0
 40
1.0
 40
1.0
 40
1.0
 40
1.0
 10
6.99203
 20
1.3508
 30
0.0
 10
7.00874
 20
1.07167
 30
0.0
 10
7.04101
 20
0.926867
 30
0.0
 10
7.1014
 20
0.872721
 30
0.0
  0
SPLINE
  5
176
100
AcDbEntity
  8
0
100
AcDbSpline
210
0.0
220
0.0
230
1.0
 62
     233
 70
     0
 71
     3
 72
     8
 73
4
 40
0.0
 40
0.0
 40
0.0
 40
0.0
 40
1.0
 40
1.0
 40
1.0
 40
1.0
 10
7.1014
 20
0.872721
 30
0.0
 10
7.12017
 20
0.856011
 30
0.0
 10
7.12744
 20
0.854981
 30
0.0
 10
7.15349
 20
0.865397
 30
0.0
  0
SPLINE
  5
177
100
AcDbEntity
  8
0
100
AcDbSpline
210
0.0
220
0.0
230
1.0
 62
     233
 70
     0
 71
     3
 72
     8
 73
4
 40
0.0
 40
0.0
 40
0.0
 40
0.0
 40
1.0
 40
1.0
 40
1.0
 40
1.0
 10
7.15349
 20
0.865397
 30
0.0
 10
7.18061
 20
0.876844
 30
0.0
 10
7.34207
 20
1.03206
 30
0.0
 10
7.40978
 20
1.11122
 30
0.0
  0
SPLINE
  5
178
100
AcDbEntity
  8
0
100
AcDbSpline
210
0.0
220
0.0
230
1.0
 62
     233
 70
     0
 71
     3
 72
     8
 73
4
 40
0.0
 40
0.0
 40
0.0
 40
0.0
 40
1.0
 40
1.0
 40
1.0
 40
1.0
 10
7.40978
 20
1.11122
 30
0.0
 10
7.48269
 20
1.1977
 30
0.0
 10
7.59831
 20
1.39768
 30
0.0
 10
7.68994
 20
1.5956
 30
0.0
  0
SPLINE
  5
179
100
AcDbEntity
  8
0
100
AcDbSpline
210
0.0
220
0.0
230
1.0
 62
     233
 70
     0
 71
     3
 72
     8
 73
4
 40
0.0
 40
0.0
 40
0.0
 40
0.0
 40
1.0
 40
1.0
 40
1.0
 40
1.0
 10
7.68994
 20
1.5956
 30
0.0
 10
7.71186
 20
1.64458
 30
0.0
 10
7.73682
 20
1.69667
 30
0.0
 10
7.74414
 20
1.71126
 30
0.0
  0
SPLINE
  5
17a
100
AcDbEntity
  8
0
100
AcDbSpline
210
0.0
220
0.0
230
1.0
 62
     233
 70
     0
 71
     3
 72
     8
 73
4
 40
0.0
 40
0.0
 40
0.0
 40
0.0
 40
1.0
 40
1.0
 40
1.0
 40
1.0
 10
7.74414
 20
1.71126
 30
0.0
 10
7.75874
 20
1.7404
 30
0.0
 10
7.78369
 20
1.81332
 30
0.0
 10
7.79411
 20
1.85813
 30
0.0
  0
SPLINE
  5
17b
100
AcDbEntity
  8
0
100
AcDbSpline
210
0.0
220
0.0
230
1.0
 62
     233
 70
     0
 71
     3
 72
     8
 73
4
 40
0.0
 40
0.0
 40
0.0
 40
0.0
 40
1.0
 40
1.0
 40
1.0
 40
1.0
 10
7.79411
 20
1.85813
 30
0.0
 10
7.79725
 20
1.87375
 30
0.0
 10
7.8035
 20
1.94667
 30
0.0
 10
7.80664
 20
2.01958
 30
0.0
  0
SPLINE
  5
17c
100
AcDbEntity
  8
0
100
AcDbSpline
210
0.0
220
0.0
230
1.0
 62
     233
 70
     0
 71
     3
 72
     8
 73
4
 40
0.0
 40
0.0
 40
0.0
 40
0.0
 40
1.0
 40
1.0
 40
1.0
 40
1.0
 10
7.80664
 20
2.01958
 30
0.0
 10
7.81392
 20
2.17481
 30
0.0
 10
7.81912
 20
2.18414
 30
0.0
 10
7.9254
 20
2.24875
 30
0.0
  0
SPLINE
  5
17d
100
AcDbEntity
  8
0
100
AcDbSpline
210
0.0
220
0.0
230
1.0
 62
     233
 70
     0
 71
     3
 72
     8
 73
4
 40
0.0
 40
0.0
 40
0.0
 40
0.0
 40
1.0
 40
1.0
 40
1.0
 40
1.0
 10
7.9254
 20
2.24875
 30
0.0
 10
8.04932
 20
2.32374
 30
0.0
 10
8.19933
 20
2.36436
 30
0.0
 10
8.241
 20
2.33311
 30
0.0
  0
SPLINE
  5
17e
100
AcDbEntity
  8
0
100
AcDbSpline
210
0.0
220
0.0
230
1.0
 62
     233
 70
     0
 71
     3
 72
     8
 73
4
 40
0.0
 40
0.0
 40
0.0
 40
0.0
 40
1.0
 40
1.0
 40
1.0
 40
1.0
 10
8.241
 20
2.33311
 30
0.0
 10
8.26079
 20
2.31749
 30
0.0
 10
8.29932
 20
2.19353
 30
0.0
 10
8.30767
 20
2.11643
 30
0.0
  0
SPLINE
  5
17f
100
AcDbEntity
  8
0
100
AcDbSpline
210
0.0
220
0.0
230
1.0
 62
     233
 70
     0
 71
     3
 72
     8
 73
4
 40
0.0
 40
0.0
 40
0.0
 40
0.0
 40
1.0
 40
1.0
 40
1.0
 40
1.0
 10
8.30767
 20
2.11643
 30
0.0
 10
8.31287
 20
2.06228
 30
0.0
 10
8.32644
 20
2.01335
 30
0.0
 10
8.34933
 20
1.95708
 30
0.0
  0
SPLINE
  5
180
100
AcDbEntity
  8
0
100
AcDbSpline
210
0.0
220
0.0
230
1.0
 62
     233
 70
     0
 71
     3
 72
     8
 73
4
 40
0.0
 40
0.0
 40
0.0
 40
0.0
 40
1.0
 40
1.0
 40
1.0
 40
1.0
 10
8.34933
 20
1.95708
 30
0.0
 10
8.37224
 20
1.905
 30
0.0
 10
8.42019
 20
1.88938
 30
0.0
 10
8.51183
 20
1.90603
 30
0.0
  0
SPLINE
  5
181
100
AcDbEntity
  8
0
100
AcDbSpline
210
0.0
220
0.0
230
1.0
 62
     233
 70
     0
 71
     3
 72
     8
 73
4
 40
0.0
 40
0.0
 40
0.0
 40
0.0
 40
1.0
 40
1.0
 40
1.0
 40
1.0
 10
8.51183
 20
1.90603
 30
0.0
 10
8.58892
 20
1.9196
 30
0.0
 10
8.61703
 20
1.94667
 30
0.0
 10
8.67953
 20
2.06543
 30
0.0
  0
SPLINE
  5
182
100
AcDbEntity
  8
0
100
AcDbSpline
210
0.0
220
0.0
230
1.0
 62
     233
 70
     0
 71
     3
 72
     8
 73
4
 40
0.0
 40
0.0
 40
0.0
 40
0.0
 40
1.0
 40
1.0
 40
1.0
 40
1.0
 10
8.67953
 20
2.06543
 30
0.0
 10
8.70144
 20
2.10813
 30
0.0
 10
8.73269
 20
2.16542
 30
0.0
 10
8.74832
 20
2.19456
 30
0.0
  0
SPLINE
  5
183
100
AcDbEntity
  8
0
100
AcDbSpline
210
0.0
220
0.0
230
1.0
 62
     233
 70
     0
 71
     3
 72
     8
 73
4
 40
0.0
 40
0.0
 40
0.0
 40
0.0
 40
1.0
 40
1.0
 40
1.0
 40
1.0
 10
8.74832
 20
2.19456
 30
0.0
 10
8.76394
 20
2.22271
 30
0.0
 10
8.79411
 20
2.28207
 30
0.0
 10
8.81603
 20
2.32476
 30
0.0
  0
SPLINE
  5
184
100
AcDbEntity
  8
0
100
AcDbSpline
210
0.0
220
0.0
230
1.0
 62
     233
 70
     0
 71
     3
 72
     8
 73
4
 40
0.0
 40
0.0
 40
0.0
 40
0.0
 40
1.0
 40
1.0
 40
1.0
 40
1.0
 10
8.81603
 20
2.32476
 30
0.0
 10
8.85454
 20
2.40082
 30
0.0
 10
8.95454
 20
2.55707
 30
0.0
 10
9.00456
 20
2.62164
 30
0.0
  0
SPLINE
  5
185
100
AcDbEntity
  8
0
100
AcDbSpline
210
0.0
220
0.0
230
1.0
 62
     233
 70
     0
 71
     3
 72
     8
 73
4
 40
0.0
 40
0.0
 40
0.0
 40
0.0
 40
1.0
 40
1.0
 40
1.0
 40
1.0
 10
9.00456
 20
2.62164
 30
0.0
 10
9.07015
 20
2.70497
 30
0.0
 10
9.09099
 20
2.72999
 30
0.0
 10
9.14936
 20
2.79249
 30
0.0
  0
SPLINE
  5
186
100
AcDbEntity
  8
0
100
AcDbSpline
210
0.0
220
0.0
230
1.0
 62
     233
 70
     0
 71
     3
 72
     8
 73
4
 40
0.0
 40
0.0
 40
0.0
 40
0.0
 40
1.0
 40
1.0
 40
1.0
 40
1.0
 10
9.14936
 20
2.79249
 30
0.0
 10
9.28581
 20
2.93832
 30
0.0
 10
9.41704
 20
3.04351
 30
0.0
 10
9.46289
 20
3.04351
 30
0.0
  0
SPLINE
  5
187
100
AcDbEntity
  8
0
100
AcDbSpline
210
0.0
220
0.0
230
1.0
 62
     233
 70
     0
 71
     3
 72
     8
 73
4
 40
0.0
 40
0.0
 40
0.0
 40
0.0
 40
1.0
 40
1.0
 40
1.0
 40
1.0
 10
9.46289
 20
3.04351
 30
0.0
 10
9.48893
 20
3.04351
 30
0.0
 10
9.54519
 20
2.98415
 30
0.0
 10
9.62537
 20
2.87164
 30
0.0
  0
SPLINE
  5
188
100
AcDbEntity
  8
0
100
AcDbSpline
210
0.0
220
0.0
230
1.0
 62
     233
 70
     0
 71
     3
 72
     8
 73
4
 40
0.0
 40
0.0
 40
0.0
 40
0.0
 40
1.0
 40
1.0
 40
1.0
 40
1.0
 10
9.62537
 20
2.87164
 30
0.0
 10
9.69515
 20
2.77376
 30
0.0
 10
9.72017
 20
2.71957
 30
0.0
 10
9.70768
 20
2.68728
 30
0.0
  0
SPLINE
  5
189
100
AcDbEntity
  8
0
100
AcDbSpline
210
0.0
220
0.0
230
1.0
 62
     233
 70
     0
 71
     3
 72
     8
 73
4
 40
0.0
 40
0.0
 40
0.0
 40
0.0
 40
1.0
 40
1.0
 40
1.0
 40
1.0
 10
9.70768
 20
2.68728
 30
0.0
 10
9.69933
 20
2.66439
 30
0.0
 10
9.56392
 20
2.48519
 30
0.0
 10
9.50662
 20
2.42063
 30
0.0
  0
SPLINE
  5
18a
100
AcDbEntity
  8
0
100
AcDbSpline
210
0.0
220
0.0
230
1.0
 62
     233
 70
     0
 71
     3
 72
     8
 73
4
 40
0.0
 40
0.0
 40
0.0
 40
0.0
 40
1.0
 40
1.0
 40
1.0
 40
1.0
 10
9.50662
 20
2.42063
 30
0.0
 10
9.27642
 20
2.15918
 30
0.0
 10
9.18474
 20
2.02789
 30
0.0
 10
9.06287
 20
1.78831
 30
0.0
  0
SPLINE
  5
18b
100
AcDbEntity
  8
0
100
AcDbSpline
210
0.0
220
0.0
230
1.0
 62
     233
 70
     0
 71
     3
 72
     8
 73
4
 40
0.0
 40
0.0
 40
0.0
 40
0.0
 40
1.0
 40
1.0
 40
1.0
 40
1.0
 10
9.06287
 20
1.78831
 30
0.0
 10
8.91601
 20
1.49561
 30
0.0
 10
8.89621
 20
1.43625
 30
0.0
 10
8.89204
 20
1.27268
 30
0.0
  0
LINE
  5
18c
100
AcDbEntity
  8
0
100
AcDbLine
 62
     233
 10
8.89204
 20
1.27268
 30
0.0
 11
8.88894
 21
1.15289
 31
0.0
  0
LINE
  5
18d
100
AcDbEntity
  8
0
100
AcDbLine
 62
     233
 10
8.88894
 20
1.15289
 30
0.0
 11
8.98269
 21
1.14979
 31
0.0
  0
SPLINE
  5
18e
100
AcDbEntity
  8
0
100
AcDbSpline
210
0.0
220
0.0
230
1.0
 62
     233
 70
     0
 71
     3
 72
     8
 73
4
 40
0.0
 40
0.0
 40
0.0
 40
0.0
 40
1.0
 40
1.0
 40
1.0
 40
1.0
 10
8.98269
 20
1.14979
 30
0.0
 10
9.12017
 20
1.14562
 30
0.0
 10
9.20557
 20
1.17269
 30
0.0
 10
9.34207
 20
1.26438
 30
0.0
  0
SPLINE
  5
18f
100
AcDbEntity
  8
0
100
AcDbSpline
210
0.0
220
0.0
230
1.0
 62
     233
 70
     0
 71
     3
 72
     8
 73
4
 40
0.0
 40
0.0
 40
0.0
 40
0.0
 40
1.0
 40
1.0
 40
1.0
 40
1.0
 10
9.34207
 20
1.26438
 30
0.0
 10
9.42329
 20
1.31852
 30
0.0
 10
9.50558
 20
1.39247
 30
0.0
 10
9.54101
 20
1.44146
 30
0.0
  0
SPLINE
  5
190
100
AcDbEntity
  8
0
100
AcDbSpline
210
0.0
220
0.0
230
1.0
 62
     233
 70
     0
 71
     3
 72
     8
 73
4
 40
0.0
 40
0.0
 40
0.0
 40
0.0
 40
1.0
 40
1.0
 40
1.0
 40
1.0
 10
9.54101
 20
1.44146
 30
0.0
 10
9.56392
 20
1.47374
 30
0.0
 10
9.56808
 20
1.49143
 30
0.0
 10
9.58165
 20
1.65289
 30
0.0
  0
SPLINE
  5
191
100
AcDbEntity
  8
0
100
AcDbSpline
210
0.0
220
0.0
230
1.0
 62
     233
 70
     0
 71
     3
 72
     8
 73
4
 40
0.0
 40
0.0
 40
0.0
 40
0.0
 40
1.0
 40
1.0
 40
1.0
 40
1.0
 10
9.58165
 20
1.65289
 30
0.0
 10
9.59099
 20
1.76644
 30
0.0
 10
9.61079
 20
1.8571
 30
0.0
 10
9.65457
 20
1.99457
 30
0.0
  0
SPLINE
  5
192
100
AcDbEntity
  8
0
100
AcDbSpline
210
0.0
220
0.0
230
1.0
 62
     233
 70
     0
 71
     3
 72
     8
 73
4
 40
0.0
 40
0.0
 40
0.0
 40
0.0
 40
1.0
 40
1.0
 40
1.0
 40
1.0
 10
9.65457
 20
1.99457
 30
0.0
 10
9.68371
 20
2.08832
 30
0.0
 10
9.82124
 20
2.35499
 30
0.0
 10
9.88162
 20
2.43728
 30
0.0
  0
SPLINE
  5
193
100
AcDbEntity
  8
0
100
AcDbSpline
210
0.0
220
0.0
230
1.0
 62
     233
 70
     0
 71
     3
 72
     8
 73
4
 40
0.0
 40
0.0
 40
0.0
 40
0.0
 40
1.0
 40
1.0
 40
1.0
 40
1.0
 10
9.88162
 20
2.43728
 30
0.0
 10
9.9285
 20
2.49875
 30
0.0
 10
10.0285
 20
2.62582
 30
0.0
 10
10.04
 20
2.63726
 30
0.0
  0
SPLINE
  5
194
100
AcDbEntity
  8
0
100
AcDbSpline
210
0.0
220
0.0
230
1.0
 62
     233
 70
     0
 71
     3
 72
     8
 73
4
 40
0.0
 40
0.0
 40
0.0
 40
0.0
 40
1.0
 40
1.0
 40
1.0
 40
1.0
 10
10.04
 20
2.63726
 30
0.0
 10
10.0431
 20
2.6404
 30
0.0
 10
10.0608
 20
2.66124
 30
0.0
 10
10.0795
 20
2.68414
 30
0.0
  0
SPLINE
  5
195
100
AcDbEntity
  8
0
100
AcDbSpline
210
0.0
220
0.0
230
1.0
 62
     233
 70
     0
 71
     3
 72
     8
 73
4
 40
0.0
 40
0.0
 40
0.0
 40
0.0
 40
1.0
 40
1.0
 40
1.0
 40
1.0
 10
10.0795
 20
2.68414
 30
0.0
 10
10.1681
 20
2.78939
 30
0.0
 10
10.3535
 20
2.96647
 30
0.0
 10
10.4347
 20
3.02165
 30
0.0
  0
SPLINE
  5
196
100
AcDbEntity
  8
0
100
AcDbSpline
210
0.0
220
0.0
230
1.0
 62
     233
 70
     0
 71
     3
 72
     8
 73
4
 40
0.0
 40
0.0
 40
0.0
 40
0.0
 40
1.0
 40
1.0
 40
1.0
 40
1.0
 10
10.4347
 20
3.02165
 30
0.0
 10
10.5493
 20
3.09978
 30
0.0
 10
10.6233
 20
3.12685
 30
0.0
 10
10.7171
 20
3.12685
 30
0.0
  0
SPLINE
  5
197
100
AcDbEntity
  8
0
100
AcDbSpline
210
0.0
220
0.0
230
1.0
 62
     233
 70
     0
 71
     3
 72
     8
 73
4
 40
0.0
 40
0.0
 40
0.0
 40
0.0
 40
1.0
 40
1.0
 40
1.0
 40
1.0
 10
10.7171
 20
3.12685
 30
0.0
 10
10.8379
 20
3.12685
 30
0.0
 10
10.9514
 20
3.06956
 30
0.0
 10
11.0639
 20
2.95085
 30
0.0
  0
SPLINE
  5
198
100
AcDbEntity
  8
0
100
AcDbSpline
210
0.0
220
0.0
230
1.0
 62
     233
 70
     0
 71
     3
 72
     8
 73
4
 40
0.0
 40
0.0
 40
0.0
 40
0.0
 40
1.0
 40
1.0
 40
1.0
 40
1.0
 10
11.0639
 20
2.95085
 30
0.0
 10
11.2077
 20
2.79981
 30
0.0
 10
11.2119
 20
2.66851
 30
0.0
 10
11.0817
 20
2.4081
 30
0.0
  0
SPLINE
  5
199
100
AcDbEntity
  8
0
100
AcDbSpline
210
0.0
220
0.0
230
1.0
 62
     233
 70
     0
 71
     3
 72
     8
 73
4
 40
0.0
 40
0.0
 40
0.0
 40
0.0
 40
1.0
 40
1.0
 40
1.0
 40
1.0
 10
11.0817
 20
2.4081
 30
0.0
 10
11.0202
 20
2.28521
 30
0.0
 10
11.0098
 20
2.26438
 30
0.0
 10
10.9806
 20
2.22374
 30
0.0
  0
SPLINE
  5
19a
100
AcDbEntity
  8
0
100
AcDbSpline
210
0.0
220
0.0
230
1.0
 62
     233
 70
     0
 71
     3
 72
     8
 73
4
 40
0.0
 40
0.0
 40
0.0
 40
0.0
 40
1.0
 40
1.0
 40
1.0
 40
1.0
 10
10.9806
 20
2.22374
 30
0.0
 10
10.9671
 20
2.20606
 30
0.0
 10
10.9567
 20
2.18832
 30
0.0
 10
10.9567
 20
2.18522
 30
0.0
  0
SPLINE
  5
19b
100
AcDbEntity
  8
0
100
AcDbSpline
210
0.0
220
0.0
230
1.0
 62
     233
 70
     0
 71
     3
 72
     8
 73
4
 40
0.0
 40
0.0
 40
0.0
 40
0.0
 40
1.0
 40
1.0
 40
1.0
 40
1.0
 10
10.9567
 20
2.18522
 30
0.0
 10
10.9567
 20
2.18207
 30
0.0
 10
10.9504
 20
2.17063
 30
0.0
 10
10.9421
 20
2.16124
 30
0.0
  0
SPLINE
  5
19c
100
AcDbEntity
  8
0
100
AcDbSpline
210
0.0
220
0.0
230
1.0
 62
     233
 70
     0
 71
     3
 72
     8
 73
4
 40
0.0
 40
0.0
 40
0.0
 40
0.0
 40
1.0
 40
1.0
 40
1.0
 40
1.0
 10
10.9421
 20
2.16124
 30
0.0
 10
10.9337
 20
2.15082
 30
0.0
 10
10.89
 20
2.09353
 30
0.0
 10
10.8462
 20
2.03418
 30
0.0
  0
SPLINE
  5
19d
100
AcDbEntity
  8
0
100
AcDbSpline
210
0.0
220
0.0
230
1.0
 62
     233
 70
     0
 71
     3
 72
     8
 73
4
 40
0.0
 40
0.0
 40
0.0
 40
0.0
 40
1.0
 40
1.0
 40
1.0
 40
1.0
 10
10.8462
 20
2.03418
 30
0.0
 10
10.6962
 20
1.83311
 30
0.0
 10
10.4098
 20
1.53939
 30
0.0
 10
10.2004
 20
1.37272
 30
0.0
  0
SPLINE
  5
19e
100
AcDbEntity
  8
0
100
AcDbSpline
210
0.0
220
0.0
230
1.0
 62
     233
 70
     0
 71
     3
 72
     8
 73
4
 40
0.0
 40
0.0
 40
0.0
 40
0.0
 40
1.0
 40
1.0
 40
1.0
 40
1.0
 10
10.2004
 20
1.37272
 30
0.0
 10
10.1442
 20
1.32688
 30
0.0
 10
10.0889
 20
1.28103
 30
0.0
 10
10.0795
 20
1.26959
 30
0.0
  0
SPLINE
  5
19f
100
AcDbEntity
  8
0
100
AcDbSpline
210
0.0
220
0.0
230
1.0
 62
     233
 70
     0
 71
     3
 72
     8
 73
4
 40
0.0
 40
0.0
 40
0.0
 40
0.0
 40
1.0
 40
1.0
 40
1.0
 40
1.0
 10
10.0795
 20
1.26959
 30
0.0
 10
10.0608
 20
1.24978
 30
0.0
 10
10.0535
 20
1.18934
 30
0.0
 10
10.0681
 20
1.1748
 30
0.0
  0
SPLINE
  5
1a0
100
AcDbEntity
  8
0
100
AcDbSpline
210
0.0
220
0.0
230
1.0
 62
     233
 70
     0
 71
     3
 72
     8
 73
4
 40
0.0
 40
0.0
 40
0.0
 40
0.0
 40
1.0
 40
1.0
 40
1.0
 40
1.0
 10
10.0681
 20
1.1748
 30
0.0
 10
10.0723
 20
1.17063
 30
0.0
 10
10.0775
 20
1.155
 30
0.0
 10
10.0795
 20
1.13938
 30
0.0
  0
SPLINE
  5
1a1
100
AcDbEntity
  8
0
100
AcDbSpline
210
0.0
220
0.0
230
1.0
 62
     233
 70
     0
 71
     3
 72
     8
 73
4
 40
0.0
 40
0.0
 40
0.0
 40
0.0
 40
1.0
 40
1.0
 40
1.0
 40
1.0
 10
10.0795
 20
1.13938
 30
0.0
 10
10.0847
 20
1.09771
 30
0.0
 10
10.1296
 20
1.02686
 30
0.0
 10
10.1681
 20
0.999783
 30
0.0
  0
SPLINE
  5
1a2
100
AcDbEntity
  8
0
100
AcDbSpline
210
0.0
220
0.0
230
1.0
 62
     233
 70
     0
 71
     3
 72
     8
 73
4
 40
0.0
 40
0.0
 40
0.0
 40
0.0
 40
1.0
 40
1.0
 40
1.0
 40
1.0
 10
10.1681
 20
0.999783
 30
0.0
 10
10.2139
 20
0.966471
 30
0.0
 10
10.3285
 20
0.966471
 30
0.0
 10
10.4306
 20
0.999783
 30
0.0
  0
SPLINE
  5
1a3
100
AcDbEntity
  8
0
100
AcDbSpline
210
0.0
220
0.0
230
1.0
 62
     233
 70
     0
 71
     3
 72
     8
 73
4
 40
0.0
 40
0.0
 40
0.0
 40
0.0
 40
1.0
 40
1.0
 40
1.0
 40
1.0
 10
10.4306
 20
0.999783
 30
0.0
 10
10.5671
 20
1.0446
 30
0.0
 10
10.9035
 20
1.23937
 30
0.0
 10
11.1494
 20
1.41644
 30
0.0
  0
SPLINE
  5
1a4
100
AcDbEntity
  8
0
100
AcDbSpline
210
0.0
220
0.0
230
1.0
 62
     233
 70
     0
 71
     3
 72
     8
 73
4
 40
0.0
 40
0.0
 40
0.0
 40
0.0
 40
1.0
 40
1.0
 40
1.0
 40
1.0
 10
11.1494
 20
1.41644
 30
0.0
 10
11.1973
 20
1.45188
 30
0.0
 10
11.34
 20
1.56228
 30
0.0
 10
11.3525
 20
1.57476
 30
0.0
  0
SPLINE
  5
1a5
100
AcDbEntity
  8
0
100
AcDbSpline
210
0.0
220
0.0
230
1.0
 62
     233
 70
     0
 71
     3
 72
     8
 73
4
 40
0.0
 40
0.0
 40
0.0
 40
0.0
 40
1.0
 40
1.0
 40
1.0
 40
1.0
 10
11.3525
 20
1.57476
 30
0.0
 10
11.3556
 20
1.5779
 30
0.0
 10
11.3858
 20
1.60292
 30
0.0
 10
11.4202
 20
1.63206
 30
0.0
  0
SPLINE
  5
1a6
100
AcDbEntity
  8
0
100
AcDbSpline
210
0.0
220
0.0
230
1.0
 62
     233
 70
     0
 71
     3
 72
     8
 73
4
 40
0.0
 40
0.0
 40
0.0
 40
0.0
 40
1.0
 40
1.0
 40
1.0
 40
1.0
 10
11.4202
 20
1.63206
 30
0.0
 10
11.5504
 20
1.73833
 30
0.0
 10
11.7014
 20
1.88417
 30
0.0
 10
11.8087
 20
2.00603
 30
0.0
  0
SPLINE
  5
1a7
100
AcDbEntity
  8
0
100
AcDbSpline
210
0.0
220
0.0
230
1.0
 62
     233
 70
     0
 71
     3
 72
     8
 73
4
 40
0.0
 40
0.0
 40
0.0
 40
0.0
 40
1.0
 40
1.0
 40
1.0
 40
1.0
 10
11.8087
 20
2.00603
 30
0.0
 10
11.9785
 20
2.19769
 30
0.0
 10
12.042
 20
2.26226
 30
0.0
 10
12.0587
 20
2.26226
 30
0.0
  0
SPLINE
  5
1a8
100
AcDbEntity
  8
0
100
AcDbSpline
210
0.0
220
0.0
230
1.0
 62
     233
 70
     0
 71
     3
 72
     8
 73
4
 40
0.0
 40
0.0
 40
0.0
 40
0.0
 40
1.0
 40
1.0
 40
1.0
 40
1.0
 10
12.0587
 20
2.26226
 30
0.0
 10
12.1025
 20
2.26226
 30
0.0
 10
12.1973
 20
2.11957
 30
0.0
 10
12.2431
 20
1.98519
 30
0.0
  0
SPLINE
  5
1a9
100
AcDbEntity
  8
0
100
AcDbSpline
210
0.0
220
0.0
230
1.0
 62
     233
 70
     0
 71
     3
 72
     8
 73
4
 40
0.0
 40
0.0
 40
0.0
 40
0.0
 40
1.0
 40
1.0
 40
1.0
 40
1.0
 10
12.2431
 20
1.98519
 30
0.0
 10
12.2962
 20
1.8279
 30
0.0
 10
12.2702
 20
1.77061
 30
0.0
 10
12.0358
 20
1.53831
 30
0.0
  0
SPLINE
  5
1aa
100
AcDbEntity
  8
0
100
AcDbSpline
210
0.0
220
0.0
230
1.0
 62
     233
 70
     0
 71
     3
 72
     8
 73
4
 40
0.0
 40
0.0
 40
0.0
 40
0.0
 40
1.0
 40
1.0
 40
1.0
 40
1.0
 10
12.0358
 20
1.53831
 30
0.0
 10
11.966
 20
1.46957
 30
0.0
 10
11.8868
 20
1.39458
 30
0.0
 10
11.8587
 20
1.37164
 30
0.0
  0
SPLINE
  5
1ab
100
AcDbEntity
  8
0
100
AcDbSpline
210
0.0
220
0.0
230
1.0
 62
     233
 70
     0
 71
     3
 72
     8
 73
4
 40
0.0
 40
0.0
 40
0.0
 40
0.0
 40
1.0
 40
1.0
 40
1.0
 40
1.0
 10
11.8587
 20
1.37164
 30
0.0
 10
11.8306
 20
1.34874
 30
0.0
 10
11.7868
 20
1.31228
 30
0.0
 10
11.7618
 20
1.29145
 30
0.0
  0
SPLINE
  5
1ac
100
AcDbEntity
  8
0
100
AcDbSpline
210
0.0
220
0.0
230
1.0
 62
     233
 70
     0
 71
     3
 72
     8
 73
4
 40
0.0
 40
0.0
 40
0.0
 40
0.0
 40
1.0
 40
1.0
 40
1.0
 40
1.0
 10
11.7618
 20
1.29145
 30
0.0
 10
11.5723
 20
1.12999
 30
0.0
 10
11.2025
 20
0.869575
 30
0.0
 10
11.0535
 20
0.793511
 30
0.0
  0
SPLINE
  5
1ad
100
AcDbEntity
  8
0
100
AcDbSpline
210
0.0
220
0.0
230
1.0
 62
     233
 70
     0
 71
     3
 72
     8
 73
4
 40
0.0
 40
0.0
 40
0.0
 40
0.0
 40
1.0
 40
1.0
 40
1.0
 40
1.0
 10
11.0535
 20
0.793511
 30
0.0
 10
11.0087
 20
0.770617
 30
0.0
 10
10.965
 20
0.751844
 30
0.0
 10
10.9567
 20
0.751844
 30
0.0
  0
SPLINE
  5
1ae
100
AcDbEntity
  8
0
100
AcDbSpline
210
0.0
220
0.0
230
1.0
 62
     233
 70
     0
 71
     3
 72
     8
 73
4
 40
0.0
 40
0.0
 40
0.0
 40
0.0
 40
1.0
 40
1.0
 40
1.0
 40
1.0
 10
10.9567
 20
0.751844
 30
0.0
 10
10.9473
 20
0.751844
 30
0.0
 10
10.9358
 20
0.747721
 30
0.0
 10
10.9295
 20
0.742512
 30
0.0
  0
SPLINE
  5
1af
100
AcDbEntity
  8
0
100
AcDbSpline
210
0.0
220
0.0
230
1.0
 62
     233
 70
     0
 71
     3
 72
     8
 73
4
 40
0.0
 40
0.0
 40
0.0
 40
0.0
 40
1.0
 40
1.0
 40
1.0
 40
1.0
 10
10.9295
 20
0.742512
 30
0.0
 10
10.916
 20
0.72895
 30
0.0
 10
10.7744
 20
0.683106
 30
0.0
 10
10.6889
 20
0.663303
 30
0.0
  0
SPLINE
  5
1b0
100
AcDbEntity
  8
0
100
AcDbSpline
210
0.0
220
0.0
230
1.0
 62
     233
 70
     0
 71
     3
 72
     8
 73
4
 40
0.0
 40
0.0
 40
0.0
 40
0.0
 40
1.0
 40
1.0
 40
1.0
 40
1.0
 10
10.6889
 20
0.663303
 30
0.0
 10
10.5077
 20
0.622721
 30
0.0
 10
10.2514
 20
0.628961
 30
0.0
 10
10.1285
 20
0.678928
 30
0.0
  0
SPLINE
  5
1b1
100
AcDbEntity
  8
0
100
AcDbSpline
210
0.0
220
0.0
230
1.0
 62
     233
 70
     0
 71
     3
 72
     8
 73
4
 40
0.0
 40
0.0
 40
0.0
 40
0.0
 40
1.0
 40
1.0
 40
1.0
 40
1.0
 10
10.1285
 20
0.678928
 30
0.0
 10
10.117
 20
0.683106
 30
0.0
 10
10.0817
 20
0.6977
 30
0.0
 10
10.0504
 20
0.710178
 30
0.0
  0
SPLINE
  5
1b2
100
AcDbEntity
  8
0
100
AcDbSpline
210
0.0
220
0.0
230
1.0
 62
     233
 70
     0
 71
     3
 72
     8
 73
4
 40
0.0
 40
0.0
 40
0.0
 40
0.0
 40
1.0
 40
1.0
 40
1.0
 40
1.0
 10
10.0504
 20
0.710178
 30
0.0
 10
9.96599
 20
0.744575
 30
0.0
 10
9.85872
 20
0.8227
 30
0.0
 10
9.75874
 20
0.923719
 30
0.0
  0
SPLINE
  5
1b3
100
AcDbEntity
  8
0
100
AcDbSpline
210
0.0
220
0.0
230
1.0
 62
     233
 70
     0
 71
     3
 72
     8
 73
4
 40
0.0
 40
0.0
 40
0.0
 40
0.0
 40
1.0
 40
1.0
 40
1.0
 40
1.0
 10
9.75874
 20
0.923719
 30
0.0
 10
9.71078
 20
0.972711
 30
0.0
 10
9.66499
 20
1.01226
 30
0.0
 10
9.65767
 20
1.01226
 30
0.0
  0
SPLINE
  5
1b4
100
AcDbEntity
  8
0
100
AcDbSpline
210
0.0
220
0.0
230
1.0
 62
     233
 70
     0
 71
     3
 72
     8
 73
4
 40
0.0
 40
0.0
 40
0.0
 40
0.0
 40
1.0
 40
1.0
 40
1.0
 40
1.0
 10
9.65767
 20
1.01226
 30
0.0
 10
9.65039
 20
1.01226
 30
0.0
 10
9.61079
 20
0.991428
 30
0.0
 10
9.57015
 20
0.964356
 30
0.0
  0
SPLINE
  5
1b5
100
AcDbEntity
  8
0
100
AcDbSpline
210
0.0
220
0.0
230
1.0
 62
     233
 70
     0
 71
     3
 72
     8
 73
4
 40
0.0
 40
0.0
 40
0.0
 40
0.0
 40
1.0
 40
1.0
 40
1.0
 40
1.0
 10
9.57015
 20
0.964356
 30
0.0
 10
9.41499
 20
0.865397
 30
0.0
 10
9.15662
 20
0.772678
 30
0.0
 10
9.03683
 20
0.772678
 30
0.0
  0
SPLINE
  5
1b6
100
AcDbEntity
  8
0
100
AcDbSpline
210
0.0
220
0.0
230
1.0
 62
     233
 70
     0
 71
     3
 72
     8
 73
4
 40
0.0
 40
0.0
 40
0.0
 40
0.0
 40
1.0
 40
1.0
 40
1.0
 40
1.0
 10
9.03683
 20
0.772678
 30
0.0
 10
8.87435
 20
0.773762
 30
0.0
 10
8.65767
 20
0.907064
 30
0.0
 10
8.54204
 20
1.07997
 30
0.0
  0
SPLINE
  5
1b7
100
AcDbEntity
  8
0
100
AcDbSpline
210
0.0
220
0.0
230
1.0
 62
     233
 70
     0
 71
     3
 72
     8
 73
4
 40
0.0
 40
0.0
 40
0.0
 40
0.0
 40
1.0
 40
1.0
 40
1.0
 40
1.0
 10
8.54204
 20
1.07997
 30
0.0
 10
8.48682
 20
1.16227
 30
0.0
 10
8.45975
 20
1.26123
 30
0.0
 10
8.45247
 20
1.39979
 30
0.0
  0
SPLINE
  5
1b8
100
AcDbEntity
  8
0
100
AcDbSpline
210
0.0
220
0.0
230
1.0
 62
     233
 70
     0
 71
     3
 72
     8
 73
4
 40
0.0
 40
0.0
 40
0.0
 40
0.0
 40
1.0
 40
1.0
 40
1.0
 40
1.0
 10
8.45247
 20
1.39979
 30
0.0
 10
8.44726
 20
1.52061
 30
0.0
 10
8.43787
 20
1.54872
 30
0.0
 10
8.40246
 20
1.55914
 30
0.0
  0
SPLINE
  5
1b9
100
AcDbEntity
  8
0
100
AcDbSpline
210
0.0
220
0.0
230
1.0
 62
     233
 70
     0
 71
     3
 72
     8
 73
4
 40
0.0
 40
0.0
 40
0.0
 40
0.0
 40
1.0
 40
1.0
 40
1.0
 40
1.0
 10
8.40246
 20
1.55914
 30
0.0
 10
8.366
 20
1.56956
 30
0.0
 10
8.3431
 20
1.57894
 30
0.0
 10
8.26183
 20
1.62061
 30
0.0
  0
SPLINE
  5
1ba
100
AcDbEntity
  8
0
100
AcDbSpline
210
0.0
220
0.0
230
1.0
 62
     233
 70
     0
 71
     3
 72
     8
 73
4
 40
0.0
 40
0.0
 40
0.0
 40
0.0
 40
1.0
 40
1.0
 40
1.0
 40
1.0
 10
8.26183
 20
1.62061
 30
0.0
 10
8.22119
 20
1.64144
 30
0.0
 10
8.18474
 20
1.6581
 30
0.0
 10
8.18267
 20
1.6581
 30
0.0
  0
SPLINE
  5
1bb
100
AcDbEntity
  8
0
100
AcDbSpline
210
0.0
220
0.0
230
1.0
 62
     233
 70
     0
 71
     3
 72
     8
 73
4
 40
0.0
 40
0.0
 40
0.0
 40
0.0
 40
1.0
 40
1.0
 40
1.0
 40
1.0
 10
8.18267
 20
1.6581
 30
0.0
 10
8.17953
 20
1.6581
 30
0.0
 10
8.16081
 20
1.60813
 30
0.0
 10
8.141
 20
1.54563
 30
0.0
  0
SPLINE
  5
1bc
100
AcDbEntity
  8
0
100
AcDbSpline
210
0.0
220
0.0
230
1.0
 62
     233
 70
     0
 71
     3
 72
     8
 73
4
 40
0.0
 40
0.0
 40
0.0
 40
0.0
 40
1.0
 40
1.0
 40
1.0
 40
1.0
 10
8.141
 20
1.54563
 30
0.0
 10
8.07644
 20
1.3508
 30
0.0
 10
7.89204
 20
1.00917
 30
0.0
 10
7.73996
 20
0.806044
 30
0.0
  0
SPLINE
  5
1bd
100
AcDbEntity
  8
0
100
AcDbSpline
210
0.0
220
0.0
230
1.0
 62
     233
 70
     0
 71
     3
 72
     8
 73
4
 40
0.0
 40
0.0
 40
0.0
 40
0.0
 40
1.0
 40
1.0
 40
1.0
 40
1.0
 10
7.73996
 20
0.806044
 30
0.0
 10
7.67225
 20
0.715386
 30
0.0
 10
7.52121
 20
0.567492
 30
0.0
 10
7.4535
 20
0.525825
 30
0.0
  0
SPLINE
  5
1be
100
AcDbEntity
  8
0
100
AcDbSpline
210
0.0
220
0.0
230
1.0
 62
     233
 70
     0
 71
     3
 72
     8
 73
4
 40
0.0
 40
0.0
 40
0.0
 40
0.0
 40
1.0
 40
1.0
 40
1.0
 40
1.0
 10
7.4535
 20
0.525825
 30
0.0
 10
7.34207
 20
0.458117
 30
0.0
 10
7.28999
 20
0.444553
 30
0.0
 10
7.14415
 20
0.444553
 30
0.0
  0
LINE
  5
1bf
100
AcDbEntity
  8
0
100
AcDbLine
 62
     233
 10
7.14415
 20
0.444553
 30
0.0
 11
7.01394
 21
0.444553
 31
0.0
  0
LINE
  5
1c0
100
AcDbEntity
  8
0
100
AcDbLine
 62
     233
 10
7.01394
 20
0.444553
 30
0.0
 11
6.95665
 21
0.481011
 31
0.0
  0
SPLINE
  5
1c1
100
AcDbEntity
  8
0
100
AcDbSpline
210
0.0
220
0.0
230
1.0
 62
     233
 70
     0
 71
     3
 72
     8
 73
4
 40
0.0
 40
0.0
 40
0.0
 40
0.0
 40
1.0
 40
1.0
 40
1.0
 40
1.0
 10
6.95665
 20
0.481011
 30
0.0
 10
6.78999
 20
0.586262
 30
0.0
 10
6.62642
 20
0.8227
 30
0.0
 10
6.60249
 20
0.991428
 30
0.0
  0
SPLINE
  5
1c2
100
AcDbEntity
  8
0
100
AcDbSpline
210
0.0
220
0.0
230
1.0
 62
     233
 70
     0
 71
     3
 72
     8
 73
4
 40
0.0
 40
0.0
 40
0.0
 40
0.0
 40
1.0
 40
1.0
 40
1.0
 40
1.0
 10
6.60249
 20
0.991428
 30
0.0
 10
6.59728
 20
1.02686
 30
0.0
 10
6.59099
 20
1.05914
 30
0.0
 10
6.58686
 20
1.06228
 30
0.0
  0
SPLINE
  5
1c3
100
AcDbEntity
  8
0
100
AcDbSpline
210
0.0
220
0.0
230
1.0
 62
     233
 70
     0
 71
     3
 72
     8
 73
4
 40
0.0
 40
0.0
 40
0.0
 40
0.0
 40
1.0
 40
1.0
 40
1.0
 40
1.0
 10
6.58686
 20
1.06228
 30
0.0
 10
6.58371
 20
1.06543
 30
0.0
 10
6.55246
 20
1.05393
 30
0.0
 10
6.516
 20
1.03624
 30
0.0
  0
SPLINE
  5
1c4
100
AcDbEntity
  8
0
100
AcDbSpline
210
0.0
220
0.0
230
1.0
 62
     233
 70
     0
 71
     3
 72
     8
 73
4
 40
0.0
 40
0.0
 40
0.0
 40
0.0
 40
1.0
 40
1.0
 40
1.0
 40
1.0
 10
6.516
 20
1.03624
 30
0.0
 10
6.40142
 20
0.97895
 30
0.0
 10
6.3035
 20
0.963325
 30
0.0
 10
6.19933
 20
0.985189
 30
0.0
  0
SPLINE
  5
1c5
100
AcDbEntity
  8
0
100
AcDbSpline
210
0.0
220
0.0
230
1.0
 62
     233
 70
     0
 71
     3
 72
     8
 73
4
 40
0.0
 40
0.0
 40
0.0
 40
0.0
 40
1.0
 40
1.0
 40
1.0
 40
1.0
 10
6.19933
 20
0.985189
 30
0.0
 10
6.12224
 20
1.00081
 30
0.0
 10
6.03478
 20
1.03939
 30
0.0
 10
5.98269
 20
1.08209
 30
0.0
  0
SPLINE
  5
1c6
100
AcDbEntity
  8
0
100
AcDbSpline
210
0.0
220
0.0
230
1.0
 62
     233
 70
     0
 71
     3
 72
     8
 73
4
 40
0.0
 40
0.0
 40
0.0
 40
0.0
 40
1.0
 40
1.0
 40
1.0
 40
1.0
 10
5.98269
 20
1.08209
 30
0.0
 10
5.82536
 20
1.20709
 30
0.0
 10
5.76183
 20
1.34977
 30
0.0
 10
5.77225
 20
1.54872
 30
0.0
  0
SPLINE
  5
1c7
100
AcDbEntity
  8
0
100
AcDbSpline
210
0.0
220
0.0
230
1.0
 62
     233
 70
     0
 71
     3
 72
     8
 73
4
 40
0.0
 40
0.0
 40
0.0
 40
0.0
 40
1.0
 40
1.0
 40
1.0
 40
1.0
 10
5.77225
 20
1.54872
 30
0.0
 10
5.7806
 20
1.69043
 30
0.0
 10
5.81912
 20
1.83208
 30
0.0
 10
5.93371
 20
2.14458
 30
0.0
  0
SPLINE
  5
1c8
100
AcDbEntity
  8
0
100
AcDbSpline
210
0.0
220
0.0
230
1.0
 62
     233
 70
     0
 71
     3
 72
     8
 73
4
 40
0.0
 40
0.0
 40
0.0
 40
0.0
 40
1.0
 40
1.0
 40
1.0
 40
1.0
 10
5.93371
 20
2.14458
 30
0.0
 10
5.97954
 20
2.26747
 30
0.0
 10
5.99832
 20
2.34874
 30
0.0
 10
5.99832
 20
2.4196
 30
0.0
  0
SPLINE
  5
1c9
100
AcDbEntity
  8
0
100
AcDbSpline
210
0.0
220
0.0
230
1.0
 62
     233
 70
     0
 71
     3
 72
     8
 73
4
 40
0.0
 40
0.0
 40
0.0
 40
0.0
 40
1.0
 40
1.0
 40
1.0
 40
1.0
 10
5.99832
 20
2.4196
 30
0.0
 10
5.99832
 20
2.48731
 30
0.0
 10
5.98058
 20
2.51644
 30
0.0
 10
5.92953
 20
2.52897
 30
0.0
  0
SPLINE
  5
1ca
100
AcDbEntity
  8
0
100
AcDbSpline
210
0.0
220
0.0
230
1.0
 62
     233
 70
     0
 71
     3
 72
     8
 73
4
 40
0.0
 40
0.0
 40
0.0
 40
0.0
 40
1.0
 40
1.0
 40
1.0
 40
1.0
 10
5.92953
 20
2.52897
 30
0.0
 10
5.88894
 20
2.53939
 30
0.0
 10
5.85975
 20
2.49978
 30
0.0
 10
5.74724
 20
2.27789
 30
0.0
  0
SPLINE
  5
1cb
100
AcDbEntity
  8
0
100
AcDbSpline
210
0.0
220
0.0
230
1.0
 62
     233
 70
     0
 71
     3
 72
     8
 73
4
 40
0.0
 40
0.0
 40
0.0
 40
0.0
 40
1.0
 40
1.0
 40
1.0
 40
1.0
 10
5.74724
 20
2.27789
 30
0.0
 10
5.69412
 20
2.17481
 30
0.0
 10
5.61393
 20
2.02268
 30
0.0
 10
5.56808
 20
1.93935
 30
0.0
  0
SPLINE
  5
1cc
100
AcDbEntity
  8
0
100
AcDbSpline
210
0.0
220
0.0
230
1.0
 62
     233
 70
     0
 71
     3
 72
     8
 73
4
 40
0.0
 40
0.0
 40
0.0
 40
0.0
 40
1.0
 40
1.0
 40
1.0
 40
1.0
 10
5.56808
 20
1.93935
 30
0.0
 10
5.45871
 20
1.74143
 30
0.0
 10
5.46392
 20
1.75082
 30
0.0
 10
5.44515
 20
1.7206
 30
0.0
  0
SPLINE
  5
1cd
100
AcDbEntity
  8
0
100
AcDbSpline
210
0.0
220
0.0
230
1.0
 62
     233
 70
     0
 71
     3
 72
     8
 73
4
 40
0.0
 40
0.0
 40
0.0
 40
0.0
 40
1.0
 40
1.0
 40
1.0
 40
1.0
 10
5.44515
 20
1.7206
 30
0.0
 10
5.43582
 20
1.70606
 30
0.0
 10
5.39621
 20
1.64247
 30
0.0
 10
5.35769
 20
1.57997
 30
0.0
  0
SPLINE
  5
1ce
100
AcDbEntity
  8
0
100
AcDbSpline
210
0.0
220
0.0
230
1.0
 62
     233
 70
     0
 71
     3
 72
     8
 73
4
 40
0.0
 40
0.0
 40
0.0
 40
0.0
 40
1.0
 40
1.0
 40
1.0
 40
1.0
 10
5.35769
 20
1.57997
 30
0.0
 10
5.22331
 20
1.3623
 30
0.0
 10
5.16081
 20
1.27789
 30
0.0
 10
5.07226
 20
1.18831
 30
0.0
  0
SPLINE
  5
1cf
100
AcDbEntity
  8
0
100
AcDbSpline
210
0.0
220
0.0
230
1.0
 62
     233
 70
     0
 71
     3
 72
     8
 73
4
 40
0.0
 40
0.0
 40
0.0
 40
0.0
 40
1.0
 40
1.0
 40
1.0
 40
1.0
 10
5.07226
 20
1.18831
 30
0.0
 10
4.96913
 20
1.08626
 30
0.0
 10
4.92122
 20
1.0529
 30
0.0
 10
4.83268
 20
1.02268
 30
0.0
  0
SPLINE
  5
1d0
100
AcDbEntity
  8
0
100
AcDbSpline
210
0.0
220
0.0
230
1.0
 62
     233
 70
     0
 71
     3
 72
     8
 73
4
 40
0.0
 40
0.0
 40
0.0
 40
0.0
 40
1.0
 40
1.0
 40
1.0
 40
1.0
 10
4.83268
 20
1.02268
 30
0.0
 10
4.71496
 20
0.983128
 30
0.0
 10
4.59413
 20
1.00081
 30
0.0
 10
4.50765
 20
1.06955
 30
0.0
  0
SPLINE
  5
1d1
100
AcDbEntity
  8
0
100
AcDbSpline
210
0.0
220
0.0
230
1.0
 62
     233
 70
     0
 71
     3
 72
     8
 73
4
 40
0.0
 40
0.0
 40
0.0
 40
0.0
 40
1.0
 40
1.0
 40
1.0
 40
1.0
 10
4.50765
 20
1.06955
 30
0.0
 10
4.44206
 20
1.12272
 30
0.0
 10
4.34413
 20
1.27268
 30
0.0
 10
4.31706
 20
1.36334
 30
0.0
  0
SPLINE
  5
1d2
100
AcDbEntity
  8
0
100
AcDbSpline
210
0.0
220
0.0
230
1.0
 62
     233
 70
     0
 71
     3
 72
     8
 73
4
 40
0.0
 40
0.0
 40
0.0
 40
0.0
 40
1.0
 40
1.0
 40
1.0
 40
1.0
 10
4.31706
 20
1.36334
 30
0.0
 10
4.30974
 20
1.3852
 30
0.0
 10
4.28999
 20
1.39768
 30
0.0
 10
4.28999
 20
1.37896
 30
0.0
  0
SPLINE
  5
1d3
100
AcDbEntity
  8
0
100
AcDbSpline
210
0.0
220
0.0
230
1.0
 62
     233
 70
     0
 71
     3
 72
     8
 73
4
 40
0.0
 40
0.0
 40
0.0
 40
0.0
 40
1.0
 40
1.0
 40
1.0
 40
1.0
 10
4.28999
 20
1.37896
 30
0.0
 10
4.28999
 20
1.36643
 30
0.0
 10
4.1754
 20
1.21853
 30
0.0
 10
4.10249
 20
1.13726
 30
0.0
  0
SPLINE
  5
1d4
100
AcDbEntity
  8
0
100
AcDbSpline
210
0.0
220
0.0
230
1.0
 62
     233
 70
     0
 71
     3
 72
     8
 73
4
 40
0.0
 40
0.0
 40
0.0
 40
0.0
 40
1.0
 40
1.0
 40
1.0
 40
1.0
 10
4.10249
 20
1.13726
 30
0.0
 10
4.04519
 20
1.0727
 30
0.0
 10
3.95768
 20
0.991428
 30
0.0
 10
3.86496
 20
0.91645
 30
0.0
  0
SPLINE
  5
1d5
100
AcDbEntity
  8
0
100
AcDbSpline
210
0.0
220
0.0
230
1.0
 62
     233
 70
     0
 71
     3
 72
     8
 73
4
 40
0.0
 40
0.0
 40
0.0
 40
0.0
 40
1.0
 40
1.0
 40
1.0
 40
1.0
 10
3.86496
 20
0.91645
 30
0.0
 10
3.85249
 20
0.906033
 30
0.0
 10
3.80871
 20
0.888346
 30
0.0
 10
3.76807
 20
0.875814
 30
0.0
  0
SPLINE
  5
1d6
100
AcDbEntity
  8
0
100
AcDbSpline
210
0.0
220
0.0
230
1.0
 62
     233
 70
     0
 71
     3
 72
     8
 73
4
 40
0.0
 40
0.0
 40
0.0
 40
0.0
 40
1.0
 40
1.0
 40
1.0
 40
1.0
 10
3.76807
 20
0.875814
 30
0.0
 10
3.57644
 20
0.817492
 30
0.0
 10
3.40039
 20
0.901856
 30
0.0
 10
3.25874
 20
1.12164
 30
0.0
  0
SPLINE
  5
1d7
100
AcDbEntity
  8
0
100
AcDbSpline
210
0.0
220
0.0
230
1.0
 62
     233
 70
     0
 71
     3
 72
     8
 73
4
 40
0.0
 40
0.0
 40
0.0
 40
0.0
 40
1.0
 40
1.0
 40
1.0
 40
1.0
 10
3.25874
 20
1.12164
 30
0.0
 10
3.23269
 20
1.16227
 30
0.0
 10
3.20557
 20
1.20605
 30
0.0
 10
3.19829
 20
1.22059
 30
0.0
  0
SPLINE
  5
1d8
100
AcDbEntity
  8
0
100
AcDbSpline
210
0.0
220
0.0
230
1.0
 62
     233
 70
     0
 71
     3
 72
     8
 73
4
 40
0.0
 40
0.0
 40
0.0
 40
0.0
 40
1.0
 40
1.0
 40
1.0
 40
1.0
 10
3.19829
 20
1.22059
 30
0.0
 10
3.19103
 20
1.23519
 30
0.0
 10
3.17643
 20
1.25705
 30
0.0
 10
3.16601
 20
1.27062
 30
0.0
  0
LINE
  5
1d9
100
AcDbEntity
  8
0
100
AcDbLine
 62
     233
 10
3.16601
 20
1.27062
 30
0.0
 11
3.14828
 21
1.29563
 31
0.0
  0
LINE
  5
1da
100
AcDbEntity
  8
0
100
AcDbLine
 62
     233
 10
3.14828
 20
1.29563
 30
0.0
 11
3.03999
 21
1.12999
 31
0.0
  0
SPLINE
  5
1db
100
AcDbEntity
  8
0
100
AcDbSpline
210
0.0
220
0.0
230
1.0
 62
     233
 70
     0
 71
     3
 72
     8
 73
4
 40
0.0
 40
0.0
 40
0.0
 40
0.0
 40
1.0
 40
1.0
 40
1.0
 40
1.0
 10
3.03999
 20
1.12999
 30
0.0
 10
2.98058
 20
1.03939
 30
0.0
 10
2.91081
 20
0.937283
 30
0.0
 10
2.88476
 20
0.902886
 30
0.0
  0
SPLINE
  5
1dc
100
AcDbEntity
  8
0
100
AcDbSpline
210
0.0
220
0.0
230
1.0
 62
     233
 70
     0
 71
     3
 72
     8
 73
4
 40
0.0
 40
0.0
 40
0.0
 40
0.0
 40
1.0
 40
1.0
 40
1.0
 40
1.0
 10
2.88476
 20
0.902886
 30
0.0
 10
2.64307
 20
0.583117
 30
0.0
 10
2.31808
 20
0.294596
 30
0.0
 10
2.05143
 20
0.162272
 30
0.0
  0
SPLINE
  5
1dd
100
AcDbEntity
  8
0
100
AcDbSpline
210
0.0
220
0.0
230
1.0
 62
     233
 70
     0
 71
     3
 72
     8
 73
4
 40
0.0
 40
0.0
 40
0.0
 40
0.0
 40
1.0
 40
1.0
 40
1.0
 40
1.0
 10
2.05143
 20
0.162272
 30
0.0
 10
1.81082
 20
0.0435113
 30
0.0
 10
1.65039
 20
0.00184463
 30
0.0
 10
1.43474
 20
0.00184463
 30
0.0
  0
SPLINE
  5
1de
100
AcDbEntity
  8
0
100
AcDbSpline
210
0.0
220
0.0
230
1.0
 62
     233
 70
     0
 71
     3
 72
     8
 73
4
 40
0.0
 40
0.0
 40
0.0
 40
0.0
 40
1.0
 40
1.0
 40
1.0
 40
1.0
 10
1.43474
 20
0.00184463
 30
0.0
 10
1.35661
 20
0.00184463
 30
0.0
 10
1.29102
 20
0.00499132
 30
0.0
 10
1.28684
 20
0.00813803
 30
0.0
  0
LINE
  5
1df
100
AcDbEntity
  8
0
100
AcDbLine
 62
     233
 10
1.28684
 20
0.00813803
 30
0.0
 11
1.28684
 21
0.00813803
 31
0.0
  0
SPLINE
  5
1e0
100
AcDbEntity
  8
0
100
AcDbSpline
210
0.0
220
0.0
230
1.0
 62
     233
 70
     0
 71
     3
 72
     8
 73
4
 40
0.0
 40
0.0
 40
0.0
 40
0.0
 40
1.0
 40
1.0
 40
1.0
 40
1.0
 10
1.54204
 20
0.450846
 30
0.0
 10
1.60769
 20
0.465386
 30
0.0
 10
1.72537
 20
0.517469
 30
0.0
 10
1.80561
 20
0.569553
 30
0.0
  0
SPLINE
  5
1e1
100
AcDbEntity
  8
0
100
AcDbSpline
210
0.0
220
0.0
230
1.0
 62
     233
 70
     0
 71
     3
 72
     8
 73
4
 40
0.0
 40
0.0
 40
0.0
 40
0.0
 40
1.0
 40
1.0
 40
1.0
 40
1.0
 10
1.80561
 20
0.569553
 30
0.0
 10
1.83686
 20
0.589356
 30
0.0
 10
1.86496
 20
0.606011
 30
0.0
 10
1.86811
 20
0.606011
 30
0.0
  0
SPLINE
  5
1e2
100
AcDbEntity
  8
0
100
AcDbSpline
210
0.0
220
0.0
230
1.0
 62
     233
 70
     0
 71
     3
 72
     8
 73
4
 40
0.0
 40
0.0
 40
0.0
 40
0.0
 40
1.0
 40
1.0
 40
1.0
 40
1.0
 10
1.86811
 20
0.606011
 30
0.0
 10
1.87017
 20
0.606011
 30
0.0
 10
1.91081
 20
0.634169
 30
0.0
 10
1.95871
 20
0.669596
 30
0.0
  0
SPLINE
  5
1e3
100
AcDbEntity
  8
0
100
AcDbSpline
210
0.0
220
0.0
230
1.0
 62
     233
 70
     0
 71
     3
 72
     8
 73
4
 40
0.0
 40
0.0
 40
0.0
 40
0.0
 40
1.0
 40
1.0
 40
1.0
 40
1.0
 10
1.95871
 20
0.669596
 30
0.0
 10
2.00663
 20
0.703939
 30
0.0
 10
2.05664
 20
0.740397
 30
0.0
 10
2.07124
 20
0.749783
 30
0.0
  0
SPLINE
  5
1e4
100
AcDbEntity
  8
0
100
AcDbSpline
210
0.0
220
0.0
230
1.0
 62
     233
 70
     0
 71
     3
 72
     8
 73
4
 40
0.0
 40
0.0
 40
0.0
 40
0.0
 40
1.0
 40
1.0
 40
1.0
 40
1.0
 10
2.07124
 20
0.749783
 30
0.0
 10
2.11703
 20
0.780003
 30
0.0
 10
2.26497
 20
0.933106
 30
0.0
 10
2.28683
 20
0.971679
 30
0.0
  0
SPLINE
  5
1e5
100
AcDbEntity
  8
0
100
AcDbSpline
210
0.0
220
0.0
230
1.0
 62
     233
 70
     0
 71
     3
 72
     8
 73
4
 40
0.0
 40
0.0
 40
0.0
 40
0.0
 40
1.0
 40
1.0
 40
1.0
 40
1.0
 10
2.28683
 20
0.971679
 30
0.0
 10
2.31603
 20
1.02268
 30
0.0
 10
2.32433
 20
1.06749
 30
0.0
 10
2.31603
 20
1.12375
 30
0.0
  0
SPLINE
  5
1e6
100
AcDbEntity
  8
0
100
AcDbSpline
210
0.0
220
0.0
230
1.0
 62
     233
 70
     0
 71
     3
 72
     8
 73
4
 40
0.0
 40
0.0
 40
0.0
 40
0.0
 40
1.0
 40
1.0
 40
1.0
 40
1.0
 10
2.31603
 20
1.12375
 30
0.0
 10
2.30767
 20
1.18414
 30
0.0
 10
2.25244
 20
1.24143
 30
0.0
 10
2.18371
 20
1.2602
 30
0.0
  0
SPLINE
  5
1e7
100
AcDbEntity
  8
0
100
AcDbSpline
210
0.0
220
0.0
230
1.0
 62
     233
 70
     0
 71
     3
 72
     8
 73
4
 40
0.0
 40
0.0
 40
0.0
 40
0.0
 40
1.0
 40
1.0
 40
1.0
 40
1.0
 10
2.18371
 20
1.2602
 30
0.0
 10
2.12121
 20
1.27897
 30
0.0
 10
1.9879
 20
1.27686
 30
0.0
 10
1.90457
 20
1.25814
 30
0.0
  0
SPLINE
  5
1e8
100
AcDbEntity
  8
0
100
AcDbSpline
210
0.0
220
0.0
230
1.0
 62
     233
 70
     0
 71
     3
 72
     8
 73
4
 40
0.0
 40
0.0
 40
0.0
 40
0.0
 40
1.0
 40
1.0
 40
1.0
 40
1.0
 10
1.90457
 20
1.25814
 30
0.0
 10
1.8285
 20
1.2404
 30
0.0
 10
1.66601
 20
1.1633
 30
0.0
 10
1.60872
 20
1.11751
 30
0.0
  0
SPLINE
  5
1e9
100
AcDbEntity
  8
0
100
AcDbSpline
210
0.0
220
0.0
230
1.0
 62
     233
 70
     0
 71
     3
 72
     8
 73
4
 40
0.0
 40
0.0
 40
0.0
 40
0.0
 40
1.0
 40
1.0
 40
1.0
 40
1.0
 10
1.60872
 20
1.11751
 30
0.0
 10
1.58686
 20
1.09977
 30
0.0
 10
1.56494
 20
1.08518
 30
0.0
 10
1.56082
 20
1.08518
 30
0.0
  0
SPLINE
  5
1ea
100
AcDbEntity
  8
0
100
AcDbSpline
210
0.0
220
0.0
230
1.0
 62
     233
 70
     0
 71
     3
 72
     8
 73
4
 40
0.0
 40
0.0
 40
0.0
 40
0.0
 40
1.0
 40
1.0
 40
1.0
 40
1.0
 10
1.56082
 20
1.08518
 30
0.0
 10
1.54411
 20
1.08518
 30
0.0
 10
1.38162
 20
0.912272
 30
0.0
 10
1.35661
 20
0.868544
 30
0.0
  0
SPLINE
  5
1eb
100
AcDbEntity
  8
0
100
AcDbSpline
210
0.0
220
0.0
230
1.0
 62
     233
 70
     0
 71
     3
 72
     8
 73
4
 40
0.0
 40
0.0
 40
0.0
 40
0.0
 40
1.0
 40
1.0
 40
1.0
 40
1.0
 10
1.35661
 20
0.868544
 30
0.0
 10
1.27121
 20
0.717503
 30
0.0
 10
1.27018
 20
0.599772
 30
0.0
 10
1.3514
 20
0.514378
 30
0.0
  0
SPLINE
  5
1ec
100
AcDbEntity
  8
0
100
AcDbSpline
210
0.0
220
0.0
230
1.0
 62
     233
 70
     0
 71
     3
 72
     8
 73
4
 40
0.0
 40
0.0
 40
0.0
 40
0.0
 40
1.0
 40
1.0
 40
1.0
 40
1.0
 10
1.3514
 20
0.514378
 30
0.0
 10
1.42643
 20
0.436253
 30
0.0
 10
1.44412
 20
0.430012
 30
0.0
 10
1.54204
 20
0.450846
 30
0.0
  0
LINE
  5
1ed
100
AcDbEntity
  8
0
100
AcDbLine
 62
     233
 10
1.54204
 20
0.450846
 30
0.0
 11
1.54204
 21
0.450846
 31
0.0
  0
SPLINE
  5
1ee
100
AcDbEntity
  8
0
100
AcDbSpline
210
0.0
220
0.0
230
1.0
 62
     233
 70
     0
 71
     3
 72
     8
 73
4
 40
0.0
 40
0.0
 40
0.0
 40
0.0
 40
1.0
 40
1.0
 40
1.0
 40
1.0
 10
0.956651
 20
1.32373
 30
0.0
 10
0.971192
 20
1.33312
 30
0.0
 10
1.03266
 20
1.37581
 30
0.0
 10
1.09207
 20
1.41851
 30
0.0
  0
SPLINE
  5
1ef
100
AcDbEntity
  8
0
100
AcDbSpline
210
0.0
220
0.0
230
1.0
 62
     233
 70
     0
 71
     3
 72
     8
 73
4
 40
0.0
 40
0.0
 40
0.0
 40
0.0
 40
1.0
 40
1.0
 40
1.0
 40
1.0
 10
1.09207
 20
1.41851
 30
0.0
 10
1.266
 20
1.54249
 30
0.0
 10
1.44829
 20
1.62999
 30
0.0
 10
1.64936
 20
1.68522
 30
0.0
  0
SPLINE
  5
1f0
100
AcDbEntity
  8
0
100
AcDbSpline
210
0.0
220
0.0
230
1.0
 62
     233
 70
     0
 71
     3
 72
     8
 73
4
 40
0.0
 40
0.0
 40
0.0
 40
0.0
 40
1.0
 40
1.0
 40
1.0
 40
1.0
 10
1.64936
 20
1.68522
 30
0.0
 10
1.82644
 20
1.73313
 30
0.0
 10
2.03369
 20
1.72374
 30
0.0
 10
2.19103
 20
1.65918
 30
0.0
  0
SPLINE
  5
1f1
100
AcDbEntity
  8
0
100
AcDbSpline
210
0.0
220
0.0
230
1.0
 62
     233
 70
     0
 71
     3
 72
     8
 73
4
 40
0.0
 40
0.0
 40
0.0
 40
0.0
 40
1.0
 40
1.0
 40
1.0
 40
1.0
 10
2.19103
 20
1.65918
 30
0.0
 10
2.31185
 20
1.60915
 30
0.0
 10
2.44515
 20
1.52789
 30
0.0
 10
2.53267
 20
1.45085
 30
0.0
  0
SPLINE
  5
1f2
100
AcDbEntity
  8
0
100
AcDbSpline
210
0.0
220
0.0
230
1.0
 62
     233
 70
     0
 71
     3
 72
     8
 73
4
 40
0.0
 40
0.0
 40
0.0
 40
0.0
 40
1.0
 40
1.0
 40
1.0
 40
1.0
 10
2.53267
 20
1.45085
 30
0.0
 10
2.56603
 20
1.42165
 30
0.0
 10
2.59517
 20
1.39768
 30
0.0
 10
2.59831
 20
1.39768
 30
0.0
  0
SPLINE
  5
1f3
100
AcDbEntity
  8
0
100
AcDbSpline
210
0.0
220
0.0
230
1.0
 62
     233
 70
     0
 71
     3
 72
     8
 73
4
 40
0.0
 40
0.0
 40
0.0
 40
0.0
 40
1.0
 40
1.0
 40
1.0
 40
1.0
 10
2.59831
 20
1.39768
 30
0.0
 10
2.6014
 20
1.39768
 30
0.0
 10
2.61182
 20
1.41749
 30
0.0
 10
2.62224
 20
1.44146
 30
0.0
  0
SPLINE
  5
1f4
100
AcDbEntity
  8
0
100
AcDbSpline
210
0.0
220
0.0
230
1.0
 62
     233
 70
     0
 71
     3
 72
     8
 73
4
 40
0.0
 40
0.0
 40
0.0
 40
0.0
 40
1.0
 40
1.0
 40
1.0
 40
1.0
 10
2.62224
 20
1.44146
 30
0.0
 10
2.63265
 20
1.46647
 30
0.0
 10
2.65767
 20
1.52165
 30
0.0
 10
2.6785
 20
1.56435
 30
0.0
  0
SPLINE
  5
1f5
100
AcDbEntity
  8
0
100
AcDbSpline
210
0.0
220
0.0
230
1.0
 62
     233
 70
     0
 71
     3
 72
     8
 73
4
 40
0.0
 40
0.0
 40
0.0
 40
0.0
 40
1.0
 40
1.0
 40
1.0
 40
1.0
 10
2.6785
 20
1.56435
 30
0.0
 10
2.7806
 20
1.7831
 30
0.0
 10
2.79411
 20
1.84771
 30
0.0
 10
2.78788
 20
2.10189
 30
0.0
  0
SPLINE
  5
1f6
100
AcDbEntity
  8
0
100
AcDbSpline
210
0.0
220
0.0
230
1.0
 62
     233
 70
     0
 71
     3
 72
     8
 73
4
 40
0.0
 40
0.0
 40
0.0
 40
0.0
 40
1.0
 40
1.0
 40
1.0
 40
1.0
 10
2.78788
 20
2.10189
 30
0.0
 10
2.78478
 20
2.26856
 30
0.0
 10
2.78267
 20
2.28103
 30
0.0
 10
2.75558
 20
2.33518
 30
0.0
  0
SPLINE
  5
1f7
100
AcDbEntity
  8
0
100
AcDbSpline
210
0.0
220
0.0
230
1.0
 62
     233
 70
     0
 71
     3
 72
     8
 73
4
 40
0.0
 40
0.0
 40
0.0
 40
0.0
 40
1.0
 40
1.0
 40
1.0
 40
1.0
 10
2.75558
 20
2.33518
 30
0.0
 10
2.66911
 20
2.51019
 30
0.0
 10
2.4285
 20
2.65186
 30
0.0
 10
2.19413
 20
2.66542
 30
0.0
  0
SPLINE
  5
1f8
100
AcDbEntity
  8
0
100
AcDbSpline
210
0.0
220
0.0
230
1.0
 62
     233
 70
     0
 71
     3
 72
     8
 73
4
 40
0.0
 40
0.0
 40
0.0
 40
0.0
 40
1.0
 40
1.0
 40
1.0
 40
1.0
 10
2.19413
 20
2.66542
 30
0.0
 10
2.12121
 20
2.67063
 30
0.0
 10
2.09831
 20
2.66851
 30
0.0
 10
2.07747
 20
2.655
 30
0.0
  0
SPLINE
  5
1f9
100
AcDbEntity
  8
0
100
AcDbSpline
210
0.0
220
0.0
230
1.0
 62
     233
 70
     0
 71
     3
 72
     8
 73
4
 40
0.0
 40
0.0
 40
0.0
 40
0.0
 40
1.0
 40
1.0
 40
1.0
 40
1.0
 10
2.07747
 20
2.655
 30
0.0
 10
1.99517
 20
2.60081
 30
0.0
 10
1.59933
 20
2.49978
 30
0.0
 10
1.31391
 20
2.45915
 30
0.0
  0
SPLINE
  5
1fa
100
AcDbEntity
  8
0
100
AcDbSpline
210
0.0
220
0.0
230
1.0
 62
     233
 70
     0
 71
     3
 72
     8
 73
4
 40
0.0
 40
0.0
 40
0.0
 40
0.0
 40
1.0
 40
1.0
 40
1.0
 40
1.0
 10
1.31391
 20
2.45915
 30
0.0
 10
1.26704
 20
2.4529
 30
0.0
 10
1.22434
 20
2.44249
 30
0.0
 10
1.21913
 20
2.43522
 30
0.0
  0
SPLINE
  5
1fb
100
AcDbEntity
  8
0
100
AcDbSpline
210
0.0
220
0.0
230
1.0
 62
     233
 70
     0
 71
     3
 72
     8
 73
4
 40
0.0
 40
0.0
 40
0.0
 40
0.0
 40
1.0
 40
1.0
 40
1.0
 40
1.0
 10
1.21913
 20
2.43522
 30
0.0
 10
1.21392
 20
2.42893
 30
0.0
 10
1.18061
 20
2.31853
 30
0.0
 10
1.14518
 20
2.18935
 30
0.0
  0
SPLINE
  5
1fc
100
AcDbEntity
  8
0
100
AcDbSpline
210
0.0
220
0.0
230
1.0
 62
     233
 70
     0
 71
     3
 72
     8
 73
4
 40
0.0
 40
0.0
 40
0.0
 40
0.0
 40
1.0
 40
1.0
 40
1.0
 40
1.0
 10
1.14518
 20
2.18935
 30
0.0
 10
1.10872
 20
2.06022
 30
0.0
 10
1.07536
 20
1.94353
 30
0.0
 10
1.07015
 20
1.92893
 30
0.0
  0
SPLINE
  5
1fd
100
AcDbEntity
  8
0
100
AcDbSpline
210
0.0
220
0.0
230
1.0
 62
     233
 70
     0
 71
     3
 72
     8
 73
4
 40
0.0
 40
0.0
 40
0.0
 40
0.0
 40
1.0
 40
1.0
 40
1.0
 40
1.0
 10
1.07015
 20
1.92893
 30
0.0
 10
1.05452
 20
1.88314
 30
0.0
 10
0.894151
 20
1.31543
 30
0.0
 10
0.894151
 20
1.30501
 30
0.0
  0
SPLINE
  5
1fe
100
AcDbEntity
  8
0
100
AcDbSpline
210
0.0
220
0.0
230
1.0
 62
     233
 70
     0
 71
     3
 72
     8
 73
4
 40
0.0
 40
0.0
 40
0.0
 40
0.0
 40
1.0
 40
1.0
 40
1.0
 40
1.0
 10
0.894151
 20
1.30501
 30
0.0
 10
0.894151
 20
1.29248
 30
0.0
 10
0.918078
 20
1.2998
 30
0.0
 10
0.956651
 20
1.32373
 30
0.0
  0
LINE
  5
1ff
100
AcDbEntity
  8
0
100
AcDbLine
 62
     233
 10
0.956651
 20
1.32373
 30
0.0
 11
0.956651
 21
1.32373
 31
0.0
  0
SPLINE
  5
200
100
AcDbEntity
  8
0
100
AcDbSpline
210
0.0
220
0.0
230
1.0
 62
     233
 70
     0
 71
     3
 72
     8
 73
4
 40
0.0
 40
0.0
 40
0.0
 40
0.0
 40
1.0
 40
1.0
 40
1.0
 40
1.0
 10
10.1483
 20
1.84457
 30
0.0
 10
10.2212
 20
1.90289
 30
0.0
 10
10.3983
 20
2.07476
 30
0.0
 10
10.4681
 20
2.15289
 30
0.0
  0
SPLINE
  5
201
100
AcDbEntity
  8
0
100
AcDbSpline
210
0.0
220
0.0
230
1.0
 62
     233
 70
     0
 71
     3
 72
     8
 73
4
 40
0.0
 40
0.0
 40
0.0
 40
0.0
 40
1.0
 40
1.0
 40
1.0
 40
1.0
 10
10.4681
 20
2.15289
 30
0.0
 10
10.5691
 20
2.26747
 30
0.0
 10
10.665
 20
2.41644
 30
0.0
 10
10.7587
 20
2.60601
 30
0.0
  0
SPLINE
  5
202
100
AcDbEntity
  8
0
100
AcDbSpline
210
0.0
220
0.0
230
1.0
 62
     233
 70
     0
 71
     3
 72
     8
 73
4
 40
0.0
 40
0.0
 40
0.0
 40
0.0
 40
1.0
 40
1.0
 40
1.0
 40
1.0
 10
10.7587
 20
2.60601
 30
0.0
 10
10.8097
 20
2.70811
 30
0.0
 10
10.8181
 20
2.73936
 30
0.0
 10
10.7983
 20
2.75814
 30
0.0
  0
SPLINE
  5
203
100
AcDbEntity
  8
0
100
AcDbSpline
210
0.0
220
0.0
230
1.0
 62
     233
 70
     0
 71
     3
 72
     8
 73
4
 40
0.0
 40
0.0
 40
0.0
 40
0.0
 40
1.0
 40
1.0
 40
1.0
 40
1.0
 10
10.7983
 20
2.75814
 30
0.0
 10
10.7827
 20
2.77376
 30
0.0
 10
10.7785
 20
2.77376
 30
0.0
 10
10.741
 20
2.75185
 30
0.0
  0
SPLINE
  5
204
100
AcDbEntity
  8
0
100
AcDbSpline
210
0.0
220
0.0
230
1.0
 62
     233
 70
     0
 71
     3
 72
     8
 73
4
 40
0.0
 40
0.0
 40
0.0
 40
0.0
 40
1.0
 40
1.0
 40
1.0
 40
1.0
 10
10.741
 20
2.75185
 30
0.0
 10
10.6431
 20
2.69249
 30
0.0
 10
10.3848
 20
2.44146
 30
0.0
 10
10.2837
 20
2.30811
 30
0.0
  0
SPLINE
  5
205
100
AcDbEntity
  8
0
100
AcDbSpline
210
0.0
220
0.0
230
1.0
 62
     233
 70
     0
 71
     3
 72
     8
 73
4
 40
0.0
 40
0.0
 40
0.0
 40
0.0
 40
1.0
 40
1.0
 40
1.0
 40
1.0
 10
10.2837
 20
2.30811
 30
0.0
 10
10.2035
 20
2.20188
 30
0.0
 10
10.0827
 20
1.9529
 30
0.0
 10
10.0348
 20
1.79563
 30
0.0
  0
LINE
  5
206
100
AcDbEntity
  8
0
100
AcDbLine
 62
     233
 10
10.0348
 20
1.79563
 30
0.0
 11
10.0212
 21
1.75082
 31
0.0
  0
LINE
  5
207
100
AcDbEntity
  8
0
100
AcDbLine
 62
     233
 10
10.0212
 20
1.75082
 30
0.0
 11
10.0483
 21
1.76856
 31
0.0
  0
SPLINE
  5
208
100
AcDbEntity
  8
0
100
AcDbSpline
210
0.0
220
0.0
230
1.0
 62
     233
 70
     0
 71
     3
 72
     8
 73
4
 40
0.0
 40
0.0
 40
0.0
 40
0.0
 40
1.0
 40
1.0
 40
1.0
 40
1.0
 10
10.0483
 20
1.76856
 30
0.0
 10
10.0639
 20
1.77789
 30
0.0
 10
10.1087
 20
1.81228
 30
0.0
 10
10.1483
 20
1.84457
 30
0.0
  0
LINE
  5
209
100
AcDbEntity
  8
0
100
AcDbLine
 62
     233
 10
10.1483
 20
1.84457
 30
0.0
 11
10.1483
 21
1.84457
 31
0.0
  0
SPLINE
  5
20a
100
AcDbEntity
  8
0
100
AcDbSpline
210
0.0
220
0.0
230
1.0
 62
     233
 70
     0
 71
     3
 72
     8
 73
4
 40
0.0
 40
0.0
 40
0.0
 40
0.0
 40
1.0
 40
1.0
 40
1.0
 40
1.0
 10
7.35661
 20
2.49251
 30
0.0
 10
7.55143
 20
2.74664
 30
0.0
 10
7.85454
 20
3.18522
 30
0.0
 10
7.93994
 20
3.33518
 30
0.0
  0
SPLINE
  5
20b
100
AcDbEntity
  8
0
100
AcDbSpline
210
0.0
220
0.0
230
1.0
 62
     233
 70
     0
 71
     3
 72
     8
 73
4
 40
0.0
 40
0.0
 40
0.0
 40
0.0
 40
1.0
 40
1.0
 40
1.0
 40
1.0
 10
7.93994
 20
3.33518
 30
0.0
 10
7.96078
 20
3.37272
 30
0.0
 10
7.98269
 20
3.41021
 30
0.0
 10
7.9879
 20
3.41851
 30
0.0
  0
SPLINE
  5
20c
100
AcDbEntity
  8
0
100
AcDbSpline
210
0.0
220
0.0
230
1.0
 62
     233
 70
     0
 71
     3
 72
     8
 73
4
 40
0.0
 40
0.0
 40
0.0
 40
0.0
 40
1.0
 40
1.0
 40
1.0
 40
1.0
 10
7.9879
 20
3.41851
 30
0.0
 10
8.05871
 20
3.53103
 30
0.0
 10
8.15978
 20
3.71957
 30
0.0
 10
8.30974
 20
4.01747
 30
0.0
  0
SPLINE
  5
20d
100
AcDbEntity
  8
0
100
AcDbSpline
210
0.0
220
0.0
230
1.0
 62
     233
 70
     0
 71
     3
 72
     8
 73
4
 40
0.0
 40
0.0
 40
0.0
 40
0.0
 40
1.0
 40
1.0
 40
1.0
 40
1.0
 10
8.30974
 20
4.01747
 30
0.0
 10
8.44412
 20
4.28418
 30
0.0
 10
8.46496
 20
4.32894
 30
0.0
 10
8.54622
 20
4.53624
 30
0.0
  0
SPLINE
  5
20e
100
AcDbEntity
  8
0
100
AcDbSpline
210
0.0
220
0.0
230
1.0
 62
     233
 70
     0
 71
     3
 72
     8
 73
4
 40
0.0
 40
0.0
 40
0.0
 40
0.0
 40
1.0
 40
1.0
 40
1.0
 40
1.0
 10
8.54622
 20
4.53624
 30
0.0
 10
8.60872
 20
4.69353
 30
0.0
 10
8.62224
 20
4.74143
 30
0.0
 10
8.60351
 20
4.74143
 30
0.0
  0
SPLINE
  5
20f
100
AcDbEntity
  8
0
100
AcDbSpline
210
0.0
220
0.0
230
1.0
 62
     233
 70
     0
 71
     3
 72
     8
 73
4
 40
0.0
 40
0.0
 40
0.0
 40
0.0
 40
1.0
 40
1.0
 40
1.0
 40
1.0
 10
8.60351
 20
4.74143
 30
0.0
 10
8.57015
 20
4.74143
 30
0.0
 10
8.34619
 20
4.49875
 30
0.0
 10
8.20036
 20
4.30604
 30
0.0
  0
SPLINE
  5
210
100
AcDbEntity
  8
0
100
AcDbSpline
210
0.0
220
0.0
230
1.0
 62
     233
 70
     0
 71
     3
 72
     8
 73
4
 40
0.0
 40
0.0
 40
0.0
 40
0.0
 40
1.0
 40
1.0
 40
1.0
 40
1.0
 10
8.20036
 20
4.30604
 30
0.0
 10
8.15869
 20
4.24978
 30
0.0
 10
8.12017
 20
4.19976
 30
0.0
 10
8.116
 20
4.19456
 30
0.0
  0
SPLINE
  5
211
100
AcDbEntity
  8
0
100
AcDbSpline
210
0.0
220
0.0
230
1.0
 62
     233
 70
     0
 71
     3
 72
     8
 73
4
 40
0.0
 40
0.0
 40
0.0
 40
0.0
 40
1.0
 40
1.0
 40
1.0
 40
1.0
 10
8.116
 20
4.19456
 30
0.0
 10
8.06808
 20
4.13519
 30
0.0
 10
7.95454
 20
3.95708
 30
0.0
 10
7.87121
 20
3.80914
 30
0.0
  0
SPLINE
  5
212
100
AcDbEntity
  8
0
100
AcDbSpline
210
0.0
220
0.0
230
1.0
 62
     233
 70
     0
 71
     3
 72
     8
 73
4
 40
0.0
 40
0.0
 40
0.0
 40
0.0
 40
1.0
 40
1.0
 40
1.0
 40
1.0
 10
7.87121
 20
3.80914
 30
0.0
 10
7.76183
 20
3.6154
 30
0.0
 10
7.55453
 20
3.21229
 30
0.0
 10
7.49724
 20
3.08208
 30
0.0
  0
SPLINE
  5
213
100
AcDbEntity
  8
0
100
AcDbSpline
210
0.0
220
0.0
230
1.0
 62
     233
 70
     0
 71
     3
 72
     8
 73
4
 40
0.0
 40
0.0
 40
0.0
 40
0.0
 40
1.0
 40
1.0
 40
1.0
 40
1.0
 10
7.49724
 20
3.08208
 30
0.0
 10
7.47331
 20
3.03
 30
0.0
 10
7.44412
 20
2.96229
 30
0.0
 10
7.43061
 20
2.93414
 30
0.0
  0
SPLINE
  5
214
100
AcDbEntity
  8
0
100
AcDbSpline
210
0.0
220
0.0
230
1.0
 62
     233
 70
     0
 71
     3
 72
     8
 73
4
 40
0.0
 40
0.0
 40
0.0
 40
0.0
 40
1.0
 40
1.0
 40
1.0
 40
1.0
 10
7.43061
 20
2.93414
 30
0.0
 10
7.34412
 20
2.74875
 30
0.0
 10
7.22537
 20
2.43207
 30
0.0
 10
7.20247
 20
2.32997
 30
0.0
  0
LINE
  5
215
100
AcDbEntity
  8
0
100
AcDbLine
 62
     233
 10
7.20247
 20
2.32997
 30
0.0
 11
7.19624
 21
2.29872
 31
0.0
  0
LINE
  5
216
100
AcDbEntity
  8
0
100
AcDbLine
 62
     233
 10
7.19624
 20
2.29872
 30
0.0
 11
7.23475
 21
2.34147
 31
0.0
  0
SPLINE
  5
217
100
AcDbEntity
  8
0
100
AcDbSpline
210
0.0
220
0.0
230
1.0
 62
     233
 70
     0
 71
     3
 72
     8
 73
4
 40
0.0
 40
0.0
 40
0.0
 40
0.0
 40
1.0
 40
1.0
 40
1.0
 40
1.0
 10
7.23475
 20
2.34147
 30
0.0
 10
7.25662
 20
2.3654
 30
0.0
 10
7.31185
 20
2.43311
 30
0.0
 10
7.35661
 20
2.49251
 30
0.0
  0
LINE
  5
218
100
AcDbEntity
  8
0
100
AcDbLine
 62
     233
 10
7.35661
 20
2.49251
 30
0.0
 11
7.35661
 21
2.49251
 31
0.0
  0
SPLINE
  5
219
100
AcDbEntity
  8
0
100
AcDbSpline
210
0.0
220
0.0
230
1.0
 62
     233
 70
     0
 71
     3
 72
     8
 73
4
 40
0.0
 40
0.0
 40
0.0
 40
0.0
 40
1.0
 40
1.0
 40
1.0
 40
1.0
 10
1.50353
 20
3.05393
 30
0.0
 10
1.53267
 20
3.06022
 30
0.0
 10
1.57226
 20
3.06956
 30
0.0
 10
1.59207
 20
3.07476
 30
0.0
  0
SPLINE
  5
21a
100
AcDbEntity
  8
0
100
AcDbSpline
210
0.0
220
0.0
230
1.0
 62
     233
 70
     0
 71
     3
 72
     8
 73
4
 40
0.0
 40
0.0
 40
0.0
 40
0.0
 40
1.0
 40
1.0
 40
1.0
 40
1.0
 10
1.59207
 20
3.07476
 30
0.0
 10
1.61182
 20
3.07997
 30
0.0
 10
1.6754
 20
3.09457
 30
0.0
 10
1.73269
 20
3.1071
 30
0.0
  0
SPLINE
  5
21b
100
AcDbEntity
  8
0
100
AcDbSpline
210
0.0
220
0.0
230
1.0
 62
     233
 70
     0
 71
     3
 72
     8
 73
4
 40
0.0
 40
0.0
 40
0.0
 40
0.0
 40
1.0
 40
1.0
 40
1.0
 40
1.0
 10
1.73269
 20
3.1071
 30
0.0
 10
1.91704
 20
3.14561
 30
0.0
 10
2.1129
 20
3.22271
 30
0.0
 10
2.24414
 20
3.30707
 30
0.0
  0
SPLINE
  5
21c
100
AcDbEntity
  8
0
100
AcDbSpline
210
0.0
220
0.0
230
1.0
 62
     233
 70
     0
 71
     3
 72
     8
 73
4
 40
0.0
 40
0.0
 40
0.0
 40
0.0
 40
1.0
 40
1.0
 40
1.0
 40
1.0
 10
2.24414
 20
3.30707
 30
0.0
 10
2.33371
 20
3.36436
 30
0.0
 10
2.62956
 20
3.58729
 30
0.0
 10
2.65457
 20
3.6154
 30
0.0
  0
SPLINE
  5
21d
100
AcDbEntity
  8
0
100
AcDbSpline
210
0.0
220
0.0
230
1.0
 62
     233
 70
     0
 71
     3
 72
     8
 73
4
 40
0.0
 40
0.0
 40
0.0
 40
0.0
 40
1.0
 40
1.0
 40
1.0
 40
1.0
 10
2.65457
 20
3.6154
 30
0.0
 10
2.65767
 20
3.61854
 30
0.0
 10
2.69308
 20
3.64768
 30
0.0
 10
2.73269
 20
3.68001
 30
0.0
  0
SPLINE
  5
21e
100
AcDbEntity
  8
0
100
AcDbSpline
210
0.0
220
0.0
230
1.0
 62
     233
 70
     0
 71
     3
 72
     8
 73
4
 40
0.0
 40
0.0
 40
0.0
 40
0.0
 40
1.0
 40
1.0
 40
1.0
 40
1.0
 10
2.73269
 20
3.68001
 30
0.0
 10
3.00976
 20
3.90289
 30
0.0
 10
3.33996
 20
4.31022
 30
0.0
 10
3.50142
 20
4.62896
 30
0.0
  0
SPLINE
  5
21f
100
AcDbEntity
  8
0
100
AcDbSpline
210
0.0
220
0.0
230
1.0
 62
     233
 70
     0
 71
     3
 72
     8
 73
4
 40
0.0
 40
0.0
 40
0.0
 40
0.0
 40
1.0
 40
1.0
 40
1.0
 40
1.0
 10
3.50142
 20
4.62896
 30
0.0
 10
3.60037
 20
4.82374
 30
0.0
 10
3.61811
 20
4.88624
 30
0.0
 10
3.61811
 20
5.04351
 30
0.0
  0
SPLINE
  5
220
100
AcDbEntity
  8
0
100
AcDbSpline
210
0.0
220
0.0
230
1.0
 62
     233
 70
     0
 71
     3
 72
     8
 73
4
 40
0.0
 40
0.0
 40
0.0
 40
0.0
 40
1.0
 40
1.0
 40
1.0
 40
1.0
 10
3.61811
 20
5.04351
 30
0.0
 10
3.61811
 20
5.16749
 30
0.0
 10
3.616
 20
5.17686
 30
0.0
 10
3.58686
 20
5.23622
 30
0.0
  0
SPLINE
  5
221
100
AcDbEntity
  8
0
100
AcDbSpline
210
0.0
220
0.0
230
1.0
 62
     233
 70
     0
 71
     3
 72
     8
 73
4
 40
0.0
 40
0.0
 40
0.0
 40
0.0
 40
1.0
 40
1.0
 40
1.0
 40
1.0
 10
3.58686
 20
5.23622
 30
0.0
 10
3.52746
 20
5.3571
 30
0.0
 10
3.40246
 20
5.45708
 30
0.0
 10
3.23269
 20
5.51856
 30
0.0
  0
SPLINE
  5
222
100
AcDbEntity
  8
0
100
AcDbSpline
210
0.0
220
0.0
230
1.0
 62
     233
 70
     0
 71
     3
 72
     8
 73
4
 40
0.0
 40
0.0
 40
0.0
 40
0.0
 40
1.0
 40
1.0
 40
1.0
 40
1.0
 10
3.23269
 20
5.51856
 30
0.0
 10
3.16499
 20
5.54249
 30
0.0
 10
2.88058
 20
5.55186
 30
0.0
 10
2.7379
 20
5.5331
 30
0.0
  0
SPLINE
  5
223
100
AcDbEntity
  8
0
100
AcDbSpline
210
0.0
220
0.0
230
1.0
 62
     233
 70
     0
 71
     3
 72
     8
 73
4
 40
0.0
 40
0.0
 40
0.0
 40
0.0
 40
1.0
 40
1.0
 40
1.0
 40
1.0
 10
2.7379
 20
5.5331
 30
0.0
 10
2.54829
 20
5.50917
 30
0.0
 10
2.25456
 20
5.44146
 30
0.0
 10
2.14936
 20
5.39768
 30
0.0
  0
SPLINE
  5
224
100
AcDbEntity
  8
0
100
AcDbSpline
210
0.0
220
0.0
230
1.0
 62
     233
 70
     0
 71
     3
 72
     8
 73
4
 40
0.0
 40
0.0
 40
0.0
 40
0.0
 40
1.0
 40
1.0
 40
1.0
 40
1.0
 10
2.14936
 20
5.39768
 30
0.0
 10
2.13265
 20
5.3904
 30
0.0
 10
2.10872
 20
5.38206
 30
0.0
 10
2.09728
 20
5.37999
 30
0.0
  0
SPLINE
  5
225
100
AcDbEntity
  8
0
100
AcDbSpline
210
0.0
220
0.0
230
1.0
 62
     233
 70
     0
 71
     3
 72
     8
 73
4
 40
0.0
 40
0.0
 40
0.0
 40
0.0
 40
1.0
 40
1.0
 40
1.0
 40
1.0
 10
2.09728
 20
5.37999
 30
0.0
 10
2.0785
 20
5.37685
 30
0.0
 10
1.87956
 20
5.29981
 30
0.0
 10
1.80561
 20
5.26747
 30
0.0
  0
SPLINE
  5
226
100
AcDbEntity
  8
0
100
AcDbSpline
210
0.0
220
0.0
230
1.0
 62
     233
 70
     0
 71
     3
 72
     8
 73
4
 40
0.0
 40
0.0
 40
0.0
 40
0.0
 40
1.0
 40
1.0
 40
1.0
 40
1.0
 10
1.80561
 20
5.26747
 30
0.0
 10
1.7889
 20
5.26019
 30
0.0
 10
1.75456
 20
5.24561
 30
0.0
 10
1.73058
 20
5.23519
 30
0.0
  0
SPLINE
  5
227
100
AcDbEntity
  8
0
100
AcDbSpline
210
0.0
220
0.0
230
1.0
 62
     233
 70
     0
 71
     3
 72
     8
 73
4
 40
0.0
 40
0.0
 40
0.0
 40
0.0
 40
1.0
 40
1.0
 40
1.0
 40
1.0
 10
1.73058
 20
5.23519
 30
0.0
 10
1.70557
 20
5.22478
 30
0.0
 10
1.68582
 20
5.21332
 30
0.0
 10
1.68582
 20
5.21018
 30
0.0
  0
SPLINE
  5
228
100
AcDbEntity
  8
0
100
AcDbSpline
210
0.0
220
0.0
230
1.0
 62
     233
 70
     0
 71
     3
 72
     8
 73
4
 40
0.0
 40
0.0
 40
0.0
 40
0.0
 40
1.0
 40
1.0
 40
1.0
 40
1.0
 10
1.68582
 20
5.21018
 30
0.0
 10
1.68582
 20
5.20606
 30
0.0
 10
1.71392
 20
5.1696
 30
0.0
 10
1.74724
 20
5.12896
 30
0.0
  0
SPLINE
  5
229
100
AcDbEntity
  8
0
100
AcDbSpline
210
0.0
220
0.0
230
1.0
 62
     233
 70
     0
 71
     3
 72
     8
 73
4
 40
0.0
 40
0.0
 40
0.0
 40
0.0
 40
1.0
 40
1.0
 40
1.0
 40
1.0
 10
1.74724
 20
5.12896
 30
0.0
 10
1.78162
 20
5.08936
 30
0.0
 10
1.82954
 20
5.02582
 30
0.0
 10
1.85454
 20
4.9904
 30
0.0
  0
SPLINE
  5
22a
100
AcDbEntity
  8
0
100
AcDbSpline
210
0.0
220
0.0
230
1.0
 62
     233
 70
     0
 71
     3
 72
     8
 73
4
 40
0.0
 40
0.0
 40
0.0
 40
0.0
 40
1.0
 40
1.0
 40
1.0
 40
1.0
 10
1.85454
 20
4.9904
 30
0.0
 10
1.89828
 20
4.92583
 30
0.0
 10
1.89936
 20
4.92165
 30
0.0
 10
1.90246
 20
4.82894
 30
0.0
  0
SPLINE
  5
22b
100
AcDbEntity
  8
0
100
AcDbSpline
210
0.0
220
0.0
230
1.0
 62
     233
 70
     0
 71
     3
 72
     8
 73
4
 40
0.0
 40
0.0
 40
0.0
 40
0.0
 40
1.0
 40
1.0
 40
1.0
 40
1.0
 10
1.90246
 20
4.82894
 30
0.0
 10
1.90767
 20
4.70811
 30
0.0
 10
1.88786
 20
4.60292
 30
0.0
 10
1.81603
 20
4.35601
 30
0.0
  0
SPLINE
  5
22c
100
AcDbEntity
  8
0
100
AcDbSpline
210
0.0
220
0.0
230
1.0
 62
     233
 70
     0
 71
     3
 72
     8
 73
4
 40
0.0
 40
0.0
 40
0.0
 40
0.0
 40
1.0
 40
1.0
 40
1.0
 40
1.0
 10
1.81603
 20
4.35601
 30
0.0
 10
1.75558
 20
4.14979
 30
0.0
 10
1.73475
 20
4.08626
 30
0.0
 10
1.57124
 20
3.56956
 30
0.0
  0
SPLINE
  5
22d
100
AcDbEntity
  8
0
100
AcDbSpline
210
0.0
220
0.0
230
1.0
 62
     233
 70
     0
 71
     3
 72
     8
 73
4
 40
0.0
 40
0.0
 40
0.0
 40
0.0
 40
1.0
 40
1.0
 40
1.0
 40
1.0
 10
1.57124
 20
3.56956
 30
0.0
 10
1.40142
 20
3.03521
 30
0.0
 10
1.39936
 20
3.02686
 30
0.0
 10
1.43371
 20
3.03728
 30
0.0
  0
SPLINE
  5
22e
100
AcDbEntity
  8
0
100
AcDbSpline
210
0.0
220
0.0
230
1.0
 62
     233
 70
     0
 71
     3
 72
     8
 73
4
 40
0.0
 40
0.0
 40
0.0
 40
0.0
 40
1.0
 40
1.0
 40
1.0
 40
1.0
 10
1.43371
 20
3.03728
 30
0.0
 10
1.44308
 20
3.04042
 30
0.0
 10
1.47537
 20
3.04769
 30
0.0
 10
1.50353
 20
3.05393
 30
0.0
  0
LINE
  5
22f
100
AcDbEntity
  8
0
100
AcDbLine
 62
     233
 10
1.50353
 20
3.05393
 30
0.0
 11
1.50353
 21
3.05393
 31
0.0
  0
SPLINE
  5
230
100
AcDbEntity
  8
0
100
AcDbSpline
210
0.0
220
0.0
230
1.0
 62
     233
 70
     0
 71
     3
 72
     8
 73
4
 40
0.0
 40
0.0
 40
0.0
 40
0.0
 40
1.0
 40
1.0
 40
1.0
 40
1.0
 10
9.65662
 20
3.2206
 30
0.0
 10
9.48996
 20
3.30501
 30
0.0
 10
9.40662
 20
3.48519
 30
0.0
 10
9.45036
 20
3.67165
 30
0.0
  0
SPLINE
  5
231
100
AcDbEntity
  8
0
100
AcDbSpline
210
0.0
220
0.0
230
1.0
 62
     233
 70
     0
 71
     3
 72
     8
 73
4
 40
0.0
 40
0.0
 40
0.0
 40
0.0
 40
1.0
 40
1.0
 40
1.0
 40
1.0
 10
9.45036
 20
3.67165
 30
0.0
 10
9.47537
 20
3.77897
 30
0.0
 10
9.55767
 20
3.92893
 30
0.0
 10
9.64828
 20
4.03207
 30
0.0
  0
SPLINE
  5
232
100
AcDbEntity
  8
0
100
AcDbSpline
210
0.0
220
0.0
230
1.0
 62
     233
 70
     0
 71
     3
 72
     8
 73
4
 40
0.0
 40
0.0
 40
0.0
 40
0.0
 40
1.0
 40
1.0
 40
1.0
 40
1.0
 10
9.64828
 20
4.03207
 30
0.0
 10
9.70871
 20
4.10189
 30
0.0
 10
9.84728
 20
4.23313
 30
0.0
 10
9.89204
 20
4.26438
 30
0.0
  0
SPLINE
  5
233
100
AcDbEntity
  8
0
100
AcDbSpline
210
0.0
220
0.0
230
1.0
 62
     233
 70
     0
 71
     3
 72
     8
 73
4
 40
0.0
 40
0.0
 40
0.0
 40
0.0
 40
1.0
 40
1.0
 40
1.0
 40
1.0
 10
9.89204
 20
4.26438
 30
0.0
 10
9.95557
 20
4.30811
 30
0.0
 10
10.0577
 20
4.35292
 30
0.0
 10
10.115
 20
4.36122
 30
0.0
  0
SPLINE
  5
234
100
AcDbEntity
  8
0
100
AcDbSpline
210
0.0
220
0.0
230
1.0
 62
     233
 70
     0
 71
     3
 72
     8
 73
4
 40
0.0
 40
0.0
 40
0.0
 40
0.0
 40
1.0
 40
1.0
 40
1.0
 40
1.0
 10
10.115
 20
4.36122
 30
0.0
 10
10.1827
 20
4.37164
 30
0.0
 10
10.2202
 20
4.34978
 30
0.0
 10
10.3202
 20
4.24664
 30
0.0
  0
SPLINE
  5
235
100
AcDbEntity
  8
0
100
AcDbSpline
210
0.0
220
0.0
230
1.0
 62
     233
 70
     0
 71
     3
 72
     8
 73
4
 40
0.0
 40
0.0
 40
0.0
 40
0.0
 40
1.0
 40
1.0
 40
1.0
 40
1.0
 10
10.3202
 20
4.24664
 30
0.0
 10
10.4337
 20
4.12896
 30
0.0
 10
10.441
 20
4.11231
 30
0.0
 10
10.441
 20
3.99143
 30
0.0
  0
SPLINE
  5
236
100
AcDbEntity
  8
0
100
AcDbSpline
210
0.0
220
0.0
230
1.0
 62
     233
 70
     0
 71
     3
 72
     8
 73
4
 40
0.0
 40
0.0
 40
0.0
 40
0.0
 40
1.0
 40
1.0
 40
1.0
 40
1.0
 10
10.441
 20
3.99143
 30
0.0
 10
10.441
 20
3.89876
 30
0.0
 10
10.4389
 20
3.88835
 30
0.0
 10
10.4056
 20
3.82997
 30
0.0
  0
SPLINE
  5
237
100
AcDbEntity
  8
0
100
AcDbSpline
210
0.0
220
0.0
230
1.0
 62
     233
 70
     0
 71
     3
 72
     8
 73
4
 40
0.0
 40
0.0
 40
0.0
 40
0.0
 40
1.0
 40
1.0
 40
1.0
 40
1.0
 10
10.4056
 20
3.82997
 30
0.0
 10
10.3473
 20
3.72581
 30
0.0
 10
10.1764
 20
3.54981
 30
0.0
 10
9.97749
 20
3.38835
 30
0.0
  0
SPLINE
  5
238
100
AcDbEntity
  8
0
100
AcDbSpline
210
0.0
220
0.0
230
1.0
 62
     233
 70
     0
 71
     3
 72
     8
 73
4
 40
0.0
 40
0.0
 40
0.0
 40
0.0
 40
1.0
 40
1.0
 40
1.0
 40
1.0
 10
9.97749
 20
3.38835
 30
0.0
 10
9.94624
 20
3.36231
 30
0.0
 10
9.88683
 20
3.30707
 30
0.0
 10
9.84619
 20
3.2654
 30
0.0
  0
SPLINE
  5
239
100
AcDbEntity
  8
0
100
AcDbSpline
210
0.0
220
0.0
230
1.0
 62
     233
 70
     0
 71
     3
 72
     8
 73
4
 40
0.0
 40
0.0
 40
0.0
 40
0.0
 40
1.0
 40
1.0
 40
1.0
 40
1.0
 10
9.84619
 20
3.2654
 30
0.0
 10
9.76079
 20
3.17686
 30
0.0
 10
9.74935
 20
3.17481
 30
0.0
 10
9.65662
 20
3.2206
 30
0.0
  0
LINE
  5
23a
100
AcDbEntity
  8
0
100
AcDbLine
 62
     233
 10
9.65662
 20
3.2206
 30
0.0
 11
9.65662
 21
3.2206
 31
0.0
  0
ENDSEC
  0
SECTION
  2
OBJECTS
  0
DICTIONARY
  5
C
330
0
100
AcDbDictionary
  3
ACAD_GROUP
350
D
  3
ACAD_LAYOUT
350
1A
  3
ACAD_MLINESTYLE
350
17
  3
ACAD_PLOTSETTINGS
350
19
  3
ACAD_PLOTSTYLENAME
350
E
  3
ACDBHEADERROUNDTRIPXREC
350
2F
  0
DICTIONARY
  5
52
330
1F
100
AcDbDictionary
280
     1
  3
ACAD_LAYOUTSELFREF
360
53
  0
DICTIONARY
  5
50
330
1B
100
AcDbDictionary
280
     1
  3
ACAD_LAYOUTSELFREF
360
51
  0
DICTIONARY
  5
D
102
{ACAD_REACTORS
330
C
102
}
330
C
100
AcDbDictionary
  0
DICTIONARY
  5
1A
102
{ACAD_REACTORS
330
C
102
}
330
C
100
AcDbDictionary
  0
DICTIONARY
  5
17
102
{ACAD_REACTORS
330
C
102
}
330
C
100
AcDbDictionary
  3
STANDARD
350
18
  0
DICTIONARY
  5
19
102
{ACAD_REACTORS
330
C
102
}
330
C
100
AcDbDictionary
  0
ACDBDICTIONARYWDFLT
  5
E
102
{ACAD_REACTORS
330
C
102
}
330
C
100
AcDbDictionary
281
     1
  3
Normal
350
F
100
AcDbDictionaryWithDefault
340
F
  0
DICTIONARY
  5
2F
102
{ACAD_REACTORS
330
C
102
}
330
C
100
AcDbDictionary
  3
CEPSNTYPE
350
39
  3
DIMSTYLEDATA
350
3D
  3
FINGERPRINTGUID
350
3A
  3
HYPERLINKBASE
350
32
  3
INSUNITS
350
38
  3
LAYOUTDICT
350
34
  3
LWETCUNION
350
37
  3
PLOTSETDICT
350
35
  3
PLOTSTYLNAMDICT
350
36
  3
PSVPSCALE
350
3C
  3
PUCSBASE
350
40
  3
PUCSORGBACK
350
46
  3
PUCSORGBOTTOM
350
42
  3
PUCSORGFRONT
350
45
  3
PUCSORGLEFT
350
43
  3
PUCSORGRIGHT
350
44
  3
PUCSORGTOP
350
41
  3
PUCSORTHOREF
350
3E
  3
PUCSORTHOVIEW
350
3F
  3
STYLESHEET
350
33
  3
TSTACKALIGN
350
30
  3
TSTACKSIZE
350
31
  3
UCSBASE
350
49
  3
UCSORGBACK
350
4F
  3
UCSORGBOTTOM
350
4B
  3
UCSORGFRONT
350
4E
  3
UCSORGLEFT
350
4C
  3
UCSORGRIGHT
350
4D
  3
UCSORGTOP
350
4A
  3
UCSORTHOREF
350
47
  3
UCSORTHOVIEW
350
48
  3
VERSIONGUID
350
3B
  0
XRECORD
  5
53
102
{ACAD_REACTORS
330
52
102
}
330
52
100
AcDbXrecord
340
1F
  0
XRECORD
  5
51
102
{ACAD_REACTORS
330
50
102
}
330
50
100
AcDbXrecord
340
1B
  0
MLINESTYLE
  5
18
102
{ACAD_REACTORS
330
17
102
}
330
17
100
AcDbMlineStyle
  2
STANDARD
 70
     0
  3

 62
   256
 51
90.0
 52
90.0
 71
     2
 49
0.5
 62
   256
  6
BYLAYER
 49
-0.5
 62
   256
  6
BYLAYER
  0
ACDBPLACEHOLDER
  5
F
102
{ACAD_REACTORS
330
E
102
}
330
E
100
AcDbPlaceHolder
280
     0
  0
XRECORD
  5
39
102
{ACAD_REACTORS
330
2F
102
}
330
2F
100
AcDbXrecord
 90
        0
  0
XRECORD
  5
3D
102
{ACAD_REACTORS
330
2F
102
}
330
2F
100
AcDbXrecord
1000
DSTYLE
1002
{
1070
   278
 70
    44
1002
}
  0
XRECORD
  5
3A
102
{ACAD_REACTORS
330
2F
102
}
330
2F
100
AcDbXrecord
  1
{705446A6-11D0-4548-8F8C-A97DCA50327D}
  0
XRECORD
  5
32
102
{ACAD_REACTORS
330
2F
102
}
330
2F
100
AcDbXrecord
  1

  0
XRECORD
  5
38
102
{ACAD_REACTORS
330
2F
102
}
330
2F
100
AcDbXrecord
 90
        4
  0
XRECORD
  5
34
102
{ACAD_REACTORS
330
2F
102
}
330
2F
100
AcDbXrecord
340
1A
  0
XRECORD
  5
37
102
{ACAD_REACTORS
330
2F
102
}
330
2F
100
AcDbXrecord
 90
    10781
  0
XRECORD
  5
35
102
{ACAD_REACTORS
330
2F
102
}
330
2F
100
AcDbXrecord
340
19
  0
XRECORD
  5
36
102
{ACAD_REACTORS
330
2F
102
}
330
2F
100
AcDbXrecord
340
E
  0
XRECORD
  5
3C
102
{ACAD_REACTORS
330
2F
102
}
330
2F
100
AcDbXrecord
 40
0.0
  0
XRECORD
  5
40
102
{ACAD_REACTORS
330
2F
102
}
330
2F
100
AcDbXrecord
340
0
  0
XRECORD
  5
46
102
{ACAD_REACTORS
330
2F
102
}
330
2F
100
AcDbXrecord
 10
0.0
 20
0.0
 30
0.0
  0
XRECORD
  5
42
102
{ACAD_REACTORS
330
2F
102
}
330
2F
100
AcDbXrecord
 10
0.0
 20
0.0
 30
0.0
  0
XRECORD
  5
45
102
{ACAD_REACTORS
330
2F
102
}
330
2F
100
AcDbXrecord
 10
0.0
 20
0.0
 30
0.0
  0
XRECORD
  5
43
102
{ACAD_REACTORS
330
2F
102
}
330
2F
100
AcDbXrecord
 10
0.0
 20
0.0
 30
0.0
  0
XRECORD
  5
44
102
{ACAD_REACTORS
330
2F
102
}
330
2F
100
AcDbXrecord
 10
0.0
 20
0.0
 30
0.0
  0
XRECORD
  5
41
102
{ACAD_REACTORS
330
2F
102
}
330
2F
100
AcDbXrecord
 10
0.0
 20
0.0
 30
0.0
  0
XRECORD
  5
3E
102
{ACAD_REACTORS
330
2F
102
}
330
2F
100
AcDbXrecord
340
0
  0
XRECORD
  5
3F
102
{ACAD_REACTORS
330
2F
102
}
330
2F
100
AcDbXrecord
 70
     0
  0
XRECORD
  5
33
102
{ACAD_REACTORS
330
2F
102
}
330
2F
100
AcDbXrecord
  1

  0
XRECORD
  5
30
102
{ACAD_REACTORS
330
2F
102
}
330
2F
100
AcDbXrecord
 90
        1
  0
XRECORD
  5
31
102
{ACAD_REACTORS
330
2F
102
}
330
2F
100
AcDbXrecord
 90
       70
  0
XRECORD
  5
49
102
{ACAD_REACTORS
330
2F
102
}
330
2F
100
AcDbXrecord
340
0
  0
XRECORD
  5
4F
102
{ACAD_REACTORS
330
2F
102
}
330
2F
100
AcDbXrecord
 10
0.0
 20
0.0
 30
0.0
  0
XRECORD
  5
4B
102
{ACAD_REACTORS
330
2F
102
}
330
2F
100
AcDbXrecord
 10
0.0
 20
0.0
 30
0.0
  0
XRECORD
  5
4E
102
{ACAD_REACTORS
330
2F
102
}
330
2F
100
AcDbXrecord
 10
0.0
 20
0.0
 30
0.0
  0
XRECORD
  5
4C
102
{ACAD_REACTORS
330
2F
102
}
330
2F
100
AcDbXrecord
 10
0.0
 20
0.0
 30
0.0
  0
XRECORD
  5
4D
102
{ACAD_REACTORS
330
2F
102
}
330
2F
100
AcDbXrecord
 10
0.0
 20
0.0
 30
0.0
  0
XRECORD
  5
4A
102
{ACAD_REACTORS
330
2F
102
}
330
2F
100
AcDbXrecord
 10
0.0
 20
0.0
 30
0.0
  0
XRECORD
  5
47
102
{ACAD_REACTORS
330
2F
102
}
330
2F
100
AcDbXrecord
340
0
  0
XRECORD
  5
48
102
{ACAD_REACTORS
330
2F
102
}
330
2F
100
AcDbXrecord
 70
     0
  0
XRECORD
  5
3B
102
{ACAD_REACTORS
330
2F
102
}
330
2F
100
AcDbXrecord
  1
{33328E3A-B6B8-4979-86B7-D70DEC2867C2}
  0
ENDSEC
  0
EOF
