  0
SECTION
  2
HEADER
  9
$ACADVER
  1
AC1024
  9
$ACADMAINTVER
 70
     6
  9
$DWGCODEPAGE
  3
ANSI_1252
  9
$INSBASE
 10
0.0
 20
0.0
 30
0.0
  9
$EXTMIN
 10
1.000000000000000E+20
 20
1.000000000000000E+20
 30
1.000000000000000E+20
  9
$EXTMAX
 10
-1.000000000000000E+20
 20
-1.000000000000000E+20
 30
-1.000000000000000E+20
  9
$LIMMIN
 10
0.0
 20
0.0
  9
$LIMMAX
 10
12.0
 20
9.0
  9
$ORTHOMODE
 70
     0
  9
$REGENMODE
 70
     1
  9
$FILLMODE
 70
     1
  9
$QTEXTMODE
 70
     0
  9
$MIRRTEXT
 70
     1
  9
$LTSCALE
 40
1.0
  9
$ATTMODE
 70
     1
  9
$TEXTSIZE
 40
0.2
  9
$TRACEWID
 40
0.05
  9
$TEXTSTYLE
  7
Standard
  9
$CLAYER
  8
0
  9
$CELTYPE
  6
ByLayer
  9
$CECOLOR
 62
   256
  9
$CELTSCALE
 40
1.0
  9
$DISPSILH
 70
     0
  9
$DIMSCALE
 40
1.0
  9
$DIMASZ
 40
0.18
  9
$DIMEXO
 40
0.0625
  9
$DIMDLI
 40
0.38
  9
$DIMRND
 40
0.0
  9
$DIMDLE
 40
0.0
  9
$DIMEXE
 40
0.18
  9
$DIMTP
 40
0.0
  9
$DIMTM
 40
0.0
  9
$DIMTXT
 40
0.18
  9
$DIMCEN
 40
0.09
  9
$DIMTSZ
 40
0.0
  9
$DIMTOL
 70
     0
  9
$DIMLIM
 70
     0
  9
$DIMTIH
 70
     1
  9
$DIMTOH
 70
     1
  9
$DIMSE1
 70
     0
  9
$DIMSE2
 70
     0
  9
$DIMTAD
 70
     0
  9
$DIMZIN
 70
     0
  9
$DIMBLK
  1

  9
$DIMASO
 70
     1
  9
$DIMSHO
 70
     1
  9
$DIMPOST
  1

  9
$DIMAPOST
  1

  9
$DIMALT
 70
     0
  9
$DIMALTD
 70
     2
  9
$DIMALTF
 40
25.4
  9
$DIMLFAC
 40
1.0
  9
$DIMTOFL
 70
     0
  9
$DIMTVP
 40
0.0
  9
$DIMTIX
 70
     0
  9
$DIMSOXD
 70
     0
  9
$DIMSAH
 70
     0
  9
$DIMBLK1
  1

  9
$DIMBLK2
  1

  9
$DIMSTYLE
  2
Standard
  9
$DIMCLRD
 70
     0
  9
$DIMCLRE
 70
     0
  9
$DIMCLRT
 70
     0
  9
$DIMTFAC
 40
1.0
  9
$DIMGAP
 40
0.09
  9
$DIMJUST
 70
     0
  9
$DIMSD1
 70
     0
  9
$DIMSD2
 70
     0
  9
$DIMTOLJ
 70
     1
  9
$DIMTZIN
 70
     0
  9
$DIMALTZ
 70
     0
  9
$DIMALTTZ
 70
     0
  9
$DIMUPT
 70
     0
  9
$DIMDEC
 70
     4
  9
$DIMTDEC
 70
     4
  9
$DIMALTU
 70
     2
  9
$DIMALTTD
 70
     2
  9
$DIMTXSTY
  7
Standard
  9
$DIMAUNIT
 70
     0
  9
$DIMADEC
 70
     0
  9
$DIMALTRND
 40
0.0
  9
$DIMAZIN
 70
     0
  9
$DIMDSEP
 70
    46
  9
$DIMATFIT
 70
     3
  9
$DIMFRAC
 70
     0
  9
$DIMLDRBLK
  1

  9
$DIMLUNIT
 70
     2
  9
$DIMLWD
 70
    -2
  9
$DIMLWE
 70
    -2
  9
$DIMTMOVE
 70
     0
  9
$DIMFXL
 40
1.0
  9
$DIMFXLON
 70
     0
  9
$DIMJOGANG
 40
0.7853981633974483
  9
$DIMTFILL
 70
     0
  9
$DIMTFILLCLR
 70
     0
  9
$DIMARCSYM
 70
     0
  9
$DIMLTYPE
  6

  9
$DIMLTEX1
  6

  9
$DIMLTEX2
  6

  9
$DIMTXTDIRECTION
 70
     0
  9
$LUNITS
 70
     2
  9
$LUPREC
 70
     4
  9
$SKETCHINC
 40
0.1
  9
$FILLETRAD
 40
0.5
  9
$AUNITS
 70
     0
  9
$AUPREC
 70
     0
  9
$MENU
  1
.
  9
$ELEVATION
 40
0.0
  9
$PELEVATION
 40
0.0
  9
$THICKNESS
 40
0.0
  9
$LIMCHECK
 70
     0
  9
$CHAMFERA
 40
0.5
  9
$CHAMFERB
 40
0.5
  9
$CHAMFERC
 40
1.0
  9
$CHAMFERD
 40
0.0
  9
$SKPOLY
 70
     0
  9
$TDCREATE
 40
2459314.931065093
  9
$TDUCREATE
 40
2459315.181065093
  9
$TDUPDATE
 40
2459314.931065162
  9
$TDUUPDATE
 40
2459315.181065162
  9
$TDINDWG
 40
0.0000000116
  9
$TDUSRTIMER
 40
0.0000000116
  9
$USRTIMER
 70
     1
  9
$ANGBASE
 50
0.0
  9
$ANGDIR
 70
     0
  9
$PDMODE
 70
     0
  9
$PDSIZE
 40
0.0
  9
$PLINEWID
 40
0.0
  9
$SPLFRAME
 70
     0
  9
$SPLINETYPE
 70
     6
  9
$SPLINESEGS
 70
     8
  9
$HANDSEED
  5
52
  9
$SURFTAB1
 70
     6
  9
$SURFTAB2
 70
     6
  9
$SURFTYPE
 70
     6
  9
$SURFU
 70
     6
  9
$SURFV
 70
     6
  9
$UCSBASE
  2

  9
$UCSNAME
  2

  9
$UCSORG
 10
0.0
 20
0.0
 30
0.0
  9
$UCSXDIR
 10
1.0
 20
0.0
 30
0.0
  9
$UCSYDIR
 10
0.0
 20
1.0
 30
0.0
  9
$UCSORTHOREF
  2

  9
$UCSORTHOVIEW
 70
     0
  9
$UCSORGTOP
 10
0.0
 20
0.0
 30
0.0
  9
$UCSORGBOTTOM
 10
0.0
 20
0.0
 30
0.0
  9
$UCSORGLEFT
 10
0.0
 20
0.0
 30
0.0
  9
$UCSORGRIGHT
 10
0.0
 20
0.0
 30
0.0
  9
$UCSORGFRONT
 10
0.0
 20
0.0
 30
0.0
  9
$UCSORGBACK
 10
0.0
 20
0.0
 30
0.0
  9
$PUCSBASE
  2

  9
$PUCSNAME
  2

  9
$PUCSORG
 10
0.0
 20
0.0
 30
0.0
  9
$PUCSXDIR
 10
1.0
 20
0.0
 30
0.0
  9
$PUCSYDIR
 10
0.0
 20
1.0
 30
0.0
  9
$PUCSORTHOREF
  2

  9
$PUCSORTHOVIEW
 70
     0
  9
$PUCSORGTOP
 10
0.0
 20
0.0
 30
0.0
  9
$PUCSORGBOTTOM
 10
0.0
 20
0.0
 30
0.0
  9
$PUCSORGLEFT
 10
0.0
 20
0.0
 30
0.0
  9
$PUCSORGRIGHT
 10
0.0
 20
0.0
 30
0.0
  9
$PUCSORGFRONT
 10
0.0
 20
0.0
 30
0.0
  9
$PUCSORGBACK
 10
0.0
 20
0.0
 30
0.0
  9
$USERI1
 70
     0
  9
$USERI2
 70
     0
  9
$USERI3
 70
     0
  9
$USERI4
 70
     0
  9
$USERI5
 70
     0
  9
$USERR1
 40
0.0
  9
$USERR2
 40
0.0
  9
$USERR3
 40
0.0
  9
$USERR4
 40
0.0
  9
$USERR5
 40
0.0
  9
$WORLDVIEW
 70
     1
  9
$SHADEDGE
 70
     3
  9
$SHADEDIF
 70
    70
  9
$TILEMODE
 70
     1
  9
$MAXACTVP
 70
    64
  9
$PINSBASE
 10
0.0
 20
0.0
 30
0.0
  9
$PLIMCHECK
 70
     0
  9
$PEXTMIN
 10
1.000000000000000E+20
 20
1.000000000000000E+20
 30
1.000000000000000E+20
  9
$PEXTMAX
 10
-1.000000000000000E+20
 20
-1.000000000000000E+20
 30
-1.000000000000000E+20
  9
$PLIMMIN
 10
0.0
 20
0.0
  9
$PLIMMAX
 10
12.0
 20
9.0
  9
$UNITMODE
 70
     0
  9
$VISRETAIN
 70
     1
  9
$PLINEGEN
 70
     0
  9
$PSLTSCALE
 70
     1
  9
$TREEDEPTH
 70
  3020
  9
$CMLSTYLE
  2
Standard
  9
$CMLJUST
 70
     0
  9
$CMLSCALE
 40
1.0
  9
$PROXYGRAPHICS
 70
     1
  9
$MEASUREMENT
 70
     0
  9
$CELWEIGHT
370
    -1
  9
$ENDCAPS
280
     0
  9
$JOINSTYLE
280
     0
  9
$LWDISPLAY
290
     1
  9
$INSUNITS
 70
     0
  9
$HYPERLINKBASE
  1

  9
$STYLESHEET
  1

  9
$XEDIT
290
     1
  9
$CEPSNTYPE
380
     0
  9
$PSTYLEMODE
290
     1
  9
$FINGERPRINTGUID
  2
{4362D1FA-9EF0-4A06-A33B-9F1773658376}
  9
$VERSIONGUID
  2
{FAEB1C32-E019-11D5-929B-00C0DF256EC4}
  9
$EXTNAMES
290
     1
  9
$PSVPSCALE
 40
0.0
  9
$OLESTARTUP
290
     0
  9
$SORTENTS
280
   127
  9
$INDEXCTL
280
     0
  9
$HIDETEXT
280
     1
  9
$XCLIPFRAME
280
     2
  9
$HALOGAP
280
     0
  9
$OBSCOLOR
 70
   257
  9
$OBSLTYPE
280
     0
  9
$INTERSECTIONDISPLAY
280
     0
  9
$INTERSECTIONCOLOR
 70
   257
  9
$DIMASSOC
280
     2
  9
$PROJECTNAME
  1

  9
$CAMERADISPLAY
290
     0
  9
$LENSLENGTH
 40
50.0
  9
$CAMERAHEIGHT
 40
0.0
  9
$STEPSPERSEC
 40
2.0
  9
$STEPSIZE
 40
6.0
  9
$3DDWFPREC
 40
2.0
  9
$PSOLWIDTH
 40
0.25
  9
$PSOLHEIGHT
 40
4.0
  9
$LOFTANG1
 40
1.570796326794897
  9
$LOFTANG2
 40
1.570796326794897
  9
$LOFTMAG1
 40
0.0
  9
$LOFTMAG2
 40
0.0
  9
$LOFTPARAM
 70
     7
  9
$LOFTNORMALS
280
     1
  9
$LATITUDE
 40
37.795
  9
$LONGITUDE
 40
-122.394
  9
$NORTHDIRECTION
 40
0.0
  9
$TIMEZONE
 70
 -8000
  9
$LIGHTGLYPHDISPLAY
280
     1
  9
$TILEMODELIGHTSYNCH
280
     1
  9
$CMATERIAL
347
3C
  9
$SOLIDHIST
280
     1
  9
$SHOWHIST
280
     1
  9
$DWFFRAME
280
     2
  9
$DGNFRAME
280
     2
  9
$REALWORLDSCALE
290
     1
  9
$INTERFERECOLOR
 62
   256
  9
$CSHADOW
280
     0
  9
$SHADOWPLANELOCATION
 40
0.0
  0
ENDSEC
  0
SECTION
  2
CLASSES
  0
CLASS
  1
ACDBDICTIONARYWDFLT
  2
AcDbDictionaryWithDefault
  3
ObjectDBX Classes
 90
        0
 91
        4
280
     0
281
     0
  0
CLASS
  1
VISUALSTYLE
  2
AcDbVisualStyle
  3
ObjectDBX Classes
 90
     4095
 91
        4
280
     0
281
     0
  0
CLASS
  1
MATERIAL
  2
AcDbMaterial
  3
ObjectDBX Classes
 90
     1153
 91
        4
280
     0
281
     0
  0
CLASS
  1
SUN
  2
AcDbSun
  3
SCENEOE
 90
     1024
 91
        4
280
     0
281
     0
  0
ENDSEC
  0
SECTION
  2
TABLES
  0
TABLE
  2
VPORT
  5
8
330
0
100
AcDbSymbolTable
 70
     1
  0
VPORT
  5
29
330
8
100
AcDbSymbolTableRecord
100
AcDbViewportTableRecord
  2
*Active
 70
     0
 10
0.0
 20
0.0
 11
1.0
 21
1.0
 12
0.0
 22
0.0
 13
0.0
 23
0.0
 14
0.5
 24
0.5
 15
0.5
 25
0.5
 16
0.0
 26
0.0
 36
1.0
 17
960.0
 27
540.0
 37
0.0
 40
1080.0
 41
1.777777777777778
 42
50.0
 43
0.0
 44
0.0
 50
0.0
 51
0.0
 71
     0
 72
   100
 73
     1
 74
     3
 75
     0
 76
     0
 77
     0
 78
     0
281
     0
 65
     1
110
0.0
120
0.0
130
0.0
111
1.0
121
0.0
131
0.0
112
0.0
122
1.0
132
0.0
 79
     0
146
0.0
 60
     3
 61
     5
292
     1
282
     1
141
0.0
142
0.0
 63
   250
361
3F
  0
ENDTAB
  0
TABLE
  2
LTYPE
  5
5
330
0
100
AcDbSymbolTable
 70
     1
  0
LTYPE
  5
14
330
5
100
AcDbSymbolTableRecord
100
AcDbLinetypeTableRecord
  2
ByBlock
 70
     0
  3

 72
    65
 73
     0
 40
0.0
  0
LTYPE
  5
15
330
5
100
AcDbSymbolTableRecord
100
AcDbLinetypeTableRecord
  2
ByLayer
 70
     0
  3

 72
    65
 73
     0
 40
0.0
  0
LTYPE
  5
16
330
5
100
AcDbSymbolTableRecord
100
AcDbLinetypeTableRecord
  2
Continuous
 70
     0
  3
Solid line
 72
    65
 73
     0
 40
0.0
  0
ENDTAB
  0
TABLE
  2
LAYER
  5
2
330
0
100
AcDbSymbolTable
 70
     2
  0
LAYER
  5
10
330
2
100
AcDbSymbolTableRecord
100
AcDbLayerTableRecord
  2
0
 70
     0
 62
     7
  6
Continuous
370
    -3
390
F
347
3E
  0
LAYER
  5
40
330
2
100
AcDbSymbolTableRecord
100
AcDbLayerTableRecord
  2
Capa 1
 70
     0
 62
     7
  6
Continuous
370
    -3
390
F
347
3E
  0
ENDTAB
  0
TABLE
  2
STYLE
  5
3
330
0
100
AcDbSymbolTable
 70
     1
  0
STYLE
  5
11
330
3
100
AcDbSymbolTableRecord
100
AcDbTextStyleTableRecord
  2
Standard
 70
     0
 40
0.0
 41
1.0
 50
0.0
 71
     0
 42
0.2
  3
txt
  4

  0
ENDTAB
  0
TABLE
  2
VIEW
  5
6
330
0
100
AcDbSymbolTable
 70
     0
  0
ENDTAB
  0
TABLE
  2
UCS
  5
7
330
0
100
AcDbSymbolTable
 70
     0
  0
ENDTAB
  0
TABLE
  2
APPID
  5
9
330
0
100
AcDbSymbolTable
 70
     1
  0
APPID
  5
12
330
9
100
AcDbSymbolTableRecord
100
AcDbRegAppTableRecord
  2
ACAD
 70
     0
  0
ENDTAB
  0
TABLE
  2
DIMSTYLE
  5
A
330
0
100
AcDbSymbolTable
 70
     1
100
AcDbDimStyleTable
  0
DIMSTYLE
105
27
330
A
100
AcDbSymbolTableRecord
100
AcDbDimStyleTableRecord
  2
Standard
 70
     0
178
     0
340
11
  0
ENDTAB
  0
TABLE
  2
BLOCK_RECORD
  5
1
330
0
100
AcDbSymbolTable
 70
     2
  0
BLOCK_RECORD
  5
1F
330
1
100
AcDbSymbolTableRecord
100
AcDbBlockTableRecord
  2
*Model_Space
340
22
 70
     0
280
     1
281
     0
  0
BLOCK_RECORD
  5
1B
330
1
100
AcDbSymbolTableRecord
100
AcDbBlockTableRecord
  2
*Paper_Space
340
1E
 70
     0
280
     1
281
     0
  0
BLOCK_RECORD
  5
23
330
1
100
AcDbSymbolTableRecord
100
AcDbBlockTableRecord
  2
*Paper_Space0
340
26
 70
     0
280
     1
281
     0
  0
BLOCK_RECORD
  5
41
330
1
100
AcDbSymbolTableRecord
100
AcDbBlockTableRecord
  2
block 2
340
0
102
{BLKREFS
331
42
102
}
 70
     0
280
     1
281
     0
  0
ENDTAB
  0
ENDSEC
  0
SECTION
  2
BLOCKS
  0
BLOCK
  5
20
330
1F
100
AcDbEntity
  8
0
100
AcDbBlockBegin
  2
*Model_Space
 70
     0
 10
0.0
 20
0.0
 30
0.0
  3
*Model_Space
  1

  0
ENDBLK
  5
21
330
1F
100
AcDbEntity
  8
0
100
AcDbBlockEnd
  0
BLOCK
  5
1C
330
1B
100
AcDbEntity
 67
     1
  8
0
100
AcDbBlockBegin
  2
*Paper_Space
 70
     0
 10
0.0
 20
0.0
 30
0.0
  3
*Paper_Space
  1

  0
ENDBLK
  5
1D
330
1B
100
AcDbEntity
 67
     1
  8
0
100
AcDbBlockEnd
  0
BLOCK
  5
24
330
23
100
AcDbEntity
  8
0
100
AcDbBlockBegin
  2
*Paper_Space0
 70
     0
 10
0.0
 20
0.0
 30
0.0
  3
*Paper_Space0
  1

  0
ENDBLK
  5
25
330
23
100
AcDbEntity
  8
0
100
AcDbBlockEnd
  0
BLOCK
  5
43
330
41
100
AcDbEntity
  8
0
100
AcDbBlockBegin
  2
block 2
 70
     0
 10
0.0
 20
0.0
 30
0.0
  3
block 2
  1

  0
SPLINE
  5
45
330
41
100
AcDbEntity
  8
Capa 1
370
     0
100
AcDbSpline
210
0.0
220
0.0
230
1.0
 70
    11
 71
     3
 72
   245
 73
   241
 74
     0
 42
0.0000000001
 43
0.0000000001
 12
1.0
 22
0.0
 32
0.0
 13
1.0
 23
0.0
 33
0.0
 40
0.0
 40
0.0
 40
0.0
 40
0.0
 40
1.0
 40
1.0
 40
1.0
 40
2.0
 40
2.0
 40
2.0
 40
3.0
 40
3.0
 40
3.0
 40
4.0
 40
4.0
 40
4.0
 40
5.0
 40
5.0
 40
5.0
 40
6.0
 40
6.0
 40
6.0
 40
7.0
 40
7.0
 40
7.0
 40
8.0
 40
8.0
 40
8.0
 40
9.0
 40
9.0
 40
9.0
 40
10.0
 40
10.0
 40
10.0
 40
11.0
 40
11.0
 40
11.0
 40
12.0
 40
12.0
 40
12.0
 40
13.0
 40
13.0
 40
13.0
 40
14.0
 40
14.0
 40
14.0
 40
15.0
 40
15.0
 40
15.0
 40
16.0
 40
16.0
 40
16.0
 40
17.0
 40
17.0
 40
17.0
 40
18.0
 40
18.0
 40
18.0
 40
19.0
 40
19.0
 40
19.0
 40
20.0
 40
20.0
 40
20.0
 40
21.0
 40
21.0
 40
21.0
 40
22.0
 40
22.0
 40
22.0
 40
23.0
 40
23.0
 40
23.0
 40
24.0
 40
24.0
 40
24.0
 40
25.0
 40
25.0
 40
25.0
 40
26.0
 40
26.0
 40
26.0
 40
27.0
 40
27.0
 40
27.0
 40
28.0
 40
28.0
 40
28.0
 40
29.0
 40
29.0
 40
29.0
 40
30.0
 40
30.0
 40
30.0
 40
31.0
 40
31.0
 40
31.0
 40
32.0
 40
32.0
 40
32.0
 40
33.0
 40
33.0
 40
33.0
 40
34.0
 40
34.0
 40
34.0
 40
35.0
 40
35.0
 40
35.0
 40
36.0
 40
36.0
 40
36.0
 40
37.0
 40
37.0
 40
37.0
 40
38.0
 40
38.0
 40
38.0
 40
39.0
 40
39.0
 40
39.0
 40
40.0
 40
40.0
 40
40.0
 40
41.0
 40
41.0
 40
41.0
 40
42.0
 40
42.0
 40
42.0
 40
43.0
 40
43.0
 40
43.0
 40
44.0
 40
44.0
 40
44.0
 40
45.0
 40
45.0
 40
45.0
 40
46.0
 40
46.0
 40
46.0
 40
47.0
 40
47.0
 40
47.0
 40
48.0
 40
48.0
 40
48.0
 40
49.0
 40
49.0
 40
49.0
 40
50.0
 40
50.0
 40
50.0
 40
51.0
 40
51.0
 40
51.0
 40
52.0
 40
52.0
 40
52.0
 40
53.0
 40
53.0
 40
53.0
 40
54.0
 40
54.0
 40
54.0
 40
55.0
 40
55.0
 40
55.0
 40
56.0
 40
56.0
 40
56.0
 40
57.0
 40
57.0
 40
57.0
 40
58.0
 40
58.0
 40
58.0
 40
59.0
 40
59.0
 40
59.0
 40
60.0
 40
60.0
 40
60.0
 40
61.0
 40
61.0
 40
61.0
 40
62.0
 40
62.0
 40
62.0
 40
63.0
 40
63.0
 40
63.0
 40
64.0
 40
64.0
 40
64.0
 40
65.0
 40
65.0
 40
65.0
 40
66.0
 40
66.0
 40
66.0
 40
67.0
 40
67.0
 40
67.0
 40
68.0
 40
68.0
 40
68.0
 40
69.0
 40
69.0
 40
69.0
 40
70.0
 40
70.0
 40
70.0
 40
71.0
 40
71.0
 40
71.0
 40
72.0
 40
72.0
 40
72.0
 40
73.0
 40
73.0
 40
73.0
 40
74.0
 40
74.0
 40
74.0
 40
75.0
 40
75.0
 40
75.0
 40
76.0
 40
76.0
 40
76.0
 40
77.0
 40
77.0
 40
77.0
 40
78.0
 40
78.0
 40
78.0
 40
79.0
 40
79.0
 40
79.0
 40
80.0
 40
80.0
 40
80.0
 40
80.0
 10
1219.913774901441
 20
281.009195063798
 30
0.0
 10
1221.94913589568
 20
281.009195063798
 30
0.0
 10
1223.582990131286
 20
300.9612982475428
 30
0.0
 10
1223.582990131286
 20
325.7871369370187
 30
0.0
 10
1223.582990131286
 20
350.211468867863
 30
0.0
 10
1225.216844366896
 20
370.5654100864394
 30
0.0
 10
1227.252205361132
 20
370.5654100864394
 30
0.0
 10
1230.921420590978
 20
370.5654100864394
 30
0.0
 10
1247.204308544875
 20
335.5624351495753
 30
0.0
 10
1256.550272797711
 20
307.4688879888854
 30
0.0
 10
1260.620994786183
 20
296.0600668169209
 30
0.0
 10
1262.254849021792
 20
271.6357348860747
 30
0.0
 10
1261.853342263163
 20
228.0898092136322
 30
0.0
 10
1261.451835504537
 20
169.8676851742148
 30
0.0
 10
1260.219488027557
 20
157.655519208789
 30
0.0
 10
1242.302745838051
 20
69.33165166312756
 30
0.0
 10
1240.451574412955
 20
60.1456938165793
 30
0.0
 10
1238.697135639275
 20
51.19394824589835
 30
0.0
 10
1236.994375953342
 20
42.3763695376274
 30
0.0
 10
1238.143904379447
 20
42.27234880973083
 30
0.0
 10
1239.269580918906
 20
42.22928290327582
 30
0.0
 10
1240.43699826
 20
42.05171885820891
 30
0.0
 10
1243.108409564937
 20
42.15872107193718
 30
0.0
 10
1245.786446393942
 20
41.94438536827511
 30
0.0
 10
1248.375701200413
 20
41.4468085106364
 30
0.0
 10
1250.401786460952
 20
52.41039446510877
 30
0.0
 10
1252.462986999062
 20
63.21397401329523
 30
0.0
 10
1254.514911803475
 20
73.40237365160465
 30
0.0
 10
1271.628640475725
 20
159.2893734443987
 30
0.0
 10
1273.664001469961
 20
175.1704233634646
 30
0.0
 10
1274.06550822859
 20
228.0898092136322
 30
0.0
 10
1274.467014987216
 20
298.9259372533033
 30
0.0
 10
1267.128584527527
 20
329.0545141320326
 30
0.0
 10
1235.795156096712
 20
380.7422150576258
 30
0.0
 10
1208.532449654369
 20
425.9216636894726
 30
0.0
 10
1207.300102177389
 20
434.8936171085697
 30
0.0
 10
1225.216844366896
 20
472.3331285220975
 30
0.0
 10
1246.373467826526
 20
516.7095636366867
 30
0.0
 10
1243.936600073657
 20
536.2326641369109
 30
0.0
 10
1213.004678401474
 20
571.2628037224613
 30
0.0
 10
1202.827873430288
 20
582.2426222109061
 30
0.0
 10
1199.15865820044
 20
589.9825594292261
 30
0.0
 10
1199.15865820044
 20
600.5608711590394
 30
0.0
 10
1199.15865820044
 20
633.9299918602956
 30
0.0
 10
1168.628243286885
 20
697.4551853651674
 30
0.0
 10
1147.471619827253
 20
708.8368418884438
 30
0.0
 10
1140.133189367561
 20
712.90756387692
 30
0.0
 10
1135.259453861829
 20
712.5057258420857
 30
0.0
 10
1121.413433660799
 20
707.202987652835
 30
0.0
 10
1121.413433660799
 20
707.202987652835
 30
0.0
 10
1104.729038948273
 20
700.6953979114942
 30
0.0
 10
1104.729038948273
 20
700.6953979114942
 30
0.0
 10
1104.729038948273
 20
700.6953979114942
 30
0.0
 10
1071.733929080756
 20
729.5919585894453
 30
0.0
 10
1071.733929080756
 20
729.5919585894453
 30
0.0
 10
1042.435861644179
 20
754.846799962439
 30
0.0
 10
1014.342314483483
 20
771.9330327097987
 30
0.0
 10
990.7488232709875
 20
779.2711318932852
 30
0.0
 10
977.7061478634187
 20
783.3418538817605
 30
0.0
 10
983.0088860526685
 20
797.9908876000482
 30
0.0
 10
1009.468578977754
 20
830.556663507843
 30
0.0
 10
1037.562126138444
 20
865.1578004098765
 30
0.0
 10
1071.332422322124
 20
913.6049575129418
 30
0.0
 10
1083.14308152892
 20
935.9939284495504
 30
0.0
 10
1086.812296758768
 20
943.7338656678685
 30
0.0
 10
1090.48151198861
 20
958.7847374209914
 30
0.0
 10
1090.48151198861
 20
969.3630491508056
 30
0.0
 10
1090.883018747239
 20
996.2242488345182
 30
0.0
 10
1081.910734051942
 20
1005.597709012243
 30
0.0
 10
1057.084895362466
 20
1005.597709012243
 30
0.0
 10
1033.062070190248
 20
1005.597709012243
 30
0.0
 10
1004.996350230649
 20
989.7166590931774
 30
0.0
 10
969.5647038864681
 20
956.7493764267538
 30
0.0
 10
969.5647038864681
 20
956.7493764267538
 30
0.0
 10
943.5065177200158
 20
931.9232064610751
 30
0.0
 10
943.5065177200158
 20
931.9232064610751
 30
0.0
 10
943.5065177200158
 20
931.9232064610751
 30
0.0
 10
930.4910069611296
 20
956.3475383919222
 30
0.0
 10
930.4910069611296
 20
956.3475383919222
 30
0.0
 10
915.4401352080085
 20
984.4410855526139
 30
0.0
 10
879.6069821052006
 20
1025.549812195986
 30
0.0
 10
859.6552101976595
 20
1037.76197816141
 30
0.0
 10
839.3016002552877
 20
1050.375650885462
 30
0.0
 10
819.3494970715446
 20
1049.143634684686
 30
0.0
 10
806.7358243474919
 20
1034.092762931564
 30
0.0
 10
792.4882973878339
 20
1017.00686146041
 30
0.0
 10
790.0510983587637
 20
998.2596098287559
 30
0.0
 10
795.3538365480135
 20
950.6432934440418
 30
0.0
 10
799.4245585364879
 20
914.809809065031
 30
0.0
 10
814.8772683244406
 20
841.5368132724907
 30
0.0
 10
822.6168742665586
 20
821.6122060136386
 30
0.0
 10
824.6522352607963
 20
816.7109745830167
 30
0.0
 10
816.1089532490141
 20
804.9003153762224
 30
0.0
 10
791.2831145595392
 20
778.8696251346573
 30
0.0
 10
772.53619420409
 20
758.9175219509134
 30
0.0
 10
755.0481234218969
 20
737.3318958077634
 30
0.0
 10
752.1825842617172
 20
730.8239747902226
 30
0.0
 10
749.7457165088526
 20
723.9148782902521
 30
0.0
 10
742.8359574564756
 20
699.0615436758862
 30
0.0
 10
737.131712508597
 20
675.066214428557
 30
0.0
 10
726.1515627439494
 20
627.8239088775845
 30
0.0
 10
720.4469865198653
 20
614.0053846014425
 30
0.0
 10
689.5150648476792
 20
564.3262112976017
 30
0.0
 10
657.7526337333447
 20
514.2726958838211
 30
0.0
 10
652.4498955440931
 20
492.6867384644684
 30
0.0
 10
662.6267005152804
 20
458.8889463558971
 30
0.0
 10
669.9647996987687
 20
434.8936171085697
 30
0.0
 10
704.5659366008003
 20
401.8988385172543
 30
0.0
 10
761.5560444394423
 20
364.860833862358
 30
0.0
 10
853.9506339735772
 20
304.2015107938696
 30
0.0
 10
901.1926082483487
 20
262.2894393570368
 30
0.0
 10
939.8644671388547
 20
205.7008382770236
 30
0.0
 10
962.7036424360067
 20
172.235647476753
 30
0.0
 10
971.2807146205432
 20
152.4521638805872
 30
0.0
 10
974.0819861972468
 20
119.9321040888735
 30
0.0
 10
978.3395479644896
 20
120.3577940103587
 30
0.0
 10
982.7862684439242
 20
119.7787232066603
 30
0.0
 10
986.9855255993516
 20
118.2955996436358
 30
0.0
 10
986.3454999742116
 20
132.5066862209133
 30
0.0
 10
984.1975050707879
 20
141.0453303658451
 30
0.0
 10
979.7415088576545
 20
154.415306662464
 30
0.0
 10
956.54886185138
 20
221.5822194722896
 30
0.0
 10
891.0158032771615
 20
291.9893448284456
 30
0.0
 10
783.9450153760508
 20
363.6559823102671
 30
0.0
 10
690.720247675974
 20
425.9216636894726
 30
0.0
 10
669.9647996987687
 20
448.3106346260811
 30
0.0
 10
669.9647996987687
 20
488.214509717367
 30
0.0
 10
669.9647996987687
 20
507.3361034589616
 30
0.0
 10
673.2321768937809
 20
514.2726958838211
 30
0.0
 10
706.601297595038
 20
570.0304562454812
 30
0.0
 10
733.0609905201209
 20
614.4068913600731
 30
0.0
 10
744.0411402847685
 20
641.2680910437848
 30
0.0
 10
751.3792394682569
 20
681.9753109285293
 30
0.0
 10
754.217945255954
 20
697.4551853651674
 30
0.0
 10
759.1188454103731
 20
715.7734343133025
 30
0.0
 10
762.7880606402186
 20
722.682530813272
 30
0.0
 10
770.9295046171665
 20
738.9654187671695
 30
0.0
 10
821.3848580657814
 20
794.3220036464063
 30
0.0
 10
826.2857582202014
 20
792.6881494107975
 30
0.0
 10
829.5263020427301
 20
791.4832978587092
 30
0.0
 10
840.5332851798612
 20
758.0870125087649
 30
0.0
 10
840.9351232146928
 20
748.740716979727
 30
0.0
 10
840.9351232146928
 20
747.5087007789516
 30
0.0
 10
836.4625631913868
 20
747.1068627441182
 30
0.0
 10
830.7583182435083
 20
748.3392102210983
 30
0.0
 10
816.9126293186782
 20
750.7760779739656
 30
0.0
 10
817.742807484623
 20
744.2684882326257
 30
0.0
 10
832.3918412029125
 20
735.6980415721555
 30
0.0
 10
845.4076832379997
 20
727.9856002787265
 30
0.0
 10
847.0412061974057
 20
722.682530813272
 30
0.0
 10
851.5137662207126
 20
678.7079337335153
 30
0.0
 10
853.9506339735772
 20
651.0433892563424
 30
0.0
 10
853.9506339735772
 20
650.6418824977136
 30
0.0
 10
840.5332851798612
 20
636.7958622966808
 30
0.0
 10
822.2150362317252
 20
617.6471039063999
 30
0.0
 10
802.2632643241868
 20
605.8639406244929
 30
0.0
 10
784.3468534108843
 20
602.596232153277
 30
0.0
 10
765.6267664279167
 20
599.7578576417836
 30
0.0
 10
769.2956503815585
 20
592.4194271820916
 30
0.0
 10
789.2477535653015
 20
592.821265216925
 30
0.0
 10
800.6297413647826
 20
593.2227719755538
 30
0.0
 10
811.2080530945968
 20
597.7224966475469
 30
0.0
 10
829.1247952841022
 20
610.336169371597
 30
0.0
 10
829.1247952841022
 20
610.336169371597
 30
0.0
 10
853.1472891801168
 20
627.4224021189566
 30
0.0
 10
853.1472891801168
 20
627.4224021189566
 30
0.0
 10
853.1472891801168
 20
627.4224021189566
 30
0.0
 10
853.1472891801168
 20
613.174875159295
 30
0.0
 10
853.1472891801168
 20
613.174875159295
 30
0.0
 10
853.1472891801168
 20
605.434937940975
 30
0.0
 10
851.9152729793404
 20
596.0886424119353
 30
0.0
 10
850.7100901510476
 20
592.4194271820916
 30
0.0
 10
847.0412061974057
 20
583.4749696878862
 30
0.0
 10
827.4909410484943
 20
574.1011782339565
 30
0.0
 10
811.6367245019119
 20
574.1011782339565
 30
0.0
 10
804.2986253184235
 20
574.1011782339565
 30
0.0
 10
795.3538365480135
 20
572.4676552745514
 30
0.0
 10
792.0864593529996
 20
570.0304562454812
 30
0.0
 10
783.1416705825905
 20
564.3262112976017
 30
0.0
 10
796.9605261349352
 20
560.2554893091292
 30
0.0
 10
817.3141360773088
 20
563.1213597455117
 30
0.0
 10
829.5263020427301
 20
564.7277180562305
 30
0.0
 10
832.3918412029125
 20
563.924373262771
 30
0.0
 10
829.1247952841022
 20
560.656996067758
 30
0.0
 10
821.3848580657814
 20
552.9445547743271
 30
0.0
 10
824.2503972259628
 20
548.8738327858537
 30
0.0
 10
836.4625631913868
 20
551.712207297347
 30
0.0
 10
836.4625631913868
 20
551.712207297347
 30
0.0
 10
848.6747291568099
 20
554.1494063264163
 30
0.0
 10
848.6747291568099
 20
554.1494063264163
 30
0.0
 10
848.6747291568099
 20
554.1494063264163
 30
0.0
 10
842.5686461740988
 20
528.5202228434791
 30
0.0
 10
842.5686461740988
 20
528.5202228434791
 30
0.0
 10
839.3016002552877
 20
514.2726958838211
 30
0.0
 10
835.632385025443
 20
499.5961662406407
 30
0.0
 10
834.4272021971501
 20
495.5254442521673
 30
0.0
 10
833.1955172725766
 20
491.053215505066
 30
0.0
 10
834.4272021971501
 20
488.6160164759931
 30
0.0
 10
838.0964174269948
 20
488.6160164759931
 30
0.0
 10
845.8091899966275
 20
488.6160164759931
 30
0.0
 10
855.9859949678139
 20
529.7250743955701
 30
0.0
 10
862.0920779505268
 20
584.6798212399735
 30
0.0
 10
869.8320151688467
 20
652.6772434919503
 30
0.0
 10
862.5207493578419
 20
721.4505146124966
 30
0.0
 10
836.8644012262184
 20
814.2737755539456
 30
0.0
 10
825.4555800542566
 20
855.7843402321523
 30
0.0
 10
815.2787750830703
 20
896.9205628004156
 30
0.0
 10
813.6720854961486
 20
905.8653515708229
 30
0.0
 10
811.2080530945968
 20
920.9158920477421
 30
0.0
 10
811.6367245019119
 20
921.7464014898906
 30
0.0
 10
818.1443142432518
 20
916.443663300639
 30
0.0
 10
826.2857582202014
 20
909.5342355244647
 30
0.0
 10
871.465538128251
 20
912.3729413121646
 30
0.0
 10
884.9097202944504
 20
920.5143852891124
 30
0.0
 10
897.1218862598735
 20
928.2543225074332
 30
0.0
 10
903.2279692425873
 20
949.0094392084338
 30
0.0
 10
899.9605920475724
 20
970.1935585929532
 30
0.0
 10
899.9605920475724
 20
970.1935585929532
 30
0.0
 10
897.1218862598735
 20
987.27946006411
 30
0.0
 10
897.1218862598735
 20
987.27946006411
 30
0.0
 10
897.1218862598735
 20
987.27946006411
 30
0.0
 10
905.664836995451
 20
976.2996415756652
 30
0.0
 10
905.664836995451
 20
976.2996415756652
 30
0.0
 10
923.1529077776413
 20
954.3121773976845
 30
0.0
 10
939.0342889729109
 20
911.9714345535358
 30
0.0
 10
960.6195838398544
 20
828.5213025136072
 30
0.0
 10
983.811899569926
 20
740.1977662441495
 30
0.0
 10
997.2564130123283
 20
701.096904670123
 30
0.0
 10
1013.940807724855
 20
676.6725727392795
 30
0.0
 10
1019.243877190309
 20
668.9601314458478
 30
0.0
 10
1054.648027609599
 20
631.0912860725994
 30
0.0
 10
1092.516872982849
 20
592.821265216925
 30
0.0
 10
1155.613063804203
 20
528.9217296021106
 30
0.0
 10
1162.923667062798
 20
519.9497761830135
 30
0.0
 10
1178.403541499438
 20
487.8130029587355
 30
0.0
 10
1198.757151441812
 20
445.471928838384
 30
0.0
 10
1209.335463171627
 20
397.4266097701511
 30
0.0
 10
1213.406185160102
 20
328.6258427247158
 30
0.0
 10
1215.04003939571
 20
302.5948212069452
 30
0.0
 10
1217.878413907205
 20
281.009195063798
 30
0.0
 10
1219.913774901441
 20
281.009195063798
 30
0.0
  0
SPLINE
  5
46
330
41
100
AcDbEntity
  8
Capa 1
370
     0
100
AcDbSpline
210
0.0
220
0.0
230
1.0
 70
    11
 71
     3
 72
    23
 73
    19
 74
     0
 42
0.0000000001
 43
0.0000000001
 12
1.0
 22
0.0
 32
0.0
 13
1.0
 23
0.0
 33
0.0
 40
0.0
 40
0.0
 40
0.0
 40
0.0
 40
1.0
 40
1.0
 40
1.0
 40
2.0
 40
2.0
 40
2.0
 40
3.0
 40
3.0
 40
3.0
 40
4.0
 40
4.0
 40
4.0
 40
5.0
 40
5.0
 40
5.0
 40
6.0
 40
6.0
 40
6.0
 40
6.0
 10
882.8743593002118
 20
936.7972732430107
 30
0.0
 10
876.3396049101875
 20
928.655829266062
 30
0.0
 10
869.8320151688467
 20
926.6204682718253
 30
0.0
 10
849.4784052264749
 20
924.9866140362165
 30
0.0
 10
849.4784052264749
 20
924.9866140362165
 30
0.0
 10
824.6522352607963
 20
923.3802557254985
 30
0.0
 10
824.6522352607963
 20
923.3802557254985
 30
0.0
 10
824.6522352607963
 20
923.3802557254985
 30
0.0
 10
815.7074464903853
 20
942.9033562257227
 30
0.0
 10
815.7074464903853
 20
942.9033562257227
 30
0.0
 10
804.7004633532551
 20
968.1581975987156
 30
0.0
 10
803.4952805249623
 20
1008.034908041313
 30
0.0
 10
813.6720854961486
 20
1023.51445120175
 30
0.0
 10
828.7229572492706
 20
1045.903422138359
 30
0.0
 10
858.8515341279954
 20
1033.691256172936
 30
0.0
 10
877.1697830761304
 20
997.8581030701262
 30
0.0
 10
890.1856251112185
 20
972.6304263458205
 30
0.0
 10
892.2209861054553
 20
948.6079324498041
 30
0.0
 10
882.8743593002118
 20
936.7972732430107
 30
0.0
  0
SPLINE
  5
47
330
41
100
AcDbEntity
  8
Capa 1
370
     0
100
AcDbSpline
210
0.0
220
0.0
230
1.0
 70
    11
 71
     3
 72
    20
 73
    16
 74
     0
 42
0.0000000001
 43
0.0000000001
 12
1.0
 22
0.0
 32
0.0
 13
1.0
 23
0.0
 33
0.0
 40
0.0
 40
0.0
 40
0.0
 40
0.0
 40
1.0
 40
1.0
 40
1.0
 40
2.0
 40
2.0
 40
2.0
 40
3.0
 40
3.0
 40
3.0
 40
4.0
 40
4.0
 40
4.0
 40
5.0
 40
5.0
 40
5.0
 40
5.0
 10
963.4586209037589
 20
865.1578004098765
 30
0.0
 10
956.1473550927531
 20
893.6531856054016
 30
0.0
 10
951.246454938334
 20
918.8805310535045
 30
0.0
 10
952.0766331042787
 20
921.7464014898906
 30
0.0
 10
954.5135008571442
 20
927.8524844726007
 30
0.0
 10
1004.996350230649
 20
972.6304263458205
 30
0.0
 10
1022.082251701804
 20
983.6105761104673
 30
0.0
 10
1038.766646414331
 20
994.6178905237994
 30
0.0
 10
1061.557124109568
 20
997.8581030701262
 30
0.0
 10
1072.163263040478
 20
990.9486752939547
 30
0.0
 10
1094.122900017363
 20
976.7011483342931
 30
0.0
 10
1074.60013079334
 20
931.5216997024472
 30
0.0
 10
1013.940807724855
 20
854.980995438691
 30
0.0
 10
975.2689488343494
 20
806.9356763704591
 30
0.0
 10
978.5363260293616
 20
806.1323315769969
 30
0.0
 10
963.4586209037589
 20
865.1578004098765
 30
0.0
  0
SPLINE
  5
48
330
41
100
AcDbEntity
  8
Capa 1
370
     0
100
AcDbSpline
210
0.0
220
0.0
230
1.0
 70
    11
 71
     3
 72
    29
 73
    25
 74
     0
 42
0.0000000001
 43
0.0000000001
 12
1.0
 22
0.0
 32
0.0
 13
1.0
 23
0.0
 33
0.0
 40
0.0
 40
0.0
 40
0.0
 40
0.0
 40
1.0
 40
1.0
 40
1.0
 40
2.0
 40
2.0
 40
2.0
 40
3.0
 40
3.0
 40
3.0
 40
4.0
 40
4.0
 40
4.0
 40
5.0
 40
5.0
 40
5.0
 40
6.0
 40
6.0
 40
6.0
 40
7.0
 40
7.0
 40
7.0
 40
8.0
 40
8.0
 40
8.0
 40
8.0
 10
1107.165906701139
 20
594.4547881763274
 30
0.0
 10
1107.165906701139
 20
594.4547881763274
 30
0.0
 10
1074.60013079334
 20
626.2175505668674
 30
0.0
 10
1074.60013079334
 20
626.2175505668674
 30
0.0
 10
1035.097431184484
 20
664.0589000152258
 30
0.0
 10
1019.243877190309
 20
686.4478709518326
 30
0.0
 10
1001.728641759433
 20
730.422468031592
 30
0.0
 10
991.1503300296172
 20
755.6501447559012
 30
0.0
 10
989.5164757940092
 20
763.791588732849
 30
0.0
 10
993.5871977824845
 20
764.6220981749966
 30
0.0
 10
1005.397856989277
 20
767.4604726864918
 30
0.0
 10
1030.223695678751
 20
750.7760779739656
 30
0.0
 10
1082.741574770291
 20
703.5612683478803
 30
0.0
 10
1123.448794655034
 20
667.7277839688677
 30
0.0
 10
1138.900841890581
 20
651.4448960149703
 30
0.0
 10
1142.570057120429
 20
640.4650775265254
 30
0.0
 10
1147.471619827253
 20
624.9852030898874
 30
0.0
 10
1143.802404597405
 20
618.8791201071745
 30
0.0
 10
1129.153370879116
 20
618.8791201071745
 30
0.0
 10
1125.484155649272
 20
618.8791201071745
 30
0.0
 10
1118.976565907933
 20
613.5763819179247
 30
0.0
 10
1114.905843919458
 20
606.6669541417532
 30
0.0
 10
1114.905843919458
 20
606.6669541417532
 30
0.0
 10
1107.165906701139
 20
594.4547881763274
 30
0.0
 10
1107.165906701139
 20
594.4547881763274
 30
0.0
  0
SPLINE
  5
49
330
41
100
AcDbEntity
  8
Capa 1
370
     0
100
AcDbSpline
210
0.0
220
0.0
230
1.0
 70
    11
 71
     3
 72
    20
 73
    16
 74
     0
 42
0.0000000001
 43
0.0000000001
 12
1.0
 22
0.0
 32
0.0
 13
1.0
 23
0.0
 33
0.0
 40
0.0
 40
0.0
 40
0.0
 40
0.0
 40
1.0
 40
1.0
 40
1.0
 40
2.0
 40
2.0
 40
2.0
 40
3.0
 40
3.0
 40
3.0
 40
4.0
 40
4.0
 40
4.0
 40
5.0
 40
5.0
 40
5.0
 40
5.0
 10
1149.50698082149
 20
581.0106060101289
 30
0.0
 10
1149.50698082149
 20
581.0106060101289
 30
0.0
 10
1148.27463334451
 20
558.2201283148925
 30
0.0
 10
1148.27463334451
 20
558.2201283148925
 30
0.0
 10
1148.27463334451
 20
558.2201283148925
 30
0.0
 10
1132.794758907872
 20
572.4676552745514
 30
0.0
 10
1132.794758907872
 20
572.4676552745514
 30
0.0
 10
1117.744218430953
 20
586.7151822342121
 30
0.0
 10
1117.342711672323
 20
587.1166889928409
 30
0.0
 10
1123.850301413664
 20
596.8919872053984
 30
0.0
 10
1131.590238631983
 20
609.1041531708233
 30
0.0
 10
1140.936202884821
 20
613.5763819179247
 30
0.0
 10
1146.640779108902
 20
607.8993016187296
 30
0.0
 10
1149.07764686177
 20
605.434937940975
 30
0.0
 10
1150.30999433875
 20
593.6517746590716
 30
0.0
 10
1149.50698082149
 20
581.0106060101289
 30
0.0
  0
SPLINE
  5
4A
330
41
100
AcDbEntity
  8
Capa 1
370
     0
100
AcDbSpline
210
0.0
220
0.0
230
1.0
 70
    11
 71
     3
 72
    26
 73
    22
 74
     0
 42
0.0000000001
 43
0.0000000001
 12
1.0
 22
0.0
 32
0.0
 13
1.0
 23
0.0
 33
0.0
 40
0.0
 40
0.0
 40
0.0
 40
0.0
 40
1.0
 40
1.0
 40
1.0
 40
2.0
 40
2.0
 40
2.0
 40
3.0
 40
3.0
 40
3.0
 40
4.0
 40
4.0
 40
4.0
 40
5.0
 40
5.0
 40
5.0
 40
6.0
 40
6.0
 40
6.0
 40
7.0
 40
7.0
 40
7.0
 40
7.0
 10
1163.754507781152
 20
541.5354023261607
 30
0.0
 10
1163.754507781152
 20
541.5354023261607
 30
0.0
 10
1161.289812827192
 20
583.0459670043647
 30
0.0
 10
1161.289812827192
 20
583.0459670043647
 30
0.0
 10
1158.049931557069
 20
637.599207090142
 30
0.0
 10
1152.746862091615
 20
653.8820950440404
 30
0.0
 10
1133.625599626221
 20
673.4323601929491
 30
0.0
 10
1121.011926902171
 20
685.644526158374
 30
0.0
 10
1118.547231948211
 20
690.5185929403087
 30
0.0
 10
1122.216447178054
 20
694.5893149287849
 30
0.0
 10
1124.653314930922
 20
697.8566921237962
 30
0.0
 10
1131.188731873357
 20
700.2935598766635
 30
0.0
 10
1136.463974137718
 20
700.2935598766635
 30
0.0
 10
1158.451438315697
 20
700.2935598766635
 30
0.0
 10
1189.784866746511
 20
630.6897793139715
 30
0.0
 10
1186.143478717759
 20
590.7859042226855
 30
0.0
 10
1184.911131240782
 20
579.40424769941
 30
0.0
 10
1180.037395735048
 20
565.5582274983799
 30
0.0
 10
1173.931312752336
 20
556.5862740792845
 30
0.0
 10
1173.931312752336
 20
556.5862740792845
 30
0.0
 10
1163.754507781152
 20
541.5354023261607
 30
0.0
 10
1163.754507781152
 20
541.5354023261607
 30
0.0
  0
SPLINE
  5
4B
330
41
100
AcDbEntity
  8
Capa 1
370
     0
100
AcDbSpline
210
0.0
220
0.0
230
1.0
 70
    11
 71
     3
 72
    17
 73
    13
 74
     0
 42
0.0000000001
 43
0.0000000001
 12
1.0
 22
0.0
 32
0.0
 13
1.0
 23
0.0
 33
0.0
 40
0.0
 40
0.0
 40
0.0
 40
0.0
 40
1.0
 40
1.0
 40
1.0
 40
2.0
 40
2.0
 40
2.0
 40
3.0
 40
3.0
 40
3.0
 40
4.0
 40
4.0
 40
4.0
 40
4.0
 10
1194.686429453337
 20
536.2326641369109
 30
0.0
 10
1194.284922694707
 20
526.8863686078712
 30
0.0
 10
1193.052575217727
 20
514.674202642449
 30
0.0
 10
1191.418720982121
 20
509.3714644531992
 30
0.0
 10
1189.383359987884
 20
501.6315272348784
 30
0.0
 10
1188.178839712
 20
500.8281824414153
 30
0.0
 10
1184.108117723523
 20
505.3007424647221
 30
0.0
 10
1175.135833028222
 20
516.308056878057
 30
0.0
 10
1173.501978792614
 20
532.9924515905841
 30
0.0
 10
1180.438902493677
 20
543.5707633203983
 30
0.0
 10
1190.214200706236
 20
558.6216350735203
 30
0.0
 10
1195.087936211967
 20
556.1847673206539
 30
0.0
 10
1194.686429453337
 20
536.2326641369109
 30
0.0
  0
SPLINE
  5
4C
330
41
100
AcDbEntity
  8
Capa 1
370
     0
100
AcDbSpline
210
0.0
220
0.0
230
1.0
 70
    11
 71
     3
 72
    20
 73
    16
 74
     0
 42
0.0000000001
 43
0.0000000001
 12
1.0
 22
0.0
 32
0.0
 13
1.0
 23
0.0
 33
0.0
 40
0.0
 40
0.0
 40
0.0
 40
0.0
 40
1.0
 40
1.0
 40
1.0
 40
2.0
 40
2.0
 40
2.0
 40
3.0
 40
3.0
 40
3.0
 40
4.0
 40
4.0
 40
4.0
 40
5.0
 40
5.0
 40
5.0
 40
5.0
 10
1205.666247941781
 20
460.1209625566735
 30
0.0
 10
1199.9616717177
 20
460.1209625566735
 30
0.0
 10
1198.757151441812
 20
484.1437877288899
 30
0.0
 10
1202.827873430288
 20
510.2019738953441
 30
0.0
 10
1205.264741183153
 20
526.4848618492433
 30
0.0
 10
1207.701608936017
 20
543.9726013552308
 30
0.0
 10
1208.532449654369
 20
549.6768463031103
 30
0.0
 10
1209.736969930253
 20
559.452144515667
 30
0.0
 10
1209.736969930253
 20
559.452144515667
 30
0.0
 10
1218.709254625555
 20
545.6061243146369
 30
0.0
 10
1230.090579872627
 20
527.2878753665027
 30
0.0
 10
1230.090579872627
 20
508.1666129011082
 30
0.0
 10
1217.476907148575
 20
481.2779172925038
 30
0.0
 10
1212.173837683122
 20
469.8962607692301
 30
0.0
 10
1206.898595418761
 20
460.1209625566735
 30
0.0
 10
1205.666247941781
 20
460.1209625566735
 30
0.0
  0
HATCH
  5
4D
330
41
100
AcDbEntity
  8
Capa 1
 62
     7
420
 16777215
100
AcDbHatch
 10
0.0
 20
0.0
 30
0.0
210
0.0
220
0.0
230
1.0
  2
SOLID
 70
     1
 71
     0
 91
        8
 92
        1
 93
        1
 72
     4
 94
        3
 73
     0
 74
     1
 95
      245
 96
      241
 40
0.0
 40
0.0
 40
0.0
 40
0.0
 40
1.0
 40
1.0
 40
1.0
 40
2.0
 40
2.0
 40
2.0
 40
3.0
 40
3.0
 40
3.0
 40
4.0
 40
4.0
 40
4.0
 40
5.0
 40
5.0
 40
5.0
 40
6.0
 40
6.0
 40
6.0
 40
7.0
 40
7.0
 40
7.0
 40
8.0
 40
8.0
 40
8.0
 40
9.0
 40
9.0
 40
9.0
 40
10.0
 40
10.0
 40
10.0
 40
11.0
 40
11.0
 40
11.0
 40
12.0
 40
12.0
 40
12.0
 40
13.0
 40
13.0
 40
13.0
 40
14.0
 40
14.0
 40
14.0
 40
15.0
 40
15.0
 40
15.0
 40
16.0
 40
16.0
 40
16.0
 40
17.0
 40
17.0
 40
17.0
 40
18.0
 40
18.0
 40
18.0
 40
19.0
 40
19.0
 40
19.0
 40
20.0
 40
20.0
 40
20.0
 40
21.0
 40
21.0
 40
21.0
 40
22.0
 40
22.0
 40
22.0
 40
23.0
 40
23.0
 40
23.0
 40
24.0
 40
24.0
 40
24.0
 40
25.0
 40
25.0
 40
25.0
 40
26.0
 40
26.0
 40
26.0
 40
27.0
 40
27.0
 40
27.0
 40
28.0
 40
28.0
 40
28.0
 40
29.0
 40
29.0
 40
29.0
 40
30.0
 40
30.0
 40
30.0
 40
31.0
 40
31.0
 40
31.0
 40
32.0
 40
32.0
 40
32.0
 40
33.0
 40
33.0
 40
33.0
 40
34.0
 40
34.0
 40
34.0
 40
35.0
 40
35.0
 40
35.0
 40
36.0
 40
36.0
 40
36.0
 40
37.0
 40
37.0
 40
37.0
 40
38.0
 40
38.0
 40
38.0
 40
39.0
 40
39.0
 40
39.0
 40
40.0
 40
40.0
 40
40.0
 40
41.0
 40
41.0
 40
41.0
 40
42.0
 40
42.0
 40
42.0
 40
43.0
 40
43.0
 40
43.0
 40
44.0
 40
44.0
 40
44.0
 40
45.0
 40
45.0
 40
45.0
 40
46.0
 40
46.0
 40
46.0
 40
47.0
 40
47.0
 40
47.0
 40
48.0
 40
48.0
 40
48.0
 40
49.0
 40
49.0
 40
49.0
 40
50.0
 40
50.0
 40
50.0
 40
51.0
 40
51.0
 40
51.0
 40
52.0
 40
52.0
 40
52.0
 40
53.0
 40
53.0
 40
53.0
 40
54.0
 40
54.0
 40
54.0
 40
55.0
 40
55.0
 40
55.0
 40
56.0
 40
56.0
 40
56.0
 40
57.0
 40
57.0
 40
57.0
 40
58.0
 40
58.0
 40
58.0
 40
59.0
 40
59.0
 40
59.0
 40
60.0
 40
60.0
 40
60.0
 40
61.0
 40
61.0
 40
61.0
 40
62.0
 40
62.0
 40
62.0
 40
63.0
 40
63.0
 40
63.0
 40
64.0
 40
64.0
 40
64.0
 40
65.0
 40
65.0
 40
65.0
 40
66.0
 40
66.0
 40
66.0
 40
67.0
 40
67.0
 40
67.0
 40
68.0
 40
68.0
 40
68.0
 40
69.0
 40
69.0
 40
69.0
 40
70.0
 40
70.0
 40
70.0
 40
71.0
 40
71.0
 40
71.0
 40
72.0
 40
72.0
 40
72.0
 40
73.0
 40
73.0
 40
73.0
 40
74.0
 40
74.0
 40
74.0
 40
75.0
 40
75.0
 40
75.0
 40
76.0
 40
76.0
 40
76.0
 40
77.0
 40
77.0
 40
77.0
 40
78.0
 40
78.0
 40
78.0
 40
79.0
 40
79.0
 40
79.0
 40
80.0
 40
80.0
 40
80.0
 40
80.0
 10
1219.913774901441
 20
281.009195063798
 10
1221.94913589568
 20
281.009195063798
 10
1223.582990131286
 20
300.9612982475428
 10
1223.582990131286
 20
325.7871369370187
 10
1223.582990131286
 20
350.211468867863
 10
1225.216844366896
 20
370.5654100864394
 10
1227.252205361132
 20
370.5654100864394
 10
1230.921420590978
 20
370.5654100864394
 10
1247.204308544875
 20
335.5624351495753
 10
1256.550272797711
 20
307.4688879888854
 10
1260.620994786183
 20
296.0600668169209
 10
1262.254849021792
 20
271.6357348860747
 10
1261.853342263163
 20
228.0898092136322
 10
1261.451835504537
 20
169.8676851742148
 10
1260.219488027557
 20
157.655519208789
 10
1242.302745838051
 20
69.33165166312756
 10
1240.451574412955
 20
60.1456938165793
 10
1238.697135639275
 20
51.19394824589835
 10
1236.994375953342
 20
42.3763695376274
 10
1238.143904379447
 20
42.27234880973083
 10
1239.269580918906
 20
42.22928290327582
 10
1240.43699826
 20
42.05171885820891
 10
1243.108409564937
 20
42.15872107193718
 10
1245.786446393942
 20
41.94438536827511
 10
1248.375701200413
 20
41.4468085106364
 10
1250.401786460952
 20
52.41039446510877
 10
1252.462986999062
 20
63.21397401329523
 10
1254.514911803475
 20
73.40237365160465
 10
1271.628640475725
 20
159.2893734443987
 10
1273.664001469961
 20
175.1704233634646
 10
1274.06550822859
 20
228.0898092136322
 10
1274.467014987216
 20
298.9259372533033
 10
1267.128584527527
 20
329.0545141320326
 10
1235.795156096712
 20
380.7422150576258
 10
1208.532449654369
 20
425.9216636894726
 10
1207.300102177389
 20
434.8936171085697
 10
1225.216844366896
 20
472.3331285220975
 10
1246.373467826526
 20
516.7095636366867
 10
1243.936600073657
 20
536.2326641369109
 10
1213.004678401474
 20
571.2628037224613
 10
1202.827873430288
 20
582.2426222109061
 10
1199.15865820044
 20
589.9825594292261
 10
1199.15865820044
 20
600.5608711590394
 10
1199.15865820044
 20
633.9299918602956
 10
1168.628243286885
 20
697.4551853651674
 10
1147.471619827253
 20
708.8368418884438
 10
1140.133189367561
 20
712.90756387692
 10
1135.259453861829
 20
712.5057258420857
 10
1121.413433660799
 20
707.202987652835
 10
1121.413433660799
 20
707.202987652835
 10
1104.729038948273
 20
700.6953979114942
 10
1104.729038948273
 20
700.6953979114942
 10
1104.729038948273
 20
700.6953979114942
 10
1071.733929080756
 20
729.5919585894453
 10
1071.733929080756
 20
729.5919585894453
 10
1042.435861644179
 20
754.846799962439
 10
1014.342314483483
 20
771.9330327097987
 10
990.7488232709875
 20
779.2711318932852
 10
977.7061478634187
 20
783.3418538817605
 10
983.0088860526685
 20
797.9908876000482
 10
1009.468578977754
 20
830.556663507843
 10
1037.562126138444
 20
865.1578004098765
 10
1071.332422322124
 20
913.6049575129418
 10
1083.14308152892
 20
935.9939284495504
 10
1086.812296758768
 20
943.7338656678685
 10
1090.48151198861
 20
958.7847374209914
 10
1090.48151198861
 20
969.3630491508056
 10
1090.883018747239
 20
996.2242488345182
 10
1081.910734051942
 20
1005.597709012243
 10
1057.084895362466
 20
1005.597709012243
 10
1033.062070190248
 20
1005.597709012243
 10
1004.996350230649
 20
989.7166590931774
 10
969.5647038864681
 20
956.7493764267538
 10
969.5647038864681
 20
956.7493764267538
 10
943.5065177200158
 20
931.9232064610751
 10
943.5065177200158
 20
931.9232064610751
 10
943.5065177200158
 20
931.9232064610751
 10
930.4910069611296
 20
956.3475383919222
 10
930.4910069611296
 20
956.3475383919222
 10
915.4401352080085
 20
984.4410855526139
 10
879.6069821052006
 20
1025.549812195986
 10
859.6552101976595
 20
1037.76197816141
 10
839.3016002552877
 20
1050.375650885462
 10
819.3494970715446
 20
1049.143634684686
 10
806.7358243474919
 20
1034.092762931564
 10
792.4882973878339
 20
1017.00686146041
 10
790.0510983587637
 20
998.2596098287559
 10
795.3538365480135
 20
950.6432934440418
 10
799.4245585364879
 20
914.809809065031
 10
814.8772683244406
 20
841.5368132724907
 10
822.6168742665586
 20
821.6122060136386
 10
824.6522352607963
 20
816.7109745830167
 10
816.1089532490141
 20
804.9003153762224
 10
791.2831145595392
 20
778.8696251346573
 10
772.53619420409
 20
758.9175219509134
 10
755.0481234218969
 20
737.3318958077634
 10
752.1825842617172
 20
730.8239747902226
 10
749.7457165088526
 20
723.9148782902521
 10
742.8359574564756
 20
699.0615436758862
 10
737.131712508597
 20
675.066214428557
 10
726.1515627439494
 20
627.8239088775845
 10
720.4469865198653
 20
614.0053846014425
 10
689.5150648476792
 20
564.3262112976017
 10
657.7526337333447
 20
514.2726958838211
 10
652.4498955440931
 20
492.6867384644684
 10
662.6267005152804
 20
458.8889463558971
 10
669.9647996987687
 20
434.8936171085697
 10
704.5659366008003
 20
401.8988385172543
 10
761.5560444394423
 20
364.860833862358
 10
853.9506339735772
 20
304.2015107938696
 10
901.1926082483487
 20
262.2894393570368
 10
939.8644671388547
 20
205.7008382770236
 10
962.7036424360067
 20
172.235647476753
 10
971.2807146205432
 20
152.4521638805872
 10
974.0819861972468
 20
119.9321040888735
 10
978.3395479644896
 20
120.3577940103587
 10
982.7862684439242
 20
119.7787232066603
 10
986.9855255993516
 20
118.2955996436358
 10
986.3454999742116
 20
132.5066862209133
 10
984.1975050707879
 20
141.0453303658451
 10
979.7415088576545
 20
154.415306662464
 10
956.54886185138
 20
221.5822194722896
 10
891.0158032771615
 20
291.9893448284456
 10
783.9450153760508
 20
363.6559823102671
 10
690.720247675974
 20
425.9216636894726
 10
669.9647996987687
 20
448.3106346260811
 10
669.9647996987687
 20
488.214509717367
 10
669.9647996987687
 20
507.3361034589616
 10
673.2321768937809
 20
514.2726958838211
 10
706.601297595038
 20
570.0304562454812
 10
733.0609905201209
 20
614.4068913600731
 10
744.0411402847685
 20
641.2680910437848
 10
751.3792394682569
 20
681.9753109285293
 10
754.217945255954
 20
697.4551853651674
 10
759.1188454103731
 20
715.7734343133025
 10
762.7880606402186
 20
722.682530813272
 10
770.9295046171665
 20
738.9654187671695
 10
821.3848580657814
 20
794.3220036464063
 10
826.2857582202014
 20
792.6881494107975
 10
829.5263020427301
 20
791.4832978587092
 10
840.5332851798612
 20
758.0870125087649
 10
840.9351232146928
 20
748.740716979727
 10
840.9351232146928
 20
747.5087007789516
 10
836.4625631913868
 20
747.1068627441182
 10
830.7583182435083
 20
748.3392102210983
 10
816.9126293186782
 20
750.7760779739656
 10
817.742807484623
 20
744.2684882326257
 10
832.3918412029125
 20
735.6980415721555
 10
845.4076832379997
 20
727.9856002787265
 10
847.0412061974057
 20
722.682530813272
 10
851.5137662207126
 20
678.7079337335153
 10
853.9506339735772
 20
651.0433892563424
 10
853.9506339735772
 20
650.6418824977136
 10
840.5332851798612
 20
636.7958622966808
 10
822.2150362317252
 20
617.6471039063999
 10
802.2632643241868
 20
605.8639406244929
 10
784.3468534108843
 20
602.596232153277
 10
765.6267664279167
 20
599.7578576417836
 10
769.2956503815585
 20
592.4194271820916
 10
789.2477535653015
 20
592.821265216925
 10
800.6297413647826
 20
593.2227719755538
 10
811.2080530945968
 20
597.7224966475469
 10
829.1247952841022
 20
610.336169371597
 10
829.1247952841022
 20
610.336169371597
 10
853.1472891801168
 20
627.4224021189566
 10
853.1472891801168
 20
627.4224021189566
 10
853.1472891801168
 20
627.4224021189566
 10
853.1472891801168
 20
613.174875159295
 10
853.1472891801168
 20
613.174875159295
 10
853.1472891801168
 20
605.434937940975
 10
851.9152729793404
 20
596.0886424119353
 10
850.7100901510476
 20
592.4194271820916
 10
847.0412061974057
 20
583.4749696878862
 10
827.4909410484943
 20
574.1011782339565
 10
811.6367245019119
 20
574.1011782339565
 10
804.2986253184235
 20
574.1011782339565
 10
795.3538365480135
 20
572.4676552745514
 10
792.0864593529996
 20
570.0304562454812
 10
783.1416705825905
 20
564.3262112976017
 10
796.9605261349352
 20
560.2554893091292
 10
817.3141360773088
 20
563.1213597455117
 10
829.5263020427301
 20
564.7277180562305
 10
832.3918412029125
 20
563.924373262771
 10
829.1247952841022
 20
560.656996067758
 10
821.3848580657814
 20
552.9445547743271
 10
824.2503972259628
 20
548.8738327858537
 10
836.4625631913868
 20
551.712207297347
 10
836.4625631913868
 20
551.712207297347
 10
848.6747291568099
 20
554.1494063264163
 10
848.6747291568099
 20
554.1494063264163
 10
848.6747291568099
 20
554.1494063264163
 10
842.5686461740988
 20
528.5202228434791
 10
842.5686461740988
 20
528.5202228434791
 10
839.3016002552877
 20
514.2726958838211
 10
835.632385025443
 20
499.5961662406407
 10
834.4272021971501
 20
495.5254442521673
 10
833.1955172725766
 20
491.053215505066
 10
834.4272021971501
 20
488.6160164759931
 10
838.0964174269948
 20
488.6160164759931
 10
845.8091899966275
 20
488.6160164759931
 10
855.9859949678139
 20
529.7250743955701
 10
862.0920779505268
 20
584.6798212399735
 10
869.8320151688467
 20
652.6772434919503
 10
862.5207493578419
 20
721.4505146124966
 10
836.8644012262184
 20
814.2737755539456
 10
825.4555800542566
 20
855.7843402321523
 10
815.2787750830703
 20
896.9205628004156
 10
813.6720854961486
 20
905.8653515708229
 10
811.2080530945968
 20
920.9158920477421
 10
811.6367245019119
 20
921.7464014898906
 10
818.1443142432518
 20
916.443663300639
 10
826.2857582202014
 20
909.5342355244647
 10
871.465538128251
 20
912.3729413121646
 10
884.9097202944504
 20
920.5143852891124
 10
897.1218862598735
 20
928.2543225074332
 10
903.2279692425873
 20
949.0094392084338
 10
899.9605920475724
 20
970.1935585929532
 10
899.9605920475724
 20
970.1935585929532
 10
897.1218862598735
 20
987.27946006411
 10
897.1218862598735
 20
987.27946006411
 10
897.1218862598735
 20
987.27946006411
 10
905.664836995451
 20
976.2996415756652
 10
905.664836995451
 20
976.2996415756652
 10
923.1529077776413
 20
954.3121773976845
 10
939.0342889729109
 20
911.9714345535358
 10
960.6195838398544
 20
828.5213025136072
 10
983.811899569926
 20
740.1977662441495
 10
997.2564130123283
 20
701.096904670123
 10
1013.940807724855
 20
676.6725727392795
 10
1019.243877190309
 20
668.9601314458478
 10
1054.648027609599
 20
631.0912860725994
 10
1092.516872982849
 20
592.821265216925
 10
1155.613063804203
 20
528.9217296021106
 10
1162.923667062798
 20
519.9497761830135
 10
1178.403541499438
 20
487.8130029587355
 10
1198.757151441812
 20
445.471928838384
 10
1209.335463171627
 20
397.4266097701511
 10
1213.406185160102
 20
328.6258427247158
 10
1215.04003939571
 20
302.5948212069452
 10
1217.878413907205
 20
281.009195063798
 10
1219.913774901441
 20
281.009195063798
 97
        0
 97
        0
 92
        1
 93
        1
 72
     4
 94
        3
 73
     0
 74
     1
 95
       23
 96
       19
 40
0.0
 40
0.0
 40
0.0
 40
0.0
 40
1.0
 40
1.0
 40
1.0
 40
2.0
 40
2.0
 40
2.0
 40
3.0
 40
3.0
 40
3.0
 40
4.0
 40
4.0
 40
4.0
 40
5.0
 40
5.0
 40
5.0
 40
6.0
 40
6.0
 40
6.0
 40
6.0
 10
882.8743593002118
 20
936.7972732430107
 10
876.3396049101875
 20
928.655829266062
 10
869.8320151688467
 20
926.6204682718253
 10
849.4784052264749
 20
924.9866140362165
 10
849.4784052264749
 20
924.9866140362165
 10
824.6522352607963
 20
923.3802557254985
 10
824.6522352607963
 20
923.3802557254985
 10
824.6522352607963
 20
923.3802557254985
 10
815.7074464903853
 20
942.9033562257227
 10
815.7074464903853
 20
942.9033562257227
 10
804.7004633532551
 20
968.1581975987156
 10
803.4952805249623
 20
1008.034908041313
 10
813.6720854961486
 20
1023.51445120175
 10
828.7229572492706
 20
1045.903422138359
 10
858.8515341279954
 20
1033.691256172936
 10
877.1697830761304
 20
997.8581030701262
 10
890.1856251112185
 20
972.6304263458205
 10
892.2209861054553
 20
948.6079324498041
 10
882.8743593002118
 20
936.7972732430107
 97
        0
 97
        0
 92
        1
 93
        1
 72
     4
 94
        3
 73
     0
 74
     1
 95
       20
 96
       16
 40
0.0
 40
0.0
 40
0.0
 40
0.0
 40
1.0
 40
1.0
 40
1.0
 40
2.0
 40
2.0
 40
2.0
 40
3.0
 40
3.0
 40
3.0
 40
4.0
 40
4.0
 40
4.0
 40
5.0
 40
5.0
 40
5.0
 40
5.0
 10
963.4586209037589
 20
865.1578004098765
 10
956.1473550927531
 20
893.6531856054016
 10
951.246454938334
 20
918.8805310535045
 10
952.0766331042787
 20
921.7464014898906
 10
954.5135008571442
 20
927.8524844726007
 10
1004.996350230649
 20
972.6304263458205
 10
1022.082251701804
 20
983.6105761104673
 10
1038.766646414331
 20
994.6178905237994
 10
1061.557124109568
 20
997.8581030701262
 10
1072.163263040478
 20
990.9486752939547
 10
1094.122900017363
 20
976.7011483342931
 10
1074.60013079334
 20
931.5216997024472
 10
1013.940807724855
 20
854.980995438691
 10
975.2689488343494
 20
806.9356763704591
 10
978.5363260293616
 20
806.1323315769969
 10
963.4586209037589
 20
865.1578004098765
 97
        0
 97
        0
 92
        1
 93
        1
 72
     4
 94
        3
 73
     0
 74
     1
 95
       29
 96
       25
 40
0.0
 40
0.0
 40
0.0
 40
0.0
 40
1.0
 40
1.0
 40
1.0
 40
2.0
 40
2.0
 40
2.0
 40
3.0
 40
3.0
 40
3.0
 40
4.0
 40
4.0
 40
4.0
 40
5.0
 40
5.0
 40
5.0
 40
6.0
 40
6.0
 40
6.0
 40
7.0
 40
7.0
 40
7.0
 40
8.0
 40
8.0
 40
8.0
 40
8.0
 10
1107.165906701139
 20
594.4547881763274
 10
1107.165906701139
 20
594.4547881763274
 10
1074.60013079334
 20
626.2175505668674
 10
1074.60013079334
 20
626.2175505668674
 10
1035.097431184484
 20
664.0589000152258
 10
1019.243877190309
 20
686.4478709518326
 10
1001.728641759433
 20
730.422468031592
 10
991.1503300296172
 20
755.6501447559012
 10
989.5164757940092
 20
763.791588732849
 10
993.5871977824845
 20
764.6220981749966
 10
1005.397856989277
 20
767.4604726864918
 10
1030.223695678751
 20
750.7760779739656
 10
1082.741574770291
 20
703.5612683478803
 10
1123.448794655034
 20
667.7277839688677
 10
1138.900841890581
 20
651.4448960149703
 10
1142.570057120429
 20
640.4650775265254
 10
1147.471619827253
 20
624.9852030898874
 10
1143.802404597405
 20
618.8791201071745
 10
1129.153370879116
 20
618.8791201071745
 10
1125.484155649272
 20
618.8791201071745
 10
1118.976565907933
 20
613.5763819179247
 10
1114.905843919458
 20
606.6669541417532
 10
1114.905843919458
 20
606.6669541417532
 10
1107.165906701139
 20
594.4547881763274
 10
1107.165906701139
 20
594.4547881763274
 97
        0
 97
        0
 92
        1
 93
        1
 72
     4
 94
        3
 73
     0
 74
     1
 95
       20
 96
       16
 40
0.0
 40
0.0
 40
0.0
 40
0.0
 40
1.0
 40
1.0
 40
1.0
 40
2.0
 40
2.0
 40
2.0
 40
3.0
 40
3.0
 40
3.0
 40
4.0
 40
4.0
 40
4.0
 40
5.0
 40
5.0
 40
5.0
 40
5.0
 10
1149.50698082149
 20
581.0106060101289
 10
1149.50698082149
 20
581.0106060101289
 10
1148.27463334451
 20
558.2201283148925
 10
1148.27463334451
 20
558.2201283148925
 10
1148.27463334451
 20
558.2201283148925
 10
1132.794758907872
 20
572.4676552745514
 10
1132.794758907872
 20
572.4676552745514
 10
1117.744218430953
 20
586.7151822342121
 10
1117.342711672323
 20
587.1166889928409
 10
1123.850301413664
 20
596.8919872053984
 10
1131.590238631983
 20
609.1041531708233
 10
1140.936202884821
 20
613.5763819179247
 10
1146.640779108902
 20
607.8993016187296
 10
1149.07764686177
 20
605.434937940975
 10
1150.30999433875
 20
593.6517746590716
 10
1149.50698082149
 20
581.0106060101289
 97
        0
 97
        0
 92
        1
 93
        1
 72
     4
 94
        3
 73
     0
 74
     1
 95
       26
 96
       22
 40
0.0
 40
0.0
 40
0.0
 40
0.0
 40
1.0
 40
1.0
 40
1.0
 40
2.0
 40
2.0
 40
2.0
 40
3.0
 40
3.0
 40
3.0
 40
4.0
 40
4.0
 40
4.0
 40
5.0
 40
5.0
 40
5.0
 40
6.0
 40
6.0
 40
6.0
 40
7.0
 40
7.0
 40
7.0
 40
7.0
 10
1163.754507781152
 20
541.5354023261607
 10
1163.754507781152
 20
541.5354023261607
 10
1161.289812827192
 20
583.0459670043647
 10
1161.289812827192
 20
583.0459670043647
 10
1158.049931557069
 20
637.599207090142
 10
1152.746862091615
 20
653.8820950440404
 10
1133.625599626221
 20
673.4323601929491
 10
1121.011926902171
 20
685.644526158374
 10
1118.547231948211
 20
690.5185929403087
 10
1122.216447178054
 20
694.5893149287849
 10
1124.653314930922
 20
697.8566921237962
 10
1131.188731873357
 20
700.2935598766635
 10
1136.463974137718
 20
700.2935598766635
 10
1158.451438315697
 20
700.2935598766635
 10
1189.784866746511
 20
630.6897793139715
 10
1186.143478717759
 20
590.7859042226855
 10
1184.911131240782
 20
579.40424769941
 10
1180.037395735048
 20
565.5582274983799
 10
1173.931312752336
 20
556.5862740792845
 10
1173.931312752336
 20
556.5862740792845
 10
1163.754507781152
 20
541.5354023261607
 10
1163.754507781152
 20
541.5354023261607
 97
        0
 97
        0
 92
        1
 93
        1
 72
     4
 94
        3
 73
     0
 74
     1
 95
       17
 96
       13
 40
0.0
 40
0.0
 40
0.0
 40
0.0
 40
1.0
 40
1.0
 40
1.0
 40
2.0
 40
2.0
 40
2.0
 40
3.0
 40
3.0
 40
3.0
 40
4.0
 40
4.0
 40
4.0
 40
4.0
 10
1194.686429453337
 20
536.2326641369109
 10
1194.284922694707
 20
526.8863686078712
 10
1193.052575217727
 20
514.674202642449
 10
1191.418720982121
 20
509.3714644531992
 10
1189.383359987884
 20
501.6315272348784
 10
1188.178839712
 20
500.8281824414153
 10
1184.108117723523
 20
505.3007424647221
 10
1175.135833028222
 20
516.308056878057
 10
1173.501978792614
 20
532.9924515905841
 10
1180.438902493677
 20
543.5707633203983
 10
1190.214200706236
 20
558.6216350735203
 10
1195.087936211967
 20
556.1847673206539
 10
1194.686429453337
 20
536.2326641369109
 97
        0
 97
        0
 92
        1
 93
        1
 72
     4
 94
        3
 73
     0
 74
     1
 95
       20
 96
       16
 40
0.0
 40
0.0
 40
0.0
 40
0.0
 40
1.0
 40
1.0
 40
1.0
 40
2.0
 40
2.0
 40
2.0
 40
3.0
 40
3.0
 40
3.0
 40
4.0
 40
4.0
 40
4.0
 40
5.0
 40
5.0
 40
5.0
 40
5.0
 10
1205.666247941781
 20
460.1209625566735
 10
1199.9616717177
 20
460.1209625566735
 10
1198.757151441812
 20
484.1437877288899
 10
1202.827873430288
 20
510.2019738953441
 10
1205.264741183153
 20
526.4848618492433
 10
1207.701608936017
 20
543.9726013552308
 10
1208.532449654369
 20
549.6768463031103
 10
1209.736969930253
 20
559.452144515667
 10
1209.736969930253
 20
559.452144515667
 10
1218.709254625555
 20
545.6061243146369
 10
1230.090579872627
 20
527.2878753665027
 10
1230.090579872627
 20
508.1666129011082
 10
1217.476907148575
 20
481.2779172925038
 10
1212.173837683122
 20
469.8962607692301
 10
1206.898595418761
 20
460.1209625566735
 10
1205.666247941781
 20
460.1209625566735
 97
        0
 97
        0
 75
     2
 76
     1
 98
        0
  0
SPLINE
  5
4E
330
41
100
AcDbEntity
  8
Capa 1
370
     0
100
AcDbSpline
210
0.0
220
0.0
230
1.0
 70
    11
 71
     3
 72
    26
 73
    22
 74
     0
 42
0.0000000001
 43
0.0000000001
 12
1.0
 22
0.0
 32
0.0
 13
1.0
 23
0.0
 33
0.0
 40
0.0
 40
0.0
 40
0.0
 40
0.0
 40
1.0
 40
1.0
 40
1.0
 40
2.0
 40
2.0
 40
2.0
 40
3.0
 40
3.0
 40
3.0
 40
4.0
 40
4.0
 40
4.0
 40
5.0
 40
5.0
 40
5.0
 40
6.0
 40
6.0
 40
6.0
 40
7.0
 40
7.0
 40
7.0
 40
7.0
 10
1240.43699826
 20
42.05171885820891
 30
0.0
 10
1241.109488953083
 20
42.07855223069055
 30
0.0
 10
1241.780654541351
 20
42.02091017128259
 30
0.0
 10
1242.453807786842
 20
42.01362209480794
 30
0.0
 10
1242.453807786842
 20
42.01362209480794
 30
0.0
 10
1246.246257764386
 20
58.6784715113281
 30
0.0
 10
1246.246257764386
 20
58.6784715113281
 30
0.0
 10
1246.246257764386
 20
58.6784715113281
 30
0.0
 10
983.814549779554
 20
129.0067531310524
 30
0.0
 10
983.814549779554
 20
129.0067531310524
 30
0.0
 10
983.814549779554
 20
129.0067531310524
 30
0.0
 10
982.0455348529231
 20
119.6048031998271
 30
0.0
 10
982.0455348529231
 20
119.6048031998271
 30
0.0
 10
987.2412708284464
 20
118.6709355821913
 30
0.0
 10
992.3124469514587
 20
116.3877799877428
 30
0.0
 10
996.4852020106064
 20
112.9680157391249
 30
0.0
 10
996.4852020106064
 20
112.9680157391249
 30
0.0
 10
1236.011148181386
 20
42.46912687460463
 30
0.0
 10
1236.011148181386
 20
42.46912687460463
 30
0.0
 10
1237.475389000807
 20
42.36378104189316
 30
0.0
 10
1238.935654505789
 20
42.27996816241284
 30
0.0
 10
1240.43699826
 20
42.05171885820891
 30
0.0
  0
HATCH
  5
4F
330
41
100
AcDbEntity
  8
Capa 1
 62
     7
420
 16777215
100
AcDbHatch
 10
0.0
 20
0.0
 30
0.0
210
0.0
220
0.0
230
1.0
  2
SOLID
 70
     1
 71
     0
 91
        1
 92
        1
 93
        1
 72
     4
 94
        3
 73
     0
 74
     1
 95
       26
 96
       22
 40
0.0
 40
0.0
 40
0.0
 40
0.0
 40
1.0
 40
1.0
 40
1.0
 40
2.0
 40
2.0
 40
2.0
 40
3.0
 40
3.0
 40
3.0
 40
4.0
 40
4.0
 40
4.0
 40
5.0
 40
5.0
 40
5.0
 40
6.0
 40
6.0
 40
6.0
 40
7.0
 40
7.0
 40
7.0
 40
7.0
 10
1240.43699826
 20
42.05171885820891
 10
1241.109488953083
 20
42.07855223069055
 10
1241.780654541351
 20
42.02091017128259
 10
1242.453807786842
 20
42.01362209480794
 10
1242.453807786842
 20
42.01362209480794
 10
1246.246257764386
 20
58.6784715113281
 10
1246.246257764386
 20
58.6784715113281
 10
1246.246257764386
 20
58.6784715113281
 10
983.814549779554
 20
129.0067531310524
 10
983.814549779554
 20
129.0067531310524
 10
983.814549779554
 20
129.0067531310524
 10
982.0455348529231
 20
119.6048031998271
 10
982.0455348529231
 20
119.6048031998271
 10
987.2412708284464
 20
118.6709355821913
 10
992.3124469514587
 20
116.3877799877428
 10
996.4852020106064
 20
112.9680157391249
 10
996.4852020106064
 20
112.9680157391249
 10
1236.011148181386
 20
42.46912687460463
 10
1236.011148181386
 20
42.46912687460463
 10
1237.475389000807
 20
42.36378104189316
 10
1238.935654505789
 20
42.27996816241284
 10
1240.43699826
 20
42.05171885820891
 97
        0
 97
        0
 75
     2
 76
     1
 98
        0
  0
ENDBLK
  5
44
330
41
100
AcDbEntity
  8
0
100
AcDbBlockEnd
  0
ENDSEC
  0
SECTION
  2
ENTITIES
  0
INSERT
  5
42
330
1F
100
AcDbEntity
  8
Capa 1
100
AcDbBlockReference
  2
block 2
 10
0.0
 20
0.0
 30
0.0
  0
ENDSEC
  0
SECTION
  2
OBJECTS
  0
DICTIONARY
  5
C
330
0
100
AcDbDictionary
281
     1
  3
ACAD_GROUP
350
D
  3
ACAD_LAYOUT
350
1A
  3
ACAD_MATERIAL
350
3B
  3
ACAD_MLEADERSTYLE
350
51
  3
ACAD_MLINESTYLE
350
17
  3
ACAD_PLOTSETTINGS
350
19
  3
ACAD_PLOTSTYLENAME
350
E
  3
ACAD_TABLESTYLE
350
50
  3
ACAD_VISUALSTYLE
350
2A
  0
SUN
  5
3F
330
29
100
AcDbSun
 90
        1
290
     0
 63
     7
421
 16777215
 40
1.0
291
     1
 91
  2455826
 92
 54000000
292
     0
 70
     2
 71
   256
280
     1
  0
DICTIONARY
  5
D
102
{ACAD_REACTORS
330
C
102
}
330
C
100
AcDbDictionary
281
     1
  0
DICTIONARY
  5
1A
102
{ACAD_REACTORS
330
C
102
}
330
C
100
AcDbDictionary
281
     1
  3
Layout1
350
1E
  3
Layout2
350
26
  3
Model
350
22
  0
DICTIONARY
  5
3B
102
{ACAD_REACTORS
330
C
102
}
330
C
100
AcDbDictionary
281
     1
  3
ByBlock
350
3D
  3
ByLayer
350
3C
  3
Global
350
3E
  0
DICTIONARY
  5
51
102
{ACAD_REACTORS
330
C
102
}
330
C
100
AcDbDictionary
281
     1
  0
DICTIONARY
  5
17
102
{ACAD_REACTORS
330
C
102
}
330
C
100
AcDbDictionary
281
     1
  3
Standard
350
18
  0
DICTIONARY
  5
19
102
{ACAD_REACTORS
330
C
102
}
330
C
100
AcDbDictionary
281
     1
  0
ACDBDICTIONARYWDFLT
  5
E
102
{ACAD_REACTORS
330
C
102
}
330
C
100
AcDbDictionary
281
     1
  3
Normal
350
F
100
AcDbDictionaryWithDefault
340
F
  0
DICTIONARY
  5
50
102
{ACAD_REACTORS
330
C
102
}
330
C
100
AcDbDictionary
281
     1
  0
DICTIONARY
  5
2A
102
{ACAD_REACTORS
330
C
102
}
330
C
100
AcDbDictionary
281
     1
  3
2dWireframe
350
2F
  3
3D Hidden
350
31
  3
3dWireframe
350
30
  3
Basic
350
32
  3
Brighten
350
36
  3
ColorChange
350
3A
  3
Conceptual
350
34
  3
Dim
350
35
  3
Facepattern
350
39
  3
Flat
350
2B
  3
FlatWithEdges
350
2C
  3
Gouraud
350
2D
  3
GouraudWithEdges
350
2E
  3
Linepattern
350
38
  3
Realistic
350
33
  3
Thicken
350
37
  0
LAYOUT
  5
1E
102
{ACAD_REACTORS
330
1A
102
}
330
1A
100
AcDbPlotSettings
  1

  2
none_device
  4

  6

 40
0.0
 41
0.0
 42
0.0
 43
0.0
 44
0.0
 45
0.0
 46
0.0
 47
0.0
 48
0.0
 49
0.0
140
0.0
141
0.0
142
1.0
143
1.0
 70
   688
 72
     0
 73
     0
 74
     5
  7

 75
    16
 76
     0
 77
     2
 78
   300
147
1.0
148
0.0
149
0.0
100
AcDbLayout
  1
Layout1
 70
     1
 71
     1
 10
0.0
 20
0.0
 11
12.0
 21
9.0
 12
0.0
 22
0.0
 32
0.0
 14
1.000000000000000E+20
 24
1.000000000000000E+20
 34
1.000000000000000E+20
 15
-1.000000000000000E+20
 25
-1.000000000000000E+20
 35
-1.000000000000000E+20
146
0.0
 13
0.0
 23
0.0
 33
0.0
 16
1.0
 26
0.0
 36
0.0
 17
0.0
 27
1.0
 37
0.0
 76
     0
330
1B
  0
LAYOUT
  5
26
102
{ACAD_REACTORS
330
1A
102
}
330
1A
100
AcDbPlotSettings
  1

  2
none_device
  4

  6

 40
0.0
 41
0.0
 42
0.0
 43
0.0
 44
0.0
 45
0.0
 46
0.0
 47
0.0
 48
0.0
 49
0.0
140
0.0
141
0.0
142
1.0
143
1.0
 70
   688
 72
     0
 73
     0
 74
     5
  7

 75
    16
 76
     0
 77
     2
 78
   300
147
1.0
148
0.0
149
0.0
100
AcDbLayout
  1
Layout2
 70
     1
 71
     2
 10
0.0
 20
0.0
 11
0.0
 21
0.0
 12
0.0
 22
0.0
 32
0.0
 14
0.0
 24
0.0
 34
0.0
 15
0.0
 25
0.0
 35
0.0
146
0.0
 13
0.0
 23
0.0
 33
0.0
 16
1.0
 26
0.0
 36
0.0
 17
0.0
 27
1.0
 37
0.0
 76
     0
330
23
  0
LAYOUT
  5
22
102
{ACAD_REACTORS
330
1A
102
}
330
1A
100
AcDbPlotSettings
  1

  2
none_device
  4

  6

 40
0.0
 41
0.0
 42
0.0
 43
0.0
 44
0.0
 45
0.0
 46
0.0
 47
0.0
 48
0.0
 49
0.0
140
0.0
141
0.0
142
1.0
143
1.0
 70
  1712
 72
     0
 73
     0
 74
     0
  7

 75
     0
 76
     0
 77
     2
 78
   300
147
1.0
148
0.0
149
0.0
100
AcDbLayout
  1
Model
 70
     1
 71
     0
 10
0.0
 20
0.0
 11
12.0
 21
9.0
 12
0.0
 22
0.0
 32
0.0
 14
1.000000000000000E+20
 24
1.000000000000000E+20
 34
1.000000000000000E+20
 15
-1.000000000000000E+20
 25
-1.000000000000000E+20
 35
-1.000000000000000E+20
146
0.0
 13
0.0
 23
0.0
 33
0.0
 16
1.0
 26
0.0
 36
0.0
 17
0.0
 27
1.0
 37
0.0
 76
     0
330
1F
331
29
  0
MATERIAL
  5
3D
102
{ACAD_REACTORS
330
3B
102
}
330
3B
100
AcDbMaterial
  1
ByBlock
 72
     1
 94
      127
  0
MATERIAL
  5
3C
102
{ACAD_REACTORS
330
3B
102
}
330
3B
100
AcDbMaterial
  1
ByLayer
 72
     1
 94
      127
  0
MATERIAL
  5
3E
102
{ACAD_REACTORS
330
3B
102
}
330
3B
100
AcDbMaterial
  1
Global
 72
     1
 94
      127
  0
MLINESTYLE
  5
18
102
{ACAD_REACTORS
330
17
102
}
330
17
100
AcDbMlineStyle
  2
Standard
 70
     0
  3

 62
   256
 51
90.0
 52
90.0
 71
     2
 49
0.5
 62
   256
  6
BYLAYER
 49
-0.5
 62
   256
  6
BYLAYER
  0
ACDBPLACEHOLDER
  5
F
102
{ACAD_REACTORS
330
E
102
}
330
E
  0
VISUALSTYLE
  5
2F
102
{ACAD_REACTORS
330
2A
102
}
330
2A
100
AcDbVisualStyle
  2
2dWireframe
 70
     4
177
     2
291
     0
 71
     0
176
     1
 72
     2
176
     1
 73
     0
176
     1
 90
        0
176
     1
 40
-0.6
176
     1
 41
-30.0
176
     1
 62
     5
 63
     7
421
 16777215
176
     1
 74
     1
176
     1
 91
        4
176
     1
 64
     7
176
     1
 65
   257
176
     1
 75
     1
176
     1
175
     1
176
     1
 42
1.0
176
     1
 92
        0
176
     1
 66
   257
176
     1
 43
1.0
176
     1
 76
     1
176
     1
 77
     6
176
     1
 78
     2
176
     1
 67
     7
176
     1
 79
     5
176
     1
170
     0
176
     1
171
     0
176
     1
290
     0
176
     1
 93
        1
176
     1
 44
0.0
176
     1
173
     0
176
     1
  0
VISUALSTYLE
  5
31
102
{ACAD_REACTORS
330
2A
102
}
330
2A
100
AcDbVisualStyle
  2
3D Hidden
 70
     6
177
     2
291
     0
 71
     1
176
     1
 72
     2
176
     1
 73
     2
176
     1
 90
        0
176
     1
 40
-0.6
176
     1
 41
-30.0
176
     1
 62
     5
 63
     7
421
 16777215
176
     1
 74
     2
176
     1
 91
        2
176
     1
 64
     7
176
     1
 65
   257
176
     1
 75
     2
176
     1
175
     1
176
     1
 42
40.0
176
     1
 92
        0
176
     1
 66
   257
176
     1
 43
1.0
176
     1
 76
     1
176
     1
 77
     6
176
     1
 78
     2
176
     1
 67
     7
176
     1
 79
     3
176
     1
170
     0
176
     1
171
     0
176
     1
290
     0
176
     1
 93
        1
176
     1
 44
0.0
176
     1
173
     0
176
     1
  0
VISUALSTYLE
  5
30
102
{ACAD_REACTORS
330
2A
102
}
330
2A
100
AcDbVisualStyle
  2
3dWireframe
 70
     5
177
     2
291
     0
 71
     0
176
     1
 72
     2
176
     1
 73
     0
176
     1
 90
        0
176
     1
 40
-0.6
176
     1
 41
-30.0
176
     1
 62
     5
 63
     7
421
 16777215
176
     1
 74
     1
176
     1
 91
        4
176
     1
 64
     7
176
     1
 65
   257
176
     1
 75
     1
176
     1
175
     1
176
     1
 42
1.0
176
     1
 92
        0
176
     1
 66
   257
176
     1
 43
1.0
176
     1
 76
     1
176
     1
 77
     6
176
     1
 78
     2
176
     1
 67
     7
176
     1
 79
     5
176
     1
170
     0
176
     1
171
     0
176
     1
290
     0
176
     1
 93
        1
176
     1
 44
0.0
176
     1
173
     0
176
     1
  0
VISUALSTYLE
  5
32
102
{ACAD_REACTORS
330
2A
102
}
330
2A
100
AcDbVisualStyle
  2
Basic
 70
     7
177
     2
291
     1
 71
     1
176
     1
 72
     0
176
     1
 73
     1
176
     1
 90
        0
176
     1
 40
-0.6
176
     1
 41
-30.0
176
     1
 62
     5
 63
     7
421
 16777215
176
     1
 74
     0
176
     1
 91
        4
176
     1
 64
     7
176
     1
 65
   257
176
     1
 75
     1
176
     1
175
     1
176
     1
 42
1.0
176
     1
 92
        8
176
     1
 66
     7
176
     1
 43
1.0
176
     1
 76
     1
176
     1
 77
     6
176
     1
 78
     2
176
     1
 67
     7
176
     1
 79
     5
176
     1
170
     0
176
     1
171
     0
176
     1
290
     0
176
     1
 93
        1
176
     1
 44
0.0
176
     1
173
     0
176
     1
  0
VISUALSTYLE
  5
36
102
{ACAD_REACTORS
330
2A
102
}
330
2A
100
AcDbVisualStyle
  2
Brighten
 70
    12
177
     2
291
     1
 71
     2
176
     1
 72
     2
176
     1
 73
     0
176
     1
 90
        0
176
     1
 40
-0.6
176
     1
 41
-30.0
176
     1
 62
     5
 63
     7
421
 16777215
176
     1
 74
     1
176
     1
 91
        4
176
     1
 64
     7
176
     1
 65
   257
176
     1
 75
     1
176
     1
175
     1
176
     1
 42
1.0
176
     1
 92
        8
176
     1
 66
     7
176
     1
 43
1.0
176
     1
 76
     1
176
     1
 77
     6
176
     1
 78
     2
176
     1
 67
     7
176
     1
 79
     5
176
     1
170
     0
176
     1
171
     0
176
     1
290
     0
176
     1
 93
        1
176
     1
 44
50.0
176
     1
173
     0
176
     1
  0
VISUALSTYLE
  5
3A
102
{ACAD_REACTORS
330
2A
102
}
330
2A
100
AcDbVisualStyle
  2
ColorChange
 70
    16
177
     2
291
     1
 71
     2
176
     1
 72
     2
176
     1
 73
     3
176
     1
 90
        0
176
     1
 40
-0.6
176
     1
 41
-30.0
176
     1
 62
     5
 63
     8
421
  8421504
176
     1
 74
     1
176
     1
 91
        4
176
     1
 64
     7
176
     1
 65
   257
176
     1
 75
     1
176
     1
175
     1
176
     1
 42
1.0
176
     1
 92
        8
176
     1
 66
     8
424
  8421504
176
     1
 43
1.0
176
     1
 76
     1
176
     1
 77
     6
176
     1
 78
     2
176
     1
 67
     7
176
     1
 79
     5
176
     1
170
     0
176
     1
171
     0
176
     1
290
     0
176
     1
 93
        1
176
     1
 44
0.0
176
     1
173
     0
176
     1
  0
VISUALSTYLE
  5
34
102
{ACAD_REACTORS
330
2A
102
}
330
2A
100
AcDbVisualStyle
  2
Conceptual
 70
     9
177
     2
291
     0
 71
     3
176
     1
 72
     2
176
     1
 73
     0
176
     1
 90
        0
176
     1
 40
-0.6
176
     1
 41
-30.0
176
     1
 62
     5
 63
     7
421
 16777215
176
     1
 74
     2
176
     1
 91
        2
176
     1
 64
     7
176
     1
 65
   257
176
     1
 75
     1
176
     1
175
     1
176
     1
 42
40.0
176
     1
 92
        8
176
     1
 66
     7
176
     1
 43
1.0
176
     1
 76
     1
176
     1
 77
     6
176
     1
 78
     2
176
     1
 67
     7
176
     1
 79
     3
176
     1
170
     0
176
     1
171
     0
176
     1
290
     0
176
     1
 93
        1
176
     1
 44
0.0
176
     1
173
     0
176
     1
  0
VISUALSTYLE
  5
35
102
{ACAD_REACTORS
330
2A
102
}
330
2A
100
AcDbVisualStyle
  2
Dim
 70
    11
177
     2
291
     1
 71
     2
176
     1
 72
     2
176
     1
 73
     0
176
     1
 90
        0
176
     1
 40
-0.6
176
     1
 41
-30.0
176
     1
 62
     5
 63
     7
421
 16777215
176
     1
 74
     1
176
     1
 91
        4
176
     1
 64
     7
176
     1
 65
   257
176
     1
 75
     1
176
     1
175
     1
176
     1
 42
1.0
176
     1
 92
        8
176
     1
 66
     7
176
     1
 43
1.0
176
     1
 76
     1
176
     1
 77
     6
176
     1
 78
     2
176
     1
 67
     7
176
     1
 79
     5
176
     1
170
     0
176
     1
171
     0
176
     1
290
     0
176
     1
 93
        1
176
     1
 44
-50.0
176
     1
173
     0
176
     1
  0
VISUALSTYLE
  5
39
102
{ACAD_REACTORS
330
2A
102
}
330
2A
100
AcDbVisualStyle
  2
Facepattern
 70
    15
177
     2
291
     1
 71
     2
176
     1
 72
     2
176
     1
 73
     0
176
     1
 90
        0
176
     1
 40
-0.6
176
     1
 41
-30.0
176
     1
 62
     5
 63
     7
421
 16777215
176
     1
 74
     1
176
     1
 91
        4
176
     1
 64
     7
176
     1
 65
   257
176
     1
 75
     1
176
     1
175
     1
176
     1
 42
1.0
176
     1
 92
        8
176
     1
 66
     7
176
     1
 43
1.0
176
     1
 76
     1
176
     1
 77
     6
176
     1
 78
     2
176
     1
 67
     7
176
     1
 79
     5
176
     1
170
     0
176
     1
171
     0
176
     1
290
     0
176
     1
 93
        1
176
     1
 44
0.0
176
     1
173
     0
176
     1
  0
VISUALSTYLE
  5
2B
102
{ACAD_REACTORS
330
2A
102
}
330
2A
100
AcDbVisualStyle
  2
Flat
 70
     0
177
     2
291
     1
 71
     2
176
     1
 72
     1
176
     1
 73
     1
176
     1
 90
        2
176
     1
 40
-0.6
176
     1
 41
30.0
176
     1
 62
     5
 63
     7
421
 16777215
176
     1
 74
     0
176
     1
 91
        4
176
     1
 64
     7
176
     1
 65
   257
176
     1
 75
     1
176
     1
175
     1
176
     1
 42
1.0
176
     1
 92
        8
176
     1
 66
     7
176
     1
 43
1.0
176
     1
 76
     1
176
     1
 77
     6
176
     1
 78
     2
176
     1
 67
     7
176
     1
 79
     5
176
     1
170
     0
176
     1
171
     0
176
     1
290
     0
176
     1
 93
       13
176
     1
 44
0.0
176
     1
173
     0
176
     1
  0
VISUALSTYLE
  5
2C
102
{ACAD_REACTORS
330
2A
102
}
330
2A
100
AcDbVisualStyle
  2
FlatWithEdges
 70
     1
177
     2
291
     1
 71
     2
176
     1
 72
     1
176
     1
 73
     1
176
     1
 90
        2
176
     1
 40
-0.6
176
     1
 41
30.0
176
     1
 62
     5
 63
     7
421
 16777215
176
     1
 74
     1
176
     1
 91
        4
176
     1
 64
     7
176
     1
 65
   257
176
     1
 75
     1
176
     1
175
     1
176
     1
 42
1.0
176
     1
 92
        0
176
     1
 66
   257
176
     1
 43
1.0
176
     1
 76
     1
176
     1
 77
     6
176
     1
 78
     2
176
     1
 67
     7
176
     1
 79
     5
176
     1
170
     0
176
     1
171
     0
176
     1
290
     0
176
     1
 93
       13
176
     1
 44
0.0
176
     1
173
     0
176
     1
  0
VISUALSTYLE
  5
2D
102
{ACAD_REACTORS
330
2A
102
}
330
2A
100
AcDbVisualStyle
  2
Gouraud
 70
     2
177
     2
291
     1
 71
     2
176
     1
 72
     2
176
     1
 73
     1
176
     1
 90
        2
176
     1
 40
-0.6
176
     1
 41
30.0
176
     1
 62
     5
 63
     7
421
 16777215
176
     1
 74
     0
176
     1
 91
        4
176
     1
 64
     7
176
     1
 65
   257
176
     1
 75
     1
176
     1
175
     1
176
     1
 42
1.0
176
     1
 92
        0
176
     1
 66
     7
176
     1
 43
1.0
176
     1
 76
     1
176
     1
 77
     6
176
     1
 78
     2
176
     1
 67
     7
176
     1
 79
     5
176
     1
170
     0
176
     1
171
     0
176
     1
290
     0
176
     1
 93
       13
176
     1
 44
0.0
176
     1
173
     0
176
     1
  0
VISUALSTYLE
  5
2E
102
{ACAD_REACTORS
330
2A
102
}
330
2A
100
AcDbVisualStyle
  2
GouraudWithEdges
 70
     3
177
     2
291
     1
 71
     2
176
     1
 72
     2
176
     1
 73
     1
176
     1
 90
        2
176
     1
 40
-0.6
176
     1
 41
30.0
176
     1
 62
     5
 63
     7
421
 16777215
176
     1
 74
     1
176
     1
 91
        4
176
     1
 64
     7
176
     1
 65
   257
176
     1
 75
     1
176
     1
175
     1
176
     1
 42
1.0
176
     1
 92
        0
176
     1
 66
   257
176
     1
 43
1.0
176
     1
 76
     1
176
     1
 77
     6
176
     1
 78
     2
176
     1
 67
     7
176
     1
 79
     5
176
     1
170
     0
176
     1
171
     0
176
     1
290
     0
176
     1
 93
       13
176
     1
 44
0.0
176
     1
173
     0
176
     1
  0
VISUALSTYLE
  5
38
102
{ACAD_REACTORS
330
2A
102
}
330
2A
100
AcDbVisualStyle
  2
Linepattern
 70
    14
177
     2
291
     1
 71
     2
176
     1
 72
     2
176
     1
 73
     0
176
     1
 90
        0
176
     1
 40
-0.6
176
     1
 41
-30.0
176
     1
 62
     5
 63
     7
421
 16777215
176
     1
 74
     1
176
     1
 91
        4
176
     1
 64
     7
176
     1
 65
   257
176
     1
 75
     7
176
     1
175
     7
176
     1
 42
1.0
176
     1
 92
        8
176
     1
 66
     7
176
     1
 43
1.0
176
     1
 76
     1
176
     1
 77
     6
176
     1
 78
     2
176
     1
 67
     7
176
     1
 79
     5
176
     1
170
     0
176
     1
171
     0
176
     1
290
     0
176
     1
 93
        1
176
     1
 44
0.0
176
     1
173
     0
176
     1
  0
VISUALSTYLE
  5
33
102
{ACAD_REACTORS
330
2A
102
}
330
2A
100
AcDbVisualStyle
  2
Realistic
 70
     8
177
     2
291
     0
 71
     2
176
     1
 72
     2
176
     1
 73
     0
176
     1
 90
        0
176
     1
 40
-0.6
176
     1
 41
-30.0
176
     1
 62
     5
 63
     7
421
 16777215
176
     1
 74
     1
176
     1
 91
        0
176
     1
 64
     7
176
     1
 65
   257
176
     1
 75
     1
176
     1
175
     1
176
     1
 42
1.0
176
     1
 92
        8
176
     1
 66
     8
424
  7895160
176
     1
 43
1.0
176
     1
 76
     1
176
     1
 77
     6
176
     1
 78
     2
176
     1
 67
     7
176
     1
 79
     5
176
     1
170
     0
176
     1
171
     0
176
     1
290
     0
176
     1
 93
       13
176
     1
 44
0.0
176
     1
173
     0
176
     1
  0
VISUALSTYLE
  5
37
102
{ACAD_REACTORS
330
2A
102
}
330
2A
100
AcDbVisualStyle
  2
Thicken
 70
    13
177
     2
291
     1
 71
     2
176
     1
 72
     2
176
     1
 73
     0
176
     1
 90
        0
176
     1
 40
-0.6
176
     1
 41
-30.0
176
     1
 62
     5
 63
     7
421
 16777215
176
     1
 74
     1
176
     1
 91
        4
176
     1
 64
     7
176
     1
 65
   257
176
     1
 75
     1
176
     1
175
     1
176
     1
 42
1.0
176
     1
 92
       12
176
     1
 66
     7
176
     1
 43
1.0
176
     1
 76
     1
176
     1
 77
     6
176
     1
 78
     2
176
     1
 67
     7
176
     1
 79
     5
176
     1
170
     0
176
     1
171
     0
176
     1
290
     0
176
     1
 93
        1
176
     1
 44
0.0
176
     1
173
     0
176
     1
  0
ENDSEC
  0
EOF
