  0
SECTION
  2
HEADER
  9
$ACADVER
  1
AC1024
  9
$ACADMAINTVER
 70
     6
  9
$DWGCODEPAGE
  3
ANSI_1252
  9
$INSBASE
 10
0.0
 20
0.0
 30
0.0
  9
$EXTMIN
 10
1.000000000000000E+20
 20
1.000000000000000E+20
 30
1.000000000000000E+20
  9
$EXTMAX
 10
-1.000000000000000E+20
 20
-1.000000000000000E+20
 30
-1.000000000000000E+20
  9
$LIMMIN
 10
0.0
 20
0.0
  9
$LIMMAX
 10
12.0
 20
9.0
  9
$ORTHOMODE
 70
     0
  9
$REGENMODE
 70
     1
  9
$FILLMODE
 70
     1
  9
$QTEXTMODE
 70
     0
  9
$MIRRTEXT
 70
     1
  9
$LTSCALE
 40
1.0
  9
$ATTMODE
 70
     1
  9
$TEXTSIZE
 40
0.2
  9
$TRACEWID
 40
0.05
  9
$TEXTSTYLE
  7
Standard
  9
$CLAYER
  8
0
  9
$CELTYPE
  6
ByLayer
  9
$CECOLOR
 62
   256
  9
$CELTSCALE
 40
1.0
  9
$DISPSILH
 70
     0
  9
$DIMSCALE
 40
1.0
  9
$DIMASZ
 40
0.18
  9
$DIMEXO
 40
0.0625
  9
$DIMDLI
 40
0.38
  9
$DIMRND
 40
0.0
  9
$DIMDLE
 40
0.0
  9
$DIMEXE
 40
0.18
  9
$DIMTP
 40
0.0
  9
$DIMTM
 40
0.0
  9
$DIMTXT
 40
0.18
  9
$DIMCEN
 40
0.09
  9
$DIMTSZ
 40
0.0
  9
$DIMTOL
 70
     0
  9
$DIMLIM
 70
     0
  9
$DIMTIH
 70
     1
  9
$DIMTOH
 70
     1
  9
$DIMSE1
 70
     0
  9
$DIMSE2
 70
     0
  9
$DIMTAD
 70
     0
  9
$DIMZIN
 70
     0
  9
$DIMBLK
  1

  9
$DIMASO
 70
     1
  9
$DIMSHO
 70
     1
  9
$DIMPOST
  1

  9
$DIMAPOST
  1

  9
$DIMALT
 70
     0
  9
$DIMALTD
 70
     2
  9
$DIMALTF
 40
25.4
  9
$DIMLFAC
 40
1.0
  9
$DIMTOFL
 70
     0
  9
$DIMTVP
 40
0.0
  9
$DIMTIX
 70
     0
  9
$DIMSOXD
 70
     0
  9
$DIMSAH
 70
     0
  9
$DIMBLK1
  1

  9
$DIMBLK2
  1

  9
$DIMSTYLE
  2
Standard
  9
$DIMCLRD
 70
     0
  9
$DIMCLRE
 70
     0
  9
$DIMCLRT
 70
     0
  9
$DIMTFAC
 40
1.0
  9
$DIMGAP
 40
0.09
  9
$DIMJUST
 70
     0
  9
$DIMSD1
 70
     0
  9
$DIMSD2
 70
     0
  9
$DIMTOLJ
 70
     1
  9
$DIMTZIN
 70
     0
  9
$DIMALTZ
 70
     0
  9
$DIMALTTZ
 70
     0
  9
$DIMUPT
 70
     0
  9
$DIMDEC
 70
     4
  9
$DIMTDEC
 70
     4
  9
$DIMALTU
 70
     2
  9
$DIMALTTD
 70
     2
  9
$DIMTXSTY
  7
Standard
  9
$DIMAUNIT
 70
     0
  9
$DIMADEC
 70
     0
  9
$DIMALTRND
 40
0.0
  9
$DIMAZIN
 70
     0
  9
$DIMDSEP
 70
    46
  9
$DIMATFIT
 70
     3
  9
$DIMFRAC
 70
     0
  9
$DIMLDRBLK
  1

  9
$DIMLUNIT
 70
     2
  9
$DIMLWD
 70
    -2
  9
$DIMLWE
 70
    -2
  9
$DIMTMOVE
 70
     0
  9
$DIMFXL
 40
1.0
  9
$DIMFXLON
 70
     0
  9
$DIMJOGANG
 40
0.7853981633974483
  9
$DIMTFILL
 70
     0
  9
$DIMTFILLCLR
 70
     0
  9
$DIMARCSYM
 70
     0
  9
$DIMLTYPE
  6

  9
$DIMLTEX1
  6

  9
$DIMLTEX2
  6

  9
$DIMTXTDIRECTION
 70
     0
  9
$LUNITS
 70
     2
  9
$LUPREC
 70
     4
  9
$SKETCHINC
 40
0.1
  9
$FILLETRAD
 40
0.5
  9
$AUNITS
 70
     0
  9
$AUPREC
 70
     0
  9
$MENU
  1
.
  9
$ELEVATION
 40
0.0
  9
$PELEVATION
 40
0.0
  9
$THICKNESS
 40
0.0
  9
$LIMCHECK
 70
     0
  9
$CHAMFERA
 40
0.5
  9
$CHAMFERB
 40
0.5
  9
$CHAMFERC
 40
1.0
  9
$CHAMFERD
 40
0.0
  9
$SKPOLY
 70
     0
  9
$TDCREATE
 40
2459307.816128773
  9
$TDUCREATE
 40
2459308.066128773
  9
$TDUPDATE
 40
2459307.816128808
  9
$TDUUPDATE
 40
2459308.066128808
  9
$TDINDWG
 40
0.0000000116
  9
$TDUSRTIMER
 40
0.0000000116
  9
$USRTIMER
 70
     1
  9
$ANGBASE
 50
0.0
  9
$ANGDIR
 70
     0
  9
$PDMODE
 70
     0
  9
$PDSIZE
 40
0.0
  9
$PLINEWID
 40
0.0
  9
$SPLFRAME
 70
     0
  9
$SPLINETYPE
 70
     6
  9
$SPLINESEGS
 70
     8
  9
$HANDSEED
  5
5E
  9
$SURFTAB1
 70
     6
  9
$SURFTAB2
 70
     6
  9
$SURFTYPE
 70
     6
  9
$SURFU
 70
     6
  9
$SURFV
 70
     6
  9
$UCSBASE
  2

  9
$UCSNAME
  2

  9
$UCSORG
 10
0.0
 20
0.0
 30
0.0
  9
$UCSXDIR
 10
1.0
 20
0.0
 30
0.0
  9
$UCSYDIR
 10
0.0
 20
1.0
 30
0.0
  9
$UCSORTHOREF
  2

  9
$UCSORTHOVIEW
 70
     0
  9
$UCSORGTOP
 10
0.0
 20
0.0
 30
0.0
  9
$UCSORGBOTTOM
 10
0.0
 20
0.0
 30
0.0
  9
$UCSORGLEFT
 10
0.0
 20
0.0
 30
0.0
  9
$UCSORGRIGHT
 10
0.0
 20
0.0
 30
0.0
  9
$UCSORGFRONT
 10
0.0
 20
0.0
 30
0.0
  9
$UCSORGBACK
 10
0.0
 20
0.0
 30
0.0
  9
$PUCSBASE
  2

  9
$PUCSNAME
  2

  9
$PUCSORG
 10
0.0
 20
0.0
 30
0.0
  9
$PUCSXDIR
 10
1.0
 20
0.0
 30
0.0
  9
$PUCSYDIR
 10
0.0
 20
1.0
 30
0.0
  9
$PUCSORTHOREF
  2

  9
$PUCSORTHOVIEW
 70
     0
  9
$PUCSORGTOP
 10
0.0
 20
0.0
 30
0.0
  9
$PUCSORGBOTTOM
 10
0.0
 20
0.0
 30
0.0
  9
$PUCSORGLEFT
 10
0.0
 20
0.0
 30
0.0
  9
$PUCSORGRIGHT
 10
0.0
 20
0.0
 30
0.0
  9
$PUCSORGFRONT
 10
0.0
 20
0.0
 30
0.0
  9
$PUCSORGBACK
 10
0.0
 20
0.0
 30
0.0
  9
$USERI1
 70
     0
  9
$USERI2
 70
     0
  9
$USERI3
 70
     0
  9
$USERI4
 70
     0
  9
$USERI5
 70
     0
  9
$USERR1
 40
0.0
  9
$USERR2
 40
0.0
  9
$USERR3
 40
0.0
  9
$USERR4
 40
0.0
  9
$USERR5
 40
0.0
  9
$WORLDVIEW
 70
     1
  9
$SHADEDGE
 70
     3
  9
$SHADEDIF
 70
    70
  9
$TILEMODE
 70
     1
  9
$MAXACTVP
 70
    64
  9
$PINSBASE
 10
0.0
 20
0.0
 30
0.0
  9
$PLIMCHECK
 70
     0
  9
$PEXTMIN
 10
1.000000000000000E+20
 20
1.000000000000000E+20
 30
1.000000000000000E+20
  9
$PEXTMAX
 10
-1.000000000000000E+20
 20
-1.000000000000000E+20
 30
-1.000000000000000E+20
  9
$PLIMMIN
 10
0.0
 20
0.0
  9
$PLIMMAX
 10
12.0
 20
9.0
  9
$UNITMODE
 70
     0
  9
$VISRETAIN
 70
     1
  9
$PLINEGEN
 70
     0
  9
$PSLTSCALE
 70
     1
  9
$TREEDEPTH
 70
  3020
  9
$CMLSTYLE
  2
Standard
  9
$CMLJUST
 70
     0
  9
$CMLSCALE
 40
1.0
  9
$PROXYGRAPHICS
 70
     1
  9
$MEASUREMENT
 70
     0
  9
$CELWEIGHT
370
    -1
  9
$ENDCAPS
280
     0
  9
$JOINSTYLE
280
     0
  9
$LWDISPLAY
290
     1
  9
$INSUNITS
 70
     5
  9
$HYPERLINKBASE
  1

  9
$STYLESHEET
  1

  9
$XEDIT
290
     1
  9
$CEPSNTYPE
380
     0
  9
$PSTYLEMODE
290
     1
  9
$FINGERPRINTGUID
  2
{55A5040F-0D3D-4038-A6E1-E213F8063F6F}
  9
$VERSIONGUID
  2
{FAEB1C32-E019-11D5-929B-00C0DF256EC4}
  9
$EXTNAMES
290
     1
  9
$PSVPSCALE
 40
0.0
  9
$OLESTARTUP
290
     0
  9
$SORTENTS
280
   127
  9
$INDEXCTL
280
     0
  9
$HIDETEXT
280
     1
  9
$XCLIPFRAME
280
     2
  9
$HALOGAP
280
     0
  9
$OBSCOLOR
 70
   257
  9
$OBSLTYPE
280
     0
  9
$INTERSECTIONDISPLAY
280
     0
  9
$INTERSECTIONCOLOR
 70
   257
  9
$DIMASSOC
280
     2
  9
$PROJECTNAME
  1

  9
$CAMERADISPLAY
290
     0
  9
$LENSLENGTH
 40
50.0
  9
$CAMERAHEIGHT
 40
0.0
  9
$STEPSPERSEC
 40
2.0
  9
$STEPSIZE
 40
6.0
  9
$3DDWFPREC
 40
2.0
  9
$PSOLWIDTH
 40
0.25
  9
$PSOLHEIGHT
 40
4.0
  9
$LOFTANG1
 40
1.570796326794897
  9
$LOFTANG2
 40
1.570796326794897
  9
$LOFTMAG1
 40
0.0
  9
$LOFTMAG2
 40
0.0
  9
$LOFTPARAM
 70
     7
  9
$LOFTNORMALS
280
     1
  9
$LATITUDE
 40
37.795
  9
$LONGITUDE
 40
-122.394
  9
$NORTHDIRECTION
 40
0.0
  9
$TIMEZONE
 70
 -8000
  9
$LIGHTGLYPHDISPLAY
280
     1
  9
$TILEMODELIGHTSYNCH
280
     1
  9
$CMATERIAL
347
3C
  9
$SOLIDHIST
280
     1
  9
$SHOWHIST
280
     1
  9
$DWFFRAME
280
     2
  9
$DGNFRAME
280
     2
  9
$REALWORLDSCALE
290
     1
  9
$INTERFERECOLOR
 62
   256
  9
$CSHADOW
280
     0
  9
$SHADOWPLANELOCATION
 40
0.0
  0
ENDSEC
  0
SECTION
  2
CLASSES
  0
CLASS
  1
ACDBDICTIONARYWDFLT
  2
AcDbDictionaryWithDefault
  3
ObjectDBX Classes
 90
        0
 91
        4
280
     0
281
     0
  0
CLASS
  1
VISUALSTYLE
  2
AcDbVisualStyle
  3
ObjectDBX Classes
 90
     4095
 91
        4
280
     0
281
     0
  0
CLASS
  1
MATERIAL
  2
AcDbMaterial
  3
ObjectDBX Classes
 90
     1153
 91
        4
280
     0
281
     0
  0
CLASS
  1
SUN
  2
AcDbSun
  3
SCENEOE
 90
     1024
 91
        4
280
     0
281
     0
  0
ENDSEC
  0
SECTION
  2
TABLES
  0
TABLE
  2
VPORT
  5
8
330
0
100
AcDbSymbolTable
 70
     1
  0
VPORT
  5
29
330
8
100
AcDbSymbolTableRecord
100
AcDbViewportTableRecord
  2
*Active
 70
     0
 10
0.0
 20
0.0
 11
1.0
 21
1.0
 12
0.0
 22
0.0
 13
0.0
 23
0.0
 14
0.5
 24
0.5
 15
0.5
 25
0.5
 16
0.0
 26
0.0
 36
1.0
 17
14.84999999628701
 27
-10.49999999737534
 37
0.0
 40
20.99999999475068
 41
1.414285714285622
 42
50.0
 43
0.0
 44
0.0
 50
0.0
 51
0.0
 71
     0
 72
   100
 73
     1
 74
     3
 75
     0
 76
     0
 77
     0
 78
     0
281
     0
 65
     1
110
0.0
120
0.0
130
0.0
111
1.0
121
0.0
131
0.0
112
0.0
122
1.0
132
0.0
 79
     0
146
0.0
 60
     3
 61
     5
292
     1
282
     1
141
0.0
142
0.0
 63
   250
361
3F
  0
ENDTAB
  0
TABLE
  2
LTYPE
  5
5
330
0
100
AcDbSymbolTable
 70
     1
  0
LTYPE
  5
14
330
5
100
AcDbSymbolTableRecord
100
AcDbLinetypeTableRecord
  2
ByBlock
 70
     0
  3

 72
    65
 73
     0
 40
0.0
  0
LTYPE
  5
15
330
5
100
AcDbSymbolTableRecord
100
AcDbLinetypeTableRecord
  2
ByLayer
 70
     0
  3

 72
    65
 73
     0
 40
0.0
  0
LTYPE
  5
16
330
5
100
AcDbSymbolTableRecord
100
AcDbLinetypeTableRecord
  2
Continuous
 70
     0
  3
Solid line
 72
    65
 73
     0
 40
0.0
  0
ENDTAB
  0
TABLE
  2
LAYER
  5
2
330
0
100
AcDbSymbolTable
 70
     2
  0
LAYER
  5
10
330
2
100
AcDbSymbolTableRecord
100
AcDbLayerTableRecord
  2
0
 70
     0
 62
     7
  6
Continuous
370
    -3
390
F
347
3E
  0
LAYER
  5
40
330
2
100
AcDbSymbolTableRecord
100
AcDbLayerTableRecord
  2
Capa 1
 70
     0
 62
     7
  6
Continuous
370
    -3
390
F
347
3E
  0
ENDTAB
  0
TABLE
  2
STYLE
  5
3
330
0
100
AcDbSymbolTable
 70
     1
  0
STYLE
  5
11
330
3
100
AcDbSymbolTableRecord
100
AcDbTextStyleTableRecord
  2
Standard
 70
     0
 40
0.0
 41
1.0
 50
0.0
 71
     0
 42
0.2
  3
txt
  4

  0
ENDTAB
  0
TABLE
  2
VIEW
  5
6
330
0
100
AcDbSymbolTable
 70
     0
  0
ENDTAB
  0
TABLE
  2
UCS
  5
7
330
0
100
AcDbSymbolTable
 70
     0
  0
ENDTAB
  0
TABLE
  2
APPID
  5
9
330
0
100
AcDbSymbolTable
 70
     1
  0
APPID
  5
12
330
9
100
AcDbSymbolTableRecord
100
AcDbRegAppTableRecord
  2
ACAD
 70
     0
  0
ENDTAB
  0
TABLE
  2
DIMSTYLE
  5
A
330
0
100
AcDbSymbolTable
 70
     1
100
AcDbDimStyleTable
  0
DIMSTYLE
105
27
330
A
100
AcDbSymbolTableRecord
100
AcDbDimStyleTableRecord
  2
Standard
 70
     0
178
     0
340
11
  0
ENDTAB
  0
TABLE
  2
BLOCK_RECORD
  5
1
330
0
100
AcDbSymbolTable
 70
     1
  0
BLOCK_RECORD
  5
1F
330
1
100
AcDbSymbolTableRecord
100
AcDbBlockTableRecord
  2
*Model_Space
340
22
 70
     0
280
     1
281
     0
  0
BLOCK_RECORD
  5
1B
330
1
100
AcDbSymbolTableRecord
100
AcDbBlockTableRecord
  2
*Paper_Space
340
1E
 70
     0
280
     1
281
     0
  0
BLOCK_RECORD
  5
23
330
1
100
AcDbSymbolTableRecord
100
AcDbBlockTableRecord
  2
*Paper_Space0
340
26
 70
     0
280
     1
281
     0
  0
ENDTAB
  0
ENDSEC
  0
SECTION
  2
BLOCKS
  0
BLOCK
  5
20
330
1F
100
AcDbEntity
  8
0
100
AcDbBlockBegin
  2
*Model_Space
 70
     0
 10
0.0
 20
0.0
 30
0.0
  3
*Model_Space
  1

  0
ENDBLK
  5
21
330
1F
100
AcDbEntity
  8
0
100
AcDbBlockEnd
  0
BLOCK
  5
1C
330
1B
100
AcDbEntity
 67
     1
  8
0
100
AcDbBlockBegin
  2
*Paper_Space
 70
     0
 10
0.0
 20
0.0
 30
0.0
  3
*Paper_Space
  1

  0
ENDBLK
  5
1D
330
1B
100
AcDbEntity
 67
     1
  8
0
100
AcDbBlockEnd
  0
BLOCK
  5
24
330
23
100
AcDbEntity
  8
0
100
AcDbBlockBegin
  2
*Paper_Space0
 70
     0
 10
0.0
 20
0.0
 30
0.0
  3
*Paper_Space0
  1

  0
ENDBLK
  5
25
330
23
100
AcDbEntity
  8
0
100
AcDbBlockEnd
  0
ENDSEC
  0
SECTION
  2
ENTITIES
  0
SPLINE
  5
41
330
1F
100
AcDbEntity
  8
Capa 1
370
     0
100
AcDbSpline
210
0.0
220
0.0
230
1.0
 70
    11
 71
     3
 72
    98
 73
    94
 74
     0
 42
0.0000000001
 43
0.0000000001
 12
1.0
 22
0.0
 32
0.0
 13
1.0
 23
0.0
 33
0.0
 40
0.0
 40
0.0
 40
0.0
 40
0.0
 40
1.0
 40
1.0
 40
1.0
 40
2.0
 40
2.0
 40
2.0
 40
3.0
 40
3.0
 40
3.0
 40
4.0
 40
4.0
 40
4.0
 40
5.0
 40
5.0
 40
5.0
 40
6.0
 40
6.0
 40
6.0
 40
7.0
 40
7.0
 40
7.0
 40
8.0
 40
8.0
 40
8.0
 40
9.0
 40
9.0
 40
9.0
 40
10.0
 40
10.0
 40
10.0
 40
11.0
 40
11.0
 40
11.0
 40
12.0
 40
12.0
 40
12.0
 40
13.0
 40
13.0
 40
13.0
 40
14.0
 40
14.0
 40
14.0
 40
15.0
 40
15.0
 40
15.0
 40
16.0
 40
16.0
 40
16.0
 40
17.0
 40
17.0
 40
17.0
 40
18.0
 40
18.0
 40
18.0
 40
19.0
 40
19.0
 40
19.0
 40
20.0
 40
20.0
 40
20.0
 40
21.0
 40
21.0
 40
21.0
 40
22.0
 40
22.0
 40
22.0
 40
23.0
 40
23.0
 40
23.0
 40
24.0
 40
24.0
 40
24.0
 40
25.0
 40
25.0
 40
25.0
 40
26.0
 40
26.0
 40
26.0
 40
27.0
 40
27.0
 40
27.0
 40
28.0
 40
28.0
 40
28.0
 40
29.0
 40
29.0
 40
29.0
 40
30.0
 40
30.0
 40
30.0
 40
31.0
 40
31.0
 40
31.0
 40
31.0
 10
2.990962998384203
 20
-10.2475398737402
 30
0.0
 10
2.990962998384203
 20
-10.26352511679176
 30
0.0
 10
2.972325031809002
 20
-10.29329074178431
 30
0.0
 10
2.935014647703746
 20
-10.33680229776302
 30
0.0
 10
2.897721489075916
 20
-10.38034830469658
 30
0.0
 10
2.864820827191781
 20
-10.40473958073215
 30
0.0
 10
2.836433240393322
 20
-10.41007947873429
 30
0.0
 10
2.807993977162585
 20
-10.415402151259
 30
0.0
 10
2.661456840697483
 20
-10.4385015164876
 30
0.0
 10
2.396821830998017
 20
-10.47936034894266
 30
0.0
 10
2.220966931953439
 20
-10.50599093704364
 30
0.0
 10
2.03620646107949
 20
-10.54509277080123
 30
0.0
 10
1.842626545763302
 20
-10.59656249735086
 30
0.0
 10
1.769762776250267
 20
-10.61433919005475
 30
0.0
 10
1.697829182518251
 20
-10.63211588275864
 30
0.0
 10
1.626808539089825
 20
-10.64985812450767
 30
0.0
 10
1.52731418147581
 20
-10.67652316356351
 30
0.0
 10
1.450970865522674
 20
-10.70494520131682
 30
0.0
 10
1.397675238365859
 20
-10.73512423776761
 30
0.0
 10
1.330151366854962
 20
-10.77422607152519
 30
0.0
 10
1.267123344952316
 20
-10.90031656628534
 30
0.0
 10
1.20850504527079
 20
-11.11346462395774
 30
0.0
 10
1.160549316116113
 20
-11.29643364517936
 30
0.0
 10
1.112593586961435
 20
-11.47936821544613
 30
0.0
 10
1.064637857806757
 20
-11.66233723666775
 30
0.0
 10
1.004228108472901
 20
-11.8505772539818
 30
0.0
 10
0.9358257376132657
 20
-11.94473171359368
 30
0.0
 10
0.8594651961827031
 20
-11.94473171359368
 30
0.0
 10
0.7866186521470953
 20
-11.94473171359368
 30
0.0
 10
0.7289133027691606
 20
-11.90476860596478
 30
0.0
 10
0.68629747161662
 20
-11.82484239070698
 30
0.0
 10
0.6525183103837454
 20
-11.76444986685055
 30
0.0
 10
0.6356717934608737
 20
-11.7058143416916
 30
0.0
 10
0.6356717934608737
 20
-11.64900471713983
 30
0.0
 10
0.6356717934608737
 20
-11.53176811777678
 30
0.0
 10
0.68629747161662
 20
-11.37856472154772
 30
0.0
 10
0.7875316024506865
 20
-11.18939452845265
 30
0.0
 10
0.8887829587621792
 20
-11.00022433535758
 30
0.0
 10
0.9394086369179255
 20
-10.88612277288611
 30
0.0
 10
0.9394086369179255
 20
-10.84702093912852
 30
0.0
 10
0.9394086369179255
 20
-10.82218180067987
 30
0.0
 10
0.9176356334511466
 20
-10.78221869305097
 30
0.0
 10
0.8741240774724411
 20
-10.72713161624183
 30
0.0
 10
0.8305780705388832
 20
-10.67207899038753
 30
0.0
 10
0.808856743504383
 20
-10.61788763840456
 30
0.0
 10
0.808856743504383
 20
-10.56459201124774
 30
0.0
 10
0.808856743504383
 20
-10.49179714364441
 30
0.0
 10
0.8621351451837717
 20
-10.44649413801338
 30
0.0
 10
0.9687091740199754
 20
-10.42871744530949
 30
0.0
 10
1.025536024049172
 20
-10.42339477278477
 30
0.0
 10
1.083275824381959
 20
-10.41807210026006
 30
0.0
 10
1.141894124063485
 20
-10.41273220225793
 30
0.0
 10
1.143651122760962
 20
-10.40920097938555
 30
0.0
 10
1.240475531373909
 20
-10.17028360748347
 30
0.0
 10
1.432315673470046
 20
-9.696014537506551
 30
0.0
 10
1.492673746371623
 20
-9.54859890169271
 30
0.0
 10
1.561076117231259
 20
-9.458888615256805
 30
0.0
 10
1.637471109616674
 20
-9.426918129153686
 30
0.0
 10
1.704960530172718
 20
-9.400270315575279
 30
0.0
 10
1.871927082865351
 20
-9.386955021524788
 30
0.0
 10
2.138370767694574
 20
-9.386955021524788
 30
0.0
 10
2.149033338221422
 20
-9.386955021524788
 30
0.0
 10
2.173011202798761
 20
-9.38607652217605
 30
0.0
 10
2.21030436142659
 20
-9.38428507252372
 30
0.0
 10
2.247614745531846
 20
-9.382545299303668
 30
0.0
 10
2.277793781982635
 20
-9.381632349000077
 30
0.0
 10
2.300893147211235
 20
-9.381632349000077
 30
0.0
 10
2.510458305578982
 20
-9.381632349000077
 30
0.0
 10
2.615292561195135
 20
-9.446486271509906
 30
0.0
 10
2.615292561195135
 20
-9.576125214619857
 30
0.0
 10
2.615292561195135
 20
-9.664957001707023
 30
0.0
 10
2.585992024093085
 20
-9.726245250389619
 30
0.0
 10
2.527373724411559
 20
-9.759972735190214
 30
0.0
 10
2.488271890653973
 20
-9.781280650766485
 30
0.0
 10
2.427862141320118
 20
-9.791943221293334
 30
0.0
 10
2.34619615284227
 20
-9.791943221293334
 30
0.0
 10
2.34619615284227
 20
-9.791943221293334
 30
0.0
 10
1.943877902074794
 20
-9.791943221293334
 30
0.0
 10
1.943877902074794
 20
-9.791943221293334
 30
0.0
 10
1.862143011687242
 20
-9.791943221293334
 30
0.0
 10
1.779546847428377
 20
-9.8576756431519
 30
0.0
 10
1.6960894092982
 20
-9.989106035914181
 30
0.0
 10
1.619694416912785
 20
-10.10811685945214
 30
0.0
 10
1.587723930809666
 20
-10.19250447336333
 30
0.0
 10
1.600160725511418
 20
-10.24221720121549
 30
0.0
 10
1.600160725511418
 20
-10.24221720121549
 30
0.0
 10
2.708551295980848
 20
-10.10899535880088
 30
0.0
 10
2.708551295980848
 20
-10.10899535880088
 30
0.0
 10
2.772492268187085
 20
-10.10899535880088
 30
0.0
 10
2.83019761756502
 20
-10.11790093063025
 30
0.0
 10
2.881736246024357
 20
-10.13564317237928
 30
0.0
 10
2.954548339105113
 20
-10.16053398726021
 30
0.0
 10
2.990962998384203
 20
-10.19784437136547
 30
0.0
 10
2.990962998384203
 20
-10.2475398737402
 30
0.0
  0
HATCH
  5
42
330
1F
100
AcDbEntity
  8
Capa 1
 62
   250
420
  1842203
100
AcDbHatch
 10
0.0
 20
0.0
 30
0.0
210
0.0
220
0.0
230
1.0
  2
SOLID
 70
     1
 71
     0
 91
        1
 92
        1
 93
        1
 72
     4
 94
        3
 73
     0
 74
     1
 95
       98
 96
       94
 40
0.0
 40
0.0
 40
0.0
 40
0.0
 40
1.0
 40
1.0
 40
1.0
 40
2.0
 40
2.0
 40
2.0
 40
3.0
 40
3.0
 40
3.0
 40
4.0
 40
4.0
 40
4.0
 40
5.0
 40
5.0
 40
5.0
 40
6.0
 40
6.0
 40
6.0
 40
7.0
 40
7.0
 40
7.0
 40
8.0
 40
8.0
 40
8.0
 40
9.0
 40
9.0
 40
9.0
 40
10.0
 40
10.0
 40
10.0
 40
11.0
 40
11.0
 40
11.0
 40
12.0
 40
12.0
 40
12.0
 40
13.0
 40
13.0
 40
13.0
 40
14.0
 40
14.0
 40
14.0
 40
15.0
 40
15.0
 40
15.0
 40
16.0
 40
16.0
 40
16.0
 40
17.0
 40
17.0
 40
17.0
 40
18.0
 40
18.0
 40
18.0
 40
19.0
 40
19.0
 40
19.0
 40
20.0
 40
20.0
 40
20.0
 40
21.0
 40
21.0
 40
21.0
 40
22.0
 40
22.0
 40
22.0
 40
23.0
 40
23.0
 40
23.0
 40
24.0
 40
24.0
 40
24.0
 40
25.0
 40
25.0
 40
25.0
 40
26.0
 40
26.0
 40
26.0
 40
27.0
 40
27.0
 40
27.0
 40
28.0
 40
28.0
 40
28.0
 40
29.0
 40
29.0
 40
29.0
 40
30.0
 40
30.0
 40
30.0
 40
31.0
 40
31.0
 40
31.0
 40
31.0
 10
2.990962998384203
 20
-10.2475398737402
 10
2.990962998384203
 20
-10.26352511679176
 10
2.972325031809002
 20
-10.29329074178431
 10
2.935014647703746
 20
-10.33680229776302
 10
2.897721489075916
 20
-10.38034830469658
 10
2.864820827191781
 20
-10.40473958073215
 10
2.836433240393322
 20
-10.41007947873429
 10
2.807993977162585
 20
-10.415402151259
 10
2.661456840697483
 20
-10.4385015164876
 10
2.396821830998017
 20
-10.47936034894266
 10
2.220966931953439
 20
-10.50599093704364
 10
2.03620646107949
 20
-10.54509277080123
 10
1.842626545763302
 20
-10.59656249735086
 10
1.769762776250267
 20
-10.61433919005475
 10
1.697829182518251
 20
-10.63211588275864
 10
1.626808539089825
 20
-10.64985812450767
 10
1.52731418147581
 20
-10.67652316356351
 10
1.450970865522674
 20
-10.70494520131682
 10
1.397675238365859
 20
-10.73512423776761
 10
1.330151366854962
 20
-10.77422607152519
 10
1.267123344952316
 20
-10.90031656628534
 10
1.20850504527079
 20
-11.11346462395774
 10
1.160549316116113
 20
-11.29643364517936
 10
1.112593586961435
 20
-11.47936821544613
 10
1.064637857806757
 20
-11.66233723666775
 10
1.004228108472901
 20
-11.8505772539818
 10
0.9358257376132657
 20
-11.94473171359368
 10
0.8594651961827031
 20
-11.94473171359368
 10
0.7866186521470953
 20
-11.94473171359368
 10
0.7289133027691606
 20
-11.90476860596478
 10
0.68629747161662
 20
-11.82484239070698
 10
0.6525183103837454
 20
-11.76444986685055
 10
0.6356717934608737
 20
-11.7058143416916
 10
0.6356717934608737
 20
-11.64900471713983
 10
0.6356717934608737
 20
-11.53176811777678
 10
0.68629747161662
 20
-11.37856472154772
 10
0.7875316024506865
 20
-11.18939452845265
 10
0.8887829587621792
 20
-11.00022433535758
 10
0.9394086369179255
 20
-10.88612277288611
 10
0.9394086369179255
 20
-10.84702093912852
 10
0.9394086369179255
 20
-10.82218180067987
 10
0.9176356334511466
 20
-10.78221869305097
 10
0.8741240774724411
 20
-10.72713161624183
 10
0.8305780705388832
 20
-10.67207899038753
 10
0.808856743504383
 20
-10.61788763840456
 10
0.808856743504383
 20
-10.56459201124774
 10
0.808856743504383
 20
-10.49179714364441
 10
0.8621351451837717
 20
-10.44649413801338
 10
0.9687091740199754
 20
-10.42871744530949
 10
1.025536024049172
 20
-10.42339477278477
 10
1.083275824381959
 20
-10.41807210026006
 10
1.141894124063485
 20
-10.41273220225793
 10
1.143651122760962
 20
-10.40920097938555
 10
1.240475531373909
 20
-10.17028360748347
 10
1.432315673470046
 20
-9.696014537506551
 10
1.492673746371623
 20
-9.54859890169271
 10
1.561076117231259
 20
-9.458888615256805
 10
1.637471109616674
 20
-9.426918129153686
 10
1.704960530172718
 20
-9.400270315575279
 10
1.871927082865351
 20
-9.386955021524788
 10
2.138370767694574
 20
-9.386955021524788
 10
2.149033338221422
 20
-9.386955021524788
 10
2.173011202798761
 20
-9.38607652217605
 10
2.21030436142659
 20
-9.38428507252372
 10
2.247614745531846
 20
-9.382545299303668
 10
2.277793781982635
 20
-9.381632349000077
 10
2.300893147211235
 20
-9.381632349000077
 10
2.510458305578982
 20
-9.381632349000077
 10
2.615292561195135
 20
-9.446486271509906
 10
2.615292561195135
 20
-9.576125214619857
 10
2.615292561195135
 20
-9.664957001707023
 10
2.585992024093085
 20
-9.726245250389619
 10
2.527373724411559
 20
-9.759972735190214
 10
2.488271890653973
 20
-9.781280650766485
 10
2.427862141320118
 20
-9.791943221293334
 10
2.34619615284227
 20
-9.791943221293334
 10
2.34619615284227
 20
-9.791943221293334
 10
1.943877902074794
 20
-9.791943221293334
 10
1.943877902074794
 20
-9.791943221293334
 10
1.862143011687242
 20
-9.791943221293334
 10
1.779546847428377
 20
-9.8576756431519
 10
1.6960894092982
 20
-9.989106035914181
 10
1.619694416912785
 20
-10.10811685945214
 10
1.587723930809666
 20
-10.19250447336333
 10
1.600160725511418
 20
-10.24221720121549
 10
1.600160725511418
 20
-10.24221720121549
 10
2.708551295980848
 20
-10.10899535880088
 10
2.708551295980848
 20
-10.10899535880088
 10
2.772492268187085
 20
-10.10899535880088
 10
2.83019761756502
 20
-10.11790093063025
 10
2.881736246024357
 20
-10.13564317237928
 10
2.954548339105113
 20
-10.16053398726021
 10
2.990962998384203
 20
-10.19784437136547
 10
2.990962998384203
 20
-10.2475398737402
 97
        0
 97
        0
 75
     2
 76
     1
 98
        0
  0
SPLINE
  5
43
330
1F
100
AcDbEntity
  8
Capa 1
370
     0
100
AcDbSpline
210
0.0
220
0.0
230
1.0
 70
    11
 71
     3
 72
   137
 73
   133
 74
     0
 42
0.0000000001
 43
0.0000000001
 12
1.0
 22
0.0
 32
0.0
 13
1.0
 23
0.0
 33
0.0
 40
0.0
 40
0.0
 40
0.0
 40
0.0
 40
1.0
 40
1.0
 40
1.0
 40
2.0
 40
2.0
 40
2.0
 40
3.0
 40
3.0
 40
3.0
 40
4.0
 40
4.0
 40
4.0
 40
5.0
 40
5.0
 40
5.0
 40
6.0
 40
6.0
 40
6.0
 40
7.0
 40
7.0
 40
7.0
 40
8.0
 40
8.0
 40
8.0
 40
9.0
 40
9.0
 40
9.0
 40
10.0
 40
10.0
 40
10.0
 40
11.0
 40
11.0
 40
11.0
 40
12.0
 40
12.0
 40
12.0
 40
13.0
 40
13.0
 40
13.0
 40
14.0
 40
14.0
 40
14.0
 40
15.0
 40
15.0
 40
15.0
 40
16.0
 40
16.0
 40
16.0
 40
17.0
 40
17.0
 40
17.0
 40
18.0
 40
18.0
 40
18.0
 40
19.0
 40
19.0
 40
19.0
 40
20.0
 40
20.0
 40
20.0
 40
21.0
 40
21.0
 40
21.0
 40
22.0
 40
22.0
 40
22.0
 40
23.0
 40
23.0
 40
23.0
 40
24.0
 40
24.0
 40
24.0
 40
25.0
 40
25.0
 40
25.0
 40
26.0
 40
26.0
 40
26.0
 40
27.0
 40
27.0
 40
27.0
 40
28.0
 40
28.0
 40
28.0
 40
29.0
 40
29.0
 40
29.0
 40
30.0
 40
30.0
 40
30.0
 40
31.0
 40
31.0
 40
31.0
 40
32.0
 40
32.0
 40
32.0
 40
33.0
 40
33.0
 40
33.0
 40
34.0
 40
34.0
 40
34.0
 40
35.0
 40
35.0
 40
35.0
 40
36.0
 40
36.0
 40
36.0
 40
37.0
 40
37.0
 40
37.0
 40
38.0
 40
38.0
 40
38.0
 40
39.0
 40
39.0
 40
39.0
 40
40.0
 40
40.0
 40
40.0
 40
41.0
 40
41.0
 40
41.0
 40
42.0
 40
42.0
 40
42.0
 40
43.0
 40
43.0
 40
43.0
 40
44.0
 40
44.0
 40
44.0
 40
44.0
 10
7.211291095202385
 20
-9.773288029240705
 30
0.0
 10
7.211291095202385
 20
-9.883444957381569
 30
0.0
 10
7.131364879944589
 20
-9.974033743166213
 30
0.0
 10
6.97149522395157
 20
-10.04505438659464
 30
0.0
 10
6.856015623285995
 20
-10.09659301505398
 30
0.0
 10
6.704155814296183
 20
-10.13564317237928
 30
0.0
 10
6.515898571504706
 20
-10.16229098595769
 30
0.0
 10
6.425309785720061
 20
-10.17119655778706
 30
0.0
 10
6.335582273806729
 20
-10.18006767866158
 30
0.0
 10
6.246784937674414
 20
-10.18892157405867
 30
0.0
 10
6.351584742335715
 20
-10.24580010052015
 30
0.0
 10
6.456367321519588
 20
-10.3017484512006
 30
0.0
 10
6.561184351658315
 20
-10.35678385157747
 30
0.0
 10
6.717471108346674
 20
-10.44384141448973
 30
0.0
 10
6.837360431233368
 20
-10.52462890361884
 30
0.0
 10
6.920869545795823
 20
-10.59924967182935
 30
0.0
 10
7.034523245854216
 20
-10.70229247779318
 30
0.0
 10
7.091401772315691
 20
-10.8026481092785
 30
0.0
 10
7.091401772315691
 20
-10.90031656628534
 30
0.0
 10
7.091401772315691
 20
-10.94293239743788
 30
0.0
 10
7.084270424661224
 20
-10.98117295732415
 30
0.0
 10
7.070076631261994
 20
-11.01486599116989
 30
0.0
 10
7.050508488905775
 20
-11.05930772292962
 30
0.0
 10
7.022999401456056
 20
-11.08149413785462
 30
0.0
 10
6.987480467003129
 20
-11.08149413785462
 30
0.0
 10
6.96970377429924
 20
-11.08149413785462
 30
0.0
 10
6.91730387196859
 20
-11.03264268387378
 30
0.0
 10
6.830280760011179
 20
-10.9349397759121
 30
0.0
 10
6.743240422576342
 20
-10.83727131890526
 30
0.0
 10
6.689944795419527
 20
-10.78573269044593
 30
0.0
 10
6.670428329495587
 20
-10.78042724339864
 30
0.0
 10
6.670428329495587
 20
-10.78042724339864
 30
0.0
 10
5.897762314063754
 20
-10.58326442877779
 30
0.0
 10
5.897762314063754
 20
-10.58326442877779
 30
0.0
 10
5.856886256131264
 20
-10.58326442877779
 30
0.0
 10
5.795598007448669
 20
-10.57258463277352
 30
0.0
 10
5.713914793493396
 20
-10.55129394267468
 30
0.0
 10
5.607340764657192
 20
-10.52111490622389
 30
0.0
 10
5.554062362977803
 20
-10.48645724564227
 30
0.0
 10
5.554062362977803
 20
-10.44737263736211
 30
0.0
 10
5.554062362977803
 20
-10.32126491712454
 30
0.0
 10
5.657053492509347
 20
-10.21115966541596
 30
0.0
 10
5.863121878959566
 20
-10.11698798032666
 30
0.0
 10
5.919948728988762
 20
-10.09213161640058
 30
0.0
 10
6.037185328351814
 20
-10.05395995842401
 30
0.0
 10
6.214814451571296
 20
-10.00242132996467
 30
0.0
 10
6.314274358230459
 20
-9.972242293513883
 30
0.0
 10
6.389756400312283
 20
-9.947385929587806
 30
0.0
 10
6.44129502877162
 20
-9.927817787231586
 30
0.0
 10
6.553191730132535
 20
-9.883444957381569
 30
0.0
 10
6.630465221866689
 20
-9.838141951750533
 30
0.0
 10
6.673098278496655
 20
-9.791943221293334
 30
0.0
 10
6.662435707969808
 20
-9.761764184842544
 30
0.0
 10
6.621559650037318
 20
-9.746640215662298
 30
0.0
 10
6.550521781131466
 20
-9.746640215662298
 30
0.0
 10
6.413734264889621
 20
-9.746640215662298
 30
0.0
 10
6.226355521446883
 20
-9.779523652069008
 30
0.0
 10
5.988351099848398
 20
-9.845221622972721
 30
0.0
 10
5.728987086241364
 20
-9.918085392485755
 30
0.0
 10
5.585119898777331
 20
-9.987349037216704
 30
0.0
 10
5.556715086501446
 20
-10.05304700812042
 30
0.0
 10
5.483868542465838
 20
-10.21291666411344
 30
0.0
 10
5.368423392755116
 20
-10.47402045094052
 30
0.0
 10
5.210345186414427
 20
-10.8363755940791
 30
0.0
 10
5.185454371533497
 20
-10.8949766682832
 30
0.0
 10
5.159736733736107
 20
-11.00156792259683
 30
0.0
 10
5.133088920157699
 20
-11.15608045511028
 30
0.0
 10
5.124183348328329
 20
-11.22360432662118
 30
0.0
 10
5.115312227453811
 20
-11.29023247330591
 30
0.0
 10
5.106441106579292
 20
-11.35593044420963
 30
0.0
 10
5.081550291698362
 20
-11.49445773367152
 30
0.0
 10
5.048701306246505
 20
-11.60638888598729
 30
0.0
 10
5.007859699268868
 20
-11.69162054829237
 30
0.0
 10
4.95099839828482
 20
-11.80885714765542
 30
0.0
 10
4.880839028727706
 20
-11.86749267281438
 30
0.0
 10
4.79738159059753
 20
-11.86749267281438
 30
0.0
 10
4.774264999891503
 20
-11.86749267281438
 30
0.0
 10
4.744085963440714
 20
-11.84971598011049
 30
0.0
 10
4.706792804812885
 20
-11.81419704565756
 30
0.0
 10
4.699661457158418
 20
-11.62943657478361
 30
0.0
 10
4.716525199558715
 20
-11.4562516247401
 30
0.0
 10
4.757418482968631
 20
-11.29464219552703
 30
0.0
 10
4.782257621417283
 20
-11.20052218687001
 30
0.0
 10
4.839084471446479
 20
-11.03712130800461
 30
0.0
 10
4.927933484011072
 20
-10.80440510797598
 30
0.0
 10
5.027393390670235
 20
-10.54860676819618
 30
0.0
 10
5.108198105276769
 20
-10.31506374525109
 30
0.0
 10
5.170382078785529
 20
-10.10367268627616
 30
0.0
 10
5.161476506956158
 20
-10.09833278827403
 30
0.0
 10
5.122426349630851
 20
-10.08680894387587
 30
0.0
 10
5.053162704899903
 20
-10.06903225117198
 30
0.0
 10
4.999867077743088
 20
-10.05304700812042
 30
0.0
 10
4.97230631386109
 20
-10.03885321472119
 30
0.0
 10
4.970566540641038
 20
-10.02639919454201
 30
0.0
 10
4.966983641336379
 20
-9.994428708438893
 30
0.0
 10
4.973219264164681
 20
-9.951795651808926
 30
0.0
 10
4.989204507216241
 20
-9.898517250129537
 30
0.0
 10
5.012269421489988
 20
-9.818573809394314
 30
0.0
 10
5.023844942320427
 20
-9.774200979544297
 30
0.0
 10
5.023844942320427
 20
-9.765295407714925
 30
0.0
 10
5.025601941017904
 20
-9.765295407714925
 30
0.0
 10
5.068217772170446
 20
-9.749310164663367
 30
0.0
 10
5.151744112210327
 20
-9.717339678560247
 30
0.0
 10
5.208570962239524
 20
-9.696014537506551
 30
0.0
 10
5.244072671215023
 20
-9.675619572233872
 30
0.0
 10
5.258318141046531
 20
-9.656051429877653
 30
0.0
 10
5.284948729147512
 20
-9.613418373247686
 30
0.0
 10
5.312475042074658
 20
-9.571715492398738
 30
0.0
 10
5.340914305305396
 20
-9.530822208988821
 30
0.0
 10
5.372884791408515
 20
-9.495320500013323
 30
0.0
 10
5.422580293783243
 20
-9.477543807309432
 30
0.0
 10
5.49010416529414
 20
-9.477543807309432
 30
0.0
 10
5.500766735820989
 20
-9.477543807309432
 30
0.0
 10
5.551805825434965
 20
-9.483779430137735
 30
0.0
 10
5.6433075615232
 20
-9.496198999362061
 30
0.0
 10
5.734774846656584
 20
-9.508635794063812
 30
0.0
 10
5.78760538592289
 20
-9.514836965937262
 30
0.0
 10
5.801850855754398
 20
-9.514836965937262
 30
0.0
 10
5.817836098805957
 20
-9.514836965937262
 30
0.0
 10
5.871992999834085
 20
-9.497111949665651
 30
0.0
 10
5.964373235271059
 20
-9.461558564257874
 30
0.0
 10
6.078026935329452
 20
-9.417185734407855
 30
0.0
 10
6.174851343942398
 20
-9.38428507252372
 30
0.0
 10
6.254777559200194
 20
-9.36297715694745
 30
0.0
 10
6.387999401614805
 20
-9.327458222494524
 30
0.0
 10
6.512315672200046
 20
-9.309681529790634
 30
0.0
 10
6.62779527286562
 20
-9.309681529790634
 30
0.0
 10
6.766339787804942
 20
-9.309681529790634
 30
0.0
 10
6.891569008693774
 20
-9.34432196489482
 30
0.0
 10
7.003465710054688
 20
-9.413602835103196
 30
0.0
 10
7.142027450471437
 20
-9.498851722885703
 30
0.0
 10
7.211291095202385
 20
-9.618758271249824
 30
0.0
 10
7.211291095202385
 20
-9.773288029240705
 30
0.0
  0
HATCH
  5
44
330
1F
100
AcDbEntity
  8
Capa 1
 62
   250
420
  1842203
100
AcDbHatch
 10
0.0
 20
0.0
 30
0.0
210
0.0
220
0.0
230
1.0
  2
SOLID
 70
     1
 71
     0
 91
        1
 92
        1
 93
        1
 72
     4
 94
        3
 73
     0
 74
     1
 95
      137
 96
      133
 40
0.0
 40
0.0
 40
0.0
 40
0.0
 40
1.0
 40
1.0
 40
1.0
 40
2.0
 40
2.0
 40
2.0
 40
3.0
 40
3.0
 40
3.0
 40
4.0
 40
4.0
 40
4.0
 40
5.0
 40
5.0
 40
5.0
 40
6.0
 40
6.0
 40
6.0
 40
7.0
 40
7.0
 40
7.0
 40
8.0
 40
8.0
 40
8.0
 40
9.0
 40
9.0
 40
9.0
 40
10.0
 40
10.0
 40
10.0
 40
11.0
 40
11.0
 40
11.0
 40
12.0
 40
12.0
 40
12.0
 40
13.0
 40
13.0
 40
13.0
 40
14.0
 40
14.0
 40
14.0
 40
15.0
 40
15.0
 40
15.0
 40
16.0
 40
16.0
 40
16.0
 40
17.0
 40
17.0
 40
17.0
 40
18.0
 40
18.0
 40
18.0
 40
19.0
 40
19.0
 40
19.0
 40
20.0
 40
20.0
 40
20.0
 40
21.0
 40
21.0
 40
21.0
 40
22.0
 40
22.0
 40
22.0
 40
23.0
 40
23.0
 40
23.0
 40
24.0
 40
24.0
 40
24.0
 40
25.0
 40
25.0
 40
25.0
 40
26.0
 40
26.0
 40
26.0
 40
27.0
 40
27.0
 40
27.0
 40
28.0
 40
28.0
 40
28.0
 40
29.0
 40
29.0
 40
29.0
 40
30.0
 40
30.0
 40
30.0
 40
31.0
 40
31.0
 40
31.0
 40
32.0
 40
32.0
 40
32.0
 40
33.0
 40
33.0
 40
33.0
 40
34.0
 40
34.0
 40
34.0
 40
35.0
 40
35.0
 40
35.0
 40
36.0
 40
36.0
 40
36.0
 40
37.0
 40
37.0
 40
37.0
 40
38.0
 40
38.0
 40
38.0
 40
39.0
 40
39.0
 40
39.0
 40
40.0
 40
40.0
 40
40.0
 40
41.0
 40
41.0
 40
41.0
 40
42.0
 40
42.0
 40
42.0
 40
43.0
 40
43.0
 40
43.0
 40
44.0
 40
44.0
 40
44.0
 40
44.0
 10
7.211291095202385
 20
-9.773288029240705
 10
7.211291095202385
 20
-9.883444957381569
 10
7.131364879944589
 20
-9.974033743166213
 10
6.97149522395157
 20
-10.04505438659464
 10
6.856015623285995
 20
-10.09659301505398
 10
6.704155814296183
 20
-10.13564317237928
 10
6.515898571504706
 20
-10.16229098595769
 10
6.425309785720061
 20
-10.17119655778706
 10
6.335582273806729
 20
-10.18006767866158
 10
6.246784937674414
 20
-10.18892157405867
 10
6.351584742335715
 20
-10.24580010052015
 10
6.456367321519588
 20
-10.3017484512006
 10
6.561184351658315
 20
-10.35678385157747
 10
6.717471108346674
 20
-10.44384141448973
 10
6.837360431233368
 20
-10.52462890361884
 10
6.920869545795823
 20
-10.59924967182935
 10
7.034523245854216
 20
-10.70229247779318
 10
7.091401772315691
 20
-10.8026481092785
 10
7.091401772315691
 20
-10.90031656628534
 10
7.091401772315691
 20
-10.94293239743788
 10
7.084270424661224
 20
-10.98117295732415
 10
7.070076631261994
 20
-11.01486599116989
 10
7.050508488905775
 20
-11.05930772292962
 10
7.022999401456056
 20
-11.08149413785462
 10
6.987480467003129
 20
-11.08149413785462
 10
6.96970377429924
 20
-11.08149413785462
 10
6.91730387196859
 20
-11.03264268387378
 10
6.830280760011179
 20
-10.9349397759121
 10
6.743240422576342
 20
-10.83727131890526
 10
6.689944795419527
 20
-10.78573269044593
 10
6.670428329495587
 20
-10.78042724339864
 10
6.670428329495587
 20
-10.78042724339864
 10
5.897762314063754
 20
-10.58326442877779
 10
5.897762314063754
 20
-10.58326442877779
 10
5.856886256131264
 20
-10.58326442877779
 10
5.795598007448669
 20
-10.57258463277352
 10
5.713914793493396
 20
-10.55129394267468
 10
5.607340764657192
 20
-10.52111490622389
 10
5.554062362977803
 20
-10.48645724564227
 10
5.554062362977803
 20
-10.44737263736211
 10
5.554062362977803
 20
-10.32126491712454
 10
5.657053492509347
 20
-10.21115966541596
 10
5.863121878959566
 20
-10.11698798032666
 10
5.919948728988762
 20
-10.09213161640058
 10
6.037185328351814
 20
-10.05395995842401
 10
6.214814451571296
 20
-10.00242132996467
 10
6.314274358230459
 20
-9.972242293513883
 10
6.389756400312283
 20
-9.947385929587806
 10
6.44129502877162
 20
-9.927817787231586
 10
6.553191730132535
 20
-9.883444957381569
 10
6.630465221866689
 20
-9.838141951750533
 10
6.673098278496655
 20
-9.791943221293334
 10
6.662435707969808
 20
-9.761764184842544
 10
6.621559650037318
 20
-9.746640215662298
 10
6.550521781131466
 20
-9.746640215662298
 10
6.413734264889621
 20
-9.746640215662298
 10
6.226355521446883
 20
-9.779523652069008
 10
5.988351099848398
 20
-9.845221622972721
 10
5.728987086241364
 20
-9.918085392485755
 10
5.585119898777331
 20
-9.987349037216704
 10
5.556715086501446
 20
-10.05304700812042
 10
5.483868542465838
 20
-10.21291666411344
 10
5.368423392755116
 20
-10.47402045094052
 10
5.210345186414427
 20
-10.8363755940791
 10
5.185454371533497
 20
-10.8949766682832
 10
5.159736733736107
 20
-11.00156792259683
 10
5.133088920157699
 20
-11.15608045511028
 10
5.124183348328329
 20
-11.22360432662118
 10
5.115312227453811
 20
-11.29023247330591
 10
5.106441106579292
 20
-11.35593044420963
 10
5.081550291698362
 20
-11.49445773367152
 10
5.048701306246505
 20
-11.60638888598729
 10
5.007859699268868
 20
-11.69162054829237
 10
4.95099839828482
 20
-11.80885714765542
 10
4.880839028727706
 20
-11.86749267281438
 10
4.79738159059753
 20
-11.86749267281438
 10
4.774264999891503
 20
-11.86749267281438
 10
4.744085963440714
 20
-11.84971598011049
 10
4.706792804812885
 20
-11.81419704565756
 10
4.699661457158418
 20
-11.62943657478361
 10
4.716525199558715
 20
-11.4562516247401
 10
4.757418482968631
 20
-11.29464219552703
 10
4.782257621417283
 20
-11.20052218687001
 10
4.839084471446479
 20
-11.03712130800461
 10
4.927933484011072
 20
-10.80440510797598
 10
5.027393390670235
 20
-10.54860676819618
 10
5.108198105276769
 20
-10.31506374525109
 10
5.170382078785529
 20
-10.10367268627616
 10
5.161476506956158
 20
-10.09833278827403
 10
5.122426349630851
 20
-10.08680894387587
 10
5.053162704899903
 20
-10.06903225117198
 10
4.999867077743088
 20
-10.05304700812042
 10
4.97230631386109
 20
-10.03885321472119
 10
4.970566540641038
 20
-10.02639919454201
 10
4.966983641336379
 20
-9.994428708438893
 10
4.973219264164681
 20
-9.951795651808926
 10
4.989204507216241
 20
-9.898517250129537
 10
5.012269421489988
 20
-9.818573809394314
 10
5.023844942320427
 20
-9.774200979544297
 10
5.023844942320427
 20
-9.765295407714925
 10
5.025601941017904
 20
-9.765295407714925
 10
5.068217772170446
 20
-9.749310164663367
 10
5.151744112210327
 20
-9.717339678560247
 10
5.208570962239524
 20
-9.696014537506551
 10
5.244072671215023
 20
-9.675619572233872
 10
5.258318141046531
 20
-9.656051429877653
 10
5.284948729147512
 20
-9.613418373247686
 10
5.312475042074658
 20
-9.571715492398738
 10
5.340914305305396
 20
-9.530822208988821
 10
5.372884791408515
 20
-9.495320500013323
 10
5.422580293783243
 20
-9.477543807309432
 10
5.49010416529414
 20
-9.477543807309432
 10
5.500766735820989
 20
-9.477543807309432
 10
5.551805825434965
 20
-9.483779430137735
 10
5.6433075615232
 20
-9.496198999362061
 10
5.734774846656584
 20
-9.508635794063812
 10
5.78760538592289
 20
-9.514836965937262
 10
5.801850855754398
 20
-9.514836965937262
 10
5.817836098805957
 20
-9.514836965937262
 10
5.871992999834085
 20
-9.497111949665651
 10
5.964373235271059
 20
-9.461558564257874
 10
6.078026935329452
 20
-9.417185734407855
 10
6.174851343942398
 20
-9.38428507252372
 10
6.254777559200194
 20
-9.36297715694745
 10
6.387999401614805
 20
-9.327458222494524
 10
6.512315672200046
 20
-9.309681529790634
 10
6.62779527286562
 20
-9.309681529790634
 10
6.766339787804942
 20
-9.309681529790634
 10
6.891569008693774
 20
-9.34432196489482
 10
7.003465710054688
 20
-9.413602835103196
 10
7.142027450471437
 20
-9.498851722885703
 10
7.211291095202385
 20
-9.618758271249824
 10
7.211291095202385
 20
-9.773288029240705
 97
        0
 97
        0
 75
     2
 76
     1
 98
        0
  0
SPLINE
  5
45
330
1F
100
AcDbEntity
  8
Capa 1
370
     0
100
AcDbSpline
210
0.0
220
0.0
230
1.0
 70
    11
 71
     3
 72
    35
 73
    31
 74
     0
 42
0.0000000001
 43
0.0000000001
 12
1.0
 22
0.0
 32
0.0
 13
1.0
 23
0.0
 33
0.0
 40
0.0
 40
0.0
 40
0.0
 40
0.0
 40
1.0
 40
1.0
 40
1.0
 40
2.0
 40
2.0
 40
2.0
 40
3.0
 40
3.0
 40
3.0
 40
4.0
 40
4.0
 40
4.0
 40
5.0
 40
5.0
 40
5.0
 40
6.0
 40
6.0
 40
6.0
 40
7.0
 40
7.0
 40
7.0
 40
8.0
 40
8.0
 40
8.0
 40
9.0
 40
9.0
 40
9.0
 40
10.0
 40
10.0
 40
10.0
 40
10.0
 10
10.08615437573367
 20
-9.36297715694745
 30
0.0
 10
10.09500827113076
 20
-9.563722870872958
 30
0.0
 10
10.04972249097715
 20
-9.793734670945662
 30
0.0
 10
9.95026258431799
 20
-10.05304700812042
 30
0.0
 10
9.861430797230822
 20
-10.27151773831754
 30
0.0
 10
9.772633461098508
 20
-10.49000569399208
 30
0.0
 10
9.683836124966193
 20
-10.70849364966663
 30
0.0
 10
9.637620169031566
 20
-10.84171549208124
 30
0.0
 10
9.58790744117941
 20
-11.06816161832671
 30
0.0
 10
9.534629039500022
 20
-11.38790093031275
 30
0.0
 10
9.493735756090107
 20
-11.41807996676354
 30
0.0
 10
9.458234047114608
 20
-11.43320393594378
 30
0.0
 10
9.428055010663819
 20
-11.43320393594378
 30
0.0
 10
9.310818411300767
 20
-11.43320393594378
 30
0.0
 10
9.25220011161924
 20
-11.34879909655516
 30
0.0
 10
9.25220011161924
 20
-11.18005831968762
 30
0.0
 10
9.25220011161924
 20
-11.0273372368265
 30
0.0
 10
9.2805876984177
 20
-10.86748480631091
 30
0.0
 10
9.337466224879174
 20
-10.70050102814085
 30
0.0
 10
9.364096812980156
 20
-10.61881781418557
 30
0.0
 10
9.43690890606091
 20
-10.43805365407451
 30
0.0
 10
9.555936955076293
 20
-10.1582946751948
 30
0.0
 10
9.674913327659397
 20
-9.878535696315087
 30
0.0
 10
9.776164683970888
 20
-9.616088322248755
 30
0.0
 10
9.859673798533345
 20
-9.37096977847323
 30
0.0
 10
9.902306855163312
 20
-9.337242293672633
 30
0.0
 10
9.945818411142017
 20
-9.320344100317483
 30
0.0
 10
9.990225691946888
 20
-9.320344100317483
 30
0.0
 10
10.02219617805001
 20
-9.320344100317483
 30
0.0
 10
10.05418388963055
 20
-9.33458957014899
 30
0.0
 10
10.08615437573367
 20
-9.36297715694745
 30
0.0
  0
HATCH
  5
46
330
1F
100
AcDbEntity
  8
Capa 1
 62
   250
420
  1842203
100
AcDbHatch
 10
0.0
 20
0.0
 30
0.0
210
0.0
220
0.0
230
1.0
  2
SOLID
 70
     1
 71
     0
 91
        1
 92
        1
 93
        1
 72
     4
 94
        3
 73
     0
 74
     1
 95
       35
 96
       31
 40
0.0
 40
0.0
 40
0.0
 40
0.0
 40
1.0
 40
1.0
 40
1.0
 40
2.0
 40
2.0
 40
2.0
 40
3.0
 40
3.0
 40
3.0
 40
4.0
 40
4.0
 40
4.0
 40
5.0
 40
5.0
 40
5.0
 40
6.0
 40
6.0
 40
6.0
 40
7.0
 40
7.0
 40
7.0
 40
8.0
 40
8.0
 40
8.0
 40
9.0
 40
9.0
 40
9.0
 40
10.0
 40
10.0
 40
10.0
 40
10.0
 10
10.08615437573367
 20
-9.36297715694745
 10
10.09500827113076
 20
-9.563722870872958
 10
10.04972249097715
 20
-9.793734670945662
 10
9.95026258431799
 20
-10.05304700812042
 10
9.861430797230822
 20
-10.27151773831754
 10
9.772633461098508
 20
-10.49000569399208
 10
9.683836124966193
 20
-10.70849364966663
 10
9.637620169031566
 20
-10.84171549208124
 10
9.58790744117941
 20
-11.06816161832671
 10
9.534629039500022
 20
-11.38790093031275
 10
9.493735756090107
 20
-11.41807996676354
 10
9.458234047114608
 20
-11.43320393594378
 10
9.428055010663819
 20
-11.43320393594378
 10
9.310818411300767
 20
-11.43320393594378
 10
9.25220011161924
 20
-11.34879909655516
 10
9.25220011161924
 20
-11.18005831968762
 10
9.25220011161924
 20
-11.0273372368265
 10
9.2805876984177
 20
-10.86748480631091
 10
9.337466224879174
 20
-10.70050102814085
 10
9.364096812980156
 20
-10.61881781418557
 10
9.43690890606091
 20
-10.43805365407451
 10
9.555936955076293
 20
-10.1582946751948
 10
9.674913327659397
 20
-9.878535696315087
 10
9.776164683970888
 20
-9.616088322248755
 10
9.859673798533345
 20
-9.37096977847323
 10
9.902306855163312
 20
-9.337242293672633
 10
9.945818411142017
 20
-9.320344100317483
 10
9.990225691946888
 20
-9.320344100317483
 10
10.02219617805001
 20
-9.320344100317483
 10
10.05418388963055
 20
-9.33458957014899
 10
10.08615437573367
 20
-9.36297715694745
 97
        0
 97
        0
 75
     2
 76
     1
 98
        0
  0
SPLINE
  5
47
330
1F
100
AcDbEntity
  8
Capa 1
370
     0
100
AcDbSpline
210
0.0
220
0.0
230
1.0
 70
    11
 71
     3
 72
    92
 73
    88
 74
     0
 42
0.0000000001
 43
0.0000000001
 12
1.0
 22
0.0
 32
0.0
 13
1.0
 23
0.0
 33
0.0
 40
0.0
 40
0.0
 40
0.0
 40
0.0
 40
1.0
 40
1.0
 40
1.0
 40
2.0
 40
2.0
 40
2.0
 40
3.0
 40
3.0
 40
3.0
 40
4.0
 40
4.0
 40
4.0
 40
5.0
 40
5.0
 40
5.0
 40
6.0
 40
6.0
 40
6.0
 40
7.0
 40
7.0
 40
7.0
 40
8.0
 40
8.0
 40
8.0
 40
9.0
 40
9.0
 40
9.0
 40
10.0
 40
10.0
 40
10.0
 40
11.0
 40
11.0
 40
11.0
 40
12.0
 40
12.0
 40
12.0
 40
13.0
 40
13.0
 40
13.0
 40
14.0
 40
14.0
 40
14.0
 40
15.0
 40
15.0
 40
15.0
 40
16.0
 40
16.0
 40
16.0
 40
17.0
 40
17.0
 40
17.0
 40
18.0
 40
18.0
 40
18.0
 40
19.0
 40
19.0
 40
19.0
 40
20.0
 40
20.0
 40
20.0
 40
21.0
 40
21.0
 40
21.0
 40
22.0
 40
22.0
 40
22.0
 40
23.0
 40
23.0
 40
23.0
 40
24.0
 40
24.0
 40
24.0
 40
25.0
 40
25.0
 40
25.0
 40
26.0
 40
26.0
 40
26.0
 40
27.0
 40
27.0
 40
27.0
 40
28.0
 40
28.0
 40
28.0
 40
29.0
 40
29.0
 40
29.0
 40
29.0
 10
14.2558567943961
 20
-10.27151773831754
 30
0.0
 10
14.04977118246846
 20
-10.31594224459983
 30
0.0
 10
13.75848835919058
 20
-10.35945380057854
 30
0.0
 10
13.38193942265278
 20
-10.40208685720851
 30
0.0
 10
13.13682087887725
 20
-10.42871744530949
 30
0.0
 10
12.97162855035952
 20
-10.47047200259071
 30
0.0
 10
12.88636243709959
 20
-10.52731607809734
 30
0.0
 10
12.77620550895872
 20
-10.60014539665552
 30
0.0
 10
12.69719224400452
 20
-10.74576958281703
 30
0.0
 10
12.64923651484984
 20
-10.96425753849157
 30
0.0
 10
12.68120700095296
 20
-10.98203423119546
 30
0.0
 10
12.74781792216027
 20
-10.99088812659256
 30
0.0
 10
12.84906927847176
 20
-10.99088812659256
 30
0.0
 10
12.87037719404803
 20
-10.99088812659256
 30
0.0
 10
13.00268608615905
 20
-10.94692870820077
 30
0.0
 10
13.2460476312371
 20
-10.85900987141719
 30
0.0
 10
13.48939195083772
 20
-10.77109103463362
 30
0.0
 10
13.62173529390359
 20
-10.72713161624183
 30
0.0
 10
13.64304320947986
 20
-10.72713161624183
 30
0.0
 10
13.7069841816861
 20
-10.72713161624183
 30
0.0
 10
13.75316568666587
 20
-10.7342629638963
 30
0.0
 10
13.78158772441919
 20
-10.74845675729552
 30
0.0
 10
13.83130045227134
 20
-10.76974744739437
 30
0.0
 10
13.87925618142602
 20
-10.81863335233006
 30
0.0
 10
13.92547213736064
 20
-10.8949766682832
 30
0.0
 10
13.85086859462756
 20
-11.03353840869995
 30
0.0
 10
13.65635850353035
 20
-11.17034315041922
 30
0.0
 10
13.34197631502388
 20
-11.30528754057645
 30
0.0
 10
13.04177069443921
 20
-11.43320393594378
 30
0.0
 10
12.79132947813897
 20
-11.49714490815002
 30
0.0
 10
12.59061821516832
 20
-11.49714490815002
 30
0.0
 10
12.452073700229
 20
-11.49714490815002
 30
0.0
 10
12.3508223439175
 20
-11.47316704357268
 30
0.0
 10
12.28688137171127
 20
-11.425211314418
 30
0.0
 10
12.21403482767566
 20
-11.36833278795653
 30
0.0
 10
12.17763739387399
 20
-11.27245578060202
 30
0.0
 10
12.17763739387399
 20
-11.13744248853508
 30
0.0
 10
12.17763739387399
 20
-10.96339626462026
 30
0.0
 10
12.25844210848053
 20
-10.64365695263422
 30
0.0
 10
12.42010321412588
 20
-10.17827622900925
 30
0.0
 10
12.57284152246443
 20
-9.73776909478778
 30
0.0
 10
12.67588432842825
 20
-9.494442000664582
 30
0.0
 10
12.72916273010764
 20
-9.448243270207383
 30
0.0
 10
12.78953802848664
 20
-9.39319064435309
 30
0.0
 10
12.96537570205379
 20
-9.365647105948518
 30
0.0
 10
13.25671020176395
 20
-9.365647105948518
 30
0.0
 10
13.40765706045017
 20
-9.365647105948518
 30
0.0
 10
13.50358574423695
 20
-9.37096977847323
 30
0.0
 10
13.54446180216944
 20
-9.381632349000077
 30
0.0
 10
13.63325913830175
 20
-9.402940264576348
 30
0.0
 10
13.71673380190936
 20
-9.460680064909134
 30
0.0
 10
13.7949202439471
 20
-9.554817299043586
 30
0.0
 10
13.7949202439471
 20
-9.554817299043586
 30
0.0
 10
13.75228718731714
 20
-9.67470662193028
 30
0.0
 10
13.75228718731714
 20
-9.67470662193028
 30
0.0
 10
13.70607123138251
 20
-9.681820744107322
 30
0.0
 10
13.64571315848093
 20
-9.685369192457129
 30
0.0
 10
13.57110961574785
 20
-9.685369192457129
 30
0.0
 10
13.55512437269629
 20
-9.685369192457129
 30
0.0
 10
13.52935505846662
 20
-9.68449069310839
 30
0.0
 10
13.49383612401369
 20
-9.68269924345606
 30
0.0
 10
13.46007418825825
 20
-9.68269924345606
 30
0.0
 10
13.43430487402857
 20
-9.68269924345606
 30
0.0
 10
13.41657985775696
 20
-9.68269924345606
 30
0.0
 10
13.26558132263846
 20
-9.68269924345606
 30
0.0
 10
13.15721584414993
 20
-9.70047593615995
 30
0.0
 10
13.09151787324622
 20
-9.735994870612876
 30
0.0
 10
12.99560641493686
 20
-9.785742049419882
 30
0.0
 10
12.94765068578218
 20
-9.87986205807691
 30
0.0
 10
12.94765068578218
 20
-10.01840657301623
 30
0.0
 10
12.94765068578218
 20
-10.01840657301623
 30
0.0
 10
12.94498073678112
 20
-10.13032049985457
 30
0.0
 10
12.94498073678112
 20
-10.13032049985457
 30
0.0
 10
13.05155476561732
 20
-10.13209472402947
 30
0.0
 10
13.23006238818554
 20
-10.12324082863238
 30
0.0
 10
13.4805208299632
 20
-10.10367268627616
 30
0.0
 10
13.74338161548777
 20
-10.0841389948748
 30
0.0
 10
13.91656656553127
 20
-10.07435492369669
 30
0.0
 10
14.00007568009373
 20
-10.07435492369669
 30
0.0
 10
14.06575642552002
 20
-10.07435492369669
 30
0.0
 10
14.12750976209312
 20
-10.0876874432246
 30
0.0
 10
14.18524956242591
 20
-10.11433525680301
 30
0.0
 10
14.24293768632642
 20
-10.14096584490399
 30
0.0
 10
14.27184203744766
 20
-10.17560628000818
 30
0.0
 10
14.27184203744766
 20
-10.21823933663815
 30
0.0
 10
14.27184203744766
 20
-10.23601602934204
 30
0.0
 10
14.26650213944553
 20
-10.25379272204593
 30
0.0
 10
14.2558567943961
 20
-10.27151773831754
 30
0.0
  0
HATCH
  5
48
330
1F
100
AcDbEntity
  8
Capa 1
 62
   250
420
  1842203
100
AcDbHatch
 10
0.0
 20
0.0
 30
0.0
210
0.0
220
0.0
230
1.0
  2
SOLID
 70
     1
 71
     0
 91
        1
 92
        1
 93
        1
 72
     4
 94
        3
 73
     0
 74
     1
 95
       92
 96
       88
 40
0.0
 40
0.0
 40
0.0
 40
0.0
 40
1.0
 40
1.0
 40
1.0
 40
2.0
 40
2.0
 40
2.0
 40
3.0
 40
3.0
 40
3.0
 40
4.0
 40
4.0
 40
4.0
 40
5.0
 40
5.0
 40
5.0
 40
6.0
 40
6.0
 40
6.0
 40
7.0
 40
7.0
 40
7.0
 40
8.0
 40
8.0
 40
8.0
 40
9.0
 40
9.0
 40
9.0
 40
10.0
 40
10.0
 40
10.0
 40
11.0
 40
11.0
 40
11.0
 40
12.0
 40
12.0
 40
12.0
 40
13.0
 40
13.0
 40
13.0
 40
14.0
 40
14.0
 40
14.0
 40
15.0
 40
15.0
 40
15.0
 40
16.0
 40
16.0
 40
16.0
 40
17.0
 40
17.0
 40
17.0
 40
18.0
 40
18.0
 40
18.0
 40
19.0
 40
19.0
 40
19.0
 40
20.0
 40
20.0
 40
20.0
 40
21.0
 40
21.0
 40
21.0
 40
22.0
 40
22.0
 40
22.0
 40
23.0
 40
23.0
 40
23.0
 40
24.0
 40
24.0
 40
24.0
 40
25.0
 40
25.0
 40
25.0
 40
26.0
 40
26.0
 40
26.0
 40
27.0
 40
27.0
 40
27.0
 40
28.0
 40
28.0
 40
28.0
 40
29.0
 40
29.0
 40
29.0
 40
29.0
 10
14.2558567943961
 20
-10.27151773831754
 10
14.04977118246846
 20
-10.31594224459983
 10
13.75848835919058
 20
-10.35945380057854
 10
13.38193942265278
 20
-10.40208685720851
 10
13.13682087887725
 20
-10.42871744530949
 10
12.97162855035952
 20
-10.47047200259071
 10
12.88636243709959
 20
-10.52731607809734
 10
12.77620550895872
 20
-10.60014539665552
 10
12.69719224400452
 20
-10.74576958281703
 10
12.64923651484984
 20
-10.96425753849157
 10
12.68120700095296
 20
-10.98203423119546
 10
12.74781792216027
 20
-10.99088812659256
 10
12.84906927847176
 20
-10.99088812659256
 10
12.87037719404803
 20
-10.99088812659256
 10
13.00268608615905
 20
-10.94692870820077
 10
13.2460476312371
 20
-10.85900987141719
 10
13.48939195083772
 20
-10.77109103463362
 10
13.62173529390359
 20
-10.72713161624183
 10
13.64304320947986
 20
-10.72713161624183
 10
13.7069841816861
 20
-10.72713161624183
 10
13.75316568666587
 20
-10.7342629638963
 10
13.78158772441919
 20
-10.74845675729552
 10
13.83130045227134
 20
-10.76974744739437
 10
13.87925618142602
 20
-10.81863335233006
 10
13.92547213736064
 20
-10.8949766682832
 10
13.85086859462756
 20
-11.03353840869995
 10
13.65635850353035
 20
-11.17034315041922
 10
13.34197631502388
 20
-11.30528754057645
 10
13.04177069443921
 20
-11.43320393594378
 10
12.79132947813897
 20
-11.49714490815002
 10
12.59061821516832
 20
-11.49714490815002
 10
12.452073700229
 20
-11.49714490815002
 10
12.3508223439175
 20
-11.47316704357268
 10
12.28688137171127
 20
-11.425211314418
 10
12.21403482767566
 20
-11.36833278795653
 10
12.17763739387399
 20
-11.27245578060202
 10
12.17763739387399
 20
-11.13744248853508
 10
12.17763739387399
 20
-10.96339626462026
 10
12.25844210848053
 20
-10.64365695263422
 10
12.42010321412588
 20
-10.17827622900925
 10
12.57284152246443
 20
-9.73776909478778
 10
12.67588432842825
 20
-9.494442000664582
 10
12.72916273010764
 20
-9.448243270207383
 10
12.78953802848664
 20
-9.39319064435309
 10
12.96537570205379
 20
-9.365647105948518
 10
13.25671020176395
 20
-9.365647105948518
 10
13.40765706045017
 20
-9.365647105948518
 10
13.50358574423695
 20
-9.37096977847323
 10
13.54446180216944
 20
-9.381632349000077
 10
13.63325913830175
 20
-9.402940264576348
 10
13.71673380190936
 20
-9.460680064909134
 10
13.7949202439471
 20
-9.554817299043586
 10
13.7949202439471
 20
-9.554817299043586
 10
13.75228718731714
 20
-9.67470662193028
 10
13.75228718731714
 20
-9.67470662193028
 10
13.70607123138251
 20
-9.681820744107322
 10
13.64571315848093
 20
-9.685369192457129
 10
13.57110961574785
 20
-9.685369192457129
 10
13.55512437269629
 20
-9.685369192457129
 10
13.52935505846662
 20
-9.68449069310839
 10
13.49383612401369
 20
-9.68269924345606
 10
13.46007418825825
 20
-9.68269924345606
 10
13.43430487402857
 20
-9.68269924345606
 10
13.41657985775696
 20
-9.68269924345606
 10
13.26558132263846
 20
-9.68269924345606
 10
13.15721584414993
 20
-9.70047593615995
 10
13.09151787324622
 20
-9.735994870612876
 10
12.99560641493686
 20
-9.785742049419882
 10
12.94765068578218
 20
-9.87986205807691
 10
12.94765068578218
 20
-10.01840657301623
 10
12.94765068578218
 20
-10.01840657301623
 10
12.94498073678112
 20
-10.13032049985457
 10
12.94498073678112
 20
-10.13032049985457
 10
13.05155476561732
 20
-10.13209472402947
 10
13.23006238818554
 20
-10.12324082863238
 10
13.4805208299632
 20
-10.10367268627616
 10
13.74338161548777
 20
-10.0841389948748
 10
13.91656656553127
 20
-10.07435492369669
 10
14.00007568009373
 20
-10.07435492369669
 10
14.06575642552002
 20
-10.07435492369669
 10
14.12750976209312
 20
-10.0876874432246
 10
14.18524956242591
 20
-10.11433525680301
 10
14.24293768632642
 20
-10.14096584490399
 10
14.27184203744766
 20
-10.17560628000818
 10
14.27184203744766
 20
-10.21823933663815
 10
14.27184203744766
 20
-10.23601602934204
 10
14.26650213944553
 20
-10.25379272204593
 10
14.2558567943961
 20
-10.27151773831754
 97
        0
 97
        0
 75
     2
 76
     1
 98
        0
  0
SPLINE
  5
49
330
1F
100
AcDbEntity
  8
Capa 1
370
     0
100
AcDbSpline
210
0.0
220
0.0
230
1.0
 70
    11
 71
     3
 72
    74
 73
    70
 74
     0
 42
0.0000000001
 43
0.0000000001
 12
1.0
 22
0.0
 32
0.0
 13
1.0
 23
0.0
 33
0.0
 40
0.0
 40
0.0
 40
0.0
 40
0.0
 40
1.0
 40
1.0
 40
1.0
 40
2.0
 40
2.0
 40
2.0
 40
3.0
 40
3.0
 40
3.0
 40
4.0
 40
4.0
 40
4.0
 40
5.0
 40
5.0
 40
5.0
 40
6.0
 40
6.0
 40
6.0
 40
7.0
 40
7.0
 40
7.0
 40
8.0
 40
8.0
 40
8.0
 40
9.0
 40
9.0
 40
9.0
 40
10.0
 40
10.0
 40
10.0
 40
11.0
 40
11.0
 40
11.0
 40
12.0
 40
12.0
 40
12.0
 40
13.0
 40
13.0
 40
13.0
 40
14.0
 40
14.0
 40
14.0
 40
15.0
 40
15.0
 40
15.0
 40
16.0
 40
16.0
 40
16.0
 40
17.0
 40
17.0
 40
17.0
 40
18.0
 40
18.0
 40
18.0
 40
19.0
 40
19.0
 40
19.0
 40
20.0
 40
20.0
 40
20.0
 40
21.0
 40
21.0
 40
21.0
 40
22.0
 40
22.0
 40
22.0
 40
23.0
 40
23.0
 40
23.0
 40
23.0
 10
18.68134032736091
 20
-9.331006670844332
 30
0.0
 10
18.68134032736091
 20
-9.405610213577416
 30
0.0
 10
18.61471218067618
 20
-9.598363305977145
 30
0.0
 10
18.48149033826157
 20
-9.909162595178959
 30
0.0
 10
18.33762315079754
 20
-10.24667859986888
 30
0.0
 10
18.19196451368117
 20
-10.53530869962312
 30
0.0
 10
18.04454887786734
 20
-10.77508734539651
 30
0.0
 10
17.86157985664572
 20
-11.07174451763137
 30
0.0
 10
17.71505994565804
 20
-11.22005587827137
 30
0.0
 10
17.6049202429946
 20
-11.22005587827137
 30
0.0
 10
17.50721733503292
 20
-11.22005587827137
 30
0.0
 10
17.4041745290691
 20
-11.12858859313799
 30
0.0
 10
17.29586072701284
 20
-10.94561957191637
 30
0.0
 10
17.21769151045252
 20
-10.81418917915409
 30
0.0
 10
17.13776529519473
 20
-10.63745578076077
 30
0.0
 10
17.05608208123945
 20
-10.415402151259
 30
0.0
 10
17.01698024748186
 20
-10.30348822442065
 30
0.0
 10
16.97787841372428
 20
-10.19159152305974
 30
0.0
 10
16.9388454818764
 20
-10.07969482169883
 30
0.0
 10
16.83046277791044
 20
-10.30882812242279
 30
0.0
 10
16.71143472889506
 20
-10.65785074603345
 30
0.0
 10
16.5817957857851
 20
-11.12679714348566
 30
0.0
 10
16.57290743943316
 20
-11.16407307663606
 30
0.0
 10
16.53783636739332
 20
-11.20317491039365
 30
0.0
 10
16.47658256966557
 20
-11.24403374284871
 30
0.0
 10
16.41529432098298
 20
-11.28489257530378
 30
0.0
 10
16.3686477281127
 20
-11.30528754057645
 30
0.0
 10
16.33667724200958
 20
-11.30528754057645
 30
0.0
 10
16.25675102675178
 20
-11.30528754057645
 30
0.0
 10
16.19546277806919
 20
-11.26890733225222
 30
0.0
 10
16.15284694691665
 20
-11.19604356273918
 30
0.0
 10
16.12087646081353
 20
-11.14278238653722
 30
0.0
 10
16.10489121776197
 20
-11.08414686137827
 30
0.0
 10
16.10489121776197
 20
-11.02020588917203
 30
0.0
 10
16.10489121776197
 20
-10.92608588051501
 30
0.0
 10
16.12087646081353
 20
-10.83995849338376
 30
0.0
 10
16.15284694691665
 20
-10.76175482586859
 30
0.0
 10
16.23453016087192
 20
-10.56459201124774
 30
0.0
 10
16.37133490259119
 20
-10.29017293037017
 30
0.0
 10
16.5631578192099
 20
-9.938480357758435
 30
0.0
 10
16.67860296892063
 20
-9.725332300086027
 30
0.0
 10
16.78695122193173
 20
-9.565462644093008
 30
0.0
 10
16.88820257824323
 20
-9.458888615256805
 30
0.0
 10
16.90239637164246
 20
-9.444694821857576
 30
0.0
 10
16.93705403222407
 20
-9.434032251330727
 30
0.0
 10
16.99214110903321
 20
-9.426918129153686
 30
0.0
 10
17.07206732429101
 20
-9.416255558626839
 30
0.0
 10
17.11909287766467
 20
-9.409193112882075
 30
0.0
 10
17.13332112201875
 20
-9.405610213577416
 30
0.0
 10
17.32693548828979
 20
-9.71999240208389
 30
0.0
 10
17.45040771048115
 20
-10.1507499160821
 30
0.0
 10
17.50366888668311
 20
-10.69781385366235
 30
0.0
 10
17.52675102643428
 20
-10.71913899471605
 30
0.0
 10
17.56316568571338
 20
-10.7529009304715
 30
0.0
 10
17.61291286452038
 20
-10.79906520997384
 30
0.0
 10
17.71592121952935
 20
-10.61967908805689
 30
0.0
 10
17.84380316394182
 20
-10.34703423135421
 30
0.0
 10
17.99659314871266
 20
-9.981113414388401
 30
0.0
 10
18.09426160571949
 20
-9.750223114966957
 30
0.0
 10
18.15820257792572
 20
-9.605425751721906
 30
0.0
 10
18.18841606533137
 20
-9.546824677517806
 30
0.0
 10
18.32339490644345
 20
-9.298157685392473
 30
0.0
 10
18.45220702663695
 20
-9.173806963852382
 30
0.0
 10
18.57474907304728
 20
-9.173806963852382
 30
0.0
 10
18.6280447002041
 20
-9.173806963852382
 30
0.0
 10
18.66177218500469
 20
-9.196027829732243
 30
0.0
 10
18.67600042935878
 20
-9.240417885059687
 30
0.0
 10
18.67954887770858
 20
-9.251063230109109
 30
0.0
 10
18.68134032736091
 20
-9.281293942992177
 30
0.0
 10
18.68134032736091
 20
-9.331006670844332
 30
0.0
  0
HATCH
  5
4A
330
1F
100
AcDbEntity
  8
Capa 1
 62
   250
420
  1842203
100
AcDbHatch
 10
0.0
 20
0.0
 30
0.0
210
0.0
220
0.0
230
1.0
  2
SOLID
 70
     1
 71
     0
 91
        1
 92
        1
 93
        1
 72
     4
 94
        3
 73
     0
 74
     1
 95
       74
 96
       70
 40
0.0
 40
0.0
 40
0.0
 40
0.0
 40
1.0
 40
1.0
 40
1.0
 40
2.0
 40
2.0
 40
2.0
 40
3.0
 40
3.0
 40
3.0
 40
4.0
 40
4.0
 40
4.0
 40
5.0
 40
5.0
 40
5.0
 40
6.0
 40
6.0
 40
6.0
 40
7.0
 40
7.0
 40
7.0
 40
8.0
 40
8.0
 40
8.0
 40
9.0
 40
9.0
 40
9.0
 40
10.0
 40
10.0
 40
10.0
 40
11.0
 40
11.0
 40
11.0
 40
12.0
 40
12.0
 40
12.0
 40
13.0
 40
13.0
 40
13.0
 40
14.0
 40
14.0
 40
14.0
 40
15.0
 40
15.0
 40
15.0
 40
16.0
 40
16.0
 40
16.0
 40
17.0
 40
17.0
 40
17.0
 40
18.0
 40
18.0
 40
18.0
 40
19.0
 40
19.0
 40
19.0
 40
20.0
 40
20.0
 40
20.0
 40
21.0
 40
21.0
 40
21.0
 40
22.0
 40
22.0
 40
22.0
 40
23.0
 40
23.0
 40
23.0
 40
23.0
 10
18.68134032736091
 20
-9.331006670844332
 10
18.68134032736091
 20
-9.405610213577416
 10
18.61471218067618
 20
-9.598363305977145
 10
18.48149033826157
 20
-9.909162595178959
 10
18.33762315079754
 20
-10.24667859986888
 10
18.19196451368117
 20
-10.53530869962312
 10
18.04454887786734
 20
-10.77508734539651
 10
17.86157985664572
 20
-11.07174451763137
 10
17.71505994565804
 20
-11.22005587827137
 10
17.6049202429946
 20
-11.22005587827137
 10
17.50721733503292
 20
-11.22005587827137
 10
17.4041745290691
 20
-11.12858859313799
 10
17.29586072701284
 20
-10.94561957191637
 10
17.21769151045252
 20
-10.81418917915409
 10
17.13776529519473
 20
-10.63745578076077
 10
17.05608208123945
 20
-10.415402151259
 10
17.01698024748186
 20
-10.30348822442065
 10
16.97787841372428
 20
-10.19159152305974
 10
16.9388454818764
 20
-10.07969482169883
 10
16.83046277791044
 20
-10.30882812242279
 10
16.71143472889506
 20
-10.65785074603345
 10
16.5817957857851
 20
-11.12679714348566
 10
16.57290743943316
 20
-11.16407307663606
 10
16.53783636739332
 20
-11.20317491039365
 10
16.47658256966557
 20
-11.24403374284871
 10
16.41529432098298
 20
-11.28489257530378
 10
16.3686477281127
 20
-11.30528754057645
 10
16.33667724200958
 20
-11.30528754057645
 10
16.25675102675178
 20
-11.30528754057645
 10
16.19546277806919
 20
-11.26890733225222
 10
16.15284694691665
 20
-11.19604356273918
 10
16.12087646081353
 20
-11.14278238653722
 10
16.10489121776197
 20
-11.08414686137827
 10
16.10489121776197
 20
-11.02020588917203
 10
16.10489121776197
 20
-10.92608588051501
 10
16.12087646081353
 20
-10.83995849338376
 10
16.15284694691665
 20
-10.76175482586859
 10
16.23453016087192
 20
-10.56459201124774
 10
16.37133490259119
 20
-10.29017293037017
 10
16.5631578192099
 20
-9.938480357758435
 10
16.67860296892063
 20
-9.725332300086027
 10
16.78695122193173
 20
-9.565462644093008
 10
16.88820257824323
 20
-9.458888615256805
 10
16.90239637164246
 20
-9.444694821857576
 10
16.93705403222407
 20
-9.434032251330727
 10
16.99214110903321
 20
-9.426918129153686
 10
17.07206732429101
 20
-9.416255558626839
 10
17.11909287766467
 20
-9.409193112882075
 10
17.13332112201875
 20
-9.405610213577416
 10
17.32693548828979
 20
-9.71999240208389
 10
17.45040771048115
 20
-10.1507499160821
 10
17.50366888668311
 20
-10.69781385366235
 10
17.52675102643428
 20
-10.71913899471605
 10
17.56316568571338
 20
-10.7529009304715
 10
17.61291286452038
 20
-10.79906520997384
 10
17.71592121952935
 20
-10.61967908805689
 10
17.84380316394182
 20
-10.34703423135421
 10
17.99659314871266
 20
-9.981113414388401
 10
18.09426160571949
 20
-9.750223114966957
 10
18.15820257792572
 20
-9.605425751721906
 10
18.18841606533137
 20
-9.546824677517806
 10
18.32339490644345
 20
-9.298157685392473
 10
18.45220702663695
 20
-9.173806963852382
 10
18.57474907304728
 20
-9.173806963852382
 10
18.6280447002041
 20
-9.173806963852382
 10
18.66177218500469
 20
-9.196027829732243
 10
18.67600042935878
 20
-9.240417885059687
 10
18.67954887770858
 20
-9.251063230109109
 10
18.68134032736091
 20
-9.281293942992177
 10
18.68134032736091
 20
-9.331006670844332
 97
        0
 97
        0
 75
     2
 76
     1
 98
        0
  0
SPLINE
  5
4B
330
1F
100
AcDbEntity
  8
Capa 1
370
     0
100
AcDbSpline
210
0.0
220
0.0
230
1.0
 70
    11
 71
     3
 72
    74
 73
    70
 74
     0
 42
0.0000000001
 43
0.0000000001
 12
1.0
 22
0.0
 32
0.0
 13
1.0
 23
0.0
 33
0.0
 40
0.0
 40
0.0
 40
0.0
 40
0.0
 40
1.0
 40
1.0
 40
1.0
 40
2.0
 40
2.0
 40
2.0
 40
3.0
 40
3.0
 40
3.0
 40
4.0
 40
4.0
 40
4.0
 40
5.0
 40
5.0
 40
5.0
 40
6.0
 40
6.0
 40
6.0
 40
7.0
 40
7.0
 40
7.0
 40
8.0
 40
8.0
 40
8.0
 40
9.0
 40
9.0
 40
9.0
 40
10.0
 40
10.0
 40
10.0
 40
11.0
 40
11.0
 40
11.0
 40
12.0
 40
12.0
 40
12.0
 40
13.0
 40
13.0
 40
13.0
 40
14.0
 40
14.0
 40
14.0
 40
15.0
 40
15.0
 40
15.0
 40
16.0
 40
16.0
 40
16.0
 40
17.0
 40
17.0
 40
17.0
 40
18.0
 40
18.0
 40
18.0
 40
19.0
 40
19.0
 40
19.0
 40
20.0
 40
20.0
 40
20.0
 40
21.0
 40
21.0
 40
21.0
 40
22.0
 40
22.0
 40
22.0
 40
23.0
 40
23.0
 40
23.0
 40
23.0
 10
23.38393011568179
 20
-9.946472979284215
 30
0.0
 10
23.38393011568179
 20
-10.16494370948133
 30
0.0
 10
23.21339788916193
 20
-10.38343166515588
 30
0.0
 10
22.87236788707704
 20
-10.601902395353
 30
0.0
 10
22.62897189104415
 20
-10.76003227812596
 30
0.0
 10
22.31105847966529
 20
-10.90923936359213
 30
0.0
 10
21.91852430007592
 20
-11.04952365175151
 30
0.0
 10
21.90784450407165
 20
-11.05310655105617
 30
0.0
 10
21.7355552788543
 20
-11.10812472595561
 30
0.0
 10
21.40162217346904
 20
-11.21471598026924
 30
0.0
 10
21.29678791785289
 20
-11.24847791602468
 30
0.0
 10
21.15205945651754
 20
-11.30349609092413
 30
0.0
 10
20.96733343659844
 20
-11.37990830878697
 30
0.0
 10
20.86608208028695
 20
-11.42073269028718
 30
0.0
 10
20.77992024220085
 20
-11.44119655746956
 30
0.0
 10
20.708882373295
 20
-11.44119655746956
 30
0.0
 10
20.63784450438915
 20
-11.44119655746956
 30
0.0
 10
20.59164577393195
 20
-11.42786403794164
 30
0.0
 10
20.5703550838331
 20
-11.40123344984066
 30
0.0
 10
20.55436984078154
 20
-11.37990830878697
 30
0.0
 10
20.54637721925577
 20
-11.33815375150574
 30
0.0
 10
20.54637721925577
 20
-11.27600422895183
 30
0.0
 10
20.54637721925577
 20
-11.14278238653722
 30
0.0
 10
20.58985432427962
 20
-10.9336306396277
 30
0.0
 10
20.67691188719188
 20
-10.64854898822328
 30
0.0
 10
20.76393499914929
 20
-10.36345011134143
 30
0.0
 10
20.80748100608285
 20
-10.16141248660895
 30
0.0
 10
20.80748100608285
 20
-10.04238443759357
 30
0.0
 10
20.80748100608285
 20
-9.973120792862622
 30
0.0
 10
20.79769693490474
 20
-9.91095404483129
 30
0.0
 10
20.77816324350337
 20
-9.85588419349957
 30
0.0
 10
20.79769693490474
 20
-9.825705157048782
 30
0.0
 10
20.83411159418383
 20
-9.810581187868534
 30
0.0
 10
20.88740722134064
 20
-9.810581187868534
 30
0.0
 10
20.91403780944163
 20
-9.810581187868534
 30
0.0
 10
20.9433555720211
 20
-9.815042586521933
 30
0.0
 10
20.97532605812422
 20
-9.823913707396452
 30
0.0
 10
21.0019566462252
 20
-9.788394772943526
 30
0.0
 10
21.02417751210507
 20
-9.724453800737288
 30
0.0
 10
21.04195420480896
 20
-9.632073565300315
 30
0.0
 10
21.05966199560314
 20
-9.52729098611644
 30
0.0
 10
21.07657741443571
 20
-9.458888615256805
 30
0.0
 10
21.09256265748727
 20
-9.426918129153686
 30
0.0
 10
21.12453314359039
 20
-9.361220158249973
 30
0.0
 10
21.17603732109488
 20
-9.328336721843263
 30
0.0
 10
21.24710964095558
 20
-9.328336721843263
 30
0.0
 10
21.2666088814021
 20
-9.328336721843263
 30
0.0
 10
21.28879529632711
 20
-9.331006670844332
 30
0.0
 10
21.31370333668546
 20
-9.336329343369043
 30
0.0
 10
21.34743082148606
 20
-9.361220158249973
 30
0.0
 10
21.36431178936378
 20
-9.401200491356297
 30
0.0
 10
21.36431178936378
 20
-9.456235891733163
 30
0.0
 10
21.36431178936378
 20
-9.456235891733163
 30
0.0
 10
21.36431178936378
 20
-9.472221134784721
 30
0.0
 10
21.36431178936378
 20
-9.472221134784721
 30
0.0
 10
21.36431178936378
 20
-9.51130574306488
 30
0.0
 10
21.36875596253975
 20
-9.543276229167999
 30
0.0
 10
21.3776443088917
 20
-9.568132593094077
 30
0.0
 10
21.63165119901917
 20
-9.436702200331796
 30
0.0
 10
21.80835014645763
 20
-9.35856743472633
 30
0.0
 10
21.90784450407165
 20
-9.333659394367974
 30
0.0
 10
21.97533392462769
 20
-9.317674151316414
 30
0.0
 10
22.12274956044153
 20
-9.309681529790634
 30
0.0
 10
22.35012586246802
 20
-9.309681529790634
 30
0.0
 10
22.62366644399686
 20
-9.309681529790634
 30
0.0
 10
22.83505750297179
 20
-9.337242293672633
 30
0.0
 10
22.98426458843796
 20
-9.392277694049499
 30
0.0
 10
23.25070827326718
 20
-9.488206377836281
 30
0.0
 10
23.38393011568179
 20
-9.672949623232803
 30
0.0
 10
23.38393011568179
 20
-9.946472979284215
 30
0.0
  0
SPLINE
  5
4C
330
1F
100
AcDbEntity
  8
Capa 1
370
     0
100
AcDbSpline
210
0.0
220
0.0
230
1.0
 70
    11
 71
     3
 72
    32
 73
    28
 74
     0
 42
0.0000000001
 43
0.0000000001
 12
1.0
 22
0.0
 32
0.0
 13
1.0
 23
0.0
 33
0.0
 40
0.0
 40
0.0
 40
0.0
 40
0.0
 40
1.0
 40
1.0
 40
1.0
 40
2.0
 40
2.0
 40
2.0
 40
3.0
 40
3.0
 40
3.0
 40
4.0
 40
4.0
 40
4.0
 40
5.0
 40
5.0
 40
5.0
 40
6.0
 40
6.0
 40
6.0
 40
7.0
 40
7.0
 40
7.0
 40
8.0
 40
8.0
 40
8.0
 40
9.0
 40
9.0
 40
9.0
 40
9.0
 10
23.05085828416784
 20
-10.02374647101837
 30
0.0
 10
23.05085828416784
 20
-9.883444957381569
 30
0.0
 10
22.93451740963095
 20
-9.775079478893035
 30
0.0
 10
22.70183566055718
 20
-9.69868448650762
 30
0.0
 10
22.53840033073693
 20
-9.645406084828231
 30
0.0
 10
22.38120062374498
 20
-9.618758271249824
 30
0.0
 10
22.23023653958133
 20
-9.618758271249824
 30
0.0
 10
21.99045789380794
 20
-9.618758271249824
 30
0.0
 10
21.77286566295956
 20
-9.66938394940557
 30
0.0
 10
21.57745984703619
 20
-9.770618080239636
 30
0.0
 10
21.51172742517762
 20
-9.804380015995084
 30
0.0
 10
21.44513372944774
 20
-9.838141951750533
 30
0.0
 10
21.3776443088917
 20
-9.87186943655113
 30
0.0
 10
21.29947509233138
 20
-9.916293942833425
 30
0.0
 10
21.25510226248136
 20
-9.949142928285283
 30
0.0
 10
21.24442246647709
 20
-9.970450843861553
 30
0.0
 10
21.18048149427085
 20
-10.09659301505398
 30
0.0
 10
21.12188042006675
 20
-10.26178534357171
 30
0.0
 10
21.06858479290993
 20
-10.46602782941474
 30
0.0
 10
21.0259689617574
 20
-10.63656005593461
 30
0.0
 10
20.98331867965
 20
-10.80705783149962
 30
0.0
 10
20.94070284849746
 20
-10.97759005801949
 30
0.0
 10
21.21066053072164
 20
-10.90124674206635
 30
0.0
 10
21.60853460831314
 20
-10.7840101427033
 30
0.0
 10
22.13432508127197
 20
-10.62588025993034
 30
0.0
 10
22.74534721653588
 20
-10.43050889496182
 30
0.0
 10
23.05085828416784
 20
-10.22981485746859
 30
0.0
 10
23.05085828416784
 20
-10.02374647101837
 30
0.0
  0
HATCH
  5
4D
330
1F
100
AcDbEntity
  8
Capa 1
 62
   250
420
  1842203
100
AcDbHatch
 10
0.0
 20
0.0
 30
0.0
210
0.0
220
0.0
230
1.0
  2
SOLID
 70
     1
 71
     0
 91
        2
 92
        1
 93
        1
 72
     4
 94
        3
 73
     0
 74
     1
 95
       74
 96
       70
 40
0.0
 40
0.0
 40
0.0
 40
0.0
 40
1.0
 40
1.0
 40
1.0
 40
2.0
 40
2.0
 40
2.0
 40
3.0
 40
3.0
 40
3.0
 40
4.0
 40
4.0
 40
4.0
 40
5.0
 40
5.0
 40
5.0
 40
6.0
 40
6.0
 40
6.0
 40
7.0
 40
7.0
 40
7.0
 40
8.0
 40
8.0
 40
8.0
 40
9.0
 40
9.0
 40
9.0
 40
10.0
 40
10.0
 40
10.0
 40
11.0
 40
11.0
 40
11.0
 40
12.0
 40
12.0
 40
12.0
 40
13.0
 40
13.0
 40
13.0
 40
14.0
 40
14.0
 40
14.0
 40
15.0
 40
15.0
 40
15.0
 40
16.0
 40
16.0
 40
16.0
 40
17.0
 40
17.0
 40
17.0
 40
18.0
 40
18.0
 40
18.0
 40
19.0
 40
19.0
 40
19.0
 40
20.0
 40
20.0
 40
20.0
 40
21.0
 40
21.0
 40
21.0
 40
22.0
 40
22.0
 40
22.0
 40
23.0
 40
23.0
 40
23.0
 40
23.0
 10
23.38393011568179
 20
-9.946472979284215
 10
23.38393011568179
 20
-10.16494370948133
 10
23.21339788916193
 20
-10.38343166515588
 10
22.87236788707704
 20
-10.601902395353
 10
22.62897189104415
 20
-10.76003227812596
 10
22.31105847966529
 20
-10.90923936359213
 10
21.91852430007592
 20
-11.04952365175151
 10
21.90784450407165
 20
-11.05310655105617
 10
21.7355552788543
 20
-11.10812472595561
 10
21.40162217346904
 20
-11.21471598026924
 10
21.29678791785289
 20
-11.24847791602468
 10
21.15205945651754
 20
-11.30349609092413
 10
20.96733343659844
 20
-11.37990830878697
 10
20.86608208028695
 20
-11.42073269028718
 10
20.77992024220085
 20
-11.44119655746956
 10
20.708882373295
 20
-11.44119655746956
 10
20.63784450438915
 20
-11.44119655746956
 10
20.59164577393195
 20
-11.42786403794164
 10
20.5703550838331
 20
-11.40123344984066
 10
20.55436984078154
 20
-11.37990830878697
 10
20.54637721925577
 20
-11.33815375150574
 10
20.54637721925577
 20
-11.27600422895183
 10
20.54637721925577
 20
-11.14278238653722
 10
20.58985432427962
 20
-10.9336306396277
 10
20.67691188719188
 20
-10.64854898822328
 10
20.76393499914929
 20
-10.36345011134143
 10
20.80748100608285
 20
-10.16141248660895
 10
20.80748100608285
 20
-10.04238443759357
 10
20.80748100608285
 20
-9.973120792862622
 10
20.79769693490474
 20
-9.91095404483129
 10
20.77816324350337
 20
-9.85588419349957
 10
20.79769693490474
 20
-9.825705157048782
 10
20.83411159418383
 20
-9.810581187868534
 10
20.88740722134064
 20
-9.810581187868534
 10
20.91403780944163
 20
-9.810581187868534
 10
20.9433555720211
 20
-9.815042586521933
 10
20.97532605812422
 20
-9.823913707396452
 10
21.0019566462252
 20
-9.788394772943526
 10
21.02417751210507
 20
-9.724453800737288
 10
21.04195420480896
 20
-9.632073565300315
 10
21.05966199560314
 20
-9.52729098611644
 10
21.07657741443571
 20
-9.458888615256805
 10
21.09256265748727
 20
-9.426918129153686
 10
21.12453314359039
 20
-9.361220158249973
 10
21.17603732109488
 20
-9.328336721843263
 10
21.24710964095558
 20
-9.328336721843263
 10
21.2666088814021
 20
-9.328336721843263
 10
21.28879529632711
 20
-9.331006670844332
 10
21.31370333668546
 20
-9.336329343369043
 10
21.34743082148606
 20
-9.361220158249973
 10
21.36431178936378
 20
-9.401200491356297
 10
21.36431178936378
 20
-9.456235891733163
 10
21.36431178936378
 20
-9.456235891733163
 10
21.36431178936378
 20
-9.472221134784721
 10
21.36431178936378
 20
-9.472221134784721
 10
21.36431178936378
 20
-9.51130574306488
 10
21.36875596253975
 20
-9.543276229167999
 10
21.3776443088917
 20
-9.568132593094077
 10
21.63165119901917
 20
-9.436702200331796
 10
21.80835014645763
 20
-9.35856743472633
 10
21.90784450407165
 20
-9.333659394367974
 10
21.97533392462769
 20
-9.317674151316414
 10
22.12274956044153
 20
-9.309681529790634
 10
22.35012586246802
 20
-9.309681529790634
 10
22.62366644399686
 20
-9.309681529790634
 10
22.83505750297179
 20
-9.337242293672633
 10
22.98426458843796
 20
-9.392277694049499
 10
23.25070827326718
 20
-9.488206377836281
 10
23.38393011568179
 20
-9.672949623232803
 10
23.38393011568179
 20
-9.946472979284215
 97
        0
 97
        0
 92
        1
 93
        1
 72
     4
 94
        3
 73
     0
 74
     1
 95
       32
 96
       28
 40
0.0
 40
0.0
 40
0.0
 40
0.0
 40
1.0
 40
1.0
 40
1.0
 40
2.0
 40
2.0
 40
2.0
 40
3.0
 40
3.0
 40
3.0
 40
4.0
 40
4.0
 40
4.0
 40
5.0
 40
5.0
 40
5.0
 40
6.0
 40
6.0
 40
6.0
 40
7.0
 40
7.0
 40
7.0
 40
8.0
 40
8.0
 40
8.0
 40
9.0
 40
9.0
 40
9.0
 40
9.0
 10
23.05085828416784
 20
-10.02374647101837
 10
23.05085828416784
 20
-9.883444957381569
 10
22.93451740963095
 20
-9.775079478893035
 10
22.70183566055718
 20
-9.69868448650762
 10
22.53840033073693
 20
-9.645406084828231
 10
22.38120062374498
 20
-9.618758271249824
 10
22.23023653958133
 20
-9.618758271249824
 10
21.99045789380794
 20
-9.618758271249824
 10
21.77286566295956
 20
-9.66938394940557
 10
21.57745984703619
 20
-9.770618080239636
 10
21.51172742517762
 20
-9.804380015995084
 10
21.44513372944774
 20
-9.838141951750533
 10
21.3776443088917
 20
-9.87186943655113
 10
21.29947509233138
 20
-9.916293942833425
 10
21.25510226248136
 20
-9.949142928285283
 10
21.24442246647709
 20
-9.970450843861553
 10
21.18048149427085
 20
-10.09659301505398
 10
21.12188042006675
 20
-10.26178534357171
 10
21.06858479290993
 20
-10.46602782941474
 10
21.0259689617574
 20
-10.63656005593461
 10
20.98331867965
 20
-10.80705783149962
 10
20.94070284849746
 20
-10.97759005801949
 10
21.21066053072164
 20
-10.90124674206635
 10
21.60853460831314
 20
-10.7840101427033
 10
22.13432508127197
 20
-10.62588025993034
 10
22.74534721653588
 20
-10.43050889496182
 10
23.05085828416784
 20
-10.22981485746859
 10
23.05085828416784
 20
-10.02374647101837
 97
        0
 97
        0
 75
     2
 76
     1
 98
        0
  0
SPLINE
  5
4E
330
1F
100
AcDbEntity
  8
Capa 1
370
     0
100
AcDbSpline
210
0.0
220
0.0
230
1.0
 70
    11
 71
     3
 72
    77
 73
    73
 74
     0
 42
0.0000000001
 43
0.0000000001
 12
1.0
 22
0.0
 32
0.0
 13
1.0
 23
0.0
 33
0.0
 40
0.0
 40
0.0
 40
0.0
 40
0.0
 40
1.0
 40
1.0
 40
1.0
 40
2.0
 40
2.0
 40
2.0
 40
3.0
 40
3.0
 40
3.0
 40
4.0
 40
4.0
 40
4.0
 40
5.0
 40
5.0
 40
5.0
 40
6.0
 40
6.0
 40
6.0
 40
7.0
 40
7.0
 40
7.0
 40
8.0
 40
8.0
 40
8.0
 40
9.0
 40
9.0
 40
9.0
 40
10.0
 40
10.0
 40
10.0
 40
11.0
 40
11.0
 40
11.0
 40
12.0
 40
12.0
 40
12.0
 40
13.0
 40
13.0
 40
13.0
 40
14.0
 40
14.0
 40
14.0
 40
15.0
 40
15.0
 40
15.0
 40
16.0
 40
16.0
 40
16.0
 40
17.0
 40
17.0
 40
17.0
 40
18.0
 40
18.0
 40
18.0
 40
19.0
 40
19.0
 40
19.0
 40
20.0
 40
20.0
 40
20.0
 40
21.0
 40
21.0
 40
21.0
 40
22.0
 40
22.0
 40
22.0
 40
23.0
 40
23.0
 40
23.0
 40
24.0
 40
24.0
 40
24.0
 40
24.0
 10
27.03411213516855
 20
-10.96691026201522
 30
0.0
 10
27.03411213516855
 20
-11.11970024678605
 30
0.0
 10
26.93020805533342
 20
-11.25292208920066
 30
0.0
 10
26.7223654447083
 20
-11.36657578925905
 30
0.0
 10
26.56785291219484
 20
-11.45184190251898
 30
0.0
 10
26.36621147344317
 20
-11.52112277272736
 30
0.0
 10
26.11757893227269
 20
-11.57438394892932
 30
0.0
 10
25.93460991105107
 20
-11.61345133173205
 30
0.0
 10
25.80049234381029
 20
-11.63301947408827
 30
0.0
 10
25.71522623055036
 20
-11.63301947408827
 30
0.0
 10
25.68146429479491
 20
-11.63301947408827
 30
0.0
 10
25.61400932519372
 20
-11.62144395325783
 30
0.0
 10
25.51275796888223
 20
-11.59839626446151
 30
0.0
 10
25.39552136951917
 20
-11.57173122540568
 30
0.0
 10
25.30136690990729
 20
-11.54330918765237
 30
0.0
 10
25.23032904100144
 20
-11.51313015120158
 30
0.0
 10
25.23032904100144
 20
-11.51313015120158
 30
0.0
 10
25.23032904100144
 20
-11.39854627536217
 30
0.0
 10
25.23032904100144
 20
-11.39854627536217
 30
0.0
 10
25.22853759134911
 20
-11.299086368703
 30
0.0
 10
25.27563204663248
 20
-11.21206325674559
 30
0.0
 10
25.37154350494183
 20
-11.13744248853508
 30
0.0
 10
25.37154350494183
 20
-11.13744248853508
 30
0.0
 10
26.10424641274477
 20
-11.2093760822671
 30
0.0
 10
26.10424641274477
 20
-11.2093760822671
 30
0.0
 10
26.29782632806096
 20
-11.20231363652234
 30
0.0
 10
26.47900389963025
 20
-11.14722655971319
 30
0.0
 10
26.64777912745264
 20
-11.04418375374937
 30
0.0
 10
26.64777912745264
 20
-11.04418375374937
 30
0.0
 10
26.64777912745264
 20
-10.98558267954527
 30
0.0
 10
26.64777912745264
 20
-10.98558267954527
 30
0.0
 10
26.53939642348668
 20
-10.84881238878085
 30
0.0
 10
26.34137233499452
 20
-10.76089355199728
 30
0.0
 10
26.0536035091116
 20
-10.72179171823969
 30
0.0
 10
25.82622720708511
 20
-10.69340413144123
 30
0.0
 10
25.59974662988478
 20
-10.66498209368792
 30
0.0
 10
25.37419622846548
 20
-10.63656005593461
 30
0.0
 10
25.15746527148841
 20
-10.57971598042799
 30
0.0
 10
25.04915146943215
 20
-10.45269530988683
 30
0.0
 10
25.04915146943215
 20
-10.25553249526598
 30
0.0
 10
25.04915146943215
 20
-10.12944200050583
 30
0.0
 10
25.13972302973937
 20
-9.988227536565443
 30
0.0
 10
25.32090060130866
 20
-9.831906328922232
 30
0.0
 10
25.47365613512464
 20
-9.702267385812279
 30
0.0
 10
25.6592778798699
 20
-9.584117836145637
 30
0.0
 10
25.87776583554444
 20
-9.477543807309432
 30
0.0
 10
26.08202554686491
 20
-9.3798753503026
 30
0.0
 10
26.23119818137623
 20
-9.331006670844332
 30
0.0
 10
26.32538709194296
 20
-9.331006670844332
 30
0.0
 10
26.45681748470524
 20
-9.331006670844332
 30
0.0
 10
26.5314038019609
 20
-9.33279812049666
 30
0.0
 10
26.54918049466479
 20
-9.336329343369043
 30
0.0
 10
26.62200981322297
 20
-9.354106036072931
 30
0.0
 10
26.6548415731974
 20
-9.402940264576348
 30
0.0
 10
26.64777912745264
 20
-9.482866479834144
 30
0.0
 10
26.63885633014584
 20
-9.584117836145637
 30
0.0
 10
26.54559759536013
 20
-9.664957001707023
 30
0.0
 10
26.3680029230955
 20
-9.725332300086027
 30
0.0
 10
26.19922769527311
 20
-9.776870928545366
 30
0.0
 10
26.03138264323174
 20
-9.828357880572424
 30
0.0
 10
25.86443331601653
 20
-9.87986205807691
 30
0.0
 10
25.68146429479491
 20
-9.956257050462323
 30
0.0
 10
25.58024738943827
 20
-10.06283107929853
 30
0.0
 10
25.5607136980369
 20
-10.19958414458552
 30
0.0
 10
25.74364826830367
 20
-10.22623195816393
 30
0.0
 10
25.92572156469912
 20
-10.25287977174233
 30
0.0
 10
26.10689913626841
 20
-10.27951035984332
 30
0.0
 10
26.3804052668424
 20
-10.32214341647328
 30
0.0
 10
26.59003932711985
 20
-10.38522311480821
 30
0.0
 10
26.73569796423621
 20
-10.46868055293838
 30
0.0
 10
26.93461777755454
 20
-10.58591715230144
 30
0.0
 10
27.03411213516855
 20
-10.75203965660018
 30
0.0
 10
27.03411213516855
 20
-10.96691026201522
 30
0.0
  0
HATCH
  5
4F
330
1F
100
AcDbEntity
  8
Capa 1
 62
   250
420
  1842203
100
AcDbHatch
 10
0.0
 20
0.0
 30
0.0
210
0.0
220
0.0
230
1.0
  2
SOLID
 70
     1
 71
     0
 91
        1
 92
        1
 93
        1
 72
     4
 94
        3
 73
     0
 74
     1
 95
       77
 96
       73
 40
0.0
 40
0.0
 40
0.0
 40
0.0
 40
1.0
 40
1.0
 40
1.0
 40
2.0
 40
2.0
 40
2.0
 40
3.0
 40
3.0
 40
3.0
 40
4.0
 40
4.0
 40
4.0
 40
5.0
 40
5.0
 40
5.0
 40
6.0
 40
6.0
 40
6.0
 40
7.0
 40
7.0
 40
7.0
 40
8.0
 40
8.0
 40
8.0
 40
9.0
 40
9.0
 40
9.0
 40
10.0
 40
10.0
 40
10.0
 40
11.0
 40
11.0
 40
11.0
 40
12.0
 40
12.0
 40
12.0
 40
13.0
 40
13.0
 40
13.0
 40
14.0
 40
14.0
 40
14.0
 40
15.0
 40
15.0
 40
15.0
 40
16.0
 40
16.0
 40
16.0
 40
17.0
 40
17.0
 40
17.0
 40
18.0
 40
18.0
 40
18.0
 40
19.0
 40
19.0
 40
19.0
 40
20.0
 40
20.0
 40
20.0
 40
21.0
 40
21.0
 40
21.0
 40
22.0
 40
22.0
 40
22.0
 40
23.0
 40
23.0
 40
23.0
 40
24.0
 40
24.0
 40
24.0
 40
24.0
 10
27.03411213516855
 20
-10.96691026201522
 10
27.03411213516855
 20
-11.11970024678605
 10
26.93020805533342
 20
-11.25292208920066
 10
26.7223654447083
 20
-11.36657578925905
 10
26.56785291219484
 20
-11.45184190251898
 10
26.36621147344317
 20
-11.52112277272736
 10
26.11757893227269
 20
-11.57438394892932
 10
25.93460991105107
 20
-11.61345133173205
 10
25.80049234381029
 20
-11.63301947408827
 10
25.71522623055036
 20
-11.63301947408827
 10
25.68146429479491
 20
-11.63301947408827
 10
25.61400932519372
 20
-11.62144395325783
 10
25.51275796888223
 20
-11.59839626446151
 10
25.39552136951917
 20
-11.57173122540568
 10
25.30136690990729
 20
-11.54330918765237
 10
25.23032904100144
 20
-11.51313015120158
 10
25.23032904100144
 20
-11.51313015120158
 10
25.23032904100144
 20
-11.39854627536217
 10
25.23032904100144
 20
-11.39854627536217
 10
25.22853759134911
 20
-11.299086368703
 10
25.27563204663248
 20
-11.21206325674559
 10
25.37154350494183
 20
-11.13744248853508
 10
25.37154350494183
 20
-11.13744248853508
 10
26.10424641274477
 20
-11.2093760822671
 10
26.10424641274477
 20
-11.2093760822671
 10
26.29782632806096
 20
-11.20231363652234
 10
26.47900389963025
 20
-11.14722655971319
 10
26.64777912745264
 20
-11.04418375374937
 10
26.64777912745264
 20
-11.04418375374937
 10
26.64777912745264
 20
-10.98558267954527
 10
26.64777912745264
 20
-10.98558267954527
 10
26.53939642348668
 20
-10.84881238878085
 10
26.34137233499452
 20
-10.76089355199728
 10
26.0536035091116
 20
-10.72179171823969
 10
25.82622720708511
 20
-10.69340413144123
 10
25.59974662988478
 20
-10.66498209368792
 10
25.37419622846548
 20
-10.63656005593461
 10
25.15746527148841
 20
-10.57971598042799
 10
25.04915146943215
 20
-10.45269530988683
 10
25.04915146943215
 20
-10.25553249526598
 10
25.04915146943215
 20
-10.12944200050583
 10
25.13972302973937
 20
-9.988227536565443
 10
25.32090060130866
 20
-9.831906328922232
 10
25.47365613512464
 20
-9.702267385812279
 10
25.6592778798699
 20
-9.584117836145637
 10
25.87776583554444
 20
-9.477543807309432
 10
26.08202554686491
 20
-9.3798753503026
 10
26.23119818137623
 20
-9.331006670844332
 10
26.32538709194296
 20
-9.331006670844332
 10
26.45681748470524
 20
-9.331006670844332
 10
26.5314038019609
 20
-9.33279812049666
 10
26.54918049466479
 20
-9.336329343369043
 10
26.62200981322297
 20
-9.354106036072931
 10
26.6548415731974
 20
-9.402940264576348
 10
26.64777912745264
 20
-9.482866479834144
 10
26.63885633014584
 20
-9.584117836145637
 10
26.54559759536013
 20
-9.664957001707023
 10
26.3680029230955
 20
-9.725332300086027
 10
26.19922769527311
 20
-9.776870928545366
 10
26.03138264323174
 20
-9.828357880572424
 10
25.86443331601653
 20
-9.87986205807691
 10
25.68146429479491
 20
-9.956257050462323
 10
25.58024738943827
 20
-10.06283107929853
 10
25.5607136980369
 20
-10.19958414458552
 10
25.74364826830367
 20
-10.22623195816393
 10
25.92572156469912
 20
-10.25287977174233
 10
26.10689913626841
 20
-10.27951035984332
 10
26.3804052668424
 20
-10.32214341647328
 10
26.59003932711985
 20
-10.38522311480821
 10
26.73569796423621
 20
-10.46868055293838
 10
26.93461777755454
 20
-10.58591715230144
 10
27.03411213516855
 20
-10.75203965660018
 10
27.03411213516855
 20
-10.96691026201522
 97
        0
 97
        0
 75
     2
 76
     1
 98
        0
  0
SPLINE
  5
50
330
1F
100
AcDbEntity
  8
Capa 1
370
     0
100
AcDbSpline
210
0.0
220
0.0
230
1.0
 70
    11
 71
     3
 72
    17
 73
    13
 74
     0
 42
0.0000000001
 43
0.0000000001
 12
1.0
 22
0.0
 32
0.0
 13
1.0
 23
0.0
 33
0.0
 40
0.0
 40
0.0
 40
0.0
 40
0.0
 40
1.0
 40
1.0
 40
1.0
 40
2.0
 40
2.0
 40
2.0
 40
3.0
 40
3.0
 40
3.0
 40
4.0
 40
4.0
 40
4.0
 40
4.0
 10
4.259435666898087
 20
-10.02524291806824
 30
0.0
 10
4.259435666898087
 20
-10.21827367123695
 30
0.0
 10
4.102953323377139
 20
-10.37475601477901
 30
0.0
 10
3.909922570234417
 20
-10.37475601477901
 30
0.0
 10
3.716891817091696
 20
-10.37475601477901
 30
0.0
 10
3.560409473570779
 20
-10.21827367123695
 30
0.0
 10
3.560409473570779
 20
-10.02524291806824
 30
0.0
 10
3.560409473570779
 20
-9.832212164899566
 30
0.0
 10
3.716891817091696
 20
-9.675729821357505
 30
0.0
 10
3.909922570234417
 20
-9.675729821357505
 30
0.0
 10
4.102953323377139
 20
-9.675729821357505
 30
0.0
 10
4.259435666898087
 20
-9.832212164899566
 30
0.0
 10
4.259435666898087
 20
-10.02524291806824
 30
0.0
  0
HATCH
  5
51
330
1F
100
AcDbEntity
  8
Capa 1
 62
    22
420
 14951456
100
AcDbHatch
 10
0.0
 20
0.0
 30
0.0
210
0.0
220
0.0
230
1.0
  2
SOLID
 70
     1
 71
     0
 91
        1
 92
        1
 93
        1
 72
     4
 94
        3
 73
     0
 74
     1
 95
       17
 96
       13
 40
0.0
 40
0.0
 40
0.0
 40
0.0
 40
1.0
 40
1.0
 40
1.0
 40
2.0
 40
2.0
 40
2.0
 40
3.0
 40
3.0
 40
3.0
 40
4.0
 40
4.0
 40
4.0
 40
4.0
 10
4.259435666898087
 20
-10.02524291806824
 10
4.259435666898087
 20
-10.21827367123695
 10
4.102953323377139
 20
-10.37475601477901
 10
3.909922570234417
 20
-10.37475601477901
 10
3.716891817091696
 20
-10.37475601477901
 10
3.560409473570779
 20
-10.21827367123695
 10
3.560409473570779
 20
-10.02524291806824
 10
3.560409473570779
 20
-9.832212164899566
 10
3.716891817091696
 20
-9.675729821357505
 10
3.909922570234417
 20
-9.675729821357505
 10
4.102953323377139
 20
-9.675729821357505
 10
4.259435666898087
 20
-9.832212164899566
 10
4.259435666898087
 20
-10.02524291806824
 97
        0
 97
        0
 75
     2
 76
     1
 98
        0
  0
SPLINE
  5
52
330
1F
100
AcDbEntity
  8
Capa 1
370
     0
100
AcDbSpline
210
0.0
220
0.0
230
1.0
 70
    11
 71
     3
 72
    17
 73
    13
 74
     0
 42
0.0000000001
 43
0.0000000001
 12
1.0
 22
0.0
 32
0.0
 13
1.0
 23
0.0
 33
0.0
 40
0.0
 40
0.0
 40
0.0
 40
0.0
 40
1.0
 40
1.0
 40
1.0
 40
2.0
 40
2.0
 40
2.0
 40
3.0
 40
3.0
 40
3.0
 40
4.0
 40
4.0
 40
4.0
 40
4.0
 10
8.680938573651957
 20
-10.02524291806824
 30
0.0
 10
8.680938573651957
 20
-10.21827367123695
 30
0.0
 10
8.524456230131008
 20
-10.37475601477901
 30
0.0
 10
8.33142547698832
 20
-10.37475601477901
 30
0.0
 10
8.138394723845598
 20
-10.37475601477901
 30
0.0
 10
7.981912380324617
 20
-10.21827367123695
 30
0.0
 10
7.981912380324617
 20
-10.02524291806824
 30
0.0
 10
7.981912380324617
 20
-9.832212164899566
 30
0.0
 10
8.138394723845598
 20
-9.675729821357505
 30
0.0
 10
8.33142547698832
 20
-9.675729821357505
 30
0.0
 10
8.524456230131008
 20
-9.675729821357505
 30
0.0
 10
8.680938573651957
 20
-9.832212164899566
 30
0.0
 10
8.680938573651957
 20
-10.02524291806824
 30
0.0
  0
HATCH
  5
53
330
1F
100
AcDbEntity
  8
Capa 1
 62
     2
420
 15983872
100
AcDbHatch
 10
0.0
 20
0.0
 30
0.0
210
0.0
220
0.0
230
1.0
  2
SOLID
 70
     1
 71
     0
 91
        1
 92
        1
 93
        1
 72
     4
 94
        3
 73
     0
 74
     1
 95
       17
 96
       13
 40
0.0
 40
0.0
 40
0.0
 40
0.0
 40
1.0
 40
1.0
 40
1.0
 40
2.0
 40
2.0
 40
2.0
 40
3.0
 40
3.0
 40
3.0
 40
4.0
 40
4.0
 40
4.0
 40
4.0
 10
8.680938573651957
 20
-10.02524291806824
 10
8.680938573651957
 20
-10.21827367123695
 10
8.524456230131008
 20
-10.37475601477901
 10
8.33142547698832
 20
-10.37475601477901
 10
8.138394723845598
 20
-10.37475601477901
 10
7.981912380324617
 20
-10.21827367123695
 10
7.981912380324617
 20
-10.02524291806824
 10
7.981912380324617
 20
-9.832212164899566
 10
8.138394723845598
 20
-9.675729821357505
 10
8.33142547698832
 20
-9.675729821357505
 10
8.524456230131008
 20
-9.675729821357505
 10
8.680938573651957
 20
-9.832212164899566
 10
8.680938573651957
 20
-10.02524291806824
 97
        0
 97
        0
 75
     2
 76
     1
 98
        0
  0
SPLINE
  5
54
330
1F
100
AcDbEntity
  8
Capa 1
370
     0
100
AcDbSpline
210
0.0
220
0.0
230
1.0
 70
    11
 71
     3
 72
    17
 73
    13
 74
     0
 42
0.0000000001
 43
0.0000000001
 12
1.0
 22
0.0
 32
0.0
 13
1.0
 23
0.0
 33
0.0
 40
0.0
 40
0.0
 40
0.0
 40
0.0
 40
1.0
 40
1.0
 40
1.0
 40
2.0
 40
2.0
 40
2.0
 40
3.0
 40
3.0
 40
3.0
 40
4.0
 40
4.0
 40
4.0
 40
4.0
 10
11.60698550759991
 20
-10.02524291806824
 30
0.0
 10
11.60698550759991
 20
-10.21827367123695
 30
0.0
 10
11.45050316407899
 20
-10.37475601477901
 30
0.0
 10
11.25747241093627
 20
-10.37475601477901
 30
0.0
 10
11.06444165779355
 20
-10.37475601477901
 30
0.0
 10
10.9079593142726
 20
-10.21827367123695
 30
0.0
 10
10.9079593142726
 20
-10.02524291806824
 30
0.0
 10
10.9079593142726
 20
-9.832212164899566
 30
0.0
 10
11.06444165779355
 20
-9.675729821357505
 30
0.0
 10
11.25747241093627
 20
-9.675729821357505
 30
0.0
 10
11.45050316407899
 20
-9.675729821357505
 30
0.0
 10
11.60698550759991
 20
-9.832212164899566
 30
0.0
 10
11.60698550759991
 20
-10.02524291806824
 30
0.0
  0
HATCH
  5
55
330
1F
100
AcDbEntity
  8
Capa 1
 62
   143
420
  4044778
100
AcDbHatch
 10
0.0
 20
0.0
 30
0.0
210
0.0
220
0.0
230
1.0
  2
SOLID
 70
     1
 71
     0
 91
        1
 92
        1
 93
        1
 72
     4
 94
        3
 73
     0
 74
     1
 95
       17
 96
       13
 40
0.0
 40
0.0
 40
0.0
 40
0.0
 40
1.0
 40
1.0
 40
1.0
 40
2.0
 40
2.0
 40
2.0
 40
3.0
 40
3.0
 40
3.0
 40
4.0
 40
4.0
 40
4.0
 40
4.0
 10
11.60698550759991
 20
-10.02524291806824
 10
11.60698550759991
 20
-10.21827367123695
 10
11.45050316407899
 20
-10.37475601477901
 10
11.25747241093627
 20
-10.37475601477901
 10
11.06444165779355
 20
-10.37475601477901
 10
10.9079593142726
 20
-10.21827367123695
 10
10.9079593142726
 20
-10.02524291806824
 10
10.9079593142726
 20
-9.832212164899566
 10
11.06444165779355
 20
-9.675729821357505
 10
11.25747241093627
 20
-9.675729821357505
 10
11.45050316407899
 20
-9.675729821357505
 10
11.60698550759991
 20
-9.832212164899566
 10
11.60698550759991
 20
-10.02524291806824
 97
        0
 97
        0
 75
     2
 76
     1
 98
        0
  0
SPLINE
  5
56
330
1F
100
AcDbEntity
  8
Capa 1
370
     0
100
AcDbSpline
210
0.0
220
0.0
230
1.0
 70
    11
 71
     3
 72
    17
 73
    13
 74
     0
 42
0.0000000001
 43
0.0000000001
 12
1.0
 22
0.0
 32
0.0
 13
1.0
 23
0.0
 33
0.0
 40
0.0
 40
0.0
 40
0.0
 40
0.0
 40
1.0
 40
1.0
 40
1.0
 40
2.0
 40
2.0
 40
2.0
 40
3.0
 40
3.0
 40
3.0
 40
4.0
 40
4.0
 40
4.0
 40
4.0
 10
15.63922091657738
 20
-10.02524291806824
 30
0.0
 10
15.63922091657738
 20
-10.21827367123695
 30
0.0
 10
15.4827385730564
 20
-10.37475601477901
 30
0.0
 10
15.28970781991372
 20
-10.37475601477901
 30
0.0
 10
15.09667706677103
 20
-10.37475601477901
 30
0.0
 10
14.94019472325004
 20
-10.21827367123695
 30
0.0
 10
14.94019472325004
 20
-10.02524291806824
 30
0.0
 10
14.94019472325004
 20
-9.832212164899566
 30
0.0
 10
15.09667706677103
 20
-9.675729821357505
 30
0.0
 10
15.28970781991372
 20
-9.675729821357505
 30
0.0
 10
15.4827385730564
 20
-9.675729821357505
 30
0.0
 10
15.63922091657738
 20
-9.832212164899566
 30
0.0
 10
15.63922091657738
 20
-10.02524291806824
 30
0.0
  0
HATCH
  5
57
330
1F
100
AcDbEntity
  8
Capa 1
 62
    22
420
 14951456
100
AcDbHatch
 10
0.0
 20
0.0
 30
0.0
210
0.0
220
0.0
230
1.0
  2
SOLID
 70
     1
 71
     0
 91
        1
 92
        1
 93
        1
 72
     4
 94
        3
 73
     0
 74
     1
 95
       17
 96
       13
 40
0.0
 40
0.0
 40
0.0
 40
0.0
 40
1.0
 40
1.0
 40
1.0
 40
2.0
 40
2.0
 40
2.0
 40
3.0
 40
3.0
 40
3.0
 40
4.0
 40
4.0
 40
4.0
 40
4.0
 10
15.63922091657738
 20
-10.02524291806824
 10
15.63922091657738
 20
-10.21827367123695
 10
15.4827385730564
 20
-10.37475601477901
 10
15.28970781991372
 20
-10.37475601477901
 10
15.09667706677103
 20
-10.37475601477901
 10
14.94019472325004
 20
-10.21827367123695
 10
14.94019472325004
 20
-10.02524291806824
 10
14.94019472325004
 20
-9.832212164899566
 10
15.09667706677103
 20
-9.675729821357505
 10
15.28970781991372
 20
-9.675729821357505
 10
15.4827385730564
 20
-9.675729821357505
 10
15.63922091657738
 20
-9.832212164899566
 10
15.63922091657738
 20
-10.02524291806824
 97
        0
 97
        0
 75
     2
 76
     1
 98
        0
  0
SPLINE
  5
58
330
1F
100
AcDbEntity
  8
Capa 1
370
     0
100
AcDbSpline
210
0.0
220
0.0
230
1.0
 70
    11
 71
     3
 72
    17
 73
    13
 74
     0
 42
0.0000000001
 43
0.0000000001
 12
1.0
 22
0.0
 32
0.0
 13
1.0
 23
0.0
 33
0.0
 40
0.0
 40
0.0
 40
0.0
 40
0.0
 40
1.0
 40
1.0
 40
1.0
 40
2.0
 40
2.0
 40
2.0
 40
3.0
 40
3.0
 40
3.0
 40
4.0
 40
4.0
 40
4.0
 40
4.0
 10
20.17834720955832
 20
-10.02524291806824
 30
0.0
 10
20.17834720955832
 20
-10.21827367123695
 30
0.0
 10
20.02186486603734
 20
-10.37475601477901
 30
0.0
 10
19.82883411289465
 20
-10.37475601477901
 30
0.0
 10
19.63580335975196
 20
-10.37475601477901
 30
0.0
 10
19.47932101623098
 20
-10.21827367123695
 30
0.0
 10
19.47932101623098
 20
-10.02524291806824
 30
0.0
 10
19.47932101623098
 20
-9.832212164899566
 30
0.0
 10
19.63580335975196
 20
-9.675729821357505
 30
0.0
 10
19.82883411289465
 20
-9.675729821357505
 30
0.0
 10
20.02186486603734
 20
-9.675729821357505
 30
0.0
 10
20.17834720955832
 20
-9.832212164899566
 30
0.0
 10
20.17834720955832
 20
-10.02524291806824
 30
0.0
  0
HATCH
  5
59
330
1F
100
AcDbEntity
  8
Capa 1
 62
     2
420
 15983872
100
AcDbHatch
 10
0.0
 20
0.0
 30
0.0
210
0.0
220
0.0
230
1.0
  2
SOLID
 70
     1
 71
     0
 91
        1
 92
        1
 93
        1
 72
     4
 94
        3
 73
     0
 74
     1
 95
       17
 96
       13
 40
0.0
 40
0.0
 40
0.0
 40
0.0
 40
1.0
 40
1.0
 40
1.0
 40
2.0
 40
2.0
 40
2.0
 40
3.0
 40
3.0
 40
3.0
 40
4.0
 40
4.0
 40
4.0
 40
4.0
 10
20.17834720955832
 20
-10.02524291806824
 10
20.17834720955832
 20
-10.21827367123695
 10
20.02186486603734
 20
-10.37475601477901
 10
19.82883411289465
 20
-10.37475601477901
 10
19.63580335975196
 20
-10.37475601477901
 10
19.47932101623098
 20
-10.21827367123695
 10
19.47932101623098
 20
-10.02524291806824
 10
19.47932101623098
 20
-9.832212164899566
 10
19.63580335975196
 20
-9.675729821357505
 10
19.82883411289465
 20
-9.675729821357505
 10
20.02186486603734
 20
-9.675729821357505
 10
20.17834720955832
 20
-9.832212164899566
 10
20.17834720955832
 20
-10.02524291806824
 97
        0
 97
        0
 75
     2
 76
     1
 98
        0
  0
SPLINE
  5
5A
330
1F
100
AcDbEntity
  8
Capa 1
370
     0
100
AcDbSpline
210
0.0
220
0.0
230
1.0
 70
    11
 71
     3
 72
    17
 73
    13
 74
     0
 42
0.0000000001
 43
0.0000000001
 12
1.0
 22
0.0
 32
0.0
 13
1.0
 23
0.0
 33
0.0
 40
0.0
 40
0.0
 40
0.0
 40
0.0
 40
1.0
 40
1.0
 40
1.0
 40
2.0
 40
2.0
 40
2.0
 40
3.0
 40
3.0
 40
3.0
 40
4.0
 40
4.0
 40
4.0
 40
4.0
 10
24.59577921439415
 20
-10.02524291806824
 30
0.0
 10
24.59577921439415
 20
-10.21827367123695
 30
0.0
 10
24.43929687087317
 20
-10.37475601477901
 30
0.0
 10
24.24626611773048
 20
-10.37475601477901
 30
0.0
 10
24.05323536458779
 20
-10.37475601477901
 30
0.0
 10
23.89675302106681
 20
-10.21827367123695
 30
0.0
 10
23.89675302106681
 20
-10.02524291806824
 30
0.0
 10
23.89675302106681
 20
-9.832212164899566
 30
0.0
 10
24.05323536458779
 20
-9.675729821357505
 30
0.0
 10
24.24626611773048
 20
-9.675729821357505
 30
0.0
 10
24.43929687087317
 20
-9.675729821357505
 30
0.0
 10
24.59577921439415
 20
-9.832212164899566
 30
0.0
 10
24.59577921439415
 20
-10.02524291806824
 30
0.0
  0
HATCH
  5
5B
330
1F
100
AcDbEntity
  8
Capa 1
 62
   143
420
  4044778
100
AcDbHatch
 10
0.0
 20
0.0
 30
0.0
210
0.0
220
0.0
230
1.0
  2
SOLID
 70
     1
 71
     0
 91
        1
 92
        1
 93
        1
 72
     4
 94
        3
 73
     0
 74
     1
 95
       17
 96
       13
 40
0.0
 40
0.0
 40
0.0
 40
0.0
 40
1.0
 40
1.0
 40
1.0
 40
2.0
 40
2.0
 40
2.0
 40
3.0
 40
3.0
 40
3.0
 40
4.0
 40
4.0
 40
4.0
 40
4.0
 10
24.59577921439415
 20
-10.02524291806824
 10
24.59577921439415
 20
-10.21827367123695
 10
24.43929687087317
 20
-10.37475601477901
 10
24.24626611773048
 20
-10.37475601477901
 10
24.05323536458779
 20
-10.37475601477901
 10
23.89675302106681
 20
-10.21827367123695
 10
23.89675302106681
 20
-10.02524291806824
 10
23.89675302106681
 20
-9.832212164899566
 10
24.05323536458779
 20
-9.675729821357505
 10
24.24626611773048
 20
-9.675729821357505
 10
24.43929687087317
 20
-9.675729821357505
 10
24.59577921439415
 20
-9.832212164899566
 10
24.59577921439415
 20
-10.02524291806824
 97
        0
 97
        0
 75
     2
 76
     1
 98
        0
  0
ENDSEC
  0
SECTION
  2
OBJECTS
  0
DICTIONARY
  5
C
330
0
100
AcDbDictionary
281
     1
  3
ACAD_GROUP
350
D
  3
ACAD_LAYOUT
350
1A
  3
ACAD_MATERIAL
350
3B
  3
ACAD_MLEADERSTYLE
350
5D
  3
ACAD_MLINESTYLE
350
17
  3
ACAD_PLOTSETTINGS
350
19
  3
ACAD_PLOTSTYLENAME
350
E
  3
ACAD_TABLESTYLE
350
5C
  3
ACAD_VISUALSTYLE
350
2A
  0
SUN
  5
3F
330
29
100
AcDbSun
 90
        1
290
     0
 63
     7
421
 16777215
 40
1.0
291
     1
 91
  2455826
 92
 54000000
292
     0
 70
     2
 71
   256
280
     1
  0
DICTIONARY
  5
D
102
{ACAD_REACTORS
330
C
102
}
330
C
100
AcDbDictionary
281
     1
  0
DICTIONARY
  5
1A
102
{ACAD_REACTORS
330
C
102
}
330
C
100
AcDbDictionary
281
     1
  3
Layout1
350
1E
  3
Layout2
350
26
  3
Model
350
22
  0
DICTIONARY
  5
3B
102
{ACAD_REACTORS
330
C
102
}
330
C
100
AcDbDictionary
281
     1
  3
ByBlock
350
3D
  3
ByLayer
350
3C
  3
Global
350
3E
  0
DICTIONARY
  5
5D
102
{ACAD_REACTORS
330
C
102
}
330
C
100
AcDbDictionary
281
     1
  0
DICTIONARY
  5
17
102
{ACAD_REACTORS
330
C
102
}
330
C
100
AcDbDictionary
281
     1
  3
Standard
350
18
  0
DICTIONARY
  5
19
102
{ACAD_REACTORS
330
C
102
}
330
C
100
AcDbDictionary
281
     1
  0
ACDBDICTIONARYWDFLT
  5
E
102
{ACAD_REACTORS
330
C
102
}
330
C
100
AcDbDictionary
281
     1
  3
Normal
350
F
100
AcDbDictionaryWithDefault
340
F
  0
DICTIONARY
  5
5C
102
{ACAD_REACTORS
330
C
102
}
330
C
100
AcDbDictionary
281
     1
  0
DICTIONARY
  5
2A
102
{ACAD_REACTORS
330
C
102
}
330
C
100
AcDbDictionary
281
     1
  3
2dWireframe
350
2F
  3
3D Hidden
350
31
  3
3dWireframe
350
30
  3
Basic
350
32
  3
Brighten
350
36
  3
ColorChange
350
3A
  3
Conceptual
350
34
  3
Dim
350
35
  3
Facepattern
350
39
  3
Flat
350
2B
  3
FlatWithEdges
350
2C
  3
Gouraud
350
2D
  3
GouraudWithEdges
350
2E
  3
Linepattern
350
38
  3
Realistic
350
33
  3
Thicken
350
37
  0
LAYOUT
  5
1E
102
{ACAD_REACTORS
330
1A
102
}
330
1A
100
AcDbPlotSettings
  1

  2
none_device
  4

  6

 40
0.0
 41
0.0
 42
0.0
 43
0.0
 44
0.0
 45
0.0
 46
0.0
 47
0.0
 48
0.0
 49
0.0
140
0.0
141
0.0
142
1.0
143
1.0
 70
   688
 72
     0
 73
     0
 74
     5
  7

 75
    16
 76
     0
 77
     2
 78
   300
147
1.0
148
0.0
149
0.0
100
AcDbLayout
  1
Layout1
 70
     1
 71
     1
 10
0.0
 20
0.0
 11
12.0
 21
9.0
 12
0.0
 22
0.0
 32
0.0
 14
1.000000000000000E+20
 24
1.000000000000000E+20
 34
1.000000000000000E+20
 15
-1.000000000000000E+20
 25
-1.000000000000000E+20
 35
-1.000000000000000E+20
146
0.0
 13
0.0
 23
0.0
 33
0.0
 16
1.0
 26
0.0
 36
0.0
 17
0.0
 27
1.0
 37
0.0
 76
     0
330
1B
  0
LAYOUT
  5
26
102
{ACAD_REACTORS
330
1A
102
}
330
1A
100
AcDbPlotSettings
  1

  2
none_device
  4

  6

 40
0.0
 41
0.0
 42
0.0
 43
0.0
 44
0.0
 45
0.0
 46
0.0
 47
0.0
 48
0.0
 49
0.0
140
0.0
141
0.0
142
1.0
143
1.0
 70
   688
 72
     0
 73
     0
 74
     5
  7

 75
    16
 76
     0
 77
     2
 78
   300
147
1.0
148
0.0
149
0.0
100
AcDbLayout
  1
Layout2
 70
     1
 71
     2
 10
0.0
 20
0.0
 11
0.0
 21
0.0
 12
0.0
 22
0.0
 32
0.0
 14
0.0
 24
0.0
 34
0.0
 15
0.0
 25
0.0
 35
0.0
146
0.0
 13
0.0
 23
0.0
 33
0.0
 16
1.0
 26
0.0
 36
0.0
 17
0.0
 27
1.0
 37
0.0
 76
     0
330
23
  0
LAYOUT
  5
22
102
{ACAD_REACTORS
330
1A
102
}
330
1A
100
AcDbPlotSettings
  1

  2
none_device
  4

  6

 40
0.0
 41
0.0
 42
0.0
 43
0.0
 44
0.0
 45
0.0
 46
0.0
 47
0.0
 48
0.0
 49
0.0
140
0.0
141
0.0
142
1.0
143
1.0
 70
  1712
 72
     0
 73
     0
 74
     0
  7

 75
     0
 76
     0
 77
     2
 78
   300
147
1.0
148
0.0
149
0.0
100
AcDbLayout
  1
Model
 70
     1
 71
     0
 10
0.0
 20
0.0
 11
12.0
 21
9.0
 12
0.0
 22
0.0
 32
0.0
 14
1.000000000000000E+20
 24
1.000000000000000E+20
 34
1.000000000000000E+20
 15
-1.000000000000000E+20
 25
-1.000000000000000E+20
 35
-1.000000000000000E+20
146
0.0
 13
0.0
 23
0.0
 33
0.0
 16
1.0
 26
0.0
 36
0.0
 17
0.0
 27
1.0
 37
0.0
 76
     0
330
1F
331
29
  0
MATERIAL
  5
3D
102
{ACAD_REACTORS
330
3B
102
}
330
3B
100
AcDbMaterial
  1
ByBlock
 72
     1
 94
      127
  0
MATERIAL
  5
3C
102
{ACAD_REACTORS
330
3B
102
}
330
3B
100
AcDbMaterial
  1
ByLayer
 72
     1
 94
      127
  0
MATERIAL
  5
3E
102
{ACAD_REACTORS
330
3B
102
}
330
3B
100
AcDbMaterial
  1
Global
 72
     1
 94
      127
  0
MLINESTYLE
  5
18
102
{ACAD_REACTORS
330
17
102
}
330
17
100
AcDbMlineStyle
  2
Standard
 70
     0
  3

 62
   256
 51
90.0
 52
90.0
 71
     2
 49
0.5
 62
   256
  6
BYLAYER
 49
-0.5
 62
   256
  6
BYLAYER
  0
ACDBPLACEHOLDER
  5
F
102
{ACAD_REACTORS
330
E
102
}
330
E
  0
VISUALSTYLE
  5
2F
102
{ACAD_REACTORS
330
2A
102
}
330
2A
100
AcDbVisualStyle
  2
2dWireframe
 70
     4
177
     2
291
     0
 71
     0
176
     1
 72
     2
176
     1
 73
     0
176
     1
 90
        0
176
     1
 40
-0.6
176
     1
 41
-30.0
176
     1
 62
     5
 63
     7
421
 16777215
176
     1
 74
     1
176
     1
 91
        4
176
     1
 64
     7
176
     1
 65
   257
176
     1
 75
     1
176
     1
175
     1
176
     1
 42
1.0
176
     1
 92
        0
176
     1
 66
   257
176
     1
 43
1.0
176
     1
 76
     1
176
     1
 77
     6
176
     1
 78
     2
176
     1
 67
     7
176
     1
 79
     5
176
     1
170
     0
176
     1
171
     0
176
     1
290
     0
176
     1
 93
        1
176
     1
 44
0.0
176
     1
173
     0
176
     1
  0
VISUALSTYLE
  5
31
102
{ACAD_REACTORS
330
2A
102
}
330
2A
100
AcDbVisualStyle
  2
3D Hidden
 70
     6
177
     2
291
     0
 71
     1
176
     1
 72
     2
176
     1
 73
     2
176
     1
 90
        0
176
     1
 40
-0.6
176
     1
 41
-30.0
176
     1
 62
     5
 63
     7
421
 16777215
176
     1
 74
     2
176
     1
 91
        2
176
     1
 64
     7
176
     1
 65
   257
176
     1
 75
     2
176
     1
175
     1
176
     1
 42
40.0
176
     1
 92
        0
176
     1
 66
   257
176
     1
 43
1.0
176
     1
 76
     1
176
     1
 77
     6
176
     1
 78
     2
176
     1
 67
     7
176
     1
 79
     3
176
     1
170
     0
176
     1
171
     0
176
     1
290
     0
176
     1
 93
        1
176
     1
 44
0.0
176
     1
173
     0
176
     1
  0
VISUALSTYLE
  5
30
102
{ACAD_REACTORS
330
2A
102
}
330
2A
100
AcDbVisualStyle
  2
3dWireframe
 70
     5
177
     2
291
     0
 71
     0
176
     1
 72
     2
176
     1
 73
     0
176
     1
 90
        0
176
     1
 40
-0.6
176
     1
 41
-30.0
176
     1
 62
     5
 63
     7
421
 16777215
176
     1
 74
     1
176
     1
 91
        4
176
     1
 64
     7
176
     1
 65
   257
176
     1
 75
     1
176
     1
175
     1
176
     1
 42
1.0
176
     1
 92
        0
176
     1
 66
   257
176
     1
 43
1.0
176
     1
 76
     1
176
     1
 77
     6
176
     1
 78
     2
176
     1
 67
     7
176
     1
 79
     5
176
     1
170
     0
176
     1
171
     0
176
     1
290
     0
176
     1
 93
        1
176
     1
 44
0.0
176
     1
173
     0
176
     1
  0
VISUALSTYLE
  5
32
102
{ACAD_REACTORS
330
2A
102
}
330
2A
100
AcDbVisualStyle
  2
Basic
 70
     7
177
     2
291
     1
 71
     1
176
     1
 72
     0
176
     1
 73
     1
176
     1
 90
        0
176
     1
 40
-0.6
176
     1
 41
-30.0
176
     1
 62
     5
 63
     7
421
 16777215
176
     1
 74
     0
176
     1
 91
        4
176
     1
 64
     7
176
     1
 65
   257
176
     1
 75
     1
176
     1
175
     1
176
     1
 42
1.0
176
     1
 92
        8
176
     1
 66
     7
176
     1
 43
1.0
176
     1
 76
     1
176
     1
 77
     6
176
     1
 78
     2
176
     1
 67
     7
176
     1
 79
     5
176
     1
170
     0
176
     1
171
     0
176
     1
290
     0
176
     1
 93
        1
176
     1
 44
0.0
176
     1
173
     0
176
     1
  0
VISUALSTYLE
  5
36
102
{ACAD_REACTORS
330
2A
102
}
330
2A
100
AcDbVisualStyle
  2
Brighten
 70
    12
177
     2
291
     1
 71
     2
176
     1
 72
     2
176
     1
 73
     0
176
     1
 90
        0
176
     1
 40
-0.6
176
     1
 41
-30.0
176
     1
 62
     5
 63
     7
421
 16777215
176
     1
 74
     1
176
     1
 91
        4
176
     1
 64
     7
176
     1
 65
   257
176
     1
 75
     1
176
     1
175
     1
176
     1
 42
1.0
176
     1
 92
        8
176
     1
 66
     7
176
     1
 43
1.0
176
     1
 76
     1
176
     1
 77
     6
176
     1
 78
     2
176
     1
 67
     7
176
     1
 79
     5
176
     1
170
     0
176
     1
171
     0
176
     1
290
     0
176
     1
 93
        1
176
     1
 44
50.0
176
     1
173
     0
176
     1
  0
VISUALSTYLE
  5
3A
102
{ACAD_REACTORS
330
2A
102
}
330
2A
100
AcDbVisualStyle
  2
ColorChange
 70
    16
177
     2
291
     1
 71
     2
176
     1
 72
     2
176
     1
 73
     3
176
     1
 90
        0
176
     1
 40
-0.6
176
     1
 41
-30.0
176
     1
 62
     5
 63
     8
421
  8421504
176
     1
 74
     1
176
     1
 91
        4
176
     1
 64
     7
176
     1
 65
   257
176
     1
 75
     1
176
     1
175
     1
176
     1
 42
1.0
176
     1
 92
        8
176
     1
 66
     8
424
  8421504
176
     1
 43
1.0
176
     1
 76
     1
176
     1
 77
     6
176
     1
 78
     2
176
     1
 67
     7
176
     1
 79
     5
176
     1
170
     0
176
     1
171
     0
176
     1
290
     0
176
     1
 93
        1
176
     1
 44
0.0
176
     1
173
     0
176
     1
  0
VISUALSTYLE
  5
34
102
{ACAD_REACTORS
330
2A
102
}
330
2A
100
AcDbVisualStyle
  2
Conceptual
 70
     9
177
     2
291
     0
 71
     3
176
     1
 72
     2
176
     1
 73
     0
176
     1
 90
        0
176
     1
 40
-0.6
176
     1
 41
-30.0
176
     1
 62
     5
 63
     7
421
 16777215
176
     1
 74
     2
176
     1
 91
        2
176
     1
 64
     7
176
     1
 65
   257
176
     1
 75
     1
176
     1
175
     1
176
     1
 42
40.0
176
     1
 92
        8
176
     1
 66
     7
176
     1
 43
1.0
176
     1
 76
     1
176
     1
 77
     6
176
     1
 78
     2
176
     1
 67
     7
176
     1
 79
     3
176
     1
170
     0
176
     1
171
     0
176
     1
290
     0
176
     1
 93
        1
176
     1
 44
0.0
176
     1
173
     0
176
     1
  0
VISUALSTYLE
  5
35
102
{ACAD_REACTORS
330
2A
102
}
330
2A
100
AcDbVisualStyle
  2
Dim
 70
    11
177
     2
291
     1
 71
     2
176
     1
 72
     2
176
     1
 73
     0
176
     1
 90
        0
176
     1
 40
-0.6
176
     1
 41
-30.0
176
     1
 62
     5
 63
     7
421
 16777215
176
     1
 74
     1
176
     1
 91
        4
176
     1
 64
     7
176
     1
 65
   257
176
     1
 75
     1
176
     1
175
     1
176
     1
 42
1.0
176
     1
 92
        8
176
     1
 66
     7
176
     1
 43
1.0
176
     1
 76
     1
176
     1
 77
     6
176
     1
 78
     2
176
     1
 67
     7
176
     1
 79
     5
176
     1
170
     0
176
     1
171
     0
176
     1
290
     0
176
     1
 93
        1
176
     1
 44
-50.0
176
     1
173
     0
176
     1
  0
VISUALSTYLE
  5
39
102
{ACAD_REACTORS
330
2A
102
}
330
2A
100
AcDbVisualStyle
  2
Facepattern
 70
    15
177
     2
291
     1
 71
     2
176
     1
 72
     2
176
     1
 73
     0
176
     1
 90
        0
176
     1
 40
-0.6
176
     1
 41
-30.0
176
     1
 62
     5
 63
     7
421
 16777215
176
     1
 74
     1
176
     1
 91
        4
176
     1
 64
     7
176
     1
 65
   257
176
     1
 75
     1
176
     1
175
     1
176
     1
 42
1.0
176
     1
 92
        8
176
     1
 66
     7
176
     1
 43
1.0
176
     1
 76
     1
176
     1
 77
     6
176
     1
 78
     2
176
     1
 67
     7
176
     1
 79
     5
176
     1
170
     0
176
     1
171
     0
176
     1
290
     0
176
     1
 93
        1
176
     1
 44
0.0
176
     1
173
     0
176
     1
  0
VISUALSTYLE
  5
2B
102
{ACAD_REACTORS
330
2A
102
}
330
2A
100
AcDbVisualStyle
  2
Flat
 70
     0
177
     2
291
     1
 71
     2
176
     1
 72
     1
176
     1
 73
     1
176
     1
 90
        2
176
     1
 40
-0.6
176
     1
 41
30.0
176
     1
 62
     5
 63
     7
421
 16777215
176
     1
 74
     0
176
     1
 91
        4
176
     1
 64
     7
176
     1
 65
   257
176
     1
 75
     1
176
     1
175
     1
176
     1
 42
1.0
176
     1
 92
        8
176
     1
 66
     7
176
     1
 43
1.0
176
     1
 76
     1
176
     1
 77
     6
176
     1
 78
     2
176
     1
 67
     7
176
     1
 79
     5
176
     1
170
     0
176
     1
171
     0
176
     1
290
     0
176
     1
 93
       13
176
     1
 44
0.0
176
     1
173
     0
176
     1
  0
VISUALSTYLE
  5
2C
102
{ACAD_REACTORS
330
2A
102
}
330
2A
100
AcDbVisualStyle
  2
FlatWithEdges
 70
     1
177
     2
291
     1
 71
     2
176
     1
 72
     1
176
     1
 73
     1
176
     1
 90
        2
176
     1
 40
-0.6
176
     1
 41
30.0
176
     1
 62
     5
 63
     7
421
 16777215
176
     1
 74
     1
176
     1
 91
        4
176
     1
 64
     7
176
     1
 65
   257
176
     1
 75
     1
176
     1
175
     1
176
     1
 42
1.0
176
     1
 92
        0
176
     1
 66
   257
176
     1
 43
1.0
176
     1
 76
     1
176
     1
 77
     6
176
     1
 78
     2
176
     1
 67
     7
176
     1
 79
     5
176
     1
170
     0
176
     1
171
     0
176
     1
290
     0
176
     1
 93
       13
176
     1
 44
0.0
176
     1
173
     0
176
     1
  0
VISUALSTYLE
  5
2D
102
{ACAD_REACTORS
330
2A
102
}
330
2A
100
AcDbVisualStyle
  2
Gouraud
 70
     2
177
     2
291
     1
 71
     2
176
     1
 72
     2
176
     1
 73
     1
176
     1
 90
        2
176
     1
 40
-0.6
176
     1
 41
30.0
176
     1
 62
     5
 63
     7
421
 16777215
176
     1
 74
     0
176
     1
 91
        4
176
     1
 64
     7
176
     1
 65
   257
176
     1
 75
     1
176
     1
175
     1
176
     1
 42
1.0
176
     1
 92
        0
176
     1
 66
     7
176
     1
 43
1.0
176
     1
 76
     1
176
     1
 77
     6
176
     1
 78
     2
176
     1
 67
     7
176
     1
 79
     5
176
     1
170
     0
176
     1
171
     0
176
     1
290
     0
176
     1
 93
       13
176
     1
 44
0.0
176
     1
173
     0
176
     1
  0
VISUALSTYLE
  5
2E
102
{ACAD_REACTORS
330
2A
102
}
330
2A
100
AcDbVisualStyle
  2
GouraudWithEdges
 70
     3
177
     2
291
     1
 71
     2
176
     1
 72
     2
176
     1
 73
     1
176
     1
 90
        2
176
     1
 40
-0.6
176
     1
 41
30.0
176
     1
 62
     5
 63
     7
421
 16777215
176
     1
 74
     1
176
     1
 91
        4
176
     1
 64
     7
176
     1
 65
   257
176
     1
 75
     1
176
     1
175
     1
176
     1
 42
1.0
176
     1
 92
        0
176
     1
 66
   257
176
     1
 43
1.0
176
     1
 76
     1
176
     1
 77
     6
176
     1
 78
     2
176
     1
 67
     7
176
     1
 79
     5
176
     1
170
     0
176
     1
171
     0
176
     1
290
     0
176
     1
 93
       13
176
     1
 44
0.0
176
     1
173
     0
176
     1
  0
VISUALSTYLE
  5
38
102
{ACAD_REACTORS
330
2A
102
}
330
2A
100
AcDbVisualStyle
  2
Linepattern
 70
    14
177
     2
291
     1
 71
     2
176
     1
 72
     2
176
     1
 73
     0
176
     1
 90
        0
176
     1
 40
-0.6
176
     1
 41
-30.0
176
     1
 62
     5
 63
     7
421
 16777215
176
     1
 74
     1
176
     1
 91
        4
176
     1
 64
     7
176
     1
 65
   257
176
     1
 75
     7
176
     1
175
     7
176
     1
 42
1.0
176
     1
 92
        8
176
     1
 66
     7
176
     1
 43
1.0
176
     1
 76
     1
176
     1
 77
     6
176
     1
 78
     2
176
     1
 67
     7
176
     1
 79
     5
176
     1
170
     0
176
     1
171
     0
176
     1
290
     0
176
     1
 93
        1
176
     1
 44
0.0
176
     1
173
     0
176
     1
  0
VISUALSTYLE
  5
33
102
{ACAD_REACTORS
330
2A
102
}
330
2A
100
AcDbVisualStyle
  2
Realistic
 70
     8
177
     2
291
     0
 71
     2
176
     1
 72
     2
176
     1
 73
     0
176
     1
 90
        0
176
     1
 40
-0.6
176
     1
 41
-30.0
176
     1
 62
     5
 63
     7
421
 16777215
176
     1
 74
     1
176
     1
 91
        0
176
     1
 64
     7
176
     1
 65
   257
176
     1
 75
     1
176
     1
175
     1
176
     1
 42
1.0
176
     1
 92
        8
176
     1
 66
     8
424
  7895160
176
     1
 43
1.0
176
     1
 76
     1
176
     1
 77
     6
176
     1
 78
     2
176
     1
 67
     7
176
     1
 79
     5
176
     1
170
     0
176
     1
171
     0
176
     1
290
     0
176
     1
 93
       13
176
     1
 44
0.0
176
     1
173
     0
176
     1
  0
VISUALSTYLE
  5
37
102
{ACAD_REACTORS
330
2A
102
}
330
2A
100
AcDbVisualStyle
  2
Thicken
 70
    13
177
     2
291
     1
 71
     2
176
     1
 72
     2
176
     1
 73
     0
176
     1
 90
        0
176
     1
 40
-0.6
176
     1
 41
-30.0
176
     1
 62
     5
 63
     7
421
 16777215
176
     1
 74
     1
176
     1
 91
        4
176
     1
 64
     7
176
     1
 65
   257
176
     1
 75
     1
176
     1
175
     1
176
     1
 42
1.0
176
     1
 92
       12
176
     1
 66
     7
176
     1
 43
1.0
176
     1
 76
     1
176
     1
 77
     6
176
     1
 78
     2
176
     1
 67
     7
176
     1
 79
     5
176
     1
170
     0
176
     1
171
     0
176
     1
290
     0
176
     1
 93
        1
176
     1
 44
0.0
176
     1
173
     0
176
     1
  0
ENDSEC
  0
EOF
