  0
SECTION
  2
HEADER
  9
$ACADVER
  1
AC1024
  9
$ACADMAINTVER
 70
     6
  9
$DWGCODEPAGE
  3
ANSI_1252
  9
$INSBASE
 10
0.0
 20
0.0
 30
0.0
  9
$EXTMIN
 10
1.000000000000000E+20
 20
1.000000000000000E+20
 30
1.000000000000000E+20
  9
$EXTMAX
 10
-1.000000000000000E+20
 20
-1.000000000000000E+20
 30
-1.000000000000000E+20
  9
$LIMMIN
 10
0.0
 20
0.0
  9
$LIMMAX
 10
12.0
 20
9.0
  9
$ORTHOMODE
 70
     0
  9
$REGENMODE
 70
     1
  9
$FILLMODE
 70
     1
  9
$QTEXTMODE
 70
     0
  9
$MIRRTEXT
 70
     1
  9
$LTSCALE
 40
1.0
  9
$ATTMODE
 70
     1
  9
$TEXTSIZE
 40
0.2
  9
$TRACEWID
 40
0.05
  9
$TEXTSTYLE
  7
Standard
  9
$CLAYER
  8
0
  9
$CELTYPE
  6
ByLayer
  9
$CECOLOR
 62
   256
  9
$CELTSCALE
 40
1.0
  9
$DISPSILH
 70
     0
  9
$DIMSCALE
 40
1.0
  9
$DIMASZ
 40
0.18
  9
$DIMEXO
 40
0.0625
  9
$DIMDLI
 40
0.38
  9
$DIMRND
 40
0.0
  9
$DIMDLE
 40
0.0
  9
$DIMEXE
 40
0.18
  9
$DIMTP
 40
0.0
  9
$DIMTM
 40
0.0
  9
$DIMTXT
 40
0.18
  9
$DIMCEN
 40
0.09
  9
$DIMTSZ
 40
0.0
  9
$DIMTOL
 70
     0
  9
$DIMLIM
 70
     0
  9
$DIMTIH
 70
     1
  9
$DIMTOH
 70
     1
  9
$DIMSE1
 70
     0
  9
$DIMSE2
 70
     0
  9
$DIMTAD
 70
     0
  9
$DIMZIN
 70
     0
  9
$DIMBLK
  1

  9
$DIMASO
 70
     1
  9
$DIMSHO
 70
     1
  9
$DIMPOST
  1

  9
$DIMAPOST
  1

  9
$DIMALT
 70
     0
  9
$DIMALTD
 70
     2
  9
$DIMALTF
 40
25.4
  9
$DIMLFAC
 40
1.0
  9
$DIMTOFL
 70
     0
  9
$DIMTVP
 40
0.0
  9
$DIMTIX
 70
     0
  9
$DIMSOXD
 70
     0
  9
$DIMSAH
 70
     0
  9
$DIMBLK1
  1

  9
$DIMBLK2
  1

  9
$DIMSTYLE
  2
Standard
  9
$DIMCLRD
 70
     0
  9
$DIMCLRE
 70
     0
  9
$DIMCLRT
 70
     0
  9
$DIMTFAC
 40
1.0
  9
$DIMGAP
 40
0.09
  9
$DIMJUST
 70
     0
  9
$DIMSD1
 70
     0
  9
$DIMSD2
 70
     0
  9
$DIMTOLJ
 70
     1
  9
$DIMTZIN
 70
     0
  9
$DIMALTZ
 70
     0
  9
$DIMALTTZ
 70
     0
  9
$DIMUPT
 70
     0
  9
$DIMDEC
 70
     4
  9
$DIMTDEC
 70
     4
  9
$DIMALTU
 70
     2
  9
$DIMALTTD
 70
     2
  9
$DIMTXSTY
  7
Standard
  9
$DIMAUNIT
 70
     0
  9
$DIMADEC
 70
     0
  9
$DIMALTRND
 40
0.0
  9
$DIMAZIN
 70
     0
  9
$DIMDSEP
 70
    46
  9
$DIMATFIT
 70
     3
  9
$DIMFRAC
 70
     0
  9
$DIMLDRBLK
  1

  9
$DIMLUNIT
 70
     2
  9
$DIMLWD
 70
    -2
  9
$DIMLWE
 70
    -2
  9
$DIMTMOVE
 70
     0
  9
$DIMFXL
 40
1.0
  9
$DIMFXLON
 70
     0
  9
$DIMJOGANG
 40
0.7853981633974483
  9
$DIMTFILL
 70
     0
  9
$DIMTFILLCLR
 70
     0
  9
$DIMARCSYM
 70
     0
  9
$DIMLTYPE
  6

  9
$DIMLTEX1
  6

  9
$DIMLTEX2
  6

  9
$DIMTXTDIRECTION
 70
     0
  9
$LUNITS
 70
     2
  9
$LUPREC
 70
     4
  9
$SKETCHINC
 40
0.1
  9
$FILLETRAD
 40
0.5
  9
$AUNITS
 70
     0
  9
$AUPREC
 70
     0
  9
$MENU
  1
.
  9
$ELEVATION
 40
0.0
  9
$PELEVATION
 40
0.0
  9
$THICKNESS
 40
0.0
  9
$LIMCHECK
 70
     0
  9
$CHAMFERA
 40
0.5
  9
$CHAMFERB
 40
0.5
  9
$CHAMFERC
 40
1.0
  9
$CHAMFERD
 40
0.0
  9
$SKPOLY
 70
     0
  9
$TDCREATE
 40
2459304.835301099
  9
$TDUCREATE
 40
2459305.085301099
  9
$TDUPDATE
 40
2459304.835301123
  9
$TDUUPDATE
 40
2459305.085301123
  9
$TDINDWG
 40
0.0000000116
  9
$TDUSRTIMER
 40
0.0000000116
  9
$USRTIMER
 70
     1
  9
$ANGBASE
 50
0.0
  9
$ANGDIR
 70
     0
  9
$PDMODE
 70
     0
  9
$PDSIZE
 40
0.0
  9
$PLINEWID
 40
0.0
  9
$SPLFRAME
 70
     0
  9
$SPLINETYPE
 70
     6
  9
$SPLINESEGS
 70
     8
  9
$HANDSEED
  5
65
  9
$SURFTAB1
 70
     6
  9
$SURFTAB2
 70
     6
  9
$SURFTYPE
 70
     6
  9
$SURFU
 70
     6
  9
$SURFV
 70
     6
  9
$UCSBASE
  2

  9
$UCSNAME
  2

  9
$UCSORG
 10
0.0
 20
0.0
 30
0.0
  9
$UCSXDIR
 10
1.0
 20
0.0
 30
0.0
  9
$UCSYDIR
 10
0.0
 20
1.0
 30
0.0
  9
$UCSORTHOREF
  2

  9
$UCSORTHOVIEW
 70
     0
  9
$UCSORGTOP
 10
0.0
 20
0.0
 30
0.0
  9
$UCSORGBOTTOM
 10
0.0
 20
0.0
 30
0.0
  9
$UCSORGLEFT
 10
0.0
 20
0.0
 30
0.0
  9
$UCSORGRIGHT
 10
0.0
 20
0.0
 30
0.0
  9
$UCSORGFRONT
 10
0.0
 20
0.0
 30
0.0
  9
$UCSORGBACK
 10
0.0
 20
0.0
 30
0.0
  9
$PUCSBASE
  2

  9
$PUCSNAME
  2

  9
$PUCSORG
 10
0.0
 20
0.0
 30
0.0
  9
$PUCSXDIR
 10
1.0
 20
0.0
 30
0.0
  9
$PUCSYDIR
 10
0.0
 20
1.0
 30
0.0
  9
$PUCSORTHOREF
  2

  9
$PUCSORTHOVIEW
 70
     0
  9
$PUCSORGTOP
 10
0.0
 20
0.0
 30
0.0
  9
$PUCSORGBOTTOM
 10
0.0
 20
0.0
 30
0.0
  9
$PUCSORGLEFT
 10
0.0
 20
0.0
 30
0.0
  9
$PUCSORGRIGHT
 10
0.0
 20
0.0
 30
0.0
  9
$PUCSORGFRONT
 10
0.0
 20
0.0
 30
0.0
  9
$PUCSORGBACK
 10
0.0
 20
0.0
 30
0.0
  9
$USERI1
 70
     0
  9
$USERI2
 70
     0
  9
$USERI3
 70
     0
  9
$USERI4
 70
     0
  9
$USERI5
 70
     0
  9
$USERR1
 40
0.0
  9
$USERR2
 40
0.0
  9
$USERR3
 40
0.0
  9
$USERR4
 40
0.0
  9
$USERR5
 40
0.0
  9
$WORLDVIEW
 70
     1
  9
$SHADEDGE
 70
     3
  9
$SHADEDIF
 70
    70
  9
$TILEMODE
 70
     1
  9
$MAXACTVP
 70
    64
  9
$PINSBASE
 10
0.0
 20
0.0
 30
0.0
  9
$PLIMCHECK
 70
     0
  9
$PEXTMIN
 10
1.000000000000000E+20
 20
1.000000000000000E+20
 30
1.000000000000000E+20
  9
$PEXTMAX
 10
-1.000000000000000E+20
 20
-1.000000000000000E+20
 30
-1.000000000000000E+20
  9
$PLIMMIN
 10
0.0
 20
0.0
  9
$PLIMMAX
 10
12.0
 20
9.0
  9
$UNITMODE
 70
     0
  9
$VISRETAIN
 70
     1
  9
$PLINEGEN
 70
     0
  9
$PSLTSCALE
 70
     1
  9
$TREEDEPTH
 70
  3020
  9
$CMLSTYLE
  2
Standard
  9
$CMLJUST
 70
     0
  9
$CMLSCALE
 40
1.0
  9
$PROXYGRAPHICS
 70
     1
  9
$MEASUREMENT
 70
     0
  9
$CELWEIGHT
370
    -1
  9
$ENDCAPS
280
     0
  9
$JOINSTYLE
280
     0
  9
$LWDISPLAY
290
     1
  9
$INSUNITS
 70
     5
  9
$HYPERLINKBASE
  1

  9
$STYLESHEET
  1

  9
$XEDIT
290
     1
  9
$CEPSNTYPE
380
     0
  9
$PSTYLEMODE
290
     1
  9
$FINGERPRINTGUID
  2
{34D4A332-6C16-4905-A4A1-55B898F3969F}
  9
$VERSIONGUID
  2
{FAEB1C32-E019-11D5-929B-00C0DF256EC4}
  9
$EXTNAMES
290
     1
  9
$PSVPSCALE
 40
0.0
  9
$OLESTARTUP
290
     0
  9
$SORTENTS
280
   127
  9
$INDEXCTL
280
     0
  9
$HIDETEXT
280
     1
  9
$XCLIPFRAME
280
     2
  9
$HALOGAP
280
     0
  9
$OBSCOLOR
 70
   257
  9
$OBSLTYPE
280
     0
  9
$INTERSECTIONDISPLAY
280
     0
  9
$INTERSECTIONCOLOR
 70
   257
  9
$DIMASSOC
280
     2
  9
$PROJECTNAME
  1

  9
$CAMERADISPLAY
290
     0
  9
$LENSLENGTH
 40
50.0
  9
$CAMERAHEIGHT
 40
0.0
  9
$STEPSPERSEC
 40
2.0
  9
$STEPSIZE
 40
6.0
  9
$3DDWFPREC
 40
2.0
  9
$PSOLWIDTH
 40
0.25
  9
$PSOLHEIGHT
 40
4.0
  9
$LOFTANG1
 40
1.570796326794897
  9
$LOFTANG2
 40
1.570796326794897
  9
$LOFTMAG1
 40
0.0
  9
$LOFTMAG2
 40
0.0
  9
$LOFTPARAM
 70
     7
  9
$LOFTNORMALS
280
     1
  9
$LATITUDE
 40
37.795
  9
$LONGITUDE
 40
-122.394
  9
$NORTHDIRECTION
 40
0.0
  9
$TIMEZONE
 70
 -8000
  9
$LIGHTGLYPHDISPLAY
280
     1
  9
$TILEMODELIGHTSYNCH
280
     1
  9
$CMATERIAL
347
3C
  9
$SOLIDHIST
280
     1
  9
$SHOWHIST
280
     1
  9
$DWFFRAME
280
     2
  9
$DGNFRAME
280
     2
  9
$REALWORLDSCALE
290
     1
  9
$INTERFERECOLOR
 62
   256
  9
$CSHADOW
280
     0
  9
$SHADOWPLANELOCATION
 40
0.0
  0
ENDSEC
  0
SECTION
  2
CLASSES
  0
CLASS
  1
ACDBDICTIONARYWDFLT
  2
AcDbDictionaryWithDefault
  3
ObjectDBX Classes
 90
        0
 91
        4
280
     0
281
     0
  0
CLASS
  1
VISUALSTYLE
  2
AcDbVisualStyle
  3
ObjectDBX Classes
 90
     4095
 91
        4
280
     0
281
     0
  0
CLASS
  1
MATERIAL
  2
AcDbMaterial
  3
ObjectDBX Classes
 90
     1153
 91
        4
280
     0
281
     0
  0
CLASS
  1
SUN
  2
AcDbSun
  3
SCENEOE
 90
     1024
 91
        4
280
     0
281
     0
  0
ENDSEC
  0
SECTION
  2
TABLES
  0
TABLE
  2
VPORT
  5
8
330
0
100
AcDbSymbolTable
 70
     1
  0
VPORT
  5
29
330
8
100
AcDbSymbolTableRecord
100
AcDbViewportTableRecord
  2
*Active
 70
     0
 10
0.0
 20
0.0
 11
1.0
 21
1.0
 12
0.0
 22
0.0
 13
0.0
 23
0.0
 14
0.5
 24
0.5
 15
0.5
 25
0.5
 16
0.0
 26
0.0
 36
1.0
 17
14.84999999628701
 27
10.49999999737534
 37
0.0
 40
20.99999999475068
 41
1.414285714285622
 42
50.0
 43
0.0
 44
0.0
 50
0.0
 51
0.0
 71
     0
 72
   100
 73
     1
 74
     3
 75
     0
 76
     0
 77
     0
 78
     0
281
     0
 65
     1
110
0.0
120
0.0
130
0.0
111
1.0
121
0.0
131
0.0
112
0.0
122
1.0
132
0.0
 79
     0
146
0.0
 60
     3
 61
     5
292
     1
282
     1
141
0.0
142
0.0
 63
   250
361
3F
  0
ENDTAB
  0
TABLE
  2
LTYPE
  5
5
330
0
100
AcDbSymbolTable
 70
     1
  0
LTYPE
  5
14
330
5
100
AcDbSymbolTableRecord
100
AcDbLinetypeTableRecord
  2
ByBlock
 70
     0
  3

 72
    65
 73
     0
 40
0.0
  0
LTYPE
  5
15
330
5
100
AcDbSymbolTableRecord
100
AcDbLinetypeTableRecord
  2
ByLayer
 70
     0
  3

 72
    65
 73
     0
 40
0.0
  0
LTYPE
  5
16
330
5
100
AcDbSymbolTableRecord
100
AcDbLinetypeTableRecord
  2
Continuous
 70
     0
  3
Solid line
 72
    65
 73
     0
 40
0.0
  0
ENDTAB
  0
TABLE
  2
LAYER
  5
2
330
0
100
AcDbSymbolTable
 70
     2
  0
LAYER
  5
10
330
2
100
AcDbSymbolTableRecord
100
AcDbLayerTableRecord
  2
0
 70
     0
 62
     7
  6
Continuous
370
    -3
390
F
347
3E
  0
LAYER
  5
40
330
2
100
AcDbSymbolTableRecord
100
AcDbLayerTableRecord
  2
Capa 1
 70
     0
 62
     7
  6
Continuous
370
    -3
390
F
347
3E
  0
ENDTAB
  0
TABLE
  2
STYLE
  5
3
330
0
100
AcDbSymbolTable
 70
     1
  0
STYLE
  5
11
330
3
100
AcDbSymbolTableRecord
100
AcDbTextStyleTableRecord
  2
Standard
 70
     0
 40
0.0
 41
1.0
 50
0.0
 71
     0
 42
0.2
  3
txt
  4

  0
ENDTAB
  0
TABLE
  2
VIEW
  5
6
330
0
100
AcDbSymbolTable
 70
     0
  0
ENDTAB
  0
TABLE
  2
UCS
  5
7
330
0
100
AcDbSymbolTable
 70
     0
  0
ENDTAB
  0
TABLE
  2
APPID
  5
9
330
0
100
AcDbSymbolTable
 70
     1
  0
APPID
  5
12
330
9
100
AcDbSymbolTableRecord
100
AcDbRegAppTableRecord
  2
ACAD
 70
     0
  0
ENDTAB
  0
TABLE
  2
DIMSTYLE
  5
A
330
0
100
AcDbSymbolTable
 70
     1
100
AcDbDimStyleTable
  0
DIMSTYLE
105
27
330
A
100
AcDbSymbolTableRecord
100
AcDbDimStyleTableRecord
  2
Standard
 70
     0
178
     0
340
11
  0
ENDTAB
  0
TABLE
  2
BLOCK_RECORD
  5
1
330
0
100
AcDbSymbolTable
 70
     1
  0
BLOCK_RECORD
  5
1F
330
1
100
AcDbSymbolTableRecord
100
AcDbBlockTableRecord
  2
*Model_Space
340
22
 70
     0
280
     1
281
     0
  0
BLOCK_RECORD
  5
1B
330
1
100
AcDbSymbolTableRecord
100
AcDbBlockTableRecord
  2
*Paper_Space
340
1E
 70
     0
280
     1
281
     0
  0
BLOCK_RECORD
  5
23
330
1
100
AcDbSymbolTableRecord
100
AcDbBlockTableRecord
  2
*Paper_Space0
340
26
 70
     0
280
     1
281
     0
  0
ENDTAB
  0
ENDSEC
  0
SECTION
  2
BLOCKS
  0
BLOCK
  5
20
330
1F
100
AcDbEntity
  8
0
100
AcDbBlockBegin
  2
*Model_Space
 70
     0
 10
0.0
 20
0.0
 30
0.0
  3
*Model_Space
  1

  0
ENDBLK
  5
21
330
1F
100
AcDbEntity
  8
0
100
AcDbBlockEnd
  0
BLOCK
  5
1C
330
1B
100
AcDbEntity
 67
     1
  8
0
100
AcDbBlockBegin
  2
*Paper_Space
 70
     0
 10
0.0
 20
0.0
 30
0.0
  3
*Paper_Space
  1

  0
ENDBLK
  5
1D
330
1B
100
AcDbEntity
 67
     1
  8
0
100
AcDbBlockEnd
  0
BLOCK
  5
24
330
23
100
AcDbEntity
  8
0
100
AcDbBlockBegin
  2
*Paper_Space0
 70
     0
 10
0.0
 20
0.0
 30
0.0
  3
*Paper_Space0
  1

  0
ENDBLK
  5
25
330
23
100
AcDbEntity
  8
0
100
AcDbBlockEnd
  0
ENDSEC
  0
SECTION
  2
ENTITIES
  0
SPLINE
  5
41
330
1F
100
AcDbEntity
  8
Capa 1
370
     0
100
AcDbSpline
210
0.0
220
0.0
230
1.0
 70
    11
 71
     3
 72
   176
 73
   172
 74
     0
 42
0.0000000001
 43
0.0000000001
 12
1.0
 22
0.0
 32
0.0
 13
1.0
 23
0.0
 33
0.0
 40
0.0
 40
0.0
 40
0.0
 40
0.0
 40
1.0
 40
1.0
 40
1.0
 40
2.0
 40
2.0
 40
2.0
 40
3.0
 40
3.0
 40
3.0
 40
4.0
 40
4.0
 40
4.0
 40
5.0
 40
5.0
 40
5.0
 40
6.0
 40
6.0
 40
6.0
 40
7.0
 40
7.0
 40
7.0
 40
8.0
 40
8.0
 40
8.0
 40
9.0
 40
9.0
 40
9.0
 40
10.0
 40
10.0
 40
10.0
 40
11.0
 40
11.0
 40
11.0
 40
12.0
 40
12.0
 40
12.0
 40
13.0
 40
13.0
 40
13.0
 40
14.0
 40
14.0
 40
14.0
 40
15.0
 40
15.0
 40
15.0
 40
16.0
 40
16.0
 40
16.0
 40
17.0
 40
17.0
 40
17.0
 40
18.0
 40
18.0
 40
18.0
 40
19.0
 40
19.0
 40
19.0
 40
20.0
 40
20.0
 40
20.0
 40
21.0
 40
21.0
 40
21.0
 40
22.0
 40
22.0
 40
22.0
 40
23.0
 40
23.0
 40
23.0
 40
24.0
 40
24.0
 40
24.0
 40
25.0
 40
25.0
 40
25.0
 40
26.0
 40
26.0
 40
26.0
 40
27.0
 40
27.0
 40
27.0
 40
28.0
 40
28.0
 40
28.0
 40
29.0
 40
29.0
 40
29.0
 40
30.0
 40
30.0
 40
30.0
 40
31.0
 40
31.0
 40
31.0
 40
32.0
 40
32.0
 40
32.0
 40
33.0
 40
33.0
 40
33.0
 40
34.0
 40
34.0
 40
34.0
 40
35.0
 40
35.0
 40
35.0
 40
36.0
 40
36.0
 40
36.0
 40
37.0
 40
37.0
 40
37.0
 40
38.0
 40
38.0
 40
38.0
 40
39.0
 40
39.0
 40
39.0
 40
40.0
 40
40.0
 40
40.0
 40
41.0
 40
41.0
 40
41.0
 40
42.0
 40
42.0
 40
42.0
 40
43.0
 40
43.0
 40
43.0
 40
44.0
 40
44.0
 40
44.0
 40
45.0
 40
45.0
 40
45.0
 40
46.0
 40
46.0
 40
46.0
 40
47.0
 40
47.0
 40
47.0
 40
48.0
 40
48.0
 40
48.0
 40
49.0
 40
49.0
 40
49.0
 40
50.0
 40
50.0
 40
50.0
 40
51.0
 40
51.0
 40
51.0
 40
52.0
 40
52.0
 40
52.0
 40
53.0
 40
53.0
 40
53.0
 40
54.0
 40
54.0
 40
54.0
 40
55.0
 40
55.0
 40
55.0
 40
56.0
 40
56.0
 40
56.0
 40
57.0
 40
57.0
 40
57.0
 40
57.0
 10
16.32726136541146
 20
5.828841025696653
 30
0.0
 10
16.24005415616405
 20
5.992812498501796
 30
0.0
 10
16.12099165619382
 20
6.21509759535649
 30
0.0
 10
16.06006729572185
 20
6.326152401508197
 30
0.0
 10
15.96224165623351
 20
6.508749998372812
 30
0.0
 10
15.83256072602233
 20
6.749485734735696
 30
0.0
 10
15.32985239281467
 20
7.688756567834212
 30
0.0
 10
15.22662979593021
 20
7.87657563754366
 30
0.0
 10
15.07313571976958
 20
8.167617304137565
 30
0.0
 10
14.98589405956733
 20
8.329153525071574
 30
0.0
 10
14.89851136576864
 20
8.493124997876718
 30
0.0
 10
14.81913636578852
 20
8.628027400932728
 30
0.0
 10
14.80590719912513
 20
8.628027400932728
 30
0.0
 10
14.79532321983904
 20
8.628027400932728
 30
0.0
 10
14.6206988658381
 20
8.315924358408214
 30
0.0
 10
14.41442915662046
 20
7.932278525170792
 30
0.0
 10
13.99631729623779
 20
7.148971471058894
 30
0.0
 10
13.5888249426884
 20
6.392298234824993
 30
0.0
 10
13.31901905998405
 20
5.894986859013449
 30
0.0
 10
13.14167738691912
 20
5.569479165274297
 30
0.0
 10
13.13381072669702
 20
5.558860735033353
 30
0.0
 10
13.0490732202756
 20
5.558860735033353
 30
0.0
 10
12.99890832364101
 20
5.558860735033353
 30
0.0
 10
12.94860239340998
 20
5.574700638119128
 30
0.0
 10
12.93537322674663
 20
5.590716025756183
 30
0.0
 10
12.91953332366085
 20
5.609166665264374
 30
0.0
 10
12.77662322678631
 20
5.86852852568673
 30
0.0
 10
12.617873226826
 20
6.167402401547884
 30
0.0
 10
12.45651249044327
 20
6.466451761960318
 30
0.0
 10
12.04365655386029
 20
7.233743428435162
 30
0.0
 10
11.69705303323568
 20
7.873964901121243
 30
0.0
 10
11.35048396356592
 20
8.514361858358605
 30
0.0
 10
10.94299053342419
 20
9.276256567437336
 30
0.0
 10
10.78688679743349
 20
9.564687497608828
 30
0.0
 10
10.47474822736178
 20
10.14938156721906
 30
0.0
 10
10.33709513087927
 20
10.32936842766125
 30
0.0
 10
10.06203386267139
 20
10.50134759428493
 30
0.0
 10
9.688865426078488
 20
10.73146490040687
 30
0.0
 10
9.78944229728951
 20
10.71823573374351
 30
0.0
 10
8.516831561184594
 20
10.71823573374351
 30
0.0
 10
8.516831561184594
 20
10.71823573374351
 30
0.0
 10
7.384344700980519
 20
10.71823573374351
 30
0.0
 10
7.384344700980519
 20
10.71823573374351
 30
0.0
 10
7.384344700980519
 20
10.71823573374351
 30
0.0
 10
7.244221363375847
 20
10.78438156706031
 30
0.0
 10
7.244221363375847
 20
10.78438156706031
 30
0.0
 10
7.170067836240523
 20
10.81884759420555
 30
0.0
 10
7.056261260069973
 20
10.88760416394476
 30
0.0
 10
6.998088669616851
 20
10.93529989604954
 30
0.0
 10
6.715054696841473
 20
11.16019572932665
 30
0.0
 10
6.339240534575128
 20
11.79780592729415
 30
0.0
 10
6.339240534575128
 20
12.04916009389797
 30
0.0
 10
6.339240534575128
 20
12.04916009389797
 30
0.0
 10
6.339240534575128
 20
12.17605480313546
 30
0.0
 10
6.339240534575128
 20
12.17605480313546
 30
0.0
 10
6.339240534575128
 20
12.17605480313546
 30
0.0
 10
8.44807552974155
 20
12.16822259386821
 30
0.0
 10
8.44807552974155
 20
12.16822259386821
 30
0.0
 10
8.44807552974155
 20
12.16822259386821
 30
0.0
 10
10.55934470018677
 20
12.16021490004968
 30
0.0
 10
10.55934470018677
 20
12.16021490004968
 30
0.0
 10
10.55934470018677
 20
12.16021490004968
 30
0.0
 10
10.77101136680052
 20
12.08884759388805
 30
0.0
 10
10.77101136680052
 20
12.08884759388805
 30
0.0
 10
10.96683813032849
 20
12.02009102414884
 30
0.0
 10
11.17589406051983
 20
11.90363926060102
 30
0.0
 10
11.33203440065006
 20
11.76873685754501
 30
0.0
 10
11.46157429726481
 20
11.65489583041961
 30
0.0
 10
11.47480346392817
 20
11.63365896993772
 30
0.0
 10
12.21299160969903
 20
10.21552740053585
 30
0.0
 10
12.39297739354889
 20
9.874179803710925
 30
0.0
 10
12.62849165706694
 20
9.42177740073429
 30
0.0
 10
12.7421582762334
 20
9.21011073412054
 30
0.0
 10
12.85338749034405
 20
8.99844406750679
 30
0.0
 10
12.95382494284715
 20
8.802617303978815
 30
0.0
 10
12.9644433730881
 20
8.77354823422968
 30
0.0
 10
12.9644433730881
 20
8.77354823422968
 30
0.0
 10
12.98567915697765
 20
8.720631567576243
 30
0.0
 10
12.98567915697765
 20
8.720631567576243
 30
0.0
 10
12.98567915697765
 20
8.720631567576243
 30
0.0
 10
13.02536665696772
 20
8.77354823422968
 30
0.0
 10
13.02536665696772
 20
8.77354823422968
 30
0.0
 10
13.05965827615403
 20
8.821243428038287
 30
0.0
 10
13.38255415687843
 20
9.413945191467043
 30
0.0
 10
14.40903327581669
 20
11.31894572928696
 30
0.0
 10
14.40903327581669
 20
11.31894572928696
 30
0.0
 10
14.71330303248161
 20
11.88240240011913
 30
0.0
 10
14.71330303248161
 20
11.88240240011913
 30
0.0
 10
14.71330303248161
 20
11.88240240011913
 30
0.0
 10
14.80590719912513
 20
11.88240240011913
 30
0.0
 10
14.80590719912513
 20
11.88240240011913
 30
0.0
 10
14.89851136576864
 20
11.88240240011913
 30
0.0
 10
14.90390832316475
 20
11.8771809272743
 30
0.0
 10
15.05203989288412
 20
11.59675822921751
 30
0.0
 10
15.1340256292867
 20
11.44061842738344
 30
0.0
 10
15.28480238638333
 20
11.16541666387531
 30
0.0
 10
15.38276905946811
 20
10.9828190670107
 30
0.0
 10
15.90657429615356
 20
10.01970063700788
 30
0.0
 10
16.15528219878778
 20
9.562076761186411
 30
0.0
 10
16.30881072590326
 20
9.276256567437336
 30
0.0
 10
16.40141489254678
 20
9.10166666439125
 30
0.0
 10
16.50724822585365
 20
8.905839900863274
 30
0.0
 10
16.54432498942132
 20
8.84509102494259
 30
0.0
 10
16.54432498942132
 20
8.84509102494259
 30
0.0
 10
16.61047082273812
 20
8.728639261394772
 30
0.0
 10
16.61047082273812
 20
8.728639261394772
 30
0.0
 10
16.61047082273812
 20
8.728639261394772
 30
0.0
 10
16.65537979557303
 20
8.805403524952512
 30
0.0
 10
16.65537979557303
 20
8.805403524952512
 30
0.0
 10
16.68183812889974
 20
8.84509102494259
 30
0.0
 10
16.80090062886998
 20
9.069986858219698
 30
0.0
 10
16.92257386526263
 20
9.302714900764055
 30
0.0
 10
17.04163636523286
 20
9.535618427859692
 30
0.0
 10
17.26392146208756
 20
9.958951761087192
 30
0.0
 10
17.41205303180692
 20
10.24198573386257
 30
0.0
 10
17.56022012907349
 20
10.5251957294854
 30
0.0
 10
17.76924053171763
 20
10.92468092751243
 30
0.0
 10
17.8750738650245
 20
11.12833990030765
 30
0.0
 10
17.98090719833138
 20
11.33217489595032
 30
0.0
 10
18.10797739212014
 20
11.55428396995756
 30
0.0
 10
18.15553262892466
 20
11.62042980327436
 30
0.0
 10
18.26933812850287
 20
11.77656906681226
 30
0.0
 10
18.50485239202092
 20
11.95394519083204
 30
0.0
 10
18.70328989197131
 20
12.03593092723461
 30
0.0
 10
19.03924053140013
 20
12.17083333029062
 30
0.0
 10
19.06308812830443
 20
12.17344406671304
 30
0.0
 10
21.25651905799967
 20
12.17344406671304
 30
0.0
 10
21.25651905799967
 20
12.17344406671304
 30
0.0
 10
23.29903219700185
 20
12.17344406671304
 30
0.0
 10
23.29903219700185
 20
12.17344406671304
 30
0.0
 10
23.29903219700185
 20
12.17344406671304
 30
0.0
 10
23.29903219700185
 20
12.08623685746564
 30
0.0
 10
23.29903219700185
 20
12.08623685746564
 30
0.0
 10
23.29903219700185
 20
12.04115240007945
 30
0.0
 10
23.25673288399701
 20
11.90886073344585
 30
0.0
 10
23.20907429432794
 20
11.79519519087173
 30
0.0
 10
22.98953989089975
 20
11.29509759408649
 30
0.0
 10
22.71694886381403
 20
10.95897093181022
 30
0.0
 10
22.40209512786302
 20
10.80300822941595
 30
0.0
 10
22.40209512786302
 20
10.80300822941595
 30
0.0
 10
22.23286773125819
 20
10.71823573374351
 30
0.0
 10
22.23286773125819
 20
10.71823573374351
 30
0.0
 10
22.23286773125819
 20
10.71823573374351
 30
0.0
 10
19.96528219783528
 20
10.71823573374351
 30
0.0
 10
19.96528219783528
 20
10.71823573374351
 30
0.0
 10
19.96528219783528
 20
10.71823573374351
 30
0.0
 10
19.79330303121161
 20
10.63624999734094
 30
0.0
 10
19.79330303121161
 20
10.63624999734094
 30
0.0
 10
19.57902562817545
 20
10.53563813687889
 30
0.0
 10
19.34351136465739
 20
10.36365897025522
 30
0.0
 10
19.21386596199341
 20
10.21291666411344
 30
0.0
 10
19.15830303137036
 20
10.14938156721906
 30
0.0
 10
18.91234582216265
 20
9.720826761146723
 30
0.0
 10
18.66360239198123
 20
9.263027400773979
 30
0.0
 10
18.41746969822224
 20
8.805403524952512
 30
0.0
 10
18.00475479523568
 20
8.043333331322499
 30
0.0
 10
17.75078989220944
 20
7.569694067863978
 30
0.0
 10
17.49407429575669
 20
7.096054804405457
 30
0.0
 10
17.2506922954242
 20
6.643652401428822
 30
0.0
 10
17.2083940590117
 20
6.564277401448665
 30
0.0
 10
17.1633451291727
 20
6.484902401468509
 30
0.0
 10
17.02057498930225
 20
6.220319068201322
 30
0.0
 10
16.89089405909108
 20
5.974361858993605
 30
0.0
 10
16.66063679596505
 20
5.545631568369994
 30
0.0
 10
16.65015832272819
 20
5.532402401706634
 30
0.0
 10
16.56803262932153
 20
5.532402401706634
 30
0.0
 10
16.49140832276788
 20
5.532402401706634
 30
0.0
 10
16.47817915610452
 20
5.548242304792409
 30
0.0
 10
16.32726136541146
 20
5.828841025696653
 30
0.0
 10
16.32726136541146
 20
5.828841025696653
 30
0.0
 10
16.32726136541146
 20
5.828841025696653
 30
0.0
 10
16.32726136541146
 20
5.828841025696653
 30
0.0
  0
POLYLINE
  5
42
330
1F
100
AcDbEntity
  8
Capa 1
370
     0
100
AcDb2dPolyline
 66
     1
 10
0.0
 20
0.0
 30
0.0
  0
VERTEX
  5
43
330
42
100
AcDbEntity
  8
Capa 1
370
     0
100
AcDbVertex
100
AcDb2dVertex
 10
16.32726136541146
 20
5.828841025696653
 30
0.0
  0
VERTEX
  5
5E
330
42
100
AcDbEntity
  8
0
100
AcDbVertex
100
AcDb2dVertex
 10
16.32726136541146
 20
5.828841025696653
 30
0.0
  0
SEQEND
  5
44
330
42
100
AcDbEntity
  8
Capa 1
370
     0
  0
HATCH
  5
45
330
1F
100
AcDbEntity
  8
Capa 1
 62
    53
420
 15649081
100
AcDbHatch
 10
0.0
 20
0.0
 30
0.0
210
0.0
220
0.0
230
1.0
  2
SOLID
 70
     1
 71
     0
 91
        1
 92
        1
 93
        1
 72
     4
 94
        3
 73
     0
 74
     1
 95
      176
 96
      172
 40
0.0
 40
0.0
 40
0.0
 40
0.0
 40
1.0
 40
1.0
 40
1.0
 40
2.0
 40
2.0
 40
2.0
 40
3.0
 40
3.0
 40
3.0
 40
4.0
 40
4.0
 40
4.0
 40
5.0
 40
5.0
 40
5.0
 40
6.0
 40
6.0
 40
6.0
 40
7.0
 40
7.0
 40
7.0
 40
8.0
 40
8.0
 40
8.0
 40
9.0
 40
9.0
 40
9.0
 40
10.0
 40
10.0
 40
10.0
 40
11.0
 40
11.0
 40
11.0
 40
12.0
 40
12.0
 40
12.0
 40
13.0
 40
13.0
 40
13.0
 40
14.0
 40
14.0
 40
14.0
 40
15.0
 40
15.0
 40
15.0
 40
16.0
 40
16.0
 40
16.0
 40
17.0
 40
17.0
 40
17.0
 40
18.0
 40
18.0
 40
18.0
 40
19.0
 40
19.0
 40
19.0
 40
20.0
 40
20.0
 40
20.0
 40
21.0
 40
21.0
 40
21.0
 40
22.0
 40
22.0
 40
22.0
 40
23.0
 40
23.0
 40
23.0
 40
24.0
 40
24.0
 40
24.0
 40
25.0
 40
25.0
 40
25.0
 40
26.0
 40
26.0
 40
26.0
 40
27.0
 40
27.0
 40
27.0
 40
28.0
 40
28.0
 40
28.0
 40
29.0
 40
29.0
 40
29.0
 40
30.0
 40
30.0
 40
30.0
 40
31.0
 40
31.0
 40
31.0
 40
32.0
 40
32.0
 40
32.0
 40
33.0
 40
33.0
 40
33.0
 40
34.0
 40
34.0
 40
34.0
 40
35.0
 40
35.0
 40
35.0
 40
36.0
 40
36.0
 40
36.0
 40
37.0
 40
37.0
 40
37.0
 40
38.0
 40
38.0
 40
38.0
 40
39.0
 40
39.0
 40
39.0
 40
40.0
 40
40.0
 40
40.0
 40
41.0
 40
41.0
 40
41.0
 40
42.0
 40
42.0
 40
42.0
 40
43.0
 40
43.0
 40
43.0
 40
44.0
 40
44.0
 40
44.0
 40
45.0
 40
45.0
 40
45.0
 40
46.0
 40
46.0
 40
46.0
 40
47.0
 40
47.0
 40
47.0
 40
48.0
 40
48.0
 40
48.0
 40
49.0
 40
49.0
 40
49.0
 40
50.0
 40
50.0
 40
50.0
 40
51.0
 40
51.0
 40
51.0
 40
52.0
 40
52.0
 40
52.0
 40
53.0
 40
53.0
 40
53.0
 40
54.0
 40
54.0
 40
54.0
 40
55.0
 40
55.0
 40
55.0
 40
56.0
 40
56.0
 40
56.0
 40
57.0
 40
57.0
 40
57.0
 40
57.0
 10
16.32726136541146
 20
5.828841025696653
 10
16.24005415616405
 20
5.992812498501796
 10
16.12099165619382
 20
6.21509759535649
 10
16.06006729572185
 20
6.326152401508197
 10
15.96224165623351
 20
6.508749998372812
 10
15.83256072602233
 20
6.749485734735696
 10
15.32985239281467
 20
7.688756567834212
 10
15.22662979593021
 20
7.87657563754366
 10
15.07313571976958
 20
8.167617304137565
 10
14.98589405956733
 20
8.329153525071574
 10
14.89851136576864
 20
8.493124997876718
 10
14.81913636578852
 20
8.628027400932728
 10
14.80590719912513
 20
8.628027400932728
 10
14.79532321983904
 20
8.628027400932728
 10
14.6206988658381
 20
8.315924358408214
 10
14.41442915662046
 20
7.932278525170792
 10
13.99631729623779
 20
7.148971471058894
 10
13.5888249426884
 20
6.392298234824993
 10
13.31901905998405
 20
5.894986859013449
 10
13.14167738691912
 20
5.569479165274297
 10
13.13381072669702
 20
5.558860735033353
 10
13.0490732202756
 20
5.558860735033353
 10
12.99890832364101
 20
5.558860735033353
 10
12.94860239340998
 20
5.574700638119128
 10
12.93537322674663
 20
5.590716025756183
 10
12.91953332366085
 20
5.609166665264374
 10
12.77662322678631
 20
5.86852852568673
 10
12.617873226826
 20
6.167402401547884
 10
12.45651249044327
 20
6.466451761960318
 10
12.04365655386029
 20
7.233743428435162
 10
11.69705303323568
 20
7.873964901121243
 10
11.35048396356592
 20
8.514361858358605
 10
10.94299053342419
 20
9.276256567437336
 10
10.78688679743349
 20
9.564687497608828
 10
10.47474822736178
 20
10.14938156721906
 10
10.33709513087927
 20
10.32936842766125
 10
10.06203386267139
 20
10.50134759428493
 10
9.688865426078488
 20
10.73146490040687
 10
9.78944229728951
 20
10.71823573374351
 10
8.516831561184594
 20
10.71823573374351
 10
8.516831561184594
 20
10.71823573374351
 10
7.384344700980519
 20
10.71823573374351
 10
7.384344700980519
 20
10.71823573374351
 10
7.384344700980519
 20
10.71823573374351
 10
7.244221363375847
 20
10.78438156706031
 10
7.244221363375847
 20
10.78438156706031
 10
7.170067836240523
 20
10.81884759420555
 10
7.056261260069973
 20
10.88760416394476
 10
6.998088669616851
 20
10.93529989604954
 10
6.715054696841473
 20
11.16019572932665
 10
6.339240534575128
 20
11.79780592729415
 10
6.339240534575128
 20
12.04916009389797
 10
6.339240534575128
 20
12.04916009389797
 10
6.339240534575128
 20
12.17605480313546
 10
6.339240534575128
 20
12.17605480313546
 10
6.339240534575128
 20
12.17605480313546
 10
8.44807552974155
 20
12.16822259386821
 10
8.44807552974155
 20
12.16822259386821
 10
8.44807552974155
 20
12.16822259386821
 10
10.55934470018677
 20
12.16021490004968
 10
10.55934470018677
 20
12.16021490004968
 10
10.55934470018677
 20
12.16021490004968
 10
10.77101136680052
 20
12.08884759388805
 10
10.77101136680052
 20
12.08884759388805
 10
10.96683813032849
 20
12.02009102414884
 10
11.17589406051983
 20
11.90363926060102
 10
11.33203440065006
 20
11.76873685754501
 10
11.46157429726481
 20
11.65489583041961
 10
11.47480346392817
 20
11.63365896993772
 10
12.21299160969903
 20
10.21552740053585
 10
12.39297739354889
 20
9.874179803710925
 10
12.62849165706694
 20
9.42177740073429
 10
12.7421582762334
 20
9.21011073412054
 10
12.85338749034405
 20
8.99844406750679
 10
12.95382494284715
 20
8.802617303978815
 10
12.9644433730881
 20
8.77354823422968
 10
12.9644433730881
 20
8.77354823422968
 10
12.98567915697765
 20
8.720631567576243
 10
12.98567915697765
 20
8.720631567576243
 10
12.98567915697765
 20
8.720631567576243
 10
13.02536665696772
 20
8.77354823422968
 10
13.02536665696772
 20
8.77354823422968
 10
13.05965827615403
 20
8.821243428038287
 10
13.38255415687843
 20
9.413945191467043
 10
14.40903327581669
 20
11.31894572928696
 10
14.40903327581669
 20
11.31894572928696
 10
14.71330303248161
 20
11.88240240011913
 10
14.71330303248161
 20
11.88240240011913
 10
14.71330303248161
 20
11.88240240011913
 10
14.80590719912513
 20
11.88240240011913
 10
14.80590719912513
 20
11.88240240011913
 10
14.89851136576864
 20
11.88240240011913
 10
14.90390832316475
 20
11.8771809272743
 10
15.05203989288412
 20
11.59675822921751
 10
15.1340256292867
 20
11.44061842738344
 10
15.28480238638333
 20
11.16541666387531
 10
15.38276905946811
 20
10.9828190670107
 10
15.90657429615356
 20
10.01970063700788
 10
16.15528219878778
 20
9.562076761186411
 10
16.30881072590326
 20
9.276256567437336
 10
16.40141489254678
 20
9.10166666439125
 10
16.50724822585365
 20
8.905839900863274
 10
16.54432498942132
 20
8.84509102494259
 10
16.54432498942132
 20
8.84509102494259
 10
16.61047082273812
 20
8.728639261394772
 10
16.61047082273812
 20
8.728639261394772
 10
16.61047082273812
 20
8.728639261394772
 10
16.65537979557303
 20
8.805403524952512
 10
16.65537979557303
 20
8.805403524952512
 10
16.68183812889974
 20
8.84509102494259
 10
16.80090062886998
 20
9.069986858219698
 10
16.92257386526263
 20
9.302714900764055
 10
17.04163636523286
 20
9.535618427859692
 10
17.26392146208756
 20
9.958951761087192
 10
17.41205303180692
 20
10.24198573386257
 10
17.56022012907349
 20
10.5251957294854
 10
17.76924053171763
 20
10.92468092751243
 10
17.8750738650245
 20
11.12833990030765
 10
17.98090719833138
 20
11.33217489595032
 10
18.10797739212014
 20
11.55428396995756
 10
18.15553262892466
 20
11.62042980327436
 10
18.26933812850287
 20
11.77656906681226
 10
18.50485239202092
 20
11.95394519083204
 10
18.70328989197131
 20
12.03593092723461
 10
19.03924053140013
 20
12.17083333029062
 10
19.06308812830443
 20
12.17344406671304
 10
21.25651905799967
 20
12.17344406671304
 10
21.25651905799967
 20
12.17344406671304
 10
23.29903219700185
 20
12.17344406671304
 10
23.29903219700185
 20
12.17344406671304
 10
23.29903219700185
 20
12.17344406671304
 10
23.29903219700185
 20
12.08623685746564
 10
23.29903219700185
 20
12.08623685746564
 10
23.29903219700185
 20
12.04115240007945
 10
23.25673288399701
 20
11.90886073344585
 10
23.20907429432794
 20
11.79519519087173
 10
22.98953989089975
 20
11.29509759408649
 10
22.71694886381403
 20
10.95897093181022
 10
22.40209512786302
 20
10.80300822941595
 10
22.40209512786302
 20
10.80300822941595
 10
22.23286773125819
 20
10.71823573374351
 10
22.23286773125819
 20
10.71823573374351
 10
22.23286773125819
 20
10.71823573374351
 10
19.96528219783528
 20
10.71823573374351
 10
19.96528219783528
 20
10.71823573374351
 10
19.96528219783528
 20
10.71823573374351
 10
19.79330303121161
 20
10.63624999734094
 10
19.79330303121161
 20
10.63624999734094
 10
19.57902562817545
 20
10.53563813687889
 10
19.34351136465739
 20
10.36365897025522
 10
19.21386596199341
 20
10.21291666411344
 10
19.15830303137036
 20
10.14938156721906
 10
18.91234582216265
 20
9.720826761146723
 10
18.66360239198123
 20
9.263027400773979
 10
18.41746969822224
 20
8.805403524952512
 10
18.00475479523568
 20
8.043333331322499
 10
17.75078989220944
 20
7.569694067863978
 10
17.49407429575669
 20
7.096054804405457
 10
17.2506922954242
 20
6.643652401428822
 10
17.2083940590117
 20
6.564277401448665
 10
17.1633451291727
 20
6.484902401468509
 10
17.02057498930225
 20
6.220319068201322
 10
16.89089405909108
 20
5.974361858993605
 10
16.66063679596505
 20
5.545631568369994
 10
16.65015832272819
 20
5.532402401706634
 10
16.56803262932153
 20
5.532402401706634
 10
16.49140832276788
 20
5.532402401706634
 10
16.47817915610452
 20
5.548242304792409
 10
16.32726136541146
 20
5.828841025696653
 10
16.32726136541146
 20
5.828841025696653
 10
16.32726136541146
 20
5.828841025696653
 10
16.32726136541146
 20
5.828841025696653
 97
        0
 97
        0
 75
     2
 76
     1
 98
        0
  0
SPLINE
  5
46
330
1F
100
AcDbEntity
  8
Capa 1
370
     0
100
AcDbSpline
210
0.0
220
0.0
230
1.0
 70
    11
 71
     3
 72
   158
 73
   154
 74
     0
 42
0.0000000001
 43
0.0000000001
 12
1.0
 22
0.0
 32
0.0
 13
1.0
 23
0.0
 33
0.0
 40
0.0
 40
0.0
 40
0.0
 40
0.0
 40
1.0
 40
1.0
 40
1.0
 40
2.0
 40
2.0
 40
2.0
 40
3.0
 40
3.0
 40
3.0
 40
4.0
 40
4.0
 40
4.0
 40
5.0
 40
5.0
 40
5.0
 40
6.0
 40
6.0
 40
6.0
 40
7.0
 40
7.0
 40
7.0
 40
8.0
 40
8.0
 40
8.0
 40
9.0
 40
9.0
 40
9.0
 40
10.0
 40
10.0
 40
10.0
 40
11.0
 40
11.0
 40
11.0
 40
12.0
 40
12.0
 40
12.0
 40
13.0
 40
13.0
 40
13.0
 40
14.0
 40
14.0
 40
14.0
 40
15.0
 40
15.0
 40
15.0
 40
16.0
 40
16.0
 40
16.0
 40
17.0
 40
17.0
 40
17.0
 40
18.0
 40
18.0
 40
18.0
 40
19.0
 40
19.0
 40
19.0
 40
20.0
 40
20.0
 40
20.0
 40
21.0
 40
21.0
 40
21.0
 40
22.0
 40
22.0
 40
22.0
 40
23.0
 40
23.0
 40
23.0
 40
24.0
 40
24.0
 40
24.0
 40
25.0
 40
25.0
 40
25.0
 40
26.0
 40
26.0
 40
26.0
 40
27.0
 40
27.0
 40
27.0
 40
28.0
 40
28.0
 40
28.0
 40
29.0
 40
29.0
 40
29.0
 40
30.0
 40
30.0
 40
30.0
 40
31.0
 40
31.0
 40
31.0
 40
32.0
 40
32.0
 40
32.0
 40
33.0
 40
33.0
 40
33.0
 40
34.0
 40
34.0
 40
34.0
 40
35.0
 40
35.0
 40
35.0
 40
36.0
 40
36.0
 40
36.0
 40
37.0
 40
37.0
 40
37.0
 40
38.0
 40
38.0
 40
38.0
 40
39.0
 40
39.0
 40
39.0
 40
40.0
 40
40.0
 40
40.0
 40
41.0
 40
41.0
 40
41.0
 40
42.0
 40
42.0
 40
42.0
 40
43.0
 40
43.0
 40
43.0
 40
44.0
 40
44.0
 40
44.0
 40
45.0
 40
45.0
 40
45.0
 40
46.0
 40
46.0
 40
46.0
 40
47.0
 40
47.0
 40
47.0
 40
48.0
 40
48.0
 40
48.0
 40
49.0
 40
49.0
 40
49.0
 40
50.0
 40
50.0
 40
50.0
 40
51.0
 40
51.0
 40
51.0
 40
51.0
 10
12.85861003978122
 20
9.162591024863215
 30
0.0
 10
12.78985239344967
 20
9.297493427919225
 30
0.0
 10
12.42730238709771
 20
10.00124999749969
 30
0.0
 10
11.85058263694349
 20
11.11511073364429
 30
0.0
 10
11.22881072717326
 20
12.31113269074275
 30
0.0
 10
11.01714406055951
 20
12.72906906657413
 30
0.0
 10
10.85578440076913
 20
13.07302739982148
 30
0.0
 10
10.65995656064881
 20
13.48574230280803
 30
0.0
 10
10.41922190087827
 20
13.76355480273858
 30
0.0
 10
10.11219875930599
 20
13.927701760095
 30
0.0
 10
10.11219875930599
 20
13.927701760095
 30
0.0
 10
10.00371970032568
 20
13.98583989959327
 30
0.0
 10
10.00371970032568
 20
13.98583989959327
 30
0.0
 10
10.00371970032568
 20
13.98583989959327
 30
0.0
 10
4.606219701675051
 20
14.01229823291999
 30
0.0
 10
4.606219701675051
 20
14.01229823291999
 30
0.0
 10
4.606219701675051
 20
14.01229823291999
 30
0.0
 10
4.460698868378097
 20
14.07061185696954
 30
0.0
 10
4.460698868378097
 20
14.07061185696954
 30
0.0
 10
4.143198868457473
 20
14.20011730262944
 30
0.0
 10
3.801886799179736
 20
14.56792323278109
 30
0.0
 10
3.576990965902627
 20
15.02311185673142
 30
0.0
 10
3.51084513258583
 20
15.15540352336501
 30
0.0
 10
3.455282201962785
 20
15.30353616967672
 30
0.0
 10
3.455282201962785
 20
15.34844406591929
 30
0.0
 10
3.455282201962785
 20
15.34844406591929
 30
0.0
 10
3.455282201962785
 20
15.42781906589945
 30
0.0
 10
3.455282201962785
 20
15.42781906589945
 30
0.0
 10
3.455282201962785
 20
15.42781906589945
 30
0.0
 10
7.114540433164669
 20
15.42259759305461
 30
0.0
 10
7.114540433164669
 20
15.42259759305461
 30
0.0
 10
7.114540433164669
 20
15.42259759305461
 30
0.0
 10
10.77101136680052
 20
15.41458989923609
 30
0.0
 10
10.77101136680052
 20
15.41458989923609
 30
0.0
 10
10.77101136680052
 20
15.41458989923609
 30
0.0
 10
10.93515940074928
 20
15.3538410233154
 30
0.0
 10
10.93515940074928
 20
15.3538410233154
 30
0.0
 10
11.15465720003794
 20
15.27167980236155
 30
0.0
 10
11.3849510673035
 20
15.11832783638969
 30
0.0
 10
11.50923396352623
 20
14.97541666292281
 30
0.0
 10
11.59386596389841
 20
14.87759102343446
 30
0.0
 10
11.87704097027021
 20
14.37749342664922
 30
0.0
 10
12.50403327629294
 20
13.21854823311843
 30
0.0
 10
12.57557499041351
 20
13.08625656648484
 30
0.0
 10
12.71569994290669
 20
12.82707019061376
 30
0.0
 10
12.81631072677639
 20
12.64186185732673
 30
0.0
 10
12.81631072677639
 20
12.64186185732673
 30
0.0
 10
12.99890832364101
 20
12.30312499692422
 30
0.0
 10
12.99890832364101
 20
12.30312499692422
 30
0.0
 10
12.99890832364101
 20
12.30312499692422
 30
0.0
 10
13.19995656001381
 20
12.68154935731681
 30
0.0
 10
13.19995656001381
 20
12.68154935731681
 30
0.0
 10
13.31365655354279
 20
12.89042980295686
 30
0.0
 10
13.50683812969349
 20
13.25040352384126
 30
0.0
 10
13.63390832348226
 20
13.48574230280803
 30
0.0
 10
13.76344822009701
 20
13.71864582990367
 30
0.0
 10
14.05724165670976
 20
14.26365239952382
 30
0.0
 10
14.28997077584645
 20
14.69499342656985
 30
0.0
 10
14.28997077584645
 20
14.69499342656985
 30
0.0
 10
14.71330303248161
 20
15.48073573255288
 30
0.0
 10
14.71330303248161
 20
15.48073573255288
 30
0.0
 10
14.71330303248161
 20
15.48073573255288
 30
0.0
 10
14.80590719912513
 20
15.48073573255288
 30
0.0
 10
14.80590719912513
 20
15.48073573255288
 30
0.0
 10
14.89590062934623
 20
15.48073573255288
 30
0.0
 10
14.90390832316475
 20
15.47290352328564
 30
0.0
 10
15.01496312931646
 20
15.26123685667189
 30
0.0
 10
15.07849822621084
 20
15.14217435670165
 30
0.0
 10
15.27954646258365
 20
14.76897146915389
 30
0.0
 10
15.46214405944827
 20
14.43563156614749
 30
0.0
 10
15.64474165631288
 20
14.09968092671868
 30
0.0
 10
15.84317915626327
 20
13.73187499656703
 30
0.0
 10
15.90657429615356
 20
13.61542323301921
 30
0.0
 10
16.28496312899896
 20
12.91166666343875
 30
0.0
 10
16.54432498942132
 20
12.43802739998023
 30
0.0
 10
16.58126179598489
 20
12.38511073332679
 30
0.0
 10
16.62892146224631
 20
12.31374342716516
 30
0.0
 10
16.52569886536185
 20
12.14437499696391
 30
0.0
 10
17.51266489226897
 20
13.95938156626656
 30
0.0
 10
18.06028219831153
 20
14.97019519007798
 30
0.0
 10
18.16350479519599
 20
15.10770832955641
 30
0.0
 10
18.48626179550864
 20
15.26384866968664
 30
0.0
 10
18.84080303144974
 20
15.43582675971797
 30
0.0
 10
18.61329646175021
 20
15.42781906589945
 30
0.0
 10
22.55036773117881
 20
15.42781906589945
 30
0.0
 10
22.55036773117881
 20
15.42781906589945
 30
0.0
 10
26.13007386296075
 20
15.42781906589945
 30
0.0
 10
26.13007386296075
 20
15.42781906589945
 30
0.0
 10
26.13007386296075
 20
15.42781906589945
 30
0.0
 10
26.13007386296075
 20
15.31937499617016
 30
0.0
 10
26.13007386296075
 20
15.31937499617016
 30
0.0
 10
26.13007386296075
 20
15.10509866972633
 30
0.0
 10
25.7782843970385
 20
14.53084646921342
 30
0.0
 10
25.50047189710795
 20
14.29011073285054
 30
0.0
 10
25.43157429377231
 20
14.23197259335227
 30
0.0
 10
25.29928262713872
 20
14.14458989955359
 30
0.0
 10
25.2040321965256
 20
14.09707019029626
 30
0.0
 10
25.2040321965256
 20
14.09707019029626
 30
0.0
 10
25.03205302990192
 20
14.01229823291999
 30
0.0
 10
25.03205302990192
 20
14.01229823291999
 30
0.0
 10
25.03205302990192
 20
14.01229823291999
 30
0.0
 10
19.60809469792458
 20
13.98583989959327
 30
0.0
 10
19.60809469792458
 20
13.98583989959327
 30
0.0
 10
19.60809469792458
 20
13.98583989959327
 30
0.0
 10
19.46522012859723
 20
13.90646489961312
 30
0.0
 10
19.46522012859723
 20
13.90646489961312
 30
0.0
 10
19.29324096197356
 20
13.81124999654719
 30
0.0
 10
19.0578666554596
 20
13.58113269042525
 30
0.0
 10
18.9228242953995
 20
13.37729823307874
 30
0.0
 10
18.86726136477646
 20
13.29792323309859
 30
0.0
 10
18.76943572528811
 20
13.11010416338914
 30
0.0
 10
18.70328989197131
 20
12.95936185724736
 30
0.0
 10
18.63714405865451
 20
12.81105480297671
 30
0.0
 10
18.57621969818255
 20
12.6761523999207
 30
0.0
 10
18.56299053151919
 20
12.66292323325734
 30
0.0
 10
18.55240762882544
 20
12.64708333017156
 30
0.0
 10
18.37517146180974
 20
12.30834646976905
 30
0.0
 10
18.17151248901452
 20
11.90886073344585
 30
0.0
 10
17.9650672952456
 20
11.50937499712266
 30
0.0
 10
17.55496312868146
 20
10.71040406277243
 30
0.0
 10
17.25594929581622
 20
10.1361524005557
 30
0.0
 10
17.25594929581622
 20
10.1361524005557
 30
0.0
 10
16.71630415604499
 20
9.091048234150305
 30
0.0
 10
16.71630415604499
 20
9.091048234150305
 30
0.0
 10
16.71630415604499
 20
9.091048234150305
 30
0.0
 10
16.62631072582389
 20
9.083216024883058
 30
0.0
 10
16.62631072582389
 20
9.083216024883058
 30
0.0
 10
16.62631072582389
 20
9.083216024883058
 30
0.0
 10
16.53631729560279
 20
9.07520833106453
 30
0.0
 10
16.53631729560279
 20
9.07520833106453
 30
0.0
 10
16.53631729560279
 20
9.07520833106453
 30
0.0
 10
15.67642146248443
 20
10.67593749733101
 30
0.0
 10
15.67642146248443
 20
10.67593749733101
 30
0.0
 10
15.20542738640318
 20
11.55707072922743
 30
0.0
 10
14.81391489294366
 20
12.2766666635975
 30
0.0
 10
14.80590719912513
 20
12.27927740001991
 30
0.0
 10
14.79807498985788
 20
12.27927740001991
 30
0.0
 10
14.74776905962686
 20
12.19207019077251
 30
0.0
 10
14.692241656551
 20
12.08623685746564
 30
0.0
 10
14.63932498989757
 20
11.98301426058118
 30
0.0
 10
14.53349165659069
 20
11.78196602420837
 30
0.0
 10
14.45933812945537
 20
11.64427740017866
 30
0.0
 10
13.97247077592583
 20
10.74208333064781
 30
0.0
 10
13.38777562972326
 20
9.65207019140751
 30
0.0
 10
13.24751072022599
 20
9.387486858140324
 30
0.0
 10
13.08611660948075
 20
9.085826761305475
 30
0.0
 10
13.08089406004358
 20
9.077819067486946
 30
0.0
 10
12.99090170641482
 20
9.077819067486946
 30
0.0
 10
12.91678155364201
 20
9.077819067486946
 30
0.0
 10
12.89568572675655
 20
9.091048234150305
 30
0.0
 10
12.85861003978122
 20
9.162591024863215
 30
0.0
 10
12.85861003978122
 20
9.162591024863215
 30
0.0
 10
12.85861003978122
 20
9.162591024863215
 30
0.0
 10
12.85861003978122
 20
9.162591024863215
 30
0.0
  0
POLYLINE
  5
47
330
1F
100
AcDbEntity
  8
Capa 1
370
     0
100
AcDb2dPolyline
 66
     1
 10
0.0
 20
0.0
 30
0.0
  0
VERTEX
  5
48
330
47
100
AcDbEntity
  8
Capa 1
370
     0
100
AcDbVertex
100
AcDb2dVertex
 10
12.85861003978122
 20
9.162591024863215
 30
0.0
  0
VERTEX
  5
5F
330
47
100
AcDbEntity
  8
0
100
AcDbVertex
100
AcDb2dVertex
 10
12.85861003978122
 20
9.162591024863215
 30
0.0
  0
SEQEND
  5
49
330
47
100
AcDbEntity
  8
Capa 1
370
     0
  0
HATCH
  5
4A
330
1F
100
AcDbEntity
  8
Capa 1
 62
    53
420
 15649081
100
AcDbHatch
 10
0.0
 20
0.0
 30
0.0
210
0.0
220
0.0
230
1.0
  2
SOLID
 70
     1
 71
     0
 91
        1
 92
        1
 93
        1
 72
     4
 94
        3
 73
     0
 74
     1
 95
      158
 96
      154
 40
0.0
 40
0.0
 40
0.0
 40
0.0
 40
1.0
 40
1.0
 40
1.0
 40
2.0
 40
2.0
 40
2.0
 40
3.0
 40
3.0
 40
3.0
 40
4.0
 40
4.0
 40
4.0
 40
5.0
 40
5.0
 40
5.0
 40
6.0
 40
6.0
 40
6.0
 40
7.0
 40
7.0
 40
7.0
 40
8.0
 40
8.0
 40
8.0
 40
9.0
 40
9.0
 40
9.0
 40
10.0
 40
10.0
 40
10.0
 40
11.0
 40
11.0
 40
11.0
 40
12.0
 40
12.0
 40
12.0
 40
13.0
 40
13.0
 40
13.0
 40
14.0
 40
14.0
 40
14.0
 40
15.0
 40
15.0
 40
15.0
 40
16.0
 40
16.0
 40
16.0
 40
17.0
 40
17.0
 40
17.0
 40
18.0
 40
18.0
 40
18.0
 40
19.0
 40
19.0
 40
19.0
 40
20.0
 40
20.0
 40
20.0
 40
21.0
 40
21.0
 40
21.0
 40
22.0
 40
22.0
 40
22.0
 40
23.0
 40
23.0
 40
23.0
 40
24.0
 40
24.0
 40
24.0
 40
25.0
 40
25.0
 40
25.0
 40
26.0
 40
26.0
 40
26.0
 40
27.0
 40
27.0
 40
27.0
 40
28.0
 40
28.0
 40
28.0
 40
29.0
 40
29.0
 40
29.0
 40
30.0
 40
30.0
 40
30.0
 40
31.0
 40
31.0
 40
31.0
 40
32.0
 40
32.0
 40
32.0
 40
33.0
 40
33.0
 40
33.0
 40
34.0
 40
34.0
 40
34.0
 40
35.0
 40
35.0
 40
35.0
 40
36.0
 40
36.0
 40
36.0
 40
37.0
 40
37.0
 40
37.0
 40
38.0
 40
38.0
 40
38.0
 40
39.0
 40
39.0
 40
39.0
 40
40.0
 40
40.0
 40
40.0
 40
41.0
 40
41.0
 40
41.0
 40
42.0
 40
42.0
 40
42.0
 40
43.0
 40
43.0
 40
43.0
 40
44.0
 40
44.0
 40
44.0
 40
45.0
 40
45.0
 40
45.0
 40
46.0
 40
46.0
 40
46.0
 40
47.0
 40
47.0
 40
47.0
 40
48.0
 40
48.0
 40
48.0
 40
49.0
 40
49.0
 40
49.0
 40
50.0
 40
50.0
 40
50.0
 40
51.0
 40
51.0
 40
51.0
 40
51.0
 10
12.85861003978122
 20
9.162591024863215
 10
12.78985239344967
 20
9.297493427919225
 10
12.42730238709771
 20
10.00124999749969
 10
11.85058263694349
 20
11.11511073364429
 10
11.22881072717326
 20
12.31113269074275
 10
11.01714406055951
 20
12.72906906657413
 10
10.85578440076913
 20
13.07302739982148
 10
10.65995656064881
 20
13.48574230280803
 10
10.41922190087827
 20
13.76355480273858
 10
10.11219875930599
 20
13.927701760095
 10
10.11219875930599
 20
13.927701760095
 10
10.00371970032568
 20
13.98583989959327
 10
10.00371970032568
 20
13.98583989959327
 10
10.00371970032568
 20
13.98583989959327
 10
4.606219701675051
 20
14.01229823291999
 10
4.606219701675051
 20
14.01229823291999
 10
4.606219701675051
 20
14.01229823291999
 10
4.460698868378097
 20
14.07061185696954
 10
4.460698868378097
 20
14.07061185696954
 10
4.143198868457473
 20
14.20011730262944
 10
3.801886799179736
 20
14.56792323278109
 10
3.576990965902627
 20
15.02311185673142
 10
3.51084513258583
 20
15.15540352336501
 10
3.455282201962785
 20
15.30353616967672
 10
3.455282201962785
 20
15.34844406591929
 10
3.455282201962785
 20
15.34844406591929
 10
3.455282201962785
 20
15.42781906589945
 10
3.455282201962785
 20
15.42781906589945
 10
3.455282201962785
 20
15.42781906589945
 10
7.114540433164669
 20
15.42259759305461
 10
7.114540433164669
 20
15.42259759305461
 10
7.114540433164669
 20
15.42259759305461
 10
10.77101136680052
 20
15.41458989923609
 10
10.77101136680052
 20
15.41458989923609
 10
10.77101136680052
 20
15.41458989923609
 10
10.93515940074928
 20
15.3538410233154
 10
10.93515940074928
 20
15.3538410233154
 10
11.15465720003794
 20
15.27167980236155
 10
11.3849510673035
 20
15.11832783638969
 10
11.50923396352623
 20
14.97541666292281
 10
11.59386596389841
 20
14.87759102343446
 10
11.87704097027021
 20
14.37749342664922
 10
12.50403327629294
 20
13.21854823311843
 10
12.57557499041351
 20
13.08625656648484
 10
12.71569994290669
 20
12.82707019061376
 10
12.81631072677639
 20
12.64186185732673
 10
12.81631072677639
 20
12.64186185732673
 10
12.99890832364101
 20
12.30312499692422
 10
12.99890832364101
 20
12.30312499692422
 10
12.99890832364101
 20
12.30312499692422
 10
13.19995656001381
 20
12.68154935731681
 10
13.19995656001381
 20
12.68154935731681
 10
13.31365655354279
 20
12.89042980295686
 10
13.50683812969349
 20
13.25040352384126
 10
13.63390832348226
 20
13.48574230280803
 10
13.76344822009701
 20
13.71864582990367
 10
14.05724165670976
 20
14.26365239952382
 10
14.28997077584645
 20
14.69499342656985
 10
14.28997077584645
 20
14.69499342656985
 10
14.71330303248161
 20
15.48073573255288
 10
14.71330303248161
 20
15.48073573255288
 10
14.71330303248161
 20
15.48073573255288
 10
14.80590719912513
 20
15.48073573255288
 10
14.80590719912513
 20
15.48073573255288
 10
14.89590062934623
 20
15.48073573255288
 10
14.90390832316475
 20
15.47290352328564
 10
15.01496312931646
 20
15.26123685667189
 10
15.07849822621084
 20
15.14217435670165
 10
15.27954646258365
 20
14.76897146915389
 10
15.46214405944827
 20
14.43563156614749
 10
15.64474165631288
 20
14.09968092671868
 10
15.84317915626327
 20
13.73187499656703
 10
15.90657429615356
 20
13.61542323301921
 10
16.28496312899896
 20
12.91166666343875
 10
16.54432498942132
 20
12.43802739998023
 10
16.58126179598489
 20
12.38511073332679
 10
16.62892146224631
 20
12.31374342716516
 10
16.52569886536185
 20
12.14437499696391
 10
17.51266489226897
 20
13.95938156626656
 10
18.06028219831153
 20
14.97019519007798
 10
18.16350479519599
 20
15.10770832955641
 10
18.48626179550864
 20
15.26384866968664
 10
18.84080303144974
 20
15.43582675971797
 10
18.61329646175021
 20
15.42781906589945
 10
22.55036773117881
 20
15.42781906589945
 10
22.55036773117881
 20
15.42781906589945
 10
26.13007386296075
 20
15.42781906589945
 10
26.13007386296075
 20
15.42781906589945
 10
26.13007386296075
 20
15.42781906589945
 10
26.13007386296075
 20
15.31937499617016
 10
26.13007386296075
 20
15.31937499617016
 10
26.13007386296075
 20
15.10509866972633
 10
25.7782843970385
 20
14.53084646921342
 10
25.50047189710795
 20
14.29011073285054
 10
25.43157429377231
 20
14.23197259335227
 10
25.29928262713872
 20
14.14458989955359
 10
25.2040321965256
 20
14.09707019029626
 10
25.2040321965256
 20
14.09707019029626
 10
25.03205302990192
 20
14.01229823291999
 10
25.03205302990192
 20
14.01229823291999
 10
25.03205302990192
 20
14.01229823291999
 10
19.60809469792458
 20
13.98583989959327
 10
19.60809469792458
 20
13.98583989959327
 10
19.60809469792458
 20
13.98583989959327
 10
19.46522012859723
 20
13.90646489961312
 10
19.46522012859723
 20
13.90646489961312
 10
19.29324096197356
 20
13.81124999654719
 10
19.0578666554596
 20
13.58113269042525
 10
18.9228242953995
 20
13.37729823307874
 10
18.86726136477646
 20
13.29792323309859
 10
18.76943572528811
 20
13.11010416338914
 10
18.70328989197131
 20
12.95936185724736
 10
18.63714405865451
 20
12.81105480297671
 10
18.57621969818255
 20
12.6761523999207
 10
18.56299053151919
 20
12.66292323325734
 10
18.55240762882544
 20
12.64708333017156
 10
18.37517146180974
 20
12.30834646976905
 10
18.17151248901452
 20
11.90886073344585
 10
17.9650672952456
 20
11.50937499712266
 10
17.55496312868146
 20
10.71040406277243
 10
17.25594929581622
 20
10.1361524005557
 10
17.25594929581622
 20
10.1361524005557
 10
16.71630415604499
 20
9.091048234150305
 10
16.71630415604499
 20
9.091048234150305
 10
16.71630415604499
 20
9.091048234150305
 10
16.62631072582389
 20
9.083216024883058
 10
16.62631072582389
 20
9.083216024883058
 10
16.62631072582389
 20
9.083216024883058
 10
16.53631729560279
 20
9.07520833106453
 10
16.53631729560279
 20
9.07520833106453
 10
16.53631729560279
 20
9.07520833106453
 10
15.67642146248443
 20
10.67593749733101
 10
15.67642146248443
 20
10.67593749733101
 10
15.20542738640318
 20
11.55707072922743
 10
14.81391489294366
 20
12.2766666635975
 10
14.80590719912513
 20
12.27927740001991
 10
14.79807498985788
 20
12.27927740001991
 10
14.74776905962686
 20
12.19207019077251
 10
14.692241656551
 20
12.08623685746564
 10
14.63932498989757
 20
11.98301426058118
 10
14.53349165659069
 20
11.78196602420837
 10
14.45933812945537
 20
11.64427740017866
 10
13.97247077592583
 20
10.74208333064781
 10
13.38777562972326
 20
9.65207019140751
 10
13.24751072022599
 20
9.387486858140324
 10
13.08611660948075
 20
9.085826761305475
 10
13.08089406004358
 20
9.077819067486946
 10
12.99090170641482
 20
9.077819067486946
 10
12.91678155364201
 20
9.077819067486946
 10
12.89568572675655
 20
9.091048234150305
 10
12.85861003978122
 20
9.162591024863215
 10
12.85861003978122
 20
9.162591024863215
 10
12.85861003978122
 20
9.162591024863215
 10
12.85861003978122
 20
9.162591024863215
 97
        0
 97
        0
 75
     2
 76
     1
 98
        0
  0
SPLINE
  5
4B
330
1F
100
AcDbEntity
  8
Capa 1
370
     0
100
AcDbSpline
210
0.0
220
0.0
230
1.0
 70
    11
 71
     3
 72
    41
 73
    37
 74
     0
 42
0.0000000001
 43
0.0000000001
 12
1.0
 22
0.0
 32
0.0
 13
1.0
 23
0.0
 33
0.0
 40
0.0
 40
0.0
 40
0.0
 40
0.0
 40
1.0
 40
1.0
 40
1.0
 40
2.0
 40
2.0
 40
2.0
 40
3.0
 40
3.0
 40
3.0
 40
4.0
 40
4.0
 40
4.0
 40
5.0
 40
5.0
 40
5.0
 40
6.0
 40
6.0
 40
6.0
 40
7.0
 40
7.0
 40
7.0
 40
8.0
 40
8.0
 40
8.0
 40
9.0
 40
9.0
 40
9.0
 40
10.0
 40
10.0
 40
10.0
 40
11.0
 40
11.0
 40
11.0
 40
12.0
 40
12.0
 40
12.0
 40
12.0
 10
18.45715719821231
 20
12.14959646980874
 30
0.0
 10
18.45715719821231
 20
12.20251313646217
 30
0.0
 10
18.52594929549872
 20
12.36126313642249
 30
0.0
 10
18.64501179546895
 20
12.57832676043235
 30
0.0
 10
19.18740762866669
 20
13.57573573302913
 30
0.0
 10
19.24568572516905
 20
13.66311842682782
 30
0.0
 10
19.44151248869702
 20
13.76355480273858
 30
0.0
 10
19.53672739176295
 20
13.81124999654719
 30
0.0
 10
19.63194229482889
 20
13.8138607329696
 30
0.0
 10
22.16397012792255
 20
13.8138607329696
 30
0.0
 10
22.16397012792255
 20
13.8138607329696
 30
0.0
 10
24.78870655711662
 20
13.8138607329696
 30
0.0
 10
24.78870655711662
 20
13.8138607329696
 30
0.0
 10
24.78870655711662
 20
13.8138607329696
 30
0.0
 10
24.77286773062319
 20
13.68417980275843
 30
0.0
 10
24.77286773062319
 20
13.68417980275843
 30
0.0
 10
24.72778219664466
 20
13.31115239976195
 30
0.0
 10
24.3573655300706
 20
12.75552739990085
 30
0.0
 10
23.97911773082162
 20
12.49355480305608
 30
0.0
 10
23.73298288387795
 20
12.3243618574061
 30
0.0
 10
23.83881621718482
 20
12.33219406667335
 30
0.0
 10
21.53955303077505
 20
12.33219406667335
 30
0.0
 10
19.29599165540007
 20
12.33219406667335
 30
0.0
 10
19.24568572516905
 20
12.32958333025094
 30
0.0
 10
18.89371969810318
 20
12.19729166361734
 30
0.0
 10
18.80651248885577
 20
12.16561185744579
 30
0.0
 10
18.71115762878575
 20
12.12313813648202
 30
0.0
 10
18.68205303148942
 20
12.10468749697383
 30
0.0
 10
18.65298396174029
 20
12.08345063649194
 30
0.0
 10
18.59209512881552
 20
12.06761073340616
 30
0.0
 10
18.544539892011
 20
12.06761073340616
 30
0.0
 10
18.46516489203084
 20
12.06761073340616
 30
0.0
 10
18.45715719821231
 20
12.07561842722469
 30
0.0
 10
18.45715719821231
 20
12.14959646980874
 30
0.0
 10
18.45715719821231
 20
12.14959646980874
 30
0.0
 10
18.45715719821231
 20
12.14959646980874
 30
0.0
 10
18.45715719821231
 20
12.14959646980874
 30
0.0
  0
POLYLINE
  5
4C
330
1F
100
AcDbEntity
  8
Capa 1
370
     0
100
AcDb2dPolyline
 66
     1
 10
0.0
 20
0.0
 30
0.0
  0
VERTEX
  5
4D
330
4C
100
AcDbEntity
  8
Capa 1
370
     0
100
AcDbVertex
100
AcDb2dVertex
 10
18.45715719821231
 20
12.14959646980874
 30
0.0
  0
VERTEX
  5
60
330
4C
100
AcDbEntity
  8
0
100
AcDbVertex
100
AcDb2dVertex
 10
18.45715719821231
 20
12.14959646980874
 30
0.0
  0
SEQEND
  5
4E
330
4C
100
AcDbEntity
  8
Capa 1
370
     0
  0
HATCH
  5
4F
330
1F
100
AcDbEntity
  8
Capa 1
 62
    53
420
 15649081
100
AcDbHatch
 10
0.0
 20
0.0
 30
0.0
210
0.0
220
0.0
230
1.0
  2
SOLID
 70
     1
 71
     0
 91
        1
 92
        1
 93
        1
 72
     4
 94
        3
 73
     0
 74
     1
 95
       41
 96
       37
 40
0.0
 40
0.0
 40
0.0
 40
0.0
 40
1.0
 40
1.0
 40
1.0
 40
2.0
 40
2.0
 40
2.0
 40
3.0
 40
3.0
 40
3.0
 40
4.0
 40
4.0
 40
4.0
 40
5.0
 40
5.0
 40
5.0
 40
6.0
 40
6.0
 40
6.0
 40
7.0
 40
7.0
 40
7.0
 40
8.0
 40
8.0
 40
8.0
 40
9.0
 40
9.0
 40
9.0
 40
10.0
 40
10.0
 40
10.0
 40
11.0
 40
11.0
 40
11.0
 40
12.0
 40
12.0
 40
12.0
 40
12.0
 10
18.45715719821231
 20
12.14959646980874
 10
18.45715719821231
 20
12.20251313646217
 10
18.52594929549872
 20
12.36126313642249
 10
18.64501179546895
 20
12.57832676043235
 10
19.18740762866669
 20
13.57573573302913
 10
19.24568572516905
 20
13.66311842682782
 10
19.44151248869702
 20
13.76355480273858
 10
19.53672739176295
 20
13.81124999654719
 10
19.63194229482889
 20
13.8138607329696
 10
22.16397012792255
 20
13.8138607329696
 10
22.16397012792255
 20
13.8138607329696
 10
24.78870655711662
 20
13.8138607329696
 10
24.78870655711662
 20
13.8138607329696
 10
24.78870655711662
 20
13.8138607329696
 10
24.77286773062319
 20
13.68417980275843
 10
24.77286773062319
 20
13.68417980275843
 10
24.72778219664466
 20
13.31115239976195
 10
24.3573655300706
 20
12.75552739990085
 10
23.97911773082162
 20
12.49355480305608
 10
23.73298288387795
 20
12.3243618574061
 10
23.83881621718482
 20
12.33219406667335
 10
21.53955303077505
 20
12.33219406667335
 10
19.29599165540007
 20
12.33219406667335
 10
19.24568572516905
 20
12.32958333025094
 10
18.89371969810318
 20
12.19729166361734
 10
18.80651248885577
 20
12.16561185744579
 10
18.71115762878575
 20
12.12313813648202
 10
18.68205303148942
 20
12.10468749697383
 10
18.65298396174029
 20
12.08345063649194
 10
18.59209512881552
 20
12.06761073340616
 10
18.544539892011
 20
12.06761073340616
 10
18.46516489203084
 20
12.06761073340616
 10
18.45715719821231
 20
12.07561842722469
 10
18.45715719821231
 20
12.14959646980874
 10
18.45715719821231
 20
12.14959646980874
 10
18.45715719821231
 20
12.14959646980874
 10
18.45715719821231
 20
12.14959646980874
 97
        0
 97
        0
 75
     2
 76
     1
 98
        0
  0
SPLINE
  5
50
330
1F
100
AcDbEntity
  8
Capa 1
370
     0
100
AcDbSpline
210
0.0
220
0.0
230
1.0
 70
    11
 71
     3
 72
    47
 73
    43
 74
     0
 42
0.0000000001
 43
0.0000000001
 12
1.0
 22
0.0
 32
0.0
 13
1.0
 23
0.0
 33
0.0
 40
0.0
 40
0.0
 40
0.0
 40
0.0
 40
1.0
 40
1.0
 40
1.0
 40
2.0
 40
2.0
 40
2.0
 40
3.0
 40
3.0
 40
3.0
 40
4.0
 40
4.0
 40
4.0
 40
5.0
 40
5.0
 40
5.0
 40
6.0
 40
6.0
 40
6.0
 40
7.0
 40
7.0
 40
7.0
 40
8.0
 40
8.0
 40
8.0
 40
9.0
 40
9.0
 40
9.0
 40
10.0
 40
10.0
 40
10.0
 40
11.0
 40
11.0
 40
11.0
 40
12.0
 40
12.0
 40
12.0
 40
13.0
 40
13.0
 40
13.0
 40
14.0
 40
14.0
 40
14.0
 40
14.0
 10
10.86361553344403
 20
12.13375656672296
 30
0.0
 10
10.82657429742356
 20
12.15499342720485
 30
0.0
 10
10.70225479706131
 20
12.20529935743587
 30
0.0
 10
10.58580303351349
 20
12.24498685742595
 30
0.0
 10
10.58580303351349
 20
12.24498685742595
 30
0.0
 10
10.37413636689974
 20
12.31896490000999
 30
0.0
 10
10.37413636689974
 20
12.31896490000999
 30
0.0
 10
10.37413636689974
 20
12.31896490000999
 30
0.0
 10
5.9026774963881
 20
12.34542323333671
 30
0.0
 10
5.9026774963881
 20
12.34542323333671
 30
0.0
 10
5.9026774963881
 20
12.34542323333671
 30
0.0
 10
5.75454754155724
 20
12.42218749689445
 30
0.0
 10
5.75454754155724
 20
12.42218749689445
 30
0.0
 10
5.564117735425376
 20
12.51740239996038
 30
0.0
 10
5.275686805253886
 20
12.79521489989093
 30
0.0
 10
5.116936805293574
 20
13.03595063625382
 30
0.0
 10
4.968805235574204
 20
13.25823573310851
 30
0.0
 10
4.83111553495216
 20
13.58635416327008
 30
0.0
 10
4.83111553495216
 20
13.71864582990367
 30
0.0
 10
4.83111553495216
 20
13.71864582990367
 30
0.0
 10
4.83111553495216
 20
13.8138607329696
 30
0.0
 10
4.83111553495216
 20
13.8138607329696
 30
0.0
 10
4.83111553495216
 20
13.8138607329696
 30
0.0
 10
10.08574042597927
 20
13.8138607329696
 30
0.0
 10
10.08574042597927
 20
13.8138607329696
 30
0.0
 10
10.08574042597927
 20
13.8138607329696
 30
0.0
 10
10.2048029259495
 20
13.73709646941186
 30
0.0
 10
10.2048029259495
 20
13.73709646941186
 30
0.0
 10
10.39798396380404
 20
13.6128124965968
 30
0.0
 10
10.41922190087827
 20
13.58374342684766
 30
0.0
 10
10.87423396368498
 20
12.75291666347844
 30
0.0
 10
11.06205303339443
 20
12.40373685738626
 30
0.0
 10
11.12819886671122
 20
12.26082676051172
 30
0.0
 10
11.12819886671122
 20
12.18928396979882
 30
0.0
 10
11.12819886671122
 20
12.0966798031553
 30
0.0
 10
11.12558813028881
 20
12.09406906673288
 30
0.0
 10
11.03037322722287
 20
12.09406906673288
 30
0.0
 10
10.97484690073936
 20
12.0966798031553
 30
0.0
 10
10.9006922970117
 20
12.11269519079235
 30
0.0
 10
10.86361553344403
 20
12.13375656672296
 30
0.0
 10
10.86361553344403
 20
12.13375656672296
 30
0.0
 10
10.86361553344403
 20
12.13375656672296
 30
0.0
 10
10.86361553344403
 20
12.13375656672296
 30
0.0
  0
POLYLINE
  5
51
330
1F
100
AcDbEntity
  8
Capa 1
370
     0
100
AcDb2dPolyline
 66
     1
 10
0.0
 20
0.0
 30
0.0
  0
VERTEX
  5
52
330
51
100
AcDbEntity
  8
Capa 1
370
     0
100
AcDbVertex
100
AcDb2dVertex
 10
10.86361553344403
 20
12.13375656672296
 30
0.0
  0
VERTEX
  5
61
330
51
100
AcDbEntity
  8
0
100
AcDbVertex
100
AcDb2dVertex
 10
10.86361553344403
 20
12.13375656672296
 30
0.0
  0
SEQEND
  5
53
330
51
100
AcDbEntity
  8
Capa 1
370
     0
  0
HATCH
  5
54
330
1F
100
AcDbEntity
  8
Capa 1
 62
    53
420
 15649081
100
AcDbHatch
 10
0.0
 20
0.0
 30
0.0
210
0.0
220
0.0
230
1.0
  2
SOLID
 70
     1
 71
     0
 91
        1
 92
        1
 93
        1
 72
     4
 94
        3
 73
     0
 74
     1
 95
       47
 96
       43
 40
0.0
 40
0.0
 40
0.0
 40
0.0
 40
1.0
 40
1.0
 40
1.0
 40
2.0
 40
2.0
 40
2.0
 40
3.0
 40
3.0
 40
3.0
 40
4.0
 40
4.0
 40
4.0
 40
5.0
 40
5.0
 40
5.0
 40
6.0
 40
6.0
 40
6.0
 40
7.0
 40
7.0
 40
7.0
 40
8.0
 40
8.0
 40
8.0
 40
9.0
 40
9.0
 40
9.0
 40
10.0
 40
10.0
 40
10.0
 40
11.0
 40
11.0
 40
11.0
 40
12.0
 40
12.0
 40
12.0
 40
13.0
 40
13.0
 40
13.0
 40
14.0
 40
14.0
 40
14.0
 40
14.0
 10
10.86361553344403
 20
12.13375656672296
 10
10.82657429742356
 20
12.15499342720485
 10
10.70225479706131
 20
12.20529935743587
 10
10.58580303351349
 20
12.24498685742595
 10
10.58580303351349
 20
12.24498685742595
 10
10.37413636689974
 20
12.31896490000999
 10
10.37413636689974
 20
12.31896490000999
 10
10.37413636689974
 20
12.31896490000999
 10
5.9026774963881
 20
12.34542323333671
 10
5.9026774963881
 20
12.34542323333671
 10
5.9026774963881
 20
12.34542323333671
 10
5.75454754155724
 20
12.42218749689445
 10
5.75454754155724
 20
12.42218749689445
 10
5.564117735425376
 20
12.51740239996038
 10
5.275686805253886
 20
12.79521489989093
 10
5.116936805293574
 20
13.03595063625382
 10
4.968805235574204
 20
13.25823573310851
 10
4.83111553495216
 20
13.58635416327008
 10
4.83111553495216
 20
13.71864582990367
 10
4.83111553495216
 20
13.71864582990367
 10
4.83111553495216
 20
13.8138607329696
 10
4.83111553495216
 20
13.8138607329696
 10
4.83111553495216
 20
13.8138607329696
 10
10.08574042597927
 20
13.8138607329696
 10
10.08574042597927
 20
13.8138607329696
 10
10.08574042597927
 20
13.8138607329696
 10
10.2048029259495
 20
13.73709646941186
 10
10.2048029259495
 20
13.73709646941186
 10
10.39798396380404
 20
13.6128124965968
 10
10.41922190087827
 20
13.58374342684766
 10
10.87423396368498
 20
12.75291666347844
 10
11.06205303339443
 20
12.40373685738626
 10
11.12819886671122
 20
12.26082676051172
 10
11.12819886671122
 20
12.18928396979882
 10
11.12819886671122
 20
12.0966798031553
 10
11.12558813028881
 20
12.09406906673288
 10
11.03037322722287
 20
12.09406906673288
 10
10.97484690073936
 20
12.0966798031553
 10
10.9006922970117
 20
12.11269519079235
 10
10.86361553344403
 20
12.13375656672296
 10
10.86361553344403
 20
12.13375656672296
 10
10.86361553344403
 20
12.13375656672296
 10
10.86361553344403
 20
12.13375656672296
 97
        0
 97
        0
 75
     2
 76
     1
 98
        0
  0
SPLINE
  5
55
330
1F
100
AcDbEntity
  8
Capa 1
370
     0
100
AcDbSpline
210
0.0
220
0.0
230
1.0
 70
    11
 71
     3
 72
   167
 73
   163
 74
     0
 42
0.0000000001
 43
0.0000000001
 12
1.0
 22
0.0
 32
0.0
 13
1.0
 23
0.0
 33
0.0
 40
0.0
 40
0.0
 40
0.0
 40
0.0
 40
1.0
 40
1.0
 40
1.0
 40
2.0
 40
2.0
 40
2.0
 40
3.0
 40
3.0
 40
3.0
 40
4.0
 40
4.0
 40
4.0
 40
5.0
 40
5.0
 40
5.0
 40
6.0
 40
6.0
 40
6.0
 40
7.0
 40
7.0
 40
7.0
 40
8.0
 40
8.0
 40
8.0
 40
9.0
 40
9.0
 40
9.0
 40
10.0
 40
10.0
 40
10.0
 40
11.0
 40
11.0
 40
11.0
 40
12.0
 40
12.0
 40
12.0
 40
13.0
 40
13.0
 40
13.0
 40
14.0
 40
14.0
 40
14.0
 40
15.0
 40
15.0
 40
15.0
 40
16.0
 40
16.0
 40
16.0
 40
17.0
 40
17.0
 40
17.0
 40
18.0
 40
18.0
 40
18.0
 40
19.0
 40
19.0
 40
19.0
 40
20.0
 40
20.0
 40
20.0
 40
21.0
 40
21.0
 40
21.0
 40
22.0
 40
22.0
 40
22.0
 40
23.0
 40
23.0
 40
23.0
 40
24.0
 40
24.0
 40
24.0
 40
25.0
 40
25.0
 40
25.0
 40
26.0
 40
26.0
 40
26.0
 40
27.0
 40
27.0
 40
27.0
 40
28.0
 40
28.0
 40
28.0
 40
29.0
 40
29.0
 40
29.0
 40
30.0
 40
30.0
 40
30.0
 40
31.0
 40
31.0
 40
31.0
 40
32.0
 40
32.0
 40
32.0
 40
33.0
 40
33.0
 40
33.0
 40
34.0
 40
34.0
 40
34.0
 40
35.0
 40
35.0
 40
35.0
 40
36.0
 40
36.0
 40
36.0
 40
37.0
 40
37.0
 40
37.0
 40
38.0
 40
38.0
 40
38.0
 40
39.0
 40
39.0
 40
39.0
 40
40.0
 40
40.0
 40
40.0
 40
41.0
 40
41.0
 40
41.0
 40
42.0
 40
42.0
 40
42.0
 40
43.0
 40
43.0
 40
43.0
 40
44.0
 40
44.0
 40
44.0
 40
45.0
 40
45.0
 40
45.0
 40
46.0
 40
46.0
 40
46.0
 40
47.0
 40
47.0
 40
47.0
 40
48.0
 40
48.0
 40
48.0
 40
49.0
 40
49.0
 40
49.0
 40
50.0
 40
50.0
 40
50.0
 40
51.0
 40
51.0
 40
51.0
 40
52.0
 40
52.0
 40
52.0
 40
53.0
 40
53.0
 40
53.0
 40
54.0
 40
54.0
 40
54.0
 40
54.0
 10
12.95922082365093
 20
5.045533971584753
 30
0.0
 10
12.88767910953036
 20
5.183222595614459
 30
0.0
 10
12.1362607205038
 20
6.609361858834855
 30
0.0
 10
12.027783276412
 20
6.815631568052494
 30
0.0
 10
11.95902670667279
 20
6.945312498263672
 30
0.0
 10
11.72090063013998
 20
7.397714901240306
 30
0.0
 10
11.49861553328529
 20
7.81843749804539
 30
0.0
 10
11.27636596397778
 20
8.24177083127289
 30
0.0
 10
11.02501179737395
 20
8.718020831153828
 30
0.0
 10
10.93776906057936
 20
8.87677083111414
 30
0.0
 10
10.85303263075028
 20
9.038131567496869
 30
0.0
 10
10.68105346412661
 20
9.371471470503268
 30
0.0
 10
10.55151356751186
 20
9.617604164262264
 30
0.0
 10
10.3900117975327
 20
9.932493427760473
 30
0.0
 10
10.27892146383381
 20
10.10969406722898
 30
0.0
 10
10.18109636264163
 20
10.21813813695827
 30
0.0
 10
10.0117273941442
 20
10.40073573382288
 30
0.0
 10
9.818511367038644
 20
10.50656906712976
 30
0.0
 10
9.646532200414972
 20
10.50395833070734
 30
0.0
 10
9.580386367098175
 20
10.50395833070734
 30
0.0
 10
9.0830755295828
 20
10.49873739615868
 30
0.0
 10
8.540679696385066
 20
10.49072916404398
 30
0.0
 10
7.434651169507711
 20
10.47488926095821
 30
0.0
 10
7.416200529999519
 20
10.47749999738062
 30
0.0
 10
7.106532201049973
 20
10.65748739611899
 30
0.0
 10
6.884282093446301
 20
10.78699230348272
 30
0.0
 10
6.564136367852238
 20
11.10188156698093
 30
0.0
 10
6.402776169765679
 20
11.35323573358476
 30
0.0
 10
6.33140886360405
 20
11.46167926501788
 30
0.0
 10
6.212346363633817
 20
11.67874396562008
 30
0.0
 10
6.140802496328568
 20
11.83749342728422
 30
0.0
 10
6.013908863683426
 20
12.11269519079235
 30
0.0
 10
6.005901169864898
 20
12.12313813648202
 30
0.0
 10
5.9026774963881
 20
12.14959646980874
 30
0.0
 10
5.720114888774506
 20
12.19990240003976
 30
0.0
 10
5.397358965054197
 20
12.38249999690437
 30
0.0
 10
5.230636798822549
 20
12.53602852401986
 30
0.0
 10
4.915888568920767
 20
12.81906249679523
 30
0.0
 10
4.688240965624814
 20
13.21854823311843
 30
0.0
 10
4.566532201684972
 20
13.69740896942178
 30
0.0
 10
4.542720132327862
 20
13.79279989533516
 30
0.0
 10
4.526844701694895
 20
13.81124999654719
 30
0.0
 10
4.423657632357627
 20
13.85093749653726
 30
0.0
 10
4.262261368427707
 20
13.9118623953054
 30
0.0
 10
4.008296465401463
 20
14.08105480265921
 30
0.0
 10
3.846935729018734
 20
14.23197259335227
 30
0.0
 10
3.555894062424828
 20
14.50438813588671
 30
0.0
 10
3.315158326061943
 20
14.94095063577756
 30
0.0
 10
3.198706562514125
 20
15.40936950298359
 30
0.0
 10
3.159019062524047
 20
15.56550768992915
 30
0.0
 10
3.135171465619744
 20
15.69779935656275
 30
0.0
 10
3.140428466011768
 20
15.70563156582999
 30
0.0
 10
3.148400632283104
 20
15.7110285232261
 30
0.0
 10
4.802046465203025
 20
15.71886073249335
 30
0.0
 10
6.818136260129504
 20
15.71886073249335
 30
0.0
 10
10.04605292598919
 20
15.72147146891577
 30
0.0
 10
10.50381729711092
 20
15.71624999607094
 30
0.0
 10
10.67579646373459
 20
15.67917323250327
 30
0.0
 10
11.07792846402739
 20
15.59457675967829
 30
0.0
 10
11.39017146355599
 20
15.42781906589945
 30
0.0
 10
11.67059469990896
 20
15.1500065659689
 30
0.0
 10
11.8452190539099
 20
14.97541666292281
 30
0.0
 10
11.89027013693357
 20
14.90126313578749
 30
0.0
 10
12.42465827631278
 20
13.91969406627648
 30
0.0
 10
12.73693572679623
 20
13.34561842690719
 30
0.0
 10
12.99615655362216
 20
12.86136073320773
 30
0.0
 10
13.00151906006342
 20
12.84291009369954
 30
0.0
 10
13.00674160950059
 20
12.82428396964007
 30
0.0
 10
13.01997077616395
 20
12.80844406655429
 30
0.0
 10
13.03319994282731
 20
12.80844406655429
 30
0.0
 10
13.04381837306826
 20
12.80844406655429
 30
0.0
 10
13.44594822017638
 20
13.5228190663757
 30
0.0
 10
13.92219822005732
 20
14.39594406615742
 30
0.0
 10
14.4011999899571
 20
15.26906906593913
 30
0.0
 10
14.79807498985788
 20
15.98083332933812
 30
0.0
 10
14.80590719912513
 20
15.98083332933812
 30
0.0
 10
14.81391489294366
 20
15.98083332933812
 30
0.0
 10
15.21078989284444
 20
15.26645832951672
 30
0.0
 10
15.68965062914779
 20
14.393333329735
 30
0.0
 10
16.3828242960345
 20
13.13134102387103
 30
0.0
 10
16.56538636535192
 20
12.81105480297671
 30
0.0
 10
16.59184469867864
 20
12.84029935727712
 30
0.0
 10
16.61047082273812
 20
12.85874999678531
 30
0.0
 10
16.8723034625788
 20
13.33238926024383
 30
0.0
 10
17.17392803186646
 20
13.89062499652734
 30
0.0
 10
17.47819886512372
 20
14.44886073281085
 30
0.0
 10
17.77188679568723
 20
14.96479823268187
 30
0.0
 10
17.82755415576718
 20
15.03634102339478
 30
0.0
 10
18.04969929561778
 20
15.31676533634008
 30
0.0
 10
18.4333451288552
 20
15.5494923022921
 30
0.0
 10
18.84881072526827
 20
15.65532563559897
 30
0.0
 10
18.84881072526827
 20
15.65532563559897
 30
0.0
 10
19.10538636471692
 20
15.72147146891577
 30
0.0
 10
19.10538636471692
 20
15.72147146891577
 30
0.0
 10
19.10538636471692
 20
15.72147146891577
 30
0.0
 10
22.78048288411608
 20
15.71886073249335
 30
0.0
 10
22.78048288411608
 20
15.71886073249335
 30
0.0
 10
24.80454538361006
 20
15.71886073249335
 30
0.0
 10
26.46344929351434
 20
15.7110285232261
 30
0.0
 10
26.47142038319334
 20
15.70563156582999
 30
0.0
 10
26.4766784601777
 20
15.69779935656275
 30
0.0
 10
26.45297189686983
 20
15.56550768992915
 30
0.0
 10
26.41328439687975
 20
15.40936950298359
 30
0.0
 10
26.29683155673959
 20
14.94095063577756
 30
0.0
 10
26.05609689696905
 20
14.50438813588671
 30
0.0
 10
25.76505523037514
 20
14.23197259335227
 30
0.0
 10
25.60355346039599
 20
14.08105480265921
 30
0.0
 10
25.34955302982255
 20
13.9118623953054
 30
0.0
 10
25.18819121684748
 20
13.85093749653726
 30
0.0
 10
25.08496969655536
 20
13.81124999654719
 30
0.0
 10
25.06912871687725
 20
13.79279989533516
 30
0.0
 10
25.04528219656529
 20
13.69740896942178
 30
0.0
 10
24.91838856392014
 20
13.19208989979171
 30
0.0
 10
24.66964405714639
 20
12.77676426038274
 30
0.0
 10
24.32829538372912
 20
12.49094406663366
 30
0.0
 10
24.15631621710545
 20
12.34803396975913
 30
0.0
 10
23.88111553018966
 20
12.19729166361734
 30
0.0
 10
23.70652455055123
 20
12.14959646980874
 30
0.0
 10
23.60594929422872
 20
12.12313813648202
 30
0.0
 10
23.59808155741428
 20
12.11269519079235
 30
0.0
 10
23.47101136362552
 20
11.83749342728422
 30
0.0
 10
23.39703439763381
 20
11.68135416374633
 30
0.0
 10
23.28058155749365
 20
11.46167926501788
 30
0.0
 10
23.20907429432794
 20
11.35323573358476
 30
0.0
 10
23.04767803039802
 20
11.10188156698093
 30
0.0
 10
22.72756621746264
 20
10.78699230348272
 30
0.0
 10
22.50528219720028
 20
10.65748739611899
 30
0.0
 10
22.19578989109819
 20
10.47749999738062
 30
0.0
 10
22.17719929458591
 20
10.47488926095821
 30
0.0
 10
21.05808155804928
 20
10.49072916404398
 30
0.0
 10
20.50767803103302
 20
10.49873739615868
 30
0.0
 10
20.01036665522147
 20
10.50656906712976
 30
0.0
 10
19.95205303117192
 20
10.50656906712976
 30
0.0
 10
19.89130415525124
 20
10.50656906712976
 30
0.0
 10
19.7906922947892
 20
10.47749999738062
 30
0.0
 10
19.71131729480904
 20
10.44042323381296
 30
0.0
 10
19.4784492952606
 20
10.32675822953501
 30
0.0
 10
19.34351136465739
 20
10.15199230364147
 30
0.0
 10
19.02078989189194
 20
9.540839900704524
 30
0.0
 10
18.69792846212239
 20
8.929687497767578
 30
0.0
 10
17.35130415588624
 20
6.373847595316803
 30
0.0
 10
16.92257386526263
 20
5.558860735033353
 30
0.0
 10
16.77444229554326
 20
5.275826762257974
 30
0.0
 10
16.64215062890966
 20
5.032304804921394
 30
0.0
 10
16.63153219866872
 20
5.021861859231731
 30
0.0
 10
16.61047082273812
 20
4.998014262327428
 30
0.0
 10
16.51246969869849
 20
5.169993428951099
 30
0.0
 10
15.48059469895646
 20
7.019467101991335
 30
0.0
 10
15.1155749897785
 20
7.670305928326021
 30
0.0
 10
14.81391489294366
 20
8.202083331282813
 30
0.0
 10
14.80590719912513
 20
8.202083331282813
 30
0.0
 10
14.79807498985788
 20
8.202083331282813
 30
0.0
 10
14.69746312939584
 20
8.035325637503972
 30
0.0
 10
14.58365655322529
 20
7.826445191863917
 30
0.0
 10
13.98834405337412
 20
6.754882692131808
 30
0.0
 10
13.02536665696772
 20
5.040312498739921
 30
0.0
 10
13.00674160950059
 20
5.019075638258035
 30
0.0
 10
12.99351244283723
 20
5.008632692568371
 30
0.0
 10
12.97244999031429
 20
5.019075638258035
 30
0.0
 10
12.95922082365093
 20
5.045533971584753
 30
0.0
 10
12.95922082365093
 20
5.045533971584753
 30
0.0
 10
12.95922082365093
 20
5.045533971584753
 30
0.0
 10
12.95922082365093
 20
5.045533971584753
 30
0.0
  0
SPLINE
  5
56
330
1F
100
AcDbEntity
  8
Capa 1
370
     0
100
AcDbSpline
210
0.0
220
0.0
230
1.0
 70
    11
 71
     3
 72
   173
 73
   169
 74
     0
 42
0.0000000001
 43
0.0000000001
 12
1.0
 22
0.0
 32
0.0
 13
1.0
 23
0.0
 33
0.0
 40
0.0
 40
0.0
 40
0.0
 40
0.0
 40
1.0
 40
1.0
 40
1.0
 40
2.0
 40
2.0
 40
2.0
 40
3.0
 40
3.0
 40
3.0
 40
4.0
 40
4.0
 40
4.0
 40
5.0
 40
5.0
 40
5.0
 40
6.0
 40
6.0
 40
6.0
 40
7.0
 40
7.0
 40
7.0
 40
8.0
 40
8.0
 40
8.0
 40
9.0
 40
9.0
 40
9.0
 40
10.0
 40
10.0
 40
10.0
 40
11.0
 40
11.0
 40
11.0
 40
12.0
 40
12.0
 40
12.0
 40
13.0
 40
13.0
 40
13.0
 40
14.0
 40
14.0
 40
14.0
 40
15.0
 40
15.0
 40
15.0
 40
16.0
 40
16.0
 40
16.0
 40
17.0
 40
17.0
 40
17.0
 40
18.0
 40
18.0
 40
18.0
 40
19.0
 40
19.0
 40
19.0
 40
20.0
 40
20.0
 40
20.0
 40
21.0
 40
21.0
 40
21.0
 40
22.0
 40
22.0
 40
22.0
 40
23.0
 40
23.0
 40
23.0
 40
24.0
 40
24.0
 40
24.0
 40
25.0
 40
25.0
 40
25.0
 40
26.0
 40
26.0
 40
26.0
 40
27.0
 40
27.0
 40
27.0
 40
28.0
 40
28.0
 40
28.0
 40
29.0
 40
29.0
 40
29.0
 40
30.0
 40
30.0
 40
30.0
 40
31.0
 40
31.0
 40
31.0
 40
32.0
 40
32.0
 40
32.0
 40
33.0
 40
33.0
 40
33.0
 40
34.0
 40
34.0
 40
34.0
 40
35.0
 40
35.0
 40
35.0
 40
36.0
 40
36.0
 40
36.0
 40
37.0
 40
37.0
 40
37.0
 40
38.0
 40
38.0
 40
38.0
 40
39.0
 40
39.0
 40
39.0
 40
40.0
 40
40.0
 40
40.0
 40
41.0
 40
41.0
 40
41.0
 40
42.0
 40
42.0
 40
42.0
 40
43.0
 40
43.0
 40
43.0
 40
44.0
 40
44.0
 40
44.0
 40
45.0
 40
45.0
 40
45.0
 40
46.0
 40
46.0
 40
46.0
 40
47.0
 40
47.0
 40
47.0
 40
48.0
 40
48.0
 40
48.0
 40
49.0
 40
49.0
 40
49.0
 40
50.0
 40
50.0
 40
50.0
 40
51.0
 40
51.0
 40
51.0
 40
52.0
 40
52.0
 40
52.0
 40
53.0
 40
53.0
 40
53.0
 40
54.0
 40
54.0
 40
54.0
 40
55.0
 40
55.0
 40
55.0
 40
56.0
 40
56.0
 40
56.0
 40
56.0
 10
16.81151905911092
 20
6.053736858973761
 30
0.0
 10
16.9411999893221
 20
6.299694068181478
 30
0.0
 10
17.08397012919255
 20
6.564277401448665
 30
0.0
 10
17.12901905903155
 20
6.643652401428822
 30
0.0
 10
17.17131729544404
 20
6.723027401408978
 30
0.0
 10
17.41469929577653
 20
7.175429804385613
 30
0.0
 10
17.67141489222928
 20
7.649069067844134
 30
0.0
 10
17.92537979525552
 20
8.122708331302656
 30
0.0
 10
18.33809469824208
 20
8.884778524932667
 30
0.0
 10
18.58422739200108
 20
9.342402400754134
 30
0.0
 10
18.83297082218249
 20
9.80020176112688
 30
0.0
 10
19.07892803139021
 20
10.22875656719921
 30
0.0
 10
19.13449096201325
 20
10.29229166409359
 30
0.0
 10
19.26413636467724
 20
10.44303397023538
 30
0.0
 10
19.49965062819529
 20
10.61501313685905
 30
0.0
 10
19.71392803123146
 20
10.71562499732109
 30
0.0
 10
19.71392803123146
 20
10.71562499732109
 30
0.0
 10
19.88590719785513
 20
10.79761073372367
 30
0.0
 10
19.88590719785513
 20
10.79761073372367
 30
0.0
 10
19.88590719785513
 20
10.79761073372367
 30
0.0
 10
22.15349273127803
 20
10.79761073372367
 30
0.0
 10
22.15349273127803
 20
10.79761073372367
 30
0.0
 10
22.15349273127803
 20
10.79761073372367
 30
0.0
 10
22.32272012788286
 20
10.8823832293961
 30
0.0
 10
22.32272012788286
 20
10.8823832293961
 30
0.0
 10
22.63757386383388
 20
11.03834593179038
 30
0.0
 10
22.91277455074967
 20
11.37708333048906
 30
0.0
 10
23.12969929434778
 20
11.87457019085189
 30
0.0
 10
23.12969929434778
 20
11.87457019085189
 30
0.0
 10
23.21704538400693
 20
12.08083990006952
 30
0.0
 10
23.21704538400693
 20
12.08083990006952
 30
0.0
 10
23.21704538400693
 20
12.08083990006952
 30
0.0
 10
21.25912871782975
 20
12.08884759388805
 30
0.0
 10
21.25912871782975
 20
12.08884759388805
 30
0.0
 10
19.15308155852553
 20
12.09406906673288
 30
0.0
 10
19.12401248877639
 20
12.09406906673288
 30
0.0
 10
18.78266489195147
 20
11.95655592725446
 30
0.0
 10
18.58422739200108
 20
11.87457019085189
 30
0.0
 10
18.34871312848302
 20
11.6971940668321
 30
0.0
 10
18.23490762890481
 20
11.54105480329421
 30
0.0
 10
18.1873523921003
 20
11.47490896997741
 30
0.0
 10
18.06028219831153
 20
11.25279989597017
 30
0.0
 10
17.95444886500466
 20
11.04896490032749
 30
0.0
 10
17.84861553169779
 20
10.84530592753227
 30
0.0
 10
17.63959512905364
 20
10.44582072950524
 30
0.0
 10
17.49142803178708
 20
10.16261073388242
 30
0.0
 10
17.34329646206771
 20
9.879576761107037
 30
0.0
 10
17.12901905903155
 20
9.46686185812048
 30
0.0
 10
17.01517803190614
 20
9.249798234110619
 30
0.0
 10
16.90151248933202
 20
9.030299358229621
 30
0.0
 10
16.76382386530231
 20
8.770937497807266
 30
0.0
 10
16.70829646222646
 20
8.673111858318917
 30
0.0
 10
16.70829646222646
 20
8.673111858318917
 30
0.0
 10
16.61308155916053
 20
8.493124997876718
 30
0.0
 10
16.61308155916053
 20
8.493124997876718
 30
0.0
 10
16.61308155916053
 20
8.493124997876718
 30
0.0
 10
16.40663636539161
 20
8.871549358269307
 30
0.0
 10
16.40663636539161
 20
8.871549358269307
 30
0.0
 10
16.29297082281749
 20
9.080429803909363
 30
0.0
 10
16.12621312903865
 20
9.387486858140324
 30
0.0
 10
16.03621969881755
 20
9.554069067367884
 30
0.0
 10
15.94626179614364
 20
9.720826761146723
 30
0.0
 10
15.75579646246459
 20
10.07261730366132
 30
0.0
 10
15.61288636559005
 20
10.33459043880226
 30
0.0
 10
15.47001071967036
 20
10.59656249735086
 30
0.0
 10
15.28755415640218
 20
10.93529989604954
 30
0.0
 10
15.20278219902591
 20
11.08865240031757
 30
0.0
 10
15.12079646262334
 20
11.24218092743305
 30
0.0
 10
14.99912322623069
 20
11.46446656258392
 30
0.0
 10
14.93558812933631
 20
11.58352906255415
 30
0.0
 10
14.87205303244193
 20
11.7052022989468
 30
0.0
 10
14.81391489294366
 20
11.80302740013898
 30
0.0
 10
14.80590719912513
 20
11.80302740013898
 30
0.0
 10
14.79807498985788
 20
11.80302740013898
 30
0.0
 10
14.66303155320544
 20
11.56229166377609
 30
0.0
 10
14.50428155324513
 20
11.26602906263352
 30
0.0
 10
14.34553155328482
 20
10.97220009847358
 30
0.0
 10
13.99631729623779
 20
10.32675822953501
 30
0.0
 10
13.72651249012577
 20
9.831881567298431
 30
0.0
 10
13.45917738683974
 20
9.337180927909301
 30
0.0
 10
13.18672739335045
 20
8.83186185827923
 30
0.0
 10
13.12058156003366
 20
8.7100131373353
 30
0.0
 10
13.12058156003366
 20
8.7100131373353
 30
0.0
 10
13.00151906006342
 20
8.490514261454303
 30
0.0
 10
13.00151906006342
 20
8.490514261454303
 30
0.0
 10
13.00151906006342
 20
8.490514261454303
 30
0.0
 10
12.93798503976138
 20
8.60156906760601
 30
0.0
 10
12.93798503976138
 20
8.60156906760601
 30
0.0
 10
12.90355238697865
 20
8.662493428077974
 30
0.0
 10
12.874449942867
 20
8.718020831153828
 30
0.0
 10
12.874449942867
 20
8.72324230399866
 30
0.0
 10
12.874449942867
 20
8.728639261394772
 30
0.0
 10
12.78184577622348
 20
8.908450637285691
 30
0.0
 10
12.66542738703818
 20
9.122903524873136
 30
0.0
 10
12.5517273935092
 20
9.339791664331718
 30
0.0
 10
12.31360239356873
 20
9.794804803730768
 30
0.0
 10
12.13361660971887
 20
10.1361524005557
 30
0.0
 10
11.39542846394802
 20
11.55428396995756
 30
0.0
 10
11.38219929728466
 20
11.57552083043945
 30
0.0
 10
11.25265940066991
 20
11.68936185756485
 30
0.0
 10
11.09651906053967
 20
11.82426426062086
 30
0.0
 10
10.88746313034834
 20
11.94071602416868
 30
0.0
 10
10.69163636682036
 20
12.0094725939079
 30
0.0
 10
10.69163636682036
 20
12.0094725939079
 30
0.0
 10
10.47996970020661
 20
12.08083990006952
 30
0.0
 10
10.47996970020661
 20
12.08083990006952
 30
0.0
 10
10.47996970020661
 20
12.08083990006952
 30
0.0
 10
8.450685727867796
 20
12.08884759388805
 30
0.0
 10
8.450685727867796
 20
12.08884759388805
 30
0.0
 10
6.511219701198801
 20
12.0966798031553
 30
0.0
 10
6.418615534555285
 20
12.09406906673288
 30
0.0
 10
6.418615534555285
 20
12.04916009389797
 30
0.0
 10
6.418615534555285
 20
11.95916666367687
 30
0.0
 10
6.677977933273811
 20
11.46968749713258
 30
0.0
 10
6.823498766570763
 20
11.28447916384555
 30
0.0
 10
6.99286719677202
 20
11.07020176080938
 30
0.0
 10
7.132990534376691
 20
10.95374999726156
 30
0.0
 10
7.323596363356003
 20
10.86375656704046
 30
0.0
 10
7.323596363356003
 20
10.86375656704046
 30
0.0
 10
7.463719700960675
 20
10.79761073372367
 30
0.0
 10
7.463719700960675
 20
10.79761073372367
 30
0.0
 10
7.463719700960675
 20
10.79761073372367
 30
0.0
 10
8.59620656116475
 20
10.79761073372367
 30
0.0
 10
8.59620656116475
 20
10.79761073372367
 30
0.0
 10
9.868817297269665
 20
10.79761073372367
 30
0.0
 10
9.768240426058645
 20
10.81083990038703
 30
0.0
 10
10.14140886265155
 20
10.58072259426508
 30
0.0
 10
10.41647013085942
 20
10.40874342764141
 30
0.0
 10
10.55412322734194
 20
10.22875656719921
 30
0.0
 10
10.86626179741364
 20
9.644062497588983
 30
0.0
 10
11.02236553340435
 20
9.355631567417493
 30
0.0
 10
11.42985896354607
 20
8.593736858338762
 30
0.0
 10
11.77642803321583
 20
7.953339901101399
 30
0.0
 10
12.12303155384044
 20
7.313118428415318
 30
0.0
 10
12.53588749042343
 20
6.545826761940474
 30
0.0
 10
12.69463749038374
 20
6.246777401528041
 30
0.0
 10
12.85599822676647
 20
5.947903525666886
 30
0.0
 10
13.00151906006342
 20
5.68854166524453
 30
0.0
 10
13.01997077616395
 20
5.670091025736339
 30
0.0
 10
13.05965827615403
 20
5.627617304772566
 30
0.0
 10
13.08089406004358
 20
5.670091025736339
 30
0.0
 10
14.37996312947521
 20
8.091028525131104
 30
0.0
 10
14.60746969917474
 20
8.516972594781022
 30
0.0
 10
14.79807498985788
 20
8.866152400873197
 30
0.0
 10
14.80590719912513
 20
8.866152400873197
 30
0.0
 10
14.81391489294366
 20
8.866152400873197
 30
0.0
 10
14.8906791565014
 20
8.739257691635714
 30
0.0
 10
14.97266489290397
 20
8.580507691675402
 30
0.0
 10
15.05465062930654
 20
8.424368428137505
 30
0.0
 10
15.2240190595078
 20
8.112089901061712
 30
0.0
 10
15.34308155947803
 20
7.887194067784603
 30
0.0
 10
15.46475479587068
 20
7.662298234507493
 30
0.0
 10
15.6684492962131
 20
7.281263137692488
 30
0.0
 10
15.79809469887708
 20
7.040527401329603
 30
0.0
 10
15.92777562908826
 20
6.799791664966718
 30
0.0
 10
16.08130415620374
 20
6.513971471217644
 30
0.0
 10
16.13944229570201
 20
6.405527401488353
 30
0.0
 10
16.20036665617397
 20
6.294472595336646
 30
0.0
 10
16.31942915614421
 20
6.072187498481953
 30
0.0
 10
16.40663636539161
 20
5.908216025676809
 30
0.0
 10
16.4940190591903
 20
5.7466798047428
 30
0.0
 10
16.56803262932153
 20
5.611777401686791
 30
0.0
 10
16.56803262932153
 20
5.611777401686791
 30
0.0
 10
16.57078332274804
 20
5.611777401686791
 30
0.0
 10
16.67922739247733
 20
5.810214901637181
 30
0.0
 10
16.81151905911092
 20
6.053736858973761
 30
0.0
 10
16.81151905911092
 20
6.053736858973761
 30
0.0
 10
16.81151905911092
 20
6.053736858973761
 30
0.0
 10
16.81151905911092
 20
6.053736858973761
 30
0.0
  0
SPLINE
  5
57
330
1F
100
AcDbEntity
  8
Capa 1
370
     0
100
AcDbSpline
210
0.0
220
0.0
230
1.0
 70
    11
 71
     3
 72
   149
 73
   145
 74
     0
 42
0.0000000001
 43
0.0000000001
 12
1.0
 22
0.0
 32
0.0
 13
1.0
 23
0.0
 33
0.0
 40
0.0
 40
0.0
 40
0.0
 40
0.0
 40
1.0
 40
1.0
 40
1.0
 40
2.0
 40
2.0
 40
2.0
 40
3.0
 40
3.0
 40
3.0
 40
4.0
 40
4.0
 40
4.0
 40
5.0
 40
5.0
 40
5.0
 40
6.0
 40
6.0
 40
6.0
 40
7.0
 40
7.0
 40
7.0
 40
8.0
 40
8.0
 40
8.0
 40
9.0
 40
9.0
 40
9.0
 40
10.0
 40
10.0
 40
10.0
 40
11.0
 40
11.0
 40
11.0
 40
12.0
 40
12.0
 40
12.0
 40
13.0
 40
13.0
 40
13.0
 40
14.0
 40
14.0
 40
14.0
 40
15.0
 40
15.0
 40
15.0
 40
16.0
 40
16.0
 40
16.0
 40
17.0
 40
17.0
 40
17.0
 40
18.0
 40
18.0
 40
18.0
 40
19.0
 40
19.0
 40
19.0
 40
20.0
 40
20.0
 40
20.0
 40
21.0
 40
21.0
 40
21.0
 40
22.0
 40
22.0
 40
22.0
 40
23.0
 40
23.0
 40
23.0
 40
24.0
 40
24.0
 40
24.0
 40
25.0
 40
25.0
 40
25.0
 40
26.0
 40
26.0
 40
26.0
 40
27.0
 40
27.0
 40
27.0
 40
28.0
 40
28.0
 40
28.0
 40
29.0
 40
29.0
 40
29.0
 40
30.0
 40
30.0
 40
30.0
 40
31.0
 40
31.0
 40
31.0
 40
32.0
 40
32.0
 40
32.0
 40
33.0
 40
33.0
 40
33.0
 40
34.0
 40
34.0
 40
34.0
 40
35.0
 40
35.0
 40
35.0
 40
36.0
 40
36.0
 40
36.0
 40
37.0
 40
37.0
 40
37.0
 40
38.0
 40
38.0
 40
38.0
 40
39.0
 40
39.0
 40
39.0
 40
40.0
 40
40.0
 40
40.0
 40
41.0
 40
41.0
 40
41.0
 40
42.0
 40
42.0
 40
42.0
 40
43.0
 40
43.0
 40
43.0
 40
44.0
 40
44.0
 40
44.0
 40
45.0
 40
45.0
 40
45.0
 40
46.0
 40
46.0
 40
46.0
 40
47.0
 40
47.0
 40
47.0
 40
48.0
 40
48.0
 40
48.0
 40
48.0
 10
13.16813572024583
 20
9.46686185812048
 30
0.0
 10
13.25809577610442
 20
9.638841024744153
 30
0.0
 10
13.5306857265978
 20
10.14677083079664
 30
0.0
 10
13.77403327597544
 20
10.59917323377327
 30
0.0
 10
14.01755415671968
 20
11.04896490032749
 30
0.0
 10
14.27151905974592
 20
11.52521490020843
 30
0.0
 10
14.34288744249989
 20
11.65750656684202
 30
0.0
 10
14.4673458232739
 20
11.89302083036008
 30
0.0
 10
14.52548396277217
 20
11.99885416366695
 30
0.0
 10
14.70271905319552
 20
12.3243618574061
 30
0.0
 10
14.75037979604928
 20
12.41696602404962
 30
0.0
 10
14.79807498985788
 20
12.49094406663366
 30
0.0
 10
14.80590719912513
 20
12.49094406663366
 30
0.0
 10
14.81391489294366
 20
12.49094406663366
 30
0.0
 10
15.2240190595078
 20
11.7394923032446
 30
0.0
 10
15.71871969889692
 20
10.82406906705038
 30
0.0
 10
16.21084512941083
 20
9.906035094433756
 30
0.0
 10
16.62369998940147
 20
9.16520176128563
 30
0.0
 10
16.63153219866872
 20
9.175820191526574
 30
0.0
 10
16.65015832272819
 20
9.196881567457181
 30
0.0
 10
17.5417339620181
 20
10.91406249727148
 30
0.0
 10
18.15288636495505
 20
12.10729823339624
 30
0.0
 10
18.32486553157872
 20
12.44063813640264
 30
0.0
 10
18.47303262884528
 20
12.72645833015172
 30
0.0
 10
18.48626179550864
 20
12.74229823323749
 30
0.0
 10
18.49684469820239
 20
12.75552739990085
 30
0.0
 10
18.55776905867436
 20
12.89042980295686
 30
0.0
 10
18.62391489199116
 20
13.03873685722751
 30
0.0
 10
18.69006072530795
 20
13.1894791633693
 30
0.0
 10
18.7878863647963
 20
13.37729823307874
 30
0.0
 10
18.84344929541934
 20
13.4566732330589
 30
0.0
 10
18.97849165547944
 20
13.6605076904054
 30
0.0
 10
19.21386596199341
 20
13.89062499652734
 30
0.0
 10
19.38584512861708
 20
13.98583989959327
 30
0.0
 10
19.38584512861708
 20
13.98583989959327
 30
0.0
 10
19.52871969794442
 20
14.06521489957343
 30
0.0
 10
19.52871969794442
 20
14.06521489957343
 30
0.0
 10
19.52871969794442
 20
14.06521489957343
 30
0.0
 10
24.95267802992177
 20
14.09167323290015
 30
0.0
 10
24.95267802992177
 20
14.09167323290015
 30
0.0
 10
24.95267802992177
 20
14.09167323290015
 30
0.0
 10
25.12465719654544
 20
14.17644519027642
 30
0.0
 10
25.12465719654544
 20
14.17644519027642
 30
0.0
 10
25.34433155697772
 20
14.28749999642812
 30
0.0
 10
25.50830302978286
 20
14.42780043347258
 30
0.0
 10
25.68828989022506
 20
14.66853509324313
 30
0.0
 10
25.82580302970349
 20
14.85113376670008
 30
0.0
 10
26.0506988629806
 20
15.25583989927577
 30
0.0
 10
26.0506988629806
 20
15.31937499617016
 30
0.0
 10
26.0506988629806
 20
15.34061185665204
 30
0.0
 10
25.14328439719725
 20
15.34844406591929
 30
0.0
 10
22.55036773117881
 20
15.34844406591929
 30
0.0
 10
18.7006791555489
 20
15.34844406591929
 30
0.0
 10
18.91756729500748
 20
15.35645283633016
 30
0.0
 10
18.5656367954888
 20
15.18447366970648
 30
0.0
 10
18.26672739208045
 20
15.04156249623961
 30
0.0
 10
18.12381729520591
 20
14.8643618567711
 30
0.0
 10
17.7640190588728
 20
14.19750656620703
 30
0.0
 10
17.07610239237811
 20
12.92750656652452
 30
0.0
 10
16.86965719860919
 20
12.54647146970952
 30
0.0
 10
16.74276248937171
 20
12.3243618574061
 30
0.0
 10
16.74276248937171
 20
12.3243618574061
 30
0.0
 10
16.61308155916053
 20
12.08884759388805
 30
0.0
 10
16.61308155916053
 20
12.08884759388805
 30
0.0
 10
16.61308155916053
 20
12.08884759388805
 30
0.0
 10
16.51246969869849
 20
12.27144519075267
 30
0.0
 10
16.51246969869849
 20
12.27144519075267
 30
0.0
 10
16.45694229562264
 20
12.36927083024101
 30
0.0
 10
16.29558155923991
 20
12.67093092707587
 30
0.0
 10
16.15006072594295
 20
12.94073573318788
 30
0.0
 10
16.004539892646
 20
13.21071602385118
 30
0.0
 10
15.84578989268569
 20
13.50175769044509
 30
0.0
 10
15.79809469887708
 20
13.58896489969249
 30
0.0
 10
15.36417738636349
 20
14.39072259331258
 30
0.0
 10
15.03344821977951
 20
15.00187499624953
 30
0.0
 10
14.93558812933631
 20
15.18186185669173
 30
0.0
 10
14.87205303244193
 20
15.30353616967672
 30
0.0
 10
14.81391489294366
 20
15.40136073257273
 30
0.0
 10
14.80590719912513
 20
15.40136073257273
 30
0.0
 10
14.79807498985788
 20
15.40136073257273
 30
0.0
 10
14.60224822632991
 20
15.04678396908444
 30
0.0
 10
14.36934577582661
 20
14.61561842658969
 30
0.0
 10
14.13661665668991
 20
14.18427739954367
 30
0.0
 10
13.86928155340388
 20
13.68696602373212
 30
0.0
 10
13.77142146296068
 20
13.51220063613475
 30
0.0
 10
13.67620655989475
 20
13.33499999666625
 30
0.0
 10
13.46976244271817
 20
12.95396489985124
 30
0.0
 10
13.31365655354279
 20
12.66292323325734
 30
0.0
 10
13.15490655358247
 20
12.37188156666343
 30
0.0
 10
13.01997077616395
 20
12.12592435745571
 30
0.0
 10
13.00938572028552
 20
12.11269519079235
 30
0.0
 10
12.99890832364101
 20
12.10207676055141
 30
0.0
 10
12.89568572675655
 20
12.26865896977897
 30
0.0
 10
12.77923503980107
 20
12.48311185736642
 30
0.0
 10
12.66542738703818
 20
12.69477852398017
 30
0.0
 10
12.5411100398606
 20
12.92489583010211
 30
0.0
 10
12.50403327629294
 20
12.9910416634189
 30
0.0
 10
11.44047739378702
 20
14.95417980244092
 30
0.0
 10
11.4510969006203
 20
14.93833989935515
 30
0.0
 10
11.17850479694224
 20
15.11031906597882
 30
0.0
 10
11.10438679735411
 20
15.15801533637977
 30
0.0
 10
10.96683813032849
 20
15.22938156594905
 30
0.0
 10
10.86901356743249
 20
15.26645832951672
 30
0.0
 10
10.86901356743249
 20
15.26645832951672
 30
0.0
 10
10.69163636682036
 20
15.33521489925593
 30
0.0
 10
10.69163636682036
 20
15.33521489925593
 30
0.0
 10
10.69163636682036
 20
15.33521489925593
 30
0.0
 10
7.114540433164669
 20
15.3432236696668
 30
0.0
 10
7.114540433164669
 20
15.3432236696668
 30
0.0
 10
7.114540433164669
 20
15.3432236696668
 30
0.0
 10
3.537303465912549
 20
15.34844406591929
 30
0.0
 10
3.537303465912549
 20
15.34844406591929
 30
0.0
 10
3.537303465912549
 20
15.34844406591929
 30
0.0
 10
3.603449299229346
 20
15.20292323262234
 30
0.0
 10
3.603449299229346
 20
15.20292323262234
 30
0.0
 10
3.838928035200207
 20
14.69238376673977
 30
0.0
 10
4.193504798688494
 20
14.29011073285054
 30
0.0
 10
4.540073868358254
 20
14.1499868569497
 30
0.0
 10
4.540073868358254
 20
14.1499868569497
 30
0.0
 10
4.685594701655207
 20
14.09167323290015
 30
0.0
 10
4.685594701655207
 20
14.09167323290015
 30
0.0
 10
4.685594701655207
 20
14.09167323290015
 30
0.0
 10
10.08309470030583
 20
14.06521489957343
 30
0.0
 10
10.08309470030583
 20
14.06521489957343
 30
0.0
 10
10.08309470030583
 20
14.06521489957343
 30
0.0
 10
10.19157375928615
 20
14.00707676007516
 30
0.0
 10
10.19157375928615
 20
14.00707676007516
 30
0.0
 10
10.49859690085842
 20
13.84292980271874
 30
0.0
 10
10.73933156062897
 20
13.56511730278819
 30
0.0
 10
10.93515940074928
 20
13.15240239980163
 30
0.0
 10
11.09651906053967
 20
12.80844406655429
 30
0.0
 10
11.30818572715342
 20
12.3905076907229
 30
0.0
 10
11.92995763692365
 20
11.19448573362445
 30
0.0
 10
12.50667738707786
 20
10.08062499747984
 30
0.0
 10
12.86922739342983
 20
9.37686842789938
 30
0.0
 10
12.93798503976138
 20
9.241966024843371
 30
0.0
 10
12.96183156007334
 20
9.196881567457181
 30
0.0
 10
12.98567915697765
 20
9.157194067467103
 30
0.0
 10
12.99090170641482
 20
9.157194067467103
 30
0.0
 10
12.99890832364101
 20
9.157194067467103
 30
0.0
 10
13.07553155360232
 20
9.297493427919225
 30
0.0
 10
13.16813572024583
 20
9.46686185812048
 30
0.0
 10
13.16813572024583
 20
9.46686185812048
 30
0.0
 10
13.16813572024583
 20
9.46686185812048
 30
0.0
 10
13.16813572024583
 20
9.46686185812048
 30
0.0
  0
SPLINE
  5
58
330
1F
100
AcDbEntity
  8
Capa 1
370
     0
100
AcDbSpline
210
0.0
220
0.0
230
1.0
 70
    11
 71
     3
 72
    35
 73
    31
 74
     0
 42
0.0000000001
 43
0.0000000001
 12
1.0
 22
0.0
 32
0.0
 13
1.0
 23
0.0
 33
0.0
 40
0.0
 40
0.0
 40
0.0
 40
0.0
 40
1.0
 40
1.0
 40
1.0
 40
2.0
 40
2.0
 40
2.0
 40
3.0
 40
3.0
 40
3.0
 40
4.0
 40
4.0
 40
4.0
 40
5.0
 40
5.0
 40
5.0
 40
6.0
 40
6.0
 40
6.0
 40
7.0
 40
7.0
 40
7.0
 40
8.0
 40
8.0
 40
8.0
 40
9.0
 40
9.0
 40
9.0
 40
10.0
 40
10.0
 40
10.0
 40
10.0
 10
18.81434469812302
 20
12.2766666635975
 30
0.0
 10
19.16631072518889
 20
12.40895833023109
 30
0.0
 10
19.21661665541991
 20
12.41156906665351
 30
0.0
 10
21.46017803079489
 20
12.41156906665351
 30
0.0
 10
23.75944121720467
 20
12.41156906665351
 30
0.0
 10
23.6536078838978
 20
12.40373685738626
 30
0.0
 10
23.89974273084147
 20
12.57292980303624
 30
0.0
 10
24.23308155725553
 20
12.80322259370946
 30
0.0
 10
24.53735239051279
 20
13.22115896954085
 30
0.0
 10
24.66428262729747
 20
13.62082019041532
 30
0.0
 10
24.66428262729747
 20
13.62082019041532
 30
0.0
 10
24.69871205030319
 20
13.73448573298945
 30
0.0
 10
24.69871205030319
 20
13.73448573298945
 30
0.0
 10
24.69871205030319
 20
13.73448573298945
 30
0.0
 10
22.15871205093818
 20
13.73448573298945
 30
0.0
 10
22.15871205093818
 20
13.73448573298945
 30
0.0
 10
19.70870655838662
 20
13.73448573298945
 30
0.0
 10
19.61610239174311
 20
13.73187499656703
 30
0.0
 10
19.52088748867718
 20
13.68417980275843
 30
0.0
 10
19.32767146157162
 20
13.58374342684766
 30
0.0
 10
19.24032429532013
 20
13.45145176021407
 30
0.0
 10
18.65559469816271
 20
12.37188156666343
 30
0.0
 10
18.544539892011
 20
12.16561185744579
 30
0.0
 10
18.53653219819247
 20
12.13915352411907
 30
0.0
 10
18.59209512881552
 20
12.17605480313546
 30
0.0
 10
18.62652562841357
 20
12.19990240003976
 30
0.0
 10
18.72713748887561
 20
12.24498685742595
 30
0.0
 10
18.81434469812302
 20
12.2766666635975
 30
0.0
 10
18.81434469812302
 20
12.2766666635975
 30
0.0
 10
18.81434469812302
 20
12.2766666635975
 30
0.0
 10
18.81434469812302
 20
12.2766666635975
 30
0.0
  0
SPLINE
  5
59
330
1F
100
AcDbEntity
  8
Capa 1
370
     0
100
AcDbSpline
210
0.0
220
0.0
230
1.0
 70
    11
 71
     3
 72
    41
 73
    37
 74
     0
 42
0.0000000001
 43
0.0000000001
 12
1.0
 22
0.0
 32
0.0
 13
1.0
 23
0.0
 33
0.0
 40
0.0
 40
0.0
 40
0.0
 40
0.0
 40
1.0
 40
1.0
 40
1.0
 40
2.0
 40
2.0
 40
2.0
 40
3.0
 40
3.0
 40
3.0
 40
4.0
 40
4.0
 40
4.0
 40
5.0
 40
5.0
 40
5.0
 40
6.0
 40
6.0
 40
6.0
 40
7.0
 40
7.0
 40
7.0
 40
8.0
 40
8.0
 40
8.0
 40
9.0
 40
9.0
 40
9.0
 40
10.0
 40
10.0
 40
10.0
 40
11.0
 40
11.0
 40
11.0
 40
12.0
 40
12.0
 40
12.0
 40
12.0
 10
11.04882386673107
 20
12.18928396979882
 30
0.0
 10
11.04882386673107
 20
12.20791009385829
 30
0.0
 10
10.59120106750194
 20
13.04917980291718
 30
0.0
 10
10.44568023420499
 20
13.29792323309859
 30
0.0
 10
10.32661773423475
 20
13.50175769044509
 30
0.0
 10
10.26830303359286
 20
13.56511730278819
 30
0.0
 10
10.12542792596935
 20
13.65772146943171
 30
0.0
 10
10.12542792596935
 20
13.65772146943171
 30
0.0
 10
10.00636542599911
 20
13.73448573298945
 30
0.0
 10
10.00636542599911
 20
13.73448573298945
 30
0.0
 10
10.00636542599911
 20
13.73448573298945
 30
0.0
 10
4.9078797985099
 20
13.73448573298945
 30
0.0
 10
4.9078797985099
 20
13.73448573298945
 30
0.0
 10
4.9078797985099
 20
13.73448573298945
 30
0.0
 10
4.926365965565283
 20
13.67373685706876
 30
0.0
 10
4.926365965565283
 20
13.67373685706876
 30
0.0
 10
5.066629798470212
 20
13.21071602385118
 30
0.0
 10
5.476733965034353
 20
12.68154935731681
 30
0.0
 10
5.833922003241226
 20
12.50156249687461
 30
0.0
 10
5.833922003241226
 20
12.50156249687461
 30
0.0
 10
5.982052496368256
 20
12.42479823331687
 30
0.0
 10
5.982052496368256
 20
12.42479823331687
 30
0.0
 10
5.982052496368256
 20
12.42479823331687
 30
0.0
 10
10.45351136687989
 20
12.39833989999015
 30
0.0
 10
10.45351136687989
 20
12.39833989999015
 30
0.0
 10
10.45351136687989
 20
12.39833989999015
 30
0.0
 10
10.66517803349364
 20
12.3243618574061
 30
0.0
 10
10.66517803349364
 20
12.3243618574061
 30
0.0
 10
10.78162979704146
 20
12.28467435741603
 30
0.0
 10
10.90594929740372
 20
12.23436842718501
 30
0.0
 10
10.94299053342419
 20
12.21313156670312
 30
0.0
 10
11.01453440072944
 20
12.17083333029062
 30
0.0
 10
11.04882386673107
 20
12.16561185744579
 30
0.0
 10
11.04882386673107
 20
12.18928396979882
 30
0.0
 10
11.04882386673107
 20
12.18928396979882
 30
0.0
 10
11.04882386673107
 20
12.18928396979882
 30
0.0
 10
11.04882386673107
 20
12.18928396979882
 30
0.0
  0
POLYLINE
  5
5A
330
1F
100
AcDbEntity
  8
Capa 1
370
     0
100
AcDb2dPolyline
 66
     1
 10
0.0
 20
0.0
 30
0.0
  0
VERTEX
  5
5B
330
5A
100
AcDbEntity
  8
Capa 1
370
     0
100
AcDbVertex
100
AcDb2dVertex
 10
11.04882386673107
 20
12.18928396979882
 30
0.0
  0
VERTEX
  5
62
330
5A
100
AcDbEntity
  8
0
100
AcDbVertex
100
AcDb2dVertex
 10
11.04882386673107
 20
12.18928396979882
 30
0.0
  0
SEQEND
  5
5C
330
5A
100
AcDbEntity
  8
Capa 1
370
     0
  0
HATCH
  5
5D
330
1F
100
AcDbEntity
  8
Capa 1
 62
    18
420
   196867
100
AcDbHatch
 10
0.0
 20
0.0
 30
0.0
210
0.0
220
0.0
230
1.0
  2
SOLID
 70
     1
 71
     0
 91
        5
 92
        1
 93
        1
 72
     4
 94
        3
 73
     0
 74
     1
 95
      167
 96
      163
 40
0.0
 40
0.0
 40
0.0
 40
0.0
 40
1.0
 40
1.0
 40
1.0
 40
2.0
 40
2.0
 40
2.0
 40
3.0
 40
3.0
 40
3.0
 40
4.0
 40
4.0
 40
4.0
 40
5.0
 40
5.0
 40
5.0
 40
6.0
 40
6.0
 40
6.0
 40
7.0
 40
7.0
 40
7.0
 40
8.0
 40
8.0
 40
8.0
 40
9.0
 40
9.0
 40
9.0
 40
10.0
 40
10.0
 40
10.0
 40
11.0
 40
11.0
 40
11.0
 40
12.0
 40
12.0
 40
12.0
 40
13.0
 40
13.0
 40
13.0
 40
14.0
 40
14.0
 40
14.0
 40
15.0
 40
15.0
 40
15.0
 40
16.0
 40
16.0
 40
16.0
 40
17.0
 40
17.0
 40
17.0
 40
18.0
 40
18.0
 40
18.0
 40
19.0
 40
19.0
 40
19.0
 40
20.0
 40
20.0
 40
20.0
 40
21.0
 40
21.0
 40
21.0
 40
22.0
 40
22.0
 40
22.0
 40
23.0
 40
23.0
 40
23.0
 40
24.0
 40
24.0
 40
24.0
 40
25.0
 40
25.0
 40
25.0
 40
26.0
 40
26.0
 40
26.0
 40
27.0
 40
27.0
 40
27.0
 40
28.0
 40
28.0
 40
28.0
 40
29.0
 40
29.0
 40
29.0
 40
30.0
 40
30.0
 40
30.0
 40
31.0
 40
31.0
 40
31.0
 40
32.0
 40
32.0
 40
32.0
 40
33.0
 40
33.0
 40
33.0
 40
34.0
 40
34.0
 40
34.0
 40
35.0
 40
35.0
 40
35.0
 40
36.0
 40
36.0
 40
36.0
 40
37.0
 40
37.0
 40
37.0
 40
38.0
 40
38.0
 40
38.0
 40
39.0
 40
39.0
 40
39.0
 40
40.0
 40
40.0
 40
40.0
 40
41.0
 40
41.0
 40
41.0
 40
42.0
 40
42.0
 40
42.0
 40
43.0
 40
43.0
 40
43.0
 40
44.0
 40
44.0
 40
44.0
 40
45.0
 40
45.0
 40
45.0
 40
46.0
 40
46.0
 40
46.0
 40
47.0
 40
47.0
 40
47.0
 40
48.0
 40
48.0
 40
48.0
 40
49.0
 40
49.0
 40
49.0
 40
50.0
 40
50.0
 40
50.0
 40
51.0
 40
51.0
 40
51.0
 40
52.0
 40
52.0
 40
52.0
 40
53.0
 40
53.0
 40
53.0
 40
54.0
 40
54.0
 40
54.0
 40
54.0
 10
12.95922082365093
 20
5.045533971584753
 10
12.88767910953036
 20
5.183222595614459
 10
12.1362607205038
 20
6.609361858834855
 10
12.027783276412
 20
6.815631568052494
 10
11.95902670667279
 20
6.945312498263672
 10
11.72090063013998
 20
7.397714901240306
 10
11.49861553328529
 20
7.81843749804539
 10
11.27636596397778
 20
8.24177083127289
 10
11.02501179737395
 20
8.718020831153828
 10
10.93776906057936
 20
8.87677083111414
 10
10.85303263075028
 20
9.038131567496869
 10
10.68105346412661
 20
9.371471470503268
 10
10.55151356751186
 20
9.617604164262264
 10
10.3900117975327
 20
9.932493427760473
 10
10.27892146383381
 20
10.10969406722898
 10
10.18109636264163
 20
10.21813813695827
 10
10.0117273941442
 20
10.40073573382288
 10
9.818511367038644
 20
10.50656906712976
 10
9.646532200414972
 20
10.50395833070734
 10
9.580386367098175
 20
10.50395833070734
 10
9.0830755295828
 20
10.49873739615868
 10
8.540679696385066
 20
10.49072916404398
 10
7.434651169507711
 20
10.47488926095821
 10
7.416200529999519
 20
10.47749999738062
 10
7.106532201049973
 20
10.65748739611899
 10
6.884282093446301
 20
10.78699230348272
 10
6.564136367852238
 20
11.10188156698093
 10
6.402776169765679
 20
11.35323573358476
 10
6.33140886360405
 20
11.46167926501788
 10
6.212346363633817
 20
11.67874396562008
 10
6.140802496328568
 20
11.83749342728422
 10
6.013908863683426
 20
12.11269519079235
 10
6.005901169864898
 20
12.12313813648202
 10
5.9026774963881
 20
12.14959646980874
 10
5.720114888774506
 20
12.19990240003976
 10
5.397358965054197
 20
12.38249999690437
 10
5.230636798822549
 20
12.53602852401986
 10
4.915888568920767
 20
12.81906249679523
 10
4.688240965624814
 20
13.21854823311843
 10
4.566532201684972
 20
13.69740896942178
 10
4.542720132327862
 20
13.79279989533516
 10
4.526844701694895
 20
13.81124999654719
 10
4.423657632357627
 20
13.85093749653726
 10
4.262261368427707
 20
13.9118623953054
 10
4.008296465401463
 20
14.08105480265921
 10
3.846935729018734
 20
14.23197259335227
 10
3.555894062424828
 20
14.50438813588671
 10
3.315158326061943
 20
14.94095063577756
 10
3.198706562514125
 20
15.40936950298359
 10
3.159019062524047
 20
15.56550768992915
 10
3.135171465619744
 20
15.69779935656275
 10
3.140428466011768
 20
15.70563156582999
 10
3.148400632283104
 20
15.7110285232261
 10
4.802046465203025
 20
15.71886073249335
 10
6.818136260129504
 20
15.71886073249335
 10
10.04605292598919
 20
15.72147146891577
 10
10.50381729711092
 20
15.71624999607094
 10
10.67579646373459
 20
15.67917323250327
 10
11.07792846402739
 20
15.59457675967829
 10
11.39017146355599
 20
15.42781906589945
 10
11.67059469990896
 20
15.1500065659689
 10
11.8452190539099
 20
14.97541666292281
 10
11.89027013693357
 20
14.90126313578749
 10
12.42465827631278
 20
13.91969406627648
 10
12.73693572679623
 20
13.34561842690719
 10
12.99615655362216
 20
12.86136073320773
 10
13.00151906006342
 20
12.84291009369954
 10
13.00674160950059
 20
12.82428396964007
 10
13.01997077616395
 20
12.80844406655429
 10
13.03319994282731
 20
12.80844406655429
 10
13.04381837306826
 20
12.80844406655429
 10
13.44594822017638
 20
13.5228190663757
 10
13.92219822005732
 20
14.39594406615742
 10
14.4011999899571
 20
15.26906906593913
 10
14.79807498985788
 20
15.98083332933812
 10
14.80590719912513
 20
15.98083332933812
 10
14.81391489294366
 20
15.98083332933812
 10
15.21078989284444
 20
15.26645832951672
 10
15.68965062914779
 20
14.393333329735
 10
16.3828242960345
 20
13.13134102387103
 10
16.56538636535192
 20
12.81105480297671
 10
16.59184469867864
 20
12.84029935727712
 10
16.61047082273812
 20
12.85874999678531
 10
16.8723034625788
 20
13.33238926024383
 10
17.17392803186646
 20
13.89062499652734
 10
17.47819886512372
 20
14.44886073281085
 10
17.77188679568723
 20
14.96479823268187
 10
17.82755415576718
 20
15.03634102339478
 10
18.04969929561778
 20
15.31676533634008
 10
18.4333451288552
 20
15.5494923022921
 10
18.84881072526827
 20
15.65532563559897
 10
18.84881072526827
 20
15.65532563559897
 10
19.10538636471692
 20
15.72147146891577
 10
19.10538636471692
 20
15.72147146891577
 10
19.10538636471692
 20
15.72147146891577
 10
22.78048288411608
 20
15.71886073249335
 10
22.78048288411608
 20
15.71886073249335
 10
24.80454538361006
 20
15.71886073249335
 10
26.46344929351434
 20
15.7110285232261
 10
26.47142038319334
 20
15.70563156582999
 10
26.4766784601777
 20
15.69779935656275
 10
26.45297189686983
 20
15.56550768992915
 10
26.41328439687975
 20
15.40936950298359
 10
26.29683155673959
 20
14.94095063577756
 10
26.05609689696905
 20
14.50438813588671
 10
25.76505523037514
 20
14.23197259335227
 10
25.60355346039599
 20
14.08105480265921
 10
25.34955302982255
 20
13.9118623953054
 10
25.18819121684748
 20
13.85093749653726
 10
25.08496969655536
 20
13.81124999654719
 10
25.06912871687725
 20
13.79279989533516
 10
25.04528219656529
 20
13.69740896942178
 10
24.91838856392014
 20
13.19208989979171
 10
24.66964405714639
 20
12.77676426038274
 10
24.32829538372912
 20
12.49094406663366
 10
24.15631621710545
 20
12.34803396975913
 10
23.88111553018966
 20
12.19729166361734
 10
23.70652455055123
 20
12.14959646980874
 10
23.60594929422872
 20
12.12313813648202
 10
23.59808155741428
 20
12.11269519079235
 10
23.47101136362552
 20
11.83749342728422
 10
23.39703439763381
 20
11.68135416374633
 10
23.28058155749365
 20
11.46167926501788
 10
23.20907429432794
 20
11.35323573358476
 10
23.04767803039802
 20
11.10188156698093
 10
22.72756621746264
 20
10.78699230348272
 10
22.50528219720028
 20
10.65748739611899
 10
22.19578989109819
 20
10.47749999738062
 10
22.17719929458591
 20
10.47488926095821
 10
21.05808155804928
 20
10.49072916404398
 10
20.50767803103302
 20
10.49873739615868
 10
20.01036665522147
 20
10.50656906712976
 10
19.95205303117192
 20
10.50656906712976
 10
19.89130415525124
 20
10.50656906712976
 10
19.7906922947892
 20
10.47749999738062
 10
19.71131729480904
 20
10.44042323381296
 10
19.4784492952606
 20
10.32675822953501
 10
19.34351136465739
 20
10.15199230364147
 10
19.02078989189194
 20
9.540839900704524
 10
18.69792846212239
 20
8.929687497767578
 10
17.35130415588624
 20
6.373847595316803
 10
16.92257386526263
 20
5.558860735033353
 10
16.77444229554326
 20
5.275826762257974
 10
16.64215062890966
 20
5.032304804921394
 10
16.63153219866872
 20
5.021861859231731
 10
16.61047082273812
 20
4.998014262327428
 10
16.51246969869849
 20
5.169993428951099
 10
15.48059469895646
 20
7.019467101991335
 10
15.1155749897785
 20
7.670305928326021
 10
14.81391489294366
 20
8.202083331282813
 10
14.80590719912513
 20
8.202083331282813
 10
14.79807498985788
 20
8.202083331282813
 10
14.69746312939584
 20
8.035325637503972
 10
14.58365655322529
 20
7.826445191863917
 10
13.98834405337412
 20
6.754882692131808
 10
13.02536665696772
 20
5.040312498739921
 10
13.00674160950059
 20
5.019075638258035
 10
12.99351244283723
 20
5.008632692568371
 10
12.97244999031429
 20
5.019075638258035
 10
12.95922082365093
 20
5.045533971584753
 10
12.95922082365093
 20
5.045533971584753
 10
12.95922082365093
 20
5.045533971584753
 10
12.95922082365093
 20
5.045533971584753
 97
        0
 97
        0
 92
        1
 93
        1
 72
     4
 94
        3
 73
     0
 74
     1
 95
      173
 96
      169
 40
0.0
 40
0.0
 40
0.0
 40
0.0
 40
1.0
 40
1.0
 40
1.0
 40
2.0
 40
2.0
 40
2.0
 40
3.0
 40
3.0
 40
3.0
 40
4.0
 40
4.0
 40
4.0
 40
5.0
 40
5.0
 40
5.0
 40
6.0
 40
6.0
 40
6.0
 40
7.0
 40
7.0
 40
7.0
 40
8.0
 40
8.0
 40
8.0
 40
9.0
 40
9.0
 40
9.0
 40
10.0
 40
10.0
 40
10.0
 40
11.0
 40
11.0
 40
11.0
 40
12.0
 40
12.0
 40
12.0
 40
13.0
 40
13.0
 40
13.0
 40
14.0
 40
14.0
 40
14.0
 40
15.0
 40
15.0
 40
15.0
 40
16.0
 40
16.0
 40
16.0
 40
17.0
 40
17.0
 40
17.0
 40
18.0
 40
18.0
 40
18.0
 40
19.0
 40
19.0
 40
19.0
 40
20.0
 40
20.0
 40
20.0
 40
21.0
 40
21.0
 40
21.0
 40
22.0
 40
22.0
 40
22.0
 40
23.0
 40
23.0
 40
23.0
 40
24.0
 40
24.0
 40
24.0
 40
25.0
 40
25.0
 40
25.0
 40
26.0
 40
26.0
 40
26.0
 40
27.0
 40
27.0
 40
27.0
 40
28.0
 40
28.0
 40
28.0
 40
29.0
 40
29.0
 40
29.0
 40
30.0
 40
30.0
 40
30.0
 40
31.0
 40
31.0
 40
31.0
 40
32.0
 40
32.0
 40
32.0
 40
33.0
 40
33.0
 40
33.0
 40
34.0
 40
34.0
 40
34.0
 40
35.0
 40
35.0
 40
35.0
 40
36.0
 40
36.0
 40
36.0
 40
37.0
 40
37.0
 40
37.0
 40
38.0
 40
38.0
 40
38.0
 40
39.0
 40
39.0
 40
39.0
 40
40.0
 40
40.0
 40
40.0
 40
41.0
 40
41.0
 40
41.0
 40
42.0
 40
42.0
 40
42.0
 40
43.0
 40
43.0
 40
43.0
 40
44.0
 40
44.0
 40
44.0
 40
45.0
 40
45.0
 40
45.0
 40
46.0
 40
46.0
 40
46.0
 40
47.0
 40
47.0
 40
47.0
 40
48.0
 40
48.0
 40
48.0
 40
49.0
 40
49.0
 40
49.0
 40
50.0
 40
50.0
 40
50.0
 40
51.0
 40
51.0
 40
51.0
 40
52.0
 40
52.0
 40
52.0
 40
53.0
 40
53.0
 40
53.0
 40
54.0
 40
54.0
 40
54.0
 40
55.0
 40
55.0
 40
55.0
 40
56.0
 40
56.0
 40
56.0
 40
56.0
 10
16.81151905911092
 20
6.053736858973761
 10
16.9411999893221
 20
6.299694068181478
 10
17.08397012919255
 20
6.564277401448665
 10
17.12901905903155
 20
6.643652401428822
 10
17.17131729544404
 20
6.723027401408978
 10
17.41469929577653
 20
7.175429804385613
 10
17.67141489222928
 20
7.649069067844134
 10
17.92537979525552
 20
8.122708331302656
 10
18.33809469824208
 20
8.884778524932667
 10
18.58422739200108
 20
9.342402400754134
 10
18.83297082218249
 20
9.80020176112688
 10
19.07892803139021
 20
10.22875656719921
 10
19.13449096201325
 20
10.29229166409359
 10
19.26413636467724
 20
10.44303397023538
 10
19.49965062819529
 20
10.61501313685905
 10
19.71392803123146
 20
10.71562499732109
 10
19.71392803123146
 20
10.71562499732109
 10
19.88590719785513
 20
10.79761073372367
 10
19.88590719785513
 20
10.79761073372367
 10
19.88590719785513
 20
10.79761073372367
 10
22.15349273127803
 20
10.79761073372367
 10
22.15349273127803
 20
10.79761073372367
 10
22.15349273127803
 20
10.79761073372367
 10
22.32272012788286
 20
10.8823832293961
 10
22.32272012788286
 20
10.8823832293961
 10
22.63757386383388
 20
11.03834593179038
 10
22.91277455074967
 20
11.37708333048906
 10
23.12969929434778
 20
11.87457019085189
 10
23.12969929434778
 20
11.87457019085189
 10
23.21704538400693
 20
12.08083990006952
 10
23.21704538400693
 20
12.08083990006952
 10
23.21704538400693
 20
12.08083990006952
 10
21.25912871782975
 20
12.08884759388805
 10
21.25912871782975
 20
12.08884759388805
 10
19.15308155852553
 20
12.09406906673288
 10
19.12401248877639
 20
12.09406906673288
 10
18.78266489195147
 20
11.95655592725446
 10
18.58422739200108
 20
11.87457019085189
 10
18.34871312848302
 20
11.6971940668321
 10
18.23490762890481
 20
11.54105480329421
 10
18.1873523921003
 20
11.47490896997741
 10
18.06028219831153
 20
11.25279989597017
 10
17.95444886500466
 20
11.04896490032749
 10
17.84861553169779
 20
10.84530592753227
 10
17.63959512905364
 20
10.44582072950524
 10
17.49142803178708
 20
10.16261073388242
 10
17.34329646206771
 20
9.879576761107037
 10
17.12901905903155
 20
9.46686185812048
 10
17.01517803190614
 20
9.249798234110619
 10
16.90151248933202
 20
9.030299358229621
 10
16.76382386530231
 20
8.770937497807266
 10
16.70829646222646
 20
8.673111858318917
 10
16.70829646222646
 20
8.673111858318917
 10
16.61308155916053
 20
8.493124997876718
 10
16.61308155916053
 20
8.493124997876718
 10
16.61308155916053
 20
8.493124997876718
 10
16.40663636539161
 20
8.871549358269307
 10
16.40663636539161
 20
8.871549358269307
 10
16.29297082281749
 20
9.080429803909363
 10
16.12621312903865
 20
9.387486858140324
 10
16.03621969881755
 20
9.554069067367884
 10
15.94626179614364
 20
9.720826761146723
 10
15.75579646246459
 20
10.07261730366132
 10
15.61288636559005
 20
10.33459043880226
 10
15.47001071967036
 20
10.59656249735086
 10
15.28755415640218
 20
10.93529989604954
 10
15.20278219902591
 20
11.08865240031757
 10
15.12079646262334
 20
11.24218092743305
 10
14.99912322623069
 20
11.46446656258392
 10
14.93558812933631
 20
11.58352906255415
 10
14.87205303244193
 20
11.7052022989468
 10
14.81391489294366
 20
11.80302740013898
 10
14.80590719912513
 20
11.80302740013898
 10
14.79807498985788
 20
11.80302740013898
 10
14.66303155320544
 20
11.56229166377609
 10
14.50428155324513
 20
11.26602906263352
 10
14.34553155328482
 20
10.97220009847358
 10
13.99631729623779
 20
10.32675822953501
 10
13.72651249012577
 20
9.831881567298431
 10
13.45917738683974
 20
9.337180927909301
 10
13.18672739335045
 20
8.83186185827923
 10
13.12058156003366
 20
8.7100131373353
 10
13.12058156003366
 20
8.7100131373353
 10
13.00151906006342
 20
8.490514261454303
 10
13.00151906006342
 20
8.490514261454303
 10
13.00151906006342
 20
8.490514261454303
 10
12.93798503976138
 20
8.60156906760601
 10
12.93798503976138
 20
8.60156906760601
 10
12.90355238697865
 20
8.662493428077974
 10
12.874449942867
 20
8.718020831153828
 10
12.874449942867
 20
8.72324230399866
 10
12.874449942867
 20
8.728639261394772
 10
12.78184577622348
 20
8.908450637285691
 10
12.66542738703818
 20
9.122903524873136
 10
12.5517273935092
 20
9.339791664331718
 10
12.31360239356873
 20
9.794804803730768
 10
12.13361660971887
 20
10.1361524005557
 10
11.39542846394802
 20
11.55428396995756
 10
11.38219929728466
 20
11.57552083043945
 10
11.25265940066991
 20
11.68936185756485
 10
11.09651906053967
 20
11.82426426062086
 10
10.88746313034834
 20
11.94071602416868
 10
10.69163636682036
 20
12.0094725939079
 10
10.69163636682036
 20
12.0094725939079
 10
10.47996970020661
 20
12.08083990006952
 10
10.47996970020661
 20
12.08083990006952
 10
10.47996970020661
 20
12.08083990006952
 10
8.450685727867796
 20
12.08884759388805
 10
8.450685727867796
 20
12.08884759388805
 10
6.511219701198801
 20
12.0966798031553
 10
6.418615534555285
 20
12.09406906673288
 10
6.418615534555285
 20
12.04916009389797
 10
6.418615534555285
 20
11.95916666367687
 10
6.677977933273811
 20
11.46968749713258
 10
6.823498766570763
 20
11.28447916384555
 10
6.99286719677202
 20
11.07020176080938
 10
7.132990534376691
 20
10.95374999726156
 10
7.323596363356003
 20
10.86375656704046
 10
7.323596363356003
 20
10.86375656704046
 10
7.463719700960675
 20
10.79761073372367
 10
7.463719700960675
 20
10.79761073372367
 10
7.463719700960675
 20
10.79761073372367
 10
8.59620656116475
 20
10.79761073372367
 10
8.59620656116475
 20
10.79761073372367
 10
9.868817297269665
 20
10.79761073372367
 10
9.768240426058645
 20
10.81083990038703
 10
10.14140886265155
 20
10.58072259426508
 10
10.41647013085942
 20
10.40874342764141
 10
10.55412322734194
 20
10.22875656719921
 10
10.86626179741364
 20
9.644062497588983
 10
11.02236553340435
 20
9.355631567417493
 10
11.42985896354607
 20
8.593736858338762
 10
11.77642803321583
 20
7.953339901101399
 10
12.12303155384044
 20
7.313118428415318
 10
12.53588749042343
 20
6.545826761940474
 10
12.69463749038374
 20
6.246777401528041
 10
12.85599822676647
 20
5.947903525666886
 10
13.00151906006342
 20
5.68854166524453
 10
13.01997077616395
 20
5.670091025736339
 10
13.05965827615403
 20
5.627617304772566
 10
13.08089406004358
 20
5.670091025736339
 10
14.37996312947521
 20
8.091028525131104
 10
14.60746969917474
 20
8.516972594781022
 10
14.79807498985788
 20
8.866152400873197
 10
14.80590719912513
 20
8.866152400873197
 10
14.81391489294366
 20
8.866152400873197
 10
14.8906791565014
 20
8.739257691635714
 10
14.97266489290397
 20
8.580507691675402
 10
15.05465062930654
 20
8.424368428137505
 10
15.2240190595078
 20
8.112089901061712
 10
15.34308155947803
 20
7.887194067784603
 10
15.46475479587068
 20
7.662298234507493
 10
15.6684492962131
 20
7.281263137692488
 10
15.79809469887708
 20
7.040527401329603
 10
15.92777562908826
 20
6.799791664966718
 10
16.08130415620374
 20
6.513971471217644
 10
16.13944229570201
 20
6.405527401488353
 10
16.20036665617397
 20
6.294472595336646
 10
16.31942915614421
 20
6.072187498481953
 10
16.40663636539161
 20
5.908216025676809
 10
16.4940190591903
 20
5.7466798047428
 10
16.56803262932153
 20
5.611777401686791
 10
16.56803262932153
 20
5.611777401686791
 10
16.57078332274804
 20
5.611777401686791
 10
16.67922739247733
 20
5.810214901637181
 10
16.81151905911092
 20
6.053736858973761
 10
16.81151905911092
 20
6.053736858973761
 10
16.81151905911092
 20
6.053736858973761
 10
16.81151905911092
 20
6.053736858973761
 97
        0
 97
        0
 92
        1
 93
        1
 72
     4
 94
        3
 73
     0
 74
     1
 95
      149
 96
      145
 40
0.0
 40
0.0
 40
0.0
 40
0.0
 40
1.0
 40
1.0
 40
1.0
 40
2.0
 40
2.0
 40
2.0
 40
3.0
 40
3.0
 40
3.0
 40
4.0
 40
4.0
 40
4.0
 40
5.0
 40
5.0
 40
5.0
 40
6.0
 40
6.0
 40
6.0
 40
7.0
 40
7.0
 40
7.0
 40
8.0
 40
8.0
 40
8.0
 40
9.0
 40
9.0
 40
9.0
 40
10.0
 40
10.0
 40
10.0
 40
11.0
 40
11.0
 40
11.0
 40
12.0
 40
12.0
 40
12.0
 40
13.0
 40
13.0
 40
13.0
 40
14.0
 40
14.0
 40
14.0
 40
15.0
 40
15.0
 40
15.0
 40
16.0
 40
16.0
 40
16.0
 40
17.0
 40
17.0
 40
17.0
 40
18.0
 40
18.0
 40
18.0
 40
19.0
 40
19.0
 40
19.0
 40
20.0
 40
20.0
 40
20.0
 40
21.0
 40
21.0
 40
21.0
 40
22.0
 40
22.0
 40
22.0
 40
23.0
 40
23.0
 40
23.0
 40
24.0
 40
24.0
 40
24.0
 40
25.0
 40
25.0
 40
25.0
 40
26.0
 40
26.0
 40
26.0
 40
27.0
 40
27.0
 40
27.0
 40
28.0
 40
28.0
 40
28.0
 40
29.0
 40
29.0
 40
29.0
 40
30.0
 40
30.0
 40
30.0
 40
31.0
 40
31.0
 40
31.0
 40
32.0
 40
32.0
 40
32.0
 40
33.0
 40
33.0
 40
33.0
 40
34.0
 40
34.0
 40
34.0
 40
35.0
 40
35.0
 40
35.0
 40
36.0
 40
36.0
 40
36.0
 40
37.0
 40
37.0
 40
37.0
 40
38.0
 40
38.0
 40
38.0
 40
39.0
 40
39.0
 40
39.0
 40
40.0
 40
40.0
 40
40.0
 40
41.0
 40
41.0
 40
41.0
 40
42.0
 40
42.0
 40
42.0
 40
43.0
 40
43.0
 40
43.0
 40
44.0
 40
44.0
 40
44.0
 40
45.0
 40
45.0
 40
45.0
 40
46.0
 40
46.0
 40
46.0
 40
47.0
 40
47.0
 40
47.0
 40
48.0
 40
48.0
 40
48.0
 40
48.0
 10
13.16813572024583
 20
9.46686185812048
 10
13.25809577610442
 20
9.638841024744153
 10
13.5306857265978
 20
10.14677083079664
 10
13.77403327597544
 20
10.59917323377327
 10
14.01755415671968
 20
11.04896490032749
 10
14.27151905974592
 20
11.52521490020843
 10
14.34288744249989
 20
11.65750656684202
 10
14.4673458232739
 20
11.89302083036008
 10
14.52548396277217
 20
11.99885416366695
 10
14.70271905319552
 20
12.3243618574061
 10
14.75037979604928
 20
12.41696602404962
 10
14.79807498985788
 20
12.49094406663366
 10
14.80590719912513
 20
12.49094406663366
 10
14.81391489294366
 20
12.49094406663366
 10
15.2240190595078
 20
11.7394923032446
 10
15.71871969889692
 20
10.82406906705038
 10
16.21084512941083
 20
9.906035094433756
 10
16.62369998940147
 20
9.16520176128563
 10
16.63153219866872
 20
9.175820191526574
 10
16.65015832272819
 20
9.196881567457181
 10
17.5417339620181
 20
10.91406249727148
 10
18.15288636495505
 20
12.10729823339624
 10
18.32486553157872
 20
12.44063813640264
 10
18.47303262884528
 20
12.72645833015172
 10
18.48626179550864
 20
12.74229823323749
 10
18.49684469820239
 20
12.75552739990085
 10
18.55776905867436
 20
12.89042980295686
 10
18.62391489199116
 20
13.03873685722751
 10
18.69006072530795
 20
13.1894791633693
 10
18.7878863647963
 20
13.37729823307874
 10
18.84344929541934
 20
13.4566732330589
 10
18.97849165547944
 20
13.6605076904054
 10
19.21386596199341
 20
13.89062499652734
 10
19.38584512861708
 20
13.98583989959327
 10
19.38584512861708
 20
13.98583989959327
 10
19.52871969794442
 20
14.06521489957343
 10
19.52871969794442
 20
14.06521489957343
 10
19.52871969794442
 20
14.06521489957343
 10
24.95267802992177
 20
14.09167323290015
 10
24.95267802992177
 20
14.09167323290015
 10
24.95267802992177
 20
14.09167323290015
 10
25.12465719654544
 20
14.17644519027642
 10
25.12465719654544
 20
14.17644519027642
 10
25.34433155697772
 20
14.28749999642812
 10
25.50830302978286
 20
14.42780043347258
 10
25.68828989022506
 20
14.66853509324313
 10
25.82580302970349
 20
14.85113376670008
 10
26.0506988629806
 20
15.25583989927577
 10
26.0506988629806
 20
15.31937499617016
 10
26.0506988629806
 20
15.34061185665204
 10
25.14328439719725
 20
15.34844406591929
 10
22.55036773117881
 20
15.34844406591929
 10
18.7006791555489
 20
15.34844406591929
 10
18.91756729500748
 20
15.35645283633016
 10
18.5656367954888
 20
15.18447366970648
 10
18.26672739208045
 20
15.04156249623961
 10
18.12381729520591
 20
14.8643618567711
 10
17.7640190588728
 20
14.19750656620703
 10
17.07610239237811
 20
12.92750656652452
 10
16.86965719860919
 20
12.54647146970952
 10
16.74276248937171
 20
12.3243618574061
 10
16.74276248937171
 20
12.3243618574061
 10
16.61308155916053
 20
12.08884759388805
 10
16.61308155916053
 20
12.08884759388805
 10
16.61308155916053
 20
12.08884759388805
 10
16.51246969869849
 20
12.27144519075267
 10
16.51246969869849
 20
12.27144519075267
 10
16.45694229562264
 20
12.36927083024101
 10
16.29558155923991
 20
12.67093092707587
 10
16.15006072594295
 20
12.94073573318788
 10
16.004539892646
 20
13.21071602385118
 10
15.84578989268569
 20
13.50175769044509
 10
15.79809469887708
 20
13.58896489969249
 10
15.36417738636349
 20
14.39072259331258
 10
15.03344821977951
 20
15.00187499624953
 10
14.93558812933631
 20
15.18186185669173
 10
14.87205303244193
 20
15.30353616967672
 10
14.81391489294366
 20
15.40136073257273
 10
14.80590719912513
 20
15.40136073257273
 10
14.79807498985788
 20
15.40136073257273
 10
14.60224822632991
 20
15.04678396908444
 10
14.36934577582661
 20
14.61561842658969
 10
14.13661665668991
 20
14.18427739954367
 10
13.86928155340388
 20
13.68696602373212
 10
13.77142146296068
 20
13.51220063613475
 10
13.67620655989475
 20
13.33499999666625
 10
13.46976244271817
 20
12.95396489985124
 10
13.31365655354279
 20
12.66292323325734
 10
13.15490655358247
 20
12.37188156666343
 10
13.01997077616395
 20
12.12592435745571
 10
13.00938572028552
 20
12.11269519079235
 10
12.99890832364101
 20
12.10207676055141
 10
12.89568572675655
 20
12.26865896977897
 10
12.77923503980107
 20
12.48311185736642
 10
12.66542738703818
 20
12.69477852398017
 10
12.5411100398606
 20
12.92489583010211
 10
12.50403327629294
 20
12.9910416634189
 10
11.44047739378702
 20
14.95417980244092
 10
11.4510969006203
 20
14.93833989935515
 10
11.17850479694224
 20
15.11031906597882
 10
11.10438679735411
 20
15.15801533637977
 10
10.96683813032849
 20
15.22938156594905
 10
10.86901356743249
 20
15.26645832951672
 10
10.86901356743249
 20
15.26645832951672
 10
10.69163636682036
 20
15.33521489925593
 10
10.69163636682036
 20
15.33521489925593
 10
10.69163636682036
 20
15.33521489925593
 10
7.114540433164669
 20
15.3432236696668
 10
7.114540433164669
 20
15.3432236696668
 10
7.114540433164669
 20
15.3432236696668
 10
3.537303465912549
 20
15.34844406591929
 10
3.537303465912549
 20
15.34844406591929
 10
3.537303465912549
 20
15.34844406591929
 10
3.603449299229346
 20
15.20292323262234
 10
3.603449299229346
 20
15.20292323262234
 10
3.838928035200207
 20
14.69238376673977
 10
4.193504798688494
 20
14.29011073285054
 10
4.540073868358254
 20
14.1499868569497
 10
4.540073868358254
 20
14.1499868569497
 10
4.685594701655207
 20
14.09167323290015
 10
4.685594701655207
 20
14.09167323290015
 10
4.685594701655207
 20
14.09167323290015
 10
10.08309470030583
 20
14.06521489957343
 10
10.08309470030583
 20
14.06521489957343
 10
10.08309470030583
 20
14.06521489957343
 10
10.19157375928615
 20
14.00707676007516
 10
10.19157375928615
 20
14.00707676007516
 10
10.49859690085842
 20
13.84292980271874
 10
10.73933156062897
 20
13.56511730278819
 10
10.93515940074928
 20
13.15240239980163
 10
11.09651906053967
 20
12.80844406655429
 10
11.30818572715342
 20
12.3905076907229
 10
11.92995763692365
 20
11.19448573362445
 10
12.50667738707786
 20
10.08062499747984
 10
12.86922739342983
 20
9.37686842789938
 10
12.93798503976138
 20
9.241966024843371
 10
12.96183156007334
 20
9.196881567457181
 10
12.98567915697765
 20
9.157194067467103
 10
12.99090170641482
 20
9.157194067467103
 10
12.99890832364101
 20
9.157194067467103
 10
13.07553155360232
 20
9.297493427919225
 10
13.16813572024583
 20
9.46686185812048
 10
13.16813572024583
 20
9.46686185812048
 10
13.16813572024583
 20
9.46686185812048
 10
13.16813572024583
 20
9.46686185812048
 97
        0
 97
        0
 92
        1
 93
        1
 72
     4
 94
        3
 73
     0
 74
     1
 95
       35
 96
       31
 40
0.0
 40
0.0
 40
0.0
 40
0.0
 40
1.0
 40
1.0
 40
1.0
 40
2.0
 40
2.0
 40
2.0
 40
3.0
 40
3.0
 40
3.0
 40
4.0
 40
4.0
 40
4.0
 40
5.0
 40
5.0
 40
5.0
 40
6.0
 40
6.0
 40
6.0
 40
7.0
 40
7.0
 40
7.0
 40
8.0
 40
8.0
 40
8.0
 40
9.0
 40
9.0
 40
9.0
 40
10.0
 40
10.0
 40
10.0
 40
10.0
 10
18.81434469812302
 20
12.2766666635975
 10
19.16631072518889
 20
12.40895833023109
 10
19.21661665541991
 20
12.41156906665351
 10
21.46017803079489
 20
12.41156906665351
 10
23.75944121720467
 20
12.41156906665351
 10
23.6536078838978
 20
12.40373685738626
 10
23.89974273084147
 20
12.57292980303624
 10
24.23308155725553
 20
12.80322259370946
 10
24.53735239051279
 20
13.22115896954085
 10
24.66428262729747
 20
13.62082019041532
 10
24.66428262729747
 20
13.62082019041532
 10
24.69871205030319
 20
13.73448573298945
 10
24.69871205030319
 20
13.73448573298945
 10
24.69871205030319
 20
13.73448573298945
 10
22.15871205093818
 20
13.73448573298945
 10
22.15871205093818
 20
13.73448573298945
 10
19.70870655838662
 20
13.73448573298945
 10
19.61610239174311
 20
13.73187499656703
 10
19.52088748867718
 20
13.68417980275843
 10
19.32767146157162
 20
13.58374342684766
 10
19.24032429532013
 20
13.45145176021407
 10
18.65559469816271
 20
12.37188156666343
 10
18.544539892011
 20
12.16561185744579
 10
18.53653219819247
 20
12.13915352411907
 10
18.59209512881552
 20
12.17605480313546
 10
18.62652562841357
 20
12.19990240003976
 10
18.72713748887561
 20
12.24498685742595
 10
18.81434469812302
 20
12.2766666635975
 10
18.81434469812302
 20
12.2766666635975
 10
18.81434469812302
 20
12.2766666635975
 10
18.81434469812302
 20
12.2766666635975
 97
        0
 97
        0
 92
        1
 93
        1
 72
     4
 94
        3
 73
     0
 74
     1
 95
       41
 96
       37
 40
0.0
 40
0.0
 40
0.0
 40
0.0
 40
1.0
 40
1.0
 40
1.0
 40
2.0
 40
2.0
 40
2.0
 40
3.0
 40
3.0
 40
3.0
 40
4.0
 40
4.0
 40
4.0
 40
5.0
 40
5.0
 40
5.0
 40
6.0
 40
6.0
 40
6.0
 40
7.0
 40
7.0
 40
7.0
 40
8.0
 40
8.0
 40
8.0
 40
9.0
 40
9.0
 40
9.0
 40
10.0
 40
10.0
 40
10.0
 40
11.0
 40
11.0
 40
11.0
 40
12.0
 40
12.0
 40
12.0
 40
12.0
 10
11.04882386673107
 20
12.18928396979882
 10
11.04882386673107
 20
12.20791009385829
 10
10.59120106750194
 20
13.04917980291718
 10
10.44568023420499
 20
13.29792323309859
 10
10.32661773423475
 20
13.50175769044509
 10
10.26830303359286
 20
13.56511730278819
 10
10.12542792596935
 20
13.65772146943171
 10
10.12542792596935
 20
13.65772146943171
 10
10.00636542599911
 20
13.73448573298945
 10
10.00636542599911
 20
13.73448573298945
 10
10.00636542599911
 20
13.73448573298945
 10
4.9078797985099
 20
13.73448573298945
 10
4.9078797985099
 20
13.73448573298945
 10
4.9078797985099
 20
13.73448573298945
 10
4.926365965565283
 20
13.67373685706876
 10
4.926365965565283
 20
13.67373685706876
 10
5.066629798470212
 20
13.21071602385118
 10
5.476733965034353
 20
12.68154935731681
 10
5.833922003241226
 20
12.50156249687461
 10
5.833922003241226
 20
12.50156249687461
 10
5.982052496368256
 20
12.42479823331687
 10
5.982052496368256
 20
12.42479823331687
 10
5.982052496368256
 20
12.42479823331687
 10
10.45351136687989
 20
12.39833989999015
 10
10.45351136687989
 20
12.39833989999015
 10
10.45351136687989
 20
12.39833989999015
 10
10.66517803349364
 20
12.3243618574061
 10
10.66517803349364
 20
12.3243618574061
 10
10.78162979704146
 20
12.28467435741603
 10
10.90594929740372
 20
12.23436842718501
 10
10.94299053342419
 20
12.21313156670312
 10
11.01453440072944
 20
12.17083333029062
 10
11.04882386673107
 20
12.16561185744579
 10
11.04882386673107
 20
12.18928396979882
 10
11.04882386673107
 20
12.18928396979882
 10
11.04882386673107
 20
12.18928396979882
 10
11.04882386673107
 20
12.18928396979882
 97
        0
 97
        0
 75
     2
 76
     1
 98
        0
  0
ENDSEC
  0
SECTION
  2
OBJECTS
  0
DICTIONARY
  5
C
330
0
100
AcDbDictionary
281
     1
  3
ACAD_GROUP
350
D
  3
ACAD_LAYOUT
350
1A
  3
ACAD_MATERIAL
350
3B
  3
ACAD_MLEADERSTYLE
350
64
  3
ACAD_MLINESTYLE
350
17
  3
ACAD_PLOTSETTINGS
350
19
  3
ACAD_PLOTSTYLENAME
350
E
  3
ACAD_TABLESTYLE
350
63
  3
ACAD_VISUALSTYLE
350
2A
  0
SUN
  5
3F
330
29
100
AcDbSun
 90
        1
290
     0
 63
     7
421
 16777215
 40
1.0
291
     1
 91
  2455826
 92
 54000000
292
     0
 70
     2
 71
   256
280
     1
  0
DICTIONARY
  5
D
102
{ACAD_REACTORS
330
C
102
}
330
C
100
AcDbDictionary
281
     1
  0
DICTIONARY
  5
1A
102
{ACAD_REACTORS
330
C
102
}
330
C
100
AcDbDictionary
281
     1
  3
Layout1
350
1E
  3
Layout2
350
26
  3
Model
350
22
  0
DICTIONARY
  5
3B
102
{ACAD_REACTORS
330
C
102
}
330
C
100
AcDbDictionary
281
     1
  3
ByBlock
350
3D
  3
ByLayer
350
3C
  3
Global
350
3E
  0
DICTIONARY
  5
64
102
{ACAD_REACTORS
330
C
102
}
330
C
100
AcDbDictionary
281
     1
  0
DICTIONARY
  5
17
102
{ACAD_REACTORS
330
C
102
}
330
C
100
AcDbDictionary
281
     1
  3
Standard
350
18
  0
DICTIONARY
  5
19
102
{ACAD_REACTORS
330
C
102
}
330
C
100
AcDbDictionary
281
     1
  0
ACDBDICTIONARYWDFLT
  5
E
102
{ACAD_REACTORS
330
C
102
}
330
C
100
AcDbDictionary
281
     1
  3
Normal
350
F
100
AcDbDictionaryWithDefault
340
F
  0
DICTIONARY
  5
63
102
{ACAD_REACTORS
330
C
102
}
330
C
100
AcDbDictionary
281
     1
  0
DICTIONARY
  5
2A
102
{ACAD_REACTORS
330
C
102
}
330
C
100
AcDbDictionary
281
     1
  3
2dWireframe
350
2F
  3
3D Hidden
350
31
  3
3dWireframe
350
30
  3
Basic
350
32
  3
Brighten
350
36
  3
ColorChange
350
3A
  3
Conceptual
350
34
  3
Dim
350
35
  3
Facepattern
350
39
  3
Flat
350
2B
  3
FlatWithEdges
350
2C
  3
Gouraud
350
2D
  3
GouraudWithEdges
350
2E
  3
Linepattern
350
38
  3
Realistic
350
33
  3
Thicken
350
37
  0
LAYOUT
  5
1E
102
{ACAD_REACTORS
330
1A
102
}
330
1A
100
AcDbPlotSettings
  1

  2
none_device
  4

  6

 40
0.0
 41
0.0
 42
0.0
 43
0.0
 44
0.0
 45
0.0
 46
0.0
 47
0.0
 48
0.0
 49
0.0
140
0.0
141
0.0
142
1.0
143
1.0
 70
   688
 72
     0
 73
     0
 74
     5
  7

 75
    16
 76
     0
 77
     2
 78
   300
147
1.0
148
0.0
149
0.0
100
AcDbLayout
  1
Layout1
 70
     1
 71
     1
 10
0.0
 20
0.0
 11
12.0
 21
9.0
 12
0.0
 22
0.0
 32
0.0
 14
1.000000000000000E+20
 24
1.000000000000000E+20
 34
1.000000000000000E+20
 15
-1.000000000000000E+20
 25
-1.000000000000000E+20
 35
-1.000000000000000E+20
146
0.0
 13
0.0
 23
0.0
 33
0.0
 16
1.0
 26
0.0
 36
0.0
 17
0.0
 27
1.0
 37
0.0
 76
     0
330
1B
  0
LAYOUT
  5
26
102
{ACAD_REACTORS
330
1A
102
}
330
1A
100
AcDbPlotSettings
  1

  2
none_device
  4

  6

 40
0.0
 41
0.0
 42
0.0
 43
0.0
 44
0.0
 45
0.0
 46
0.0
 47
0.0
 48
0.0
 49
0.0
140
0.0
141
0.0
142
1.0
143
1.0
 70
   688
 72
     0
 73
     0
 74
     5
  7

 75
    16
 76
     0
 77
     2
 78
   300
147
1.0
148
0.0
149
0.0
100
AcDbLayout
  1
Layout2
 70
     1
 71
     2
 10
0.0
 20
0.0
 11
0.0
 21
0.0
 12
0.0
 22
0.0
 32
0.0
 14
0.0
 24
0.0
 34
0.0
 15
0.0
 25
0.0
 35
0.0
146
0.0
 13
0.0
 23
0.0
 33
0.0
 16
1.0
 26
0.0
 36
0.0
 17
0.0
 27
1.0
 37
0.0
 76
     0
330
23
  0
LAYOUT
  5
22
102
{ACAD_REACTORS
330
1A
102
}
330
1A
100
AcDbPlotSettings
  1

  2
none_device
  4

  6

 40
0.0
 41
0.0
 42
0.0
 43
0.0
 44
0.0
 45
0.0
 46
0.0
 47
0.0
 48
0.0
 49
0.0
140
0.0
141
0.0
142
1.0
143
1.0
 70
  1712
 72
     0
 73
     0
 74
     0
  7

 75
     0
 76
     0
 77
     2
 78
   300
147
1.0
148
0.0
149
0.0
100
AcDbLayout
  1
Model
 70
     1
 71
     0
 10
0.0
 20
0.0
 11
12.0
 21
9.0
 12
0.0
 22
0.0
 32
0.0
 14
1.000000000000000E+20
 24
1.000000000000000E+20
 34
1.000000000000000E+20
 15
-1.000000000000000E+20
 25
-1.000000000000000E+20
 35
-1.000000000000000E+20
146
0.0
 13
0.0
 23
0.0
 33
0.0
 16
1.0
 26
0.0
 36
0.0
 17
0.0
 27
1.0
 37
0.0
 76
     0
330
1F
331
29
  0
MATERIAL
  5
3D
102
{ACAD_REACTORS
330
3B
102
}
330
3B
100
AcDbMaterial
  1
ByBlock
 72
     1
 94
      127
  0
MATERIAL
  5
3C
102
{ACAD_REACTORS
330
3B
102
}
330
3B
100
AcDbMaterial
  1
ByLayer
 72
     1
 94
      127
  0
MATERIAL
  5
3E
102
{ACAD_REACTORS
330
3B
102
}
330
3B
100
AcDbMaterial
  1
Global
 72
     1
 94
      127
  0
MLINESTYLE
  5
18
102
{ACAD_REACTORS
330
17
102
}
330
17
100
AcDbMlineStyle
  2
Standard
 70
     0
  3

 62
   256
 51
90.0
 52
90.0
 71
     2
 49
0.5
 62
   256
  6
BYLAYER
 49
-0.5
 62
   256
  6
BYLAYER
  0
ACDBPLACEHOLDER
  5
F
102
{ACAD_REACTORS
330
E
102
}
330
E
  0
VISUALSTYLE
  5
2F
102
{ACAD_REACTORS
330
2A
102
}
330
2A
100
AcDbVisualStyle
  2
2dWireframe
 70
     4
177
     2
291
     0
 71
     0
176
     1
 72
     2
176
     1
 73
     0
176
     1
 90
        0
176
     1
 40
-0.6
176
     1
 41
-30.0
176
     1
 62
     5
 63
     7
421
 16777215
176
     1
 74
     1
176
     1
 91
        4
176
     1
 64
     7
176
     1
 65
   257
176
     1
 75
     1
176
     1
175
     1
176
     1
 42
1.0
176
     1
 92
        0
176
     1
 66
   257
176
     1
 43
1.0
176
     1
 76
     1
176
     1
 77
     6
176
     1
 78
     2
176
     1
 67
     7
176
     1
 79
     5
176
     1
170
     0
176
     1
171
     0
176
     1
290
     0
176
     1
 93
        1
176
     1
 44
0.0
176
     1
173
     0
176
     1
  0
VISUALSTYLE
  5
31
102
{ACAD_REACTORS
330
2A
102
}
330
2A
100
AcDbVisualStyle
  2
3D Hidden
 70
     6
177
     2
291
     0
 71
     1
176
     1
 72
     2
176
     1
 73
     2
176
     1
 90
        0
176
     1
 40
-0.6
176
     1
 41
-30.0
176
     1
 62
     5
 63
     7
421
 16777215
176
     1
 74
     2
176
     1
 91
        2
176
     1
 64
     7
176
     1
 65
   257
176
     1
 75
     2
176
     1
175
     1
176
     1
 42
40.0
176
     1
 92
        0
176
     1
 66
   257
176
     1
 43
1.0
176
     1
 76
     1
176
     1
 77
     6
176
     1
 78
     2
176
     1
 67
     7
176
     1
 79
     3
176
     1
170
     0
176
     1
171
     0
176
     1
290
     0
176
     1
 93
        1
176
     1
 44
0.0
176
     1
173
     0
176
     1
  0
VISUALSTYLE
  5
30
102
{ACAD_REACTORS
330
2A
102
}
330
2A
100
AcDbVisualStyle
  2
3dWireframe
 70
     5
177
     2
291
     0
 71
     0
176
     1
 72
     2
176
     1
 73
     0
176
     1
 90
        0
176
     1
 40
-0.6
176
     1
 41
-30.0
176
     1
 62
     5
 63
     7
421
 16777215
176
     1
 74
     1
176
     1
 91
        4
176
     1
 64
     7
176
     1
 65
   257
176
     1
 75
     1
176
     1
175
     1
176
     1
 42
1.0
176
     1
 92
        0
176
     1
 66
   257
176
     1
 43
1.0
176
     1
 76
     1
176
     1
 77
     6
176
     1
 78
     2
176
     1
 67
     7
176
     1
 79
     5
176
     1
170
     0
176
     1
171
     0
176
     1
290
     0
176
     1
 93
        1
176
     1
 44
0.0
176
     1
173
     0
176
     1
  0
VISUALSTYLE
  5
32
102
{ACAD_REACTORS
330
2A
102
}
330
2A
100
AcDbVisualStyle
  2
Basic
 70
     7
177
     2
291
     1
 71
     1
176
     1
 72
     0
176
     1
 73
     1
176
     1
 90
        0
176
     1
 40
-0.6
176
     1
 41
-30.0
176
     1
 62
     5
 63
     7
421
 16777215
176
     1
 74
     0
176
     1
 91
        4
176
     1
 64
     7
176
     1
 65
   257
176
     1
 75
     1
176
     1
175
     1
176
     1
 42
1.0
176
     1
 92
        8
176
     1
 66
     7
176
     1
 43
1.0
176
     1
 76
     1
176
     1
 77
     6
176
     1
 78
     2
176
     1
 67
     7
176
     1
 79
     5
176
     1
170
     0
176
     1
171
     0
176
     1
290
     0
176
     1
 93
        1
176
     1
 44
0.0
176
     1
173
     0
176
     1
  0
VISUALSTYLE
  5
36
102
{ACAD_REACTORS
330
2A
102
}
330
2A
100
AcDbVisualStyle
  2
Brighten
 70
    12
177
     2
291
     1
 71
     2
176
     1
 72
     2
176
     1
 73
     0
176
     1
 90
        0
176
     1
 40
-0.6
176
     1
 41
-30.0
176
     1
 62
     5
 63
     7
421
 16777215
176
     1
 74
     1
176
     1
 91
        4
176
     1
 64
     7
176
     1
 65
   257
176
     1
 75
     1
176
     1
175
     1
176
     1
 42
1.0
176
     1
 92
        8
176
     1
 66
     7
176
     1
 43
1.0
176
     1
 76
     1
176
     1
 77
     6
176
     1
 78
     2
176
     1
 67
     7
176
     1
 79
     5
176
     1
170
     0
176
     1
171
     0
176
     1
290
     0
176
     1
 93
        1
176
     1
 44
50.0
176
     1
173
     0
176
     1
  0
VISUALSTYLE
  5
3A
102
{ACAD_REACTORS
330
2A
102
}
330
2A
100
AcDbVisualStyle
  2
ColorChange
 70
    16
177
     2
291
     1
 71
     2
176
     1
 72
     2
176
     1
 73
     3
176
     1
 90
        0
176
     1
 40
-0.6
176
     1
 41
-30.0
176
     1
 62
     5
 63
     8
421
  8421504
176
     1
 74
     1
176
     1
 91
        4
176
     1
 64
     7
176
     1
 65
   257
176
     1
 75
     1
176
     1
175
     1
176
     1
 42
1.0
176
     1
 92
        8
176
     1
 66
     8
424
  8421504
176
     1
 43
1.0
176
     1
 76
     1
176
     1
 77
     6
176
     1
 78
     2
176
     1
 67
     7
176
     1
 79
     5
176
     1
170
     0
176
     1
171
     0
176
     1
290
     0
176
     1
 93
        1
176
     1
 44
0.0
176
     1
173
     0
176
     1
  0
VISUALSTYLE
  5
34
102
{ACAD_REACTORS
330
2A
102
}
330
2A
100
AcDbVisualStyle
  2
Conceptual
 70
     9
177
     2
291
     0
 71
     3
176
     1
 72
     2
176
     1
 73
     0
176
     1
 90
        0
176
     1
 40
-0.6
176
     1
 41
-30.0
176
     1
 62
     5
 63
     7
421
 16777215
176
     1
 74
     2
176
     1
 91
        2
176
     1
 64
     7
176
     1
 65
   257
176
     1
 75
     1
176
     1
175
     1
176
     1
 42
40.0
176
     1
 92
        8
176
     1
 66
     7
176
     1
 43
1.0
176
     1
 76
     1
176
     1
 77
     6
176
     1
 78
     2
176
     1
 67
     7
176
     1
 79
     3
176
     1
170
     0
176
     1
171
     0
176
     1
290
     0
176
     1
 93
        1
176
     1
 44
0.0
176
     1
173
     0
176
     1
  0
VISUALSTYLE
  5
35
102
{ACAD_REACTORS
330
2A
102
}
330
2A
100
AcDbVisualStyle
  2
Dim
 70
    11
177
     2
291
     1
 71
     2
176
     1
 72
     2
176
     1
 73
     0
176
     1
 90
        0
176
     1
 40
-0.6
176
     1
 41
-30.0
176
     1
 62
     5
 63
     7
421
 16777215
176
     1
 74
     1
176
     1
 91
        4
176
     1
 64
     7
176
     1
 65
   257
176
     1
 75
     1
176
     1
175
     1
176
     1
 42
1.0
176
     1
 92
        8
176
     1
 66
     7
176
     1
 43
1.0
176
     1
 76
     1
176
     1
 77
     6
176
     1
 78
     2
176
     1
 67
     7
176
     1
 79
     5
176
     1
170
     0
176
     1
171
     0
176
     1
290
     0
176
     1
 93
        1
176
     1
 44
-50.0
176
     1
173
     0
176
     1
  0
VISUALSTYLE
  5
39
102
{ACAD_REACTORS
330
2A
102
}
330
2A
100
AcDbVisualStyle
  2
Facepattern
 70
    15
177
     2
291
     1
 71
     2
176
     1
 72
     2
176
     1
 73
     0
176
     1
 90
        0
176
     1
 40
-0.6
176
     1
 41
-30.0
176
     1
 62
     5
 63
     7
421
 16777215
176
     1
 74
     1
176
     1
 91
        4
176
     1
 64
     7
176
     1
 65
   257
176
     1
 75
     1
176
     1
175
     1
176
     1
 42
1.0
176
     1
 92
        8
176
     1
 66
     7
176
     1
 43
1.0
176
     1
 76
     1
176
     1
 77
     6
176
     1
 78
     2
176
     1
 67
     7
176
     1
 79
     5
176
     1
170
     0
176
     1
171
     0
176
     1
290
     0
176
     1
 93
        1
176
     1
 44
0.0
176
     1
173
     0
176
     1
  0
VISUALSTYLE
  5
2B
102
{ACAD_REACTORS
330
2A
102
}
330
2A
100
AcDbVisualStyle
  2
Flat
 70
     0
177
     2
291
     1
 71
     2
176
     1
 72
     1
176
     1
 73
     1
176
     1
 90
        2
176
     1
 40
-0.6
176
     1
 41
30.0
176
     1
 62
     5
 63
     7
421
 16777215
176
     1
 74
     0
176
     1
 91
        4
176
     1
 64
     7
176
     1
 65
   257
176
     1
 75
     1
176
     1
175
     1
176
     1
 42
1.0
176
     1
 92
        8
176
     1
 66
     7
176
     1
 43
1.0
176
     1
 76
     1
176
     1
 77
     6
176
     1
 78
     2
176
     1
 67
     7
176
     1
 79
     5
176
     1
170
     0
176
     1
171
     0
176
     1
290
     0
176
     1
 93
       13
176
     1
 44
0.0
176
     1
173
     0
176
     1
  0
VISUALSTYLE
  5
2C
102
{ACAD_REACTORS
330
2A
102
}
330
2A
100
AcDbVisualStyle
  2
FlatWithEdges
 70
     1
177
     2
291
     1
 71
     2
176
     1
 72
     1
176
     1
 73
     1
176
     1
 90
        2
176
     1
 40
-0.6
176
     1
 41
30.0
176
     1
 62
     5
 63
     7
421
 16777215
176
     1
 74
     1
176
     1
 91
        4
176
     1
 64
     7
176
     1
 65
   257
176
     1
 75
     1
176
     1
175
     1
176
     1
 42
1.0
176
     1
 92
        0
176
     1
 66
   257
176
     1
 43
1.0
176
     1
 76
     1
176
     1
 77
     6
176
     1
 78
     2
176
     1
 67
     7
176
     1
 79
     5
176
     1
170
     0
176
     1
171
     0
176
     1
290
     0
176
     1
 93
       13
176
     1
 44
0.0
176
     1
173
     0
176
     1
  0
VISUALSTYLE
  5
2D
102
{ACAD_REACTORS
330
2A
102
}
330
2A
100
AcDbVisualStyle
  2
Gouraud
 70
     2
177
     2
291
     1
 71
     2
176
     1
 72
     2
176
     1
 73
     1
176
     1
 90
        2
176
     1
 40
-0.6
176
     1
 41
30.0
176
     1
 62
     5
 63
     7
421
 16777215
176
     1
 74
     0
176
     1
 91
        4
176
     1
 64
     7
176
     1
 65
   257
176
     1
 75
     1
176
     1
175
     1
176
     1
 42
1.0
176
     1
 92
        0
176
     1
 66
     7
176
     1
 43
1.0
176
     1
 76
     1
176
     1
 77
     6
176
     1
 78
     2
176
     1
 67
     7
176
     1
 79
     5
176
     1
170
     0
176
     1
171
     0
176
     1
290
     0
176
     1
 93
       13
176
     1
 44
0.0
176
     1
173
     0
176
     1
  0
VISUALSTYLE
  5
2E
102
{ACAD_REACTORS
330
2A
102
}
330
2A
100
AcDbVisualStyle
  2
GouraudWithEdges
 70
     3
177
     2
291
     1
 71
     2
176
     1
 72
     2
176
     1
 73
     1
176
     1
 90
        2
176
     1
 40
-0.6
176
     1
 41
30.0
176
     1
 62
     5
 63
     7
421
 16777215
176
     1
 74
     1
176
     1
 91
        4
176
     1
 64
     7
176
     1
 65
   257
176
     1
 75
     1
176
     1
175
     1
176
     1
 42
1.0
176
     1
 92
        0
176
     1
 66
   257
176
     1
 43
1.0
176
     1
 76
     1
176
     1
 77
     6
176
     1
 78
     2
176
     1
 67
     7
176
     1
 79
     5
176
     1
170
     0
176
     1
171
     0
176
     1
290
     0
176
     1
 93
       13
176
     1
 44
0.0
176
     1
173
     0
176
     1
  0
VISUALSTYLE
  5
38
102
{ACAD_REACTORS
330
2A
102
}
330
2A
100
AcDbVisualStyle
  2
Linepattern
 70
    14
177
     2
291
     1
 71
     2
176
     1
 72
     2
176
     1
 73
     0
176
     1
 90
        0
176
     1
 40
-0.6
176
     1
 41
-30.0
176
     1
 62
     5
 63
     7
421
 16777215
176
     1
 74
     1
176
     1
 91
        4
176
     1
 64
     7
176
     1
 65
   257
176
     1
 75
     7
176
     1
175
     7
176
     1
 42
1.0
176
     1
 92
        8
176
     1
 66
     7
176
     1
 43
1.0
176
     1
 76
     1
176
     1
 77
     6
176
     1
 78
     2
176
     1
 67
     7
176
     1
 79
     5
176
     1
170
     0
176
     1
171
     0
176
     1
290
     0
176
     1
 93
        1
176
     1
 44
0.0
176
     1
173
     0
176
     1
  0
VISUALSTYLE
  5
33
102
{ACAD_REACTORS
330
2A
102
}
330
2A
100
AcDbVisualStyle
  2
Realistic
 70
     8
177
     2
291
     0
 71
     2
176
     1
 72
     2
176
     1
 73
     0
176
     1
 90
        0
176
     1
 40
-0.6
176
     1
 41
-30.0
176
     1
 62
     5
 63
     7
421
 16777215
176
     1
 74
     1
176
     1
 91
        0
176
     1
 64
     7
176
     1
 65
   257
176
     1
 75
     1
176
     1
175
     1
176
     1
 42
1.0
176
     1
 92
        8
176
     1
 66
     8
424
  7895160
176
     1
 43
1.0
176
     1
 76
     1
176
     1
 77
     6
176
     1
 78
     2
176
     1
 67
     7
176
     1
 79
     5
176
     1
170
     0
176
     1
171
     0
176
     1
290
     0
176
     1
 93
       13
176
     1
 44
0.0
176
     1
173
     0
176
     1
  0
VISUALSTYLE
  5
37
102
{ACAD_REACTORS
330
2A
102
}
330
2A
100
AcDbVisualStyle
  2
Thicken
 70
    13
177
     2
291
     1
 71
     2
176
     1
 72
     2
176
     1
 73
     0
176
     1
 90
        0
176
     1
 40
-0.6
176
     1
 41
-30.0
176
     1
 62
     5
 63
     7
421
 16777215
176
     1
 74
     1
176
     1
 91
        4
176
     1
 64
     7
176
     1
 65
   257
176
     1
 75
     1
176
     1
175
     1
176
     1
 42
1.0
176
     1
 92
       12
176
     1
 66
     7
176
     1
 43
1.0
176
     1
 76
     1
176
     1
 77
     6
176
     1
 78
     2
176
     1
 67
     7
176
     1
 79
     5
176
     1
170
     0
176
     1
171
     0
176
     1
290
     0
176
     1
 93
        1
176
     1
 44
0.0
176
     1
173
     0
176
     1
  0
ENDSEC
  0
EOF
